<svg width="816" height="850" viewBox="0 0 816 850" fill="none" xmlns="http://www.w3.org/2000/svg">
<line x1="143.679" y1="32.6938" x2="135.946" y2="306.737" stroke="#3B9EF0"/>
<line x1="35.1003" y1="181.348" x2="135.839" y2="306.409" stroke="#3B9EF0"/>
<line x1="136.518" y1="307.578" x2="242.187" y2="471.094" stroke="#3B9EF0"/>
<line x1="42.8796" y1="442.314" x2="241.839" y2="470.869" stroke="#3B9EF0"/>
<line x1="385.166" y1="569.309" x2="174.782" y2="583.394" stroke="#3B9EF0"/>
<line x1="384.852" y1="569.224" x2="241.485" y2="471.777" stroke="#3B9EF0"/>
<line x1="429.677" y1="895.369" x2="313.14" y2="754.648" stroke="#3B9EF0"/>
<line x1="183.75" y1="846.598" x2="71.1314" y2="698.359" stroke="#3B9EF0"/>
<line x1="176.011" y1="583.469" x2="71.9043" y2="698.392" stroke="#3B9EF0"/>
<line x1="72.2404" y1="698.762" x2="-80.7115" y2="640.64" stroke="#3B9EF0"/>
<line x1="73.6206" y1="698.92" x2="-43.3183" y2="794.218" stroke="#3B9EF0"/>
<line x1="184.036" y1="846.783" x2="-43.7448" y2="794.318" stroke="#3B9EF0"/>
<line x1="429.078" y1="895.302" x2="184.1" y2="846.551" stroke="#3B9EF0"/>
<line x1="312.039" y1="754.258" x2="184.44" y2="846.701" stroke="#3B9EF0"/>
<line x1="536.798" y1="967.75" x2="384.669" y2="568.99" stroke="#3B9EF0"/>
<line x1="313.947" y1="754.39" x2="384.667" y2="568.634" stroke="#3B9EF0"/>
<line x1="183.414" y1="847.201" x2="174.252" y2="582.913" stroke="#3B9EF0"/>
<line x1="71.6831" y1="699.241" x2="41.4215" y2="442.629" stroke="#3B9EF0"/>
<line x1="-81.1948" y1="640.799" x2="41.4955" y2="442.308" stroke="#3B9EF0"/>
<line x1="41.008" y1="440.571" x2="33.3206" y2="181.438" stroke="#3B9EF0"/>
<line x1="135.862" y1="307.006" x2="42.0959" y2="443.742" stroke="#3B9EF0"/>
<line x1="144.711" y1="32.3271" x2="34.2236" y2="181.721" stroke="#3B9EF0"/>
<line x1="174.147" y1="584.127" x2="41.5554" y2="442.914" stroke="#3B9EF0"/>
<line x1="241.787" y1="469.603" x2="175.182" y2="583.149" stroke="#3B9EF0"/>
<line x1="314.026" y1="754.884" x2="174.362" y2="583.212" stroke="#3B9EF0"/>
<line x1="144.31" y1="34.3318" x2="72.6307" y2="-67.709" stroke="#3B9EF0"/>
<line x1="33.3264" y1="181.346" x2="72.5468" y2="-68.074" stroke="#3B9EF0"/>
<line x1="33.689" y1="182.8" x2="4.35661" y2="189.223" stroke="#3B9EF0"/>
<circle cx="41.683" cy="443.46" r="8.27711" transform="rotate(105 41.683 443.46)" fill="#539FFF"/>
<circle cx="135.449" cy="306.723" r="8.27711" transform="rotate(105 135.449 306.723)" fill="#539FFF"/>
<circle cx="174.753" cy="582.896" r="8.27711" transform="rotate(105 174.753 582.896)" fill="#539FFF"/>
<circle cx="71.5345" cy="698.057" r="8.27711" transform="rotate(105 71.5345 698.057)" fill="#539FFF"/>
<circle cx="184.152" cy="846.296" r="8.27711" transform="rotate(105 184.152 846.296)" fill="#539FFF"/>
<circle cx="313.527" cy="754.33" r="8.27711" transform="rotate(105 313.527 754.33)" fill="#539FFF"/>
<circle cx="384.898" cy="569.7" r="8.27711" transform="rotate(105 384.898 569.7)" fill="#539FFF"/>
<circle cx="241.769" cy="471.365" r="8.27711" transform="rotate(105 241.769 471.365)" fill="#539FFF"/>
<circle cx="33.8197" cy="181.424" r="8.27711" transform="rotate(105 33.8197 181.424)" fill="#539FFF"/>
<circle cx="143.421" cy="31.7918" r="8.27711" transform="rotate(105 143.421 31.7918)" fill="#539FFF"/>
</svg>
