<svg width="557" height="715" viewBox="0 0 557 715" fill="none" xmlns="http://www.w3.org/2000/svg">
<line x1="611.344" y1="368.648" x2="466.955" y2="238.053" stroke="#1566C2"/>
<line x1="666.919" y1="214.267" x2="467.349" y2="238.179" stroke="#1566C2"/>
<line x1="303.428" y1="180.189" x2="502.999" y2="112.133" stroke="#1566C2"/>
<line x1="303.754" y1="180.19" x2="467.457" y2="237.21" stroke="#1566C2"/>
<line x1="501.793" y1="112.378" x2="572.609" y2="-25.5742" stroke="#1566C2"/>
<line x1="53.8387" y1="-165.43" x2="303.991" y2="180.369" stroke="#1566C2"/>
<line x1="324.318" y1="-17.018" x2="304.085" y2="180.713" stroke="#1566C2"/>
<line x1="426.384" y1="-140.452" x2="503.637" y2="112.46" stroke="#1566C2"/>
<line x1="503.42" y1="111.261" x2="668.042" y2="213.345" stroke="#1566C2"/>
<line x1="467.729" y1="239.389" x2="502.677" y2="112.474" stroke="#1566C2"/>
<line x1="324.113" y1="-17.474" x2="503.451" y2="112.201" stroke="#1566C2"/>
<circle cx="503.156" cy="112.605" r="8.27711" transform="rotate(-90 503.156 112.605)" fill="#1667C4"/>
<circle cx="303.586" cy="179.742" r="8.27711" transform="rotate(-90 303.586 179.742)" fill="#1667C4"/>
<circle cx="467.289" cy="237.682" r="8.27711" transform="rotate(-90 467.289 237.682)" fill="#1667C4"/>
</svg>
