<svg width="393" height="311" viewBox="0 0 393 311" fill="none" xmlns="http://www.w3.org/2000/svg">
<circle cx="9.36529" cy="9.35687" r="9.35346" transform="rotate(90 9.36529 9.35687)" fill="#1669C8"/>
<circle cx="50.3458" cy="9.35687" r="9.35346" transform="rotate(90 50.3458 9.35687)" fill="#1669C8"/>
<circle cx="92.213" cy="9.35687" r="9.35346" transform="rotate(90 92.213 9.35687)" fill="#1669C8"/>
<circle cx="134.08" cy="9.35687" r="9.35346" transform="rotate(90 134.08 9.35687)" fill="#1669C8"/>
<circle cx="175.057" cy="9.35687" r="9.35346" transform="rotate(90 175.057 9.35687)" fill="#1669C8"/>
<circle cx="216.928" cy="9.35687" r="9.35346" transform="rotate(90 216.928 9.35687)" fill="#1669C8"/>
<circle cx="258.791" cy="9.35687" r="9.35346" transform="rotate(90 258.791 9.35687)" fill="#1669C8"/>
<circle cx="300.658" cy="9.35687" r="9.35346" transform="rotate(90 300.658 9.35687)" fill="#1669C8"/>
<circle cx="341.639" cy="9.35687" r="9.35346" transform="rotate(90 341.639 9.35687)" fill="#1669C8"/>
<circle cx="383.506" cy="9.35687" r="9.35346" transform="rotate(90 383.506 9.35687)" fill="#1669C8"/>
<circle cx="9.36529" cy="51.2245" r="9.35346" transform="rotate(90 9.36529 51.2245)" fill="#1669C8"/>
<circle cx="50.3458" cy="51.2245" r="9.35346" transform="rotate(90 50.3458 51.2245)" fill="#1669C8"/>
<circle cx="92.213" cy="51.2245" r="9.35346" transform="rotate(90 92.213 51.2245)" fill="#1669C8"/>
<circle cx="134.08" cy="51.2245" r="9.35346" transform="rotate(90 134.08 51.2245)" fill="#1669C8"/>
<circle cx="175.057" cy="51.2245" r="9.35346" transform="rotate(90 175.057 51.2245)" fill="#1669C8"/>
<circle cx="216.928" cy="51.2245" r="9.35346" transform="rotate(90 216.928 51.2245)" fill="#1669C8"/>
<circle cx="258.791" cy="51.2245" r="9.35346" transform="rotate(90 258.791 51.2245)" fill="#1669C8"/>
<circle cx="300.658" cy="51.2245" r="9.35346" transform="rotate(90 300.658 51.2245)" fill="#1669C8"/>
<circle cx="341.639" cy="51.2245" r="9.35346" transform="rotate(90 341.639 51.2245)" fill="#1669C8"/>
<circle cx="383.506" cy="51.2255" r="9.35346" transform="rotate(90 383.506 51.2255)" fill="#1669C8"/>
<circle cx="9.36529" cy="92.2016" r="9.35346" transform="rotate(90 9.36529 92.2016)" fill="#1669C8"/>
<circle cx="50.3458" cy="92.2016" r="9.35346" transform="rotate(90 50.3458 92.2016)" fill="#1669C8"/>
<circle cx="92.213" cy="92.2016" r="9.35346" transform="rotate(90 92.213 92.2016)" fill="#1669C8"/>
<circle cx="134.08" cy="92.2016" r="9.35346" transform="rotate(90 134.08 92.2016)" fill="#1669C8"/>
<circle cx="175.057" cy="92.2016" r="9.35346" transform="rotate(90 175.057 92.2016)" fill="#1669C8"/>
<circle cx="216.928" cy="92.2016" r="9.35346" transform="rotate(90 216.928 92.2016)" fill="#1669C8"/>
<circle cx="258.791" cy="92.2016" r="9.35346" transform="rotate(90 258.791 92.2016)" fill="#1669C8"/>
<circle cx="300.658" cy="92.2016" r="9.35346" transform="rotate(90 300.658 92.2016)" fill="#1669C8"/>
<circle cx="341.639" cy="92.2016" r="9.35346" transform="rotate(90 341.639 92.2016)" fill="#1669C8"/>
<circle cx="383.506" cy="92.2016" r="9.35346" transform="rotate(90 383.506 92.2016)" fill="#1669C8"/>
<circle cx="9.36529" cy="134.069" r="9.35346" transform="rotate(90 9.36529 134.069)" fill="#1669C8"/>
<circle cx="50.3458" cy="134.069" r="9.35346" transform="rotate(90 50.3458 134.069)" fill="#1669C8"/>
<circle cx="92.213" cy="134.069" r="9.35346" transform="rotate(90 92.213 134.069)" fill="#1669C8"/>
<circle cx="134.08" cy="134.069" r="9.35346" transform="rotate(90 134.08 134.069)" fill="#1669C8"/>
<circle cx="175.057" cy="134.069" r="9.35346" transform="rotate(90 175.057 134.069)" fill="#1669C8"/>
<circle cx="216.928" cy="134.069" r="9.35346" transform="rotate(90 216.928 134.069)" fill="#1669C8"/>
<circle cx="258.791" cy="134.069" r="9.35346" transform="rotate(90 258.791 134.069)" fill="#1669C8"/>
<circle cx="300.658" cy="134.069" r="9.35346" transform="rotate(90 300.658 134.069)" fill="#1669C8"/>
<circle cx="341.639" cy="134.069" r="9.35346" transform="rotate(90 341.639 134.069)" fill="#1669C8"/>
<circle cx="383.506" cy="134.069" r="9.35346" transform="rotate(90 383.506 134.069)" fill="#1669C8"/>
<circle cx="9.36529" cy="175.937" r="9.35346" transform="rotate(90 9.36529 175.937)" fill="#1669C8"/>
<circle cx="50.3458" cy="175.937" r="9.35346" transform="rotate(90 50.3458 175.937)" fill="#1669C8"/>
<circle cx="92.213" cy="175.937" r="9.35346" transform="rotate(90 92.213 175.937)" fill="#1669C8"/>
<circle cx="134.08" cy="175.937" r="9.35346" transform="rotate(90 134.08 175.937)" fill="#1669C8"/>
<circle cx="175.057" cy="175.937" r="9.35346" transform="rotate(90 175.057 175.937)" fill="#1669C8"/>
<circle cx="216.928" cy="175.937" r="9.35346" transform="rotate(90 216.928 175.937)" fill="#1669C8"/>
<circle cx="258.791" cy="175.937" r="9.35346" transform="rotate(90 258.791 175.937)" fill="#1669C8"/>
<circle cx="300.658" cy="175.937" r="9.35346" transform="rotate(90 300.658 175.937)" fill="#1669C8"/>
<circle cx="341.639" cy="175.937" r="9.35346" transform="rotate(90 341.639 175.937)" fill="#1669C8"/>
<circle cx="383.506" cy="175.937" r="9.35346" transform="rotate(90 383.506 175.937)" fill="#1669C8"/>
<circle cx="9.36529" cy="217.806" r="9.35346" transform="rotate(90 9.36529 217.806)" fill="#1669C8"/>
<circle cx="50.3458" cy="217.806" r="9.35346" transform="rotate(90 50.3458 217.806)" fill="#1669C8"/>
<circle cx="92.213" cy="217.806" r="9.35346" transform="rotate(90 92.213 217.806)" fill="#1669C8"/>
<circle cx="134.08" cy="217.806" r="9.35346" transform="rotate(90 134.08 217.806)" fill="#1669C8"/>
<circle cx="175.057" cy="217.806" r="9.35346" transform="rotate(90 175.057 217.806)" fill="#1669C8"/>
<circle cx="216.928" cy="217.806" r="9.35346" transform="rotate(90 216.928 217.806)" fill="#1669C8"/>
<circle cx="258.791" cy="217.806" r="9.35346" transform="rotate(90 258.791 217.806)" fill="#1669C8"/>
<circle cx="300.658" cy="217.806" r="9.35346" transform="rotate(90 300.658 217.806)" fill="#1669C8"/>
<circle cx="341.639" cy="217.806" r="9.35346" transform="rotate(90 341.639 217.806)" fill="#1669C8"/>
<circle cx="383.506" cy="217.806" r="9.35346" transform="rotate(90 383.506 217.806)" fill="#1669C8"/>
<circle cx="9.36529" cy="258.783" r="9.35346" transform="rotate(90 9.36529 258.783)" fill="#1669C8"/>
<circle cx="50.3458" cy="258.783" r="9.35346" transform="rotate(90 50.3458 258.783)" fill="#1669C8"/>
<circle cx="92.213" cy="258.783" r="9.35346" transform="rotate(90 92.213 258.783)" fill="#1669C8"/>
<circle cx="134.08" cy="258.782" r="9.35346" transform="rotate(90 134.08 258.782)" fill="#1669C8"/>
<circle cx="175.057" cy="258.782" r="9.35346" transform="rotate(90 175.057 258.782)" fill="#1669C8"/>
<circle cx="216.928" cy="258.782" r="9.35346" transform="rotate(90 216.928 258.782)" fill="#1669C8"/>
<circle cx="258.791" cy="258.782" r="9.35346" transform="rotate(90 258.791 258.782)" fill="#1669C8"/>
<circle cx="300.658" cy="258.782" r="9.35346" transform="rotate(90 300.658 258.782)" fill="#1669C8"/>
<circle cx="341.639" cy="258.782" r="9.35346" transform="rotate(90 341.639 258.782)" fill="#1669C8"/>
<circle cx="383.506" cy="258.783" r="9.35346" transform="rotate(90 383.506 258.783)" fill="#1669C8"/>
<circle cx="9.36529" cy="300.65" r="9.35346" transform="rotate(90 9.36529 300.65)" fill="#1669C8"/>
<circle cx="50.3458" cy="300.65" r="9.35346" transform="rotate(90 50.3458 300.65)" fill="#1669C8"/>
<circle cx="92.213" cy="300.65" r="9.35346" transform="rotate(90 92.213 300.65)" fill="#1669C8"/>
<circle cx="134.08" cy="300.65" r="9.35346" transform="rotate(90 134.08 300.65)" fill="#1669C8"/>
<circle cx="175.057" cy="300.65" r="9.35346" transform="rotate(90 175.057 300.65)" fill="#1669C8"/>
<circle cx="216.928" cy="300.65" r="9.35346" transform="rotate(90 216.928 300.65)" fill="#1669C8"/>
<circle cx="258.791" cy="300.65" r="9.35346" transform="rotate(90 258.791 300.65)" fill="#1669C8"/>
<circle cx="300.658" cy="300.65" r="9.35346" transform="rotate(90 300.658 300.65)" fill="#1669C8"/>
<circle cx="341.639" cy="300.65" r="9.35346" transform="rotate(90 341.639 300.65)" fill="#1669C8"/>
<circle cx="383.506" cy="300.65" r="9.35346" transform="rotate(90 383.506 300.65)" fill="#1669C8"/>
</svg>
