<svg width="20" height="16" viewBox="0 0 20 16" fill="none" xmlns="http://www.w3.org/2000/svg">
<path d="M0.417454 1.71703C3.16238 4.04168 7.97886 8.13145 9.39449 9.40664C9.58452 9.57875 9.78835 9.66625 9.99995 9.66625C10.2111 9.66625 10.4146 9.57957 10.6042 9.40828C12.021 8.13184 16.8375 4.04168 19.5825 1.71703C19.7534 1.57258 19.7794 1.31867 19.6411 1.14207C19.3212 0.733984 18.8444 0.5 18.3333 0.5H1.66663C1.15558 0.5 0.678665 0.733985 0.35886 1.14211C0.220501 1.31867 0.246556 1.57258 0.417454 1.71703Z" fill="#8ECDFF"/>
<path d="M19.7586 2.97635C19.6109 2.9076 19.4371 2.93158 19.3142 3.03658C17.5166 4.56041 15.148 6.57377 13.3617 8.11021C13.2677 8.1908 13.2148 8.3092 13.2169 8.4333C13.2189 8.55701 13.2763 8.67377 13.3731 8.75107C15.0329 10.0804 17.5341 11.909 19.3403 13.2087C19.4123 13.2608 19.4978 13.2872 19.5836 13.2872C19.6487 13.2872 19.7138 13.2722 19.7737 13.2412C19.9128 13.17 20.0003 13.0268 20.0003 12.8705V3.35435C20.0003 3.19201 19.9059 3.04431 19.7586 2.97635Z" fill="#8ECDFF"/>
<path d="M0.66 13.2083C2.46664 11.9087 4.96828 10.0801 6.62762 8.75071C6.72445 8.67341 6.78184 8.55661 6.78387 8.43294C6.7859 8.30884 6.73301 8.19044 6.63902 8.10985C4.8527 6.57341 2.48371 4.56005 0.686055 3.03622C0.562344 2.93122 0.388203 2.90806 0.241719 2.97599C0.0944141 3.04395 0 3.19165 0 3.35399V12.8702C0 13.0265 0.0875 13.1697 0.226641 13.2409C0.286445 13.2718 0.351562 13.2869 0.41668 13.2869C0.502539 13.2869 0.587969 13.2604 0.66 13.2083Z" fill="#8ECDFF"/>
<path d="M19.4894 14.3422C17.745 13.0942 14.5317 10.7676 12.6136 9.21072C12.4573 9.08338 12.2311 9.08744 12.0773 9.22009C11.7009 9.54845 11.386 9.82517 11.1626 10.0261C10.4765 10.6454 9.52435 10.6454 8.8367 10.0253C8.61412 9.82474 8.2992 9.5472 7.92279 9.22005C7.77022 9.08658 7.54357 9.08252 7.38689 9.21068C5.47525 10.7622 2.2583 13.0917 0.511074 14.3421C0.413808 14.4121 0.351152 14.5199 0.338964 14.6392C0.327168 14.7584 0.366621 14.8768 0.448418 14.9647C0.763808 15.3045 1.20814 15.4994 1.66674 15.4994H18.3334C18.792 15.4994 19.2359 15.3045 19.5521 14.9647C19.6335 14.8772 19.6733 14.7588 19.6615 14.6396C19.6493 14.5204 19.5867 14.4122 19.4894 14.3422Z" fill="#8ECDFF"/>
</svg>
