<svg width="33" height="33" viewBox="0 0 33 33" fill="none" xmlns="http://www.w3.org/2000/svg">
<path d="M32.0564 4.51129C31.571 4.02499 30.7833 4.02416 30.2978 4.50923L15.3774 19.3903L9.99413 13.5436C9.52897 13.0386 8.74251 13.0059 8.23675 13.471C7.73137 13.9361 7.69902 14.723 8.16418 15.2284L14.4243 22.0269C14.6535 22.2761 14.9744 22.4208 15.3127 22.4278C15.3218 22.4282 15.3305 22.4282 15.3392 22.4282C15.668 22.4282 15.9843 22.2977 16.2173 22.0655L32.054 6.27028C32.5407 5.78527 32.5415 4.99759 32.0564 4.51129Z" fill="#2096F3"/>
<path d="M31.7562 15.2562C31.0693 15.2562 30.5126 15.813 30.5126 16.5C30.5126 24.2268 24.2268 30.5126 16.5 30.5126C8.77362 30.5126 2.48744 24.2268 2.48744 16.5C2.48744 8.77362 8.77362 2.48744 16.5 2.48744C17.1869 2.48744 17.7438 1.93069 17.7438 1.24375C17.7438 0.556746 17.1869 0 16.5 0C7.4018 0 0 7.4018 0 16.5C0 25.5978 7.4018 33 16.5 33C25.5978 33 33 25.5978 33 16.5C33 15.8131 32.4433 15.2562 31.7562 15.2562Z" fill="#2096F3"/>
</svg>
