<svg width="627" height="592" viewBox="0 0 627 592" fill="none" xmlns="http://www.w3.org/2000/svg">
<g opacity="0.12">
<line y1="-0.5" x2="168.062" y2="-0.5" transform="matrix(-0.45598 -0.88999 -0.88999 0.45598 201.195 642.516)" stroke="white"/>
<line y1="-0.5" x2="173.509" y2="-0.5" transform="matrix(0.371892 -0.928276 -0.928276 -0.371892 60.0352 654.008)" stroke="white"/>
<line y1="-0.5" x2="182.018" y2="-0.5" transform="matrix(-0.556732 0.830692 0.830692 0.556732 113.594 343.703)" stroke="white"/>
<line y1="-0.5" x2="149.641" y2="-0.5" transform="matrix(0.0733072 0.997309 0.997309 -0.0733072 113.594 343.703)" stroke="white"/>
<line y1="-0.5" x2="133.859" y2="-0.5" transform="matrix(-0.977516 0.210863 0.210863 0.977516 12.4609 494.137)" stroke="white"/>
<line y1="-0.5" x2="368.425" y2="-0.5" transform="matrix(0.630918 0.77585 0.77585 -0.630918 -118.852 57.8633)" stroke="white"/>
<line y1="-0.5" x2="171.58" y2="-0.5" transform="matrix(0.987255 0.159149 0.159149 -0.987255 -55.8008 316.398)" stroke="white"/>
<line y1="-0.5" x2="228.281" y2="-0.5" transform="matrix(0.848182 0.529705 0.529705 -0.848182 -181.367 373.984)" stroke="white"/>
<line y1="-0.5" x2="223.052" y2="-0.5" transform="matrix(0.801508 0.597984 0.597984 -0.801508 -118.949 521.391)" stroke="white"/>
<line y1="-0.5" x2="167.214" y2="-0.5" transform="matrix(0.289091 0.957302 0.957302 -0.289091 11.4922 494.699)" stroke="white"/>
<line y1="-0.5" x2="113.636" y2="-0.5" transform="matrix(-0.999976 0.00690348 0.00690348 0.999976 125.891 494.121)" stroke="white"/>
<line y1="-0.5" x2="191.042" y2="-0.5" transform="matrix(0.356246 0.934392 0.934392 -0.356246 -55.8008 316.398)" stroke="white"/>
<circle r="7.14511" transform="matrix(-0.965926 -0.258819 -0.258819 0.965926 12.2569 494.904)" fill="white"/>
<circle r="7.14511" transform="matrix(-0.965926 -0.258819 -0.258819 0.965926 112.823 343.498)" fill="white"/>
<circle r="7.14511" transform="matrix(-0.965926 -0.258819 -0.258819 0.965926 124.562 492.943)" fill="white"/>
</g>
</svg>
