<svg width="716" height="640" viewBox="0 0 716 640" fill="none" xmlns="http://www.w3.org/2000/svg">
<g opacity="0.1">
<line y1="-0.5" x2="236.659" y2="-0.5" transform="matrix(0.972842 0.231469 0.231469 -0.972842 68.2773 55.9766)" stroke="white"/>
<line y1="-0.5" x2="138.626" y2="-0.5" transform="matrix(0.589873 0.807496 0.807496 -0.589873 216.734 -1.18359)" stroke="white"/>
<line y1="-0.5" x2="168.062" y2="-0.5" transform="matrix(0.67079 0.741648 0.741648 -0.67079 299.301 111.547)" stroke="white"/>
<line y1="-0.5" x2="173.509" y2="-0.5" transform="matrix(-0.118965 0.992898 0.992898 0.118965 432.676 63.9141)" stroke="white"/>
<line y1="-0.5" x2="182.018" y2="-0.5" transform="matrix(0.322763 -0.94648 -0.94648 -0.322763 461.258 377.508)" stroke="white"/>
<line y1="-0.5" x2="149.641" y2="-0.5" transform="matrix(-0.328932 -0.944354 -0.944354 0.328932 461.258 377.508)" stroke="white"/>
<line y1="-0.5" x2="157.723" y2="-0.5" transform="matrix(-0.578855 -0.81543 -0.81543 0.578855 723.246 487.859)" stroke="white"/>
<line y1="-0.5" x2="160.706" y2="-0.5" transform="matrix(-0.612572 -0.790415 -0.790415 0.612572 737.535 271.918)" stroke="white"/>
<line y1="-0.5" x2="133.859" y2="-0.5" transform="matrix(0.889632 -0.456678 -0.456678 -0.889632 520.004 206.023)" stroke="white"/>
<line y1="-0.5" x2="136.415" y2="-0.5" transform="matrix(-0.878784 -0.47722 -0.47722 0.878784 744.68 70.2656)" stroke="white"/>
<line y1="-0.5" x2="141.245" y2="-0.5" transform="matrix(-0.101173 -0.994869 -0.994869 0.101173 639.09 145.688)" stroke="white"/>
<line y1="-0.5" x2="130.222" y2="-0.5" transform="matrix(0.81084 -0.585268 -0.585268 -0.81084 639.09 146.48)" stroke="white"/>
<line y1="-0.5" x2="136.017" y2="-0.5" transform="matrix(0.776292 -0.630373 -0.630373 -0.776292 631.945 357.66)" stroke="white"/>
<line y1="-0.5" x2="368.425" y2="-0.5" transform="matrix(-0.810224 -0.58612 -0.58612 0.810224 759.762 593.445)" stroke="white"/>
<line y1="-0.5" x2="171.58" y2="-0.5" transform="matrix(-0.994805 0.101794 0.101794 0.994805 631.945 360.039)" stroke="white"/>
<line y1="-0.5" x2="228.281" y2="-0.5" transform="matrix(-0.956379 -0.29213 -0.29213 0.956379 738.328 271.918)" stroke="white"/>
<line y1="-0.5" x2="223.052" y2="-0.5" transform="matrix(-0.928967 -0.370163 -0.370163 0.928967 639.887 145.688)" stroke="white"/>
<line y1="-0.5" x2="201.435" y2="-0.5" transform="matrix(-0.957718 0.287709 0.287709 0.957718 625.594 5.16406)" stroke="white"/>
<line y1="-0.5" x2="223.791" y2="-0.5" transform="matrix(-0.957826 -0.287348 -0.287348 0.957826 431.09 62.3281)" stroke="white"/>
<line y1="-0.5" x2="143.123" y2="-0.5" transform="matrix(0.94299 -0.33282 -0.33282 -0.94299 298.508 110.754)" stroke="white"/>
<line y1="-0.5" x2="160.4" y2="-0.5" transform="matrix(0.930511 -0.366265 -0.366265 -0.930511 67.4805 56.7695)" stroke="white"/>
<line y1="-0.5" x2="167.214" y2="-0.5" transform="matrix(-0.527008 -0.84986 -0.84986 0.527008 520.801 205.23)" stroke="white"/>
<line y1="-0.5" x2="113.636" y2="-0.5" transform="matrix(0.964116 -0.265481 -0.265481 -0.964116 410.445 235.398)" stroke="white"/>
<line y1="-0.5" x2="191.042" y2="-0.5" transform="matrix(-0.585946 -0.81035 -0.81035 0.585946 631.945 360.039)" stroke="white"/>
<line y1="-0.5" x2="107.646" y2="-0.5" transform="matrix(-0.641634 -0.767011 -0.767011 0.641634 69.0703 57.5625)" stroke="white"/>
<circle r="7.14511" transform="matrix(1 0 0 -1 433.469 63.1244)" fill="white"/>
<circle r="7.14511" transform="matrix(1 0 0 -1 298.504 110.757)" fill="white"/>
<circle r="7.14511" transform="matrix(1 0 0 -1 624.801 5.16739)" fill="white"/>
<circle r="7.14511" transform="matrix(1 0 0 -1 520.004 205.23)" fill="white"/>
<circle r="7.14511" transform="matrix(1 0 0 -1 639.09 144.894)" fill="white"/>
<circle r="7.14511" transform="matrix(1 0 0 -1 631.946 359.249)" fill="white"/>
<circle r="7.14511" transform="matrix(1 0 0 -1 462.051 377.507)" fill="white"/>
<circle r="7.14511" transform="matrix(1 0 0 -1 412.036 236.195)" fill="white"/>
<circle r="7.14511" transform="matrix(1 0 0 -1 216.735 -1.97714)" fill="white"/>
<circle r="7.14511" transform="matrix(1 0 0 -1 67.481 55.976)" fill="white"/>
</g>
</svg>
