<svg width="250" height="408" viewBox="0 0 250 408" fill="none" xmlns="http://www.w3.org/2000/svg">
<circle cx="6.92103" cy="216.823" r="5.92272" transform="rotate(90 6.92103 216.823)" fill="#F9F9F9"/>
<circle cx="32.8702" cy="216.823" r="5.92272" transform="rotate(90 32.8702 216.823)" fill="#F9F9F9"/>
<circle cx="59.38" cy="216.823" r="5.92272" transform="rotate(90 59.38 216.823)" fill="#F9F9F9"/>
<circle cx="85.8917" cy="216.823" r="5.92272" transform="rotate(90 85.8917 216.823)" fill="#F9F9F9"/>
<circle cx="111.839" cy="216.823" r="5.92272" transform="rotate(90 111.839 216.823)" fill="#F9F9F9"/>
<circle cx="138.351" cy="216.823" r="5.92272" transform="rotate(90 138.351 216.823)" fill="#F9F9F9"/>
<circle cx="164.86" cy="216.823" r="5.92272" transform="rotate(90 164.86 216.823)" fill="#F9F9F9"/>
<circle cx="191.372" cy="216.823" r="5.92272" transform="rotate(90 191.372 216.823)" fill="#F9F9F9"/>
<circle cx="217.319" cy="216.823" r="5.92272" transform="rotate(90 217.319 216.823)" fill="#F9F9F9"/>
<circle cx="243.831" cy="216.823" r="5.92272" transform="rotate(90 243.831 216.823)" fill="#F9F9F9"/>
<circle cx="6.92103" cy="243.335" r="5.92272" transform="rotate(90 6.92103 243.335)" fill="#F9F9F9"/>
<circle cx="32.8702" cy="243.335" r="5.92272" transform="rotate(90 32.8702 243.335)" fill="#F9F9F9"/>
<circle cx="59.38" cy="243.335" r="5.92272" transform="rotate(90 59.38 243.335)" fill="#F9F9F9"/>
<circle cx="85.8917" cy="243.335" r="5.92272" transform="rotate(90 85.8917 243.335)" fill="#F9F9F9"/>
<circle cx="111.839" cy="243.335" r="5.92272" transform="rotate(90 111.839 243.335)" fill="#F9F9F9"/>
<circle cx="138.351" cy="243.335" r="5.92272" transform="rotate(90 138.351 243.335)" fill="#F9F9F9"/>
<circle cx="164.86" cy="243.335" r="5.92272" transform="rotate(90 164.86 243.335)" fill="#F9F9F9"/>
<circle cx="191.372" cy="243.335" r="5.92272" transform="rotate(90 191.372 243.335)" fill="#F9F9F9"/>
<circle cx="217.319" cy="243.335" r="5.92272" transform="rotate(90 217.319 243.335)" fill="#F9F9F9"/>
<circle cx="243.831" cy="243.335" r="5.92272" transform="rotate(90 243.831 243.335)" fill="#F9F9F9"/>
<circle cx="6.92103" cy="269.282" r="5.92272" transform="rotate(90 6.92103 269.282)" fill="#F9F9F9"/>
<circle cx="32.8702" cy="269.282" r="5.92272" transform="rotate(90 32.8702 269.282)" fill="#F9F9F9"/>
<circle cx="59.38" cy="269.282" r="5.92272" transform="rotate(90 59.38 269.282)" fill="#F9F9F9"/>
<circle cx="85.8917" cy="269.282" r="5.92272" transform="rotate(90 85.8917 269.282)" fill="#F9F9F9"/>
<circle cx="111.839" cy="269.282" r="5.92272" transform="rotate(90 111.839 269.282)" fill="#F9F9F9"/>
<circle cx="138.351" cy="269.282" r="5.92272" transform="rotate(90 138.351 269.282)" fill="#F9F9F9"/>
<circle cx="164.86" cy="269.282" r="5.92272" transform="rotate(90 164.86 269.282)" fill="#F9F9F9"/>
<circle cx="191.372" cy="269.282" r="5.92272" transform="rotate(90 191.372 269.282)" fill="#F9F9F9"/>
<circle cx="217.319" cy="269.282" r="5.92272" transform="rotate(90 217.319 269.282)" fill="#F9F9F9"/>
<circle cx="243.831" cy="269.282" r="5.92272" transform="rotate(90 243.831 269.282)" fill="#F9F9F9"/>
<circle cx="6.92298" cy="295.792" r="5.92272" transform="rotate(90 6.92298 295.792)" fill="#F9F9F9"/>
<circle cx="32.8702" cy="295.792" r="5.92272" transform="rotate(90 32.8702 295.792)" fill="#F9F9F9"/>
<circle cx="59.38" cy="295.792" r="5.92272" transform="rotate(90 59.38 295.792)" fill="#F9F9F9"/>
<circle cx="85.8917" cy="295.792" r="5.92272" transform="rotate(90 85.8917 295.792)" fill="#F9F9F9"/>
<circle cx="111.839" cy="295.792" r="5.92272" transform="rotate(90 111.839 295.792)" fill="#F9F9F9"/>
<circle cx="138.351" cy="295.792" r="5.92272" transform="rotate(90 138.351 295.792)" fill="#F9F9F9"/>
<circle cx="164.86" cy="295.792" r="5.92272" transform="rotate(90 164.86 295.792)" fill="#F9F9F9"/>
<circle cx="191.372" cy="295.792" r="5.92272" transform="rotate(90 191.372 295.792)" fill="#F9F9F9"/>
<circle cx="217.319" cy="295.792" r="5.92272" transform="rotate(90 217.319 295.792)" fill="#F9F9F9"/>
<circle cx="243.831" cy="295.792" r="5.92272" transform="rotate(90 243.831 295.792)" fill="#F9F9F9"/>
<circle cx="6.92298" cy="322.304" r="5.92272" transform="rotate(90 6.92298 322.304)" fill="#F9F9F9"/>
<circle cx="32.8702" cy="322.304" r="5.92272" transform="rotate(90 32.8702 322.304)" fill="#F9F9F9"/>
<circle cx="59.38" cy="322.304" r="5.92272" transform="rotate(90 59.38 322.304)" fill="#F9F9F9"/>
<circle cx="85.8917" cy="322.304" r="5.92272" transform="rotate(90 85.8917 322.304)" fill="#F9F9F9"/>
<circle cx="111.839" cy="322.304" r="5.92272" transform="rotate(90 111.839 322.304)" fill="#F9F9F9"/>
<circle cx="138.351" cy="322.304" r="5.92272" transform="rotate(90 138.351 322.304)" fill="#F9F9F9"/>
<circle cx="164.86" cy="322.304" r="5.92272" transform="rotate(90 164.86 322.304)" fill="#F9F9F9"/>
<circle cx="191.372" cy="322.304" r="5.92272" transform="rotate(90 191.372 322.304)" fill="#F9F9F9"/>
<circle cx="217.319" cy="322.304" r="5.92272" transform="rotate(90 217.319 322.304)" fill="#F9F9F9"/>
<circle cx="243.831" cy="322.304" r="5.92272" transform="rotate(90 243.831 322.304)" fill="#F9F9F9"/>
<circle cx="6.92298" cy="348.815" r="5.92272" transform="rotate(90 6.92298 348.815)" fill="#F9F9F9"/>
<circle cx="32.8702" cy="348.815" r="5.92272" transform="rotate(90 32.8702 348.815)" fill="#F9F9F9"/>
<circle cx="59.38" cy="348.815" r="5.92272" transform="rotate(90 59.38 348.815)" fill="#F9F9F9"/>
<circle cx="85.8917" cy="348.815" r="5.92272" transform="rotate(90 85.8917 348.815)" fill="#F9F9F9"/>
<circle cx="111.839" cy="348.815" r="5.92272" transform="rotate(90 111.839 348.815)" fill="#F9F9F9"/>
<circle cx="138.351" cy="348.815" r="5.92272" transform="rotate(90 138.351 348.815)" fill="#F9F9F9"/>
<circle cx="164.86" cy="348.815" r="5.92272" transform="rotate(90 164.86 348.815)" fill="#F9F9F9"/>
<circle cx="191.372" cy="348.815" r="5.92272" transform="rotate(90 191.372 348.815)" fill="#F9F9F9"/>
<circle cx="217.319" cy="348.815" r="5.92272" transform="rotate(90 217.319 348.815)" fill="#F9F9F9"/>
<circle cx="243.831" cy="348.815" r="5.92272" transform="rotate(90 243.831 348.815)" fill="#F9F9F9"/>
<circle cx="6.92298" cy="374.763" r="5.92272" transform="rotate(90 6.92298 374.763)" fill="#F9F9F9"/>
<circle cx="32.8702" cy="374.763" r="5.92272" transform="rotate(90 32.8702 374.763)" fill="#F9F9F9"/>
<circle cx="59.38" cy="374.763" r="5.92272" transform="rotate(90 59.38 374.763)" fill="#F9F9F9"/>
<circle cx="85.8917" cy="374.763" r="5.92272" transform="rotate(90 85.8917 374.763)" fill="#F9F9F9"/>
<circle cx="111.839" cy="374.763" r="5.92272" transform="rotate(90 111.839 374.763)" fill="#F9F9F9"/>
<circle cx="138.351" cy="374.763" r="5.92272" transform="rotate(90 138.351 374.763)" fill="#F9F9F9"/>
<circle cx="164.86" cy="374.763" r="5.92272" transform="rotate(90 164.86 374.763)" fill="#F9F9F9"/>
<circle cx="191.372" cy="374.763" r="5.92272" transform="rotate(90 191.372 374.763)" fill="#F9F9F9"/>
<circle cx="217.319" cy="374.763" r="5.92272" transform="rotate(90 217.319 374.763)" fill="#F9F9F9"/>
<circle cx="243.831" cy="374.763" r="5.92272" transform="rotate(90 243.831 374.763)" fill="#F9F9F9"/>
<circle cx="6.92298" cy="401.274" r="5.92272" transform="rotate(90 6.92298 401.274)" fill="#F9F9F9"/>
<circle cx="32.8702" cy="401.274" r="5.92272" transform="rotate(90 32.8702 401.274)" fill="#F9F9F9"/>
<circle cx="59.38" cy="401.274" r="5.92272" transform="rotate(90 59.38 401.274)" fill="#F9F9F9"/>
<circle cx="85.8917" cy="401.274" r="5.92272" transform="rotate(90 85.8917 401.274)" fill="#F9F9F9"/>
<circle cx="111.839" cy="401.274" r="5.92272" transform="rotate(90 111.839 401.274)" fill="#F9F9F9"/>
<circle cx="138.351" cy="401.274" r="5.92272" transform="rotate(90 138.351 401.274)" fill="#F9F9F9"/>
<circle cx="164.86" cy="401.274" r="5.92272" transform="rotate(90 164.86 401.274)" fill="#F9F9F9"/>
<circle cx="191.372" cy="401.274" r="5.92272" transform="rotate(90 191.372 401.274)" fill="#F9F9F9"/>
<circle cx="217.319" cy="401.274" r="5.92272" transform="rotate(90 217.319 401.274)" fill="#F9F9F9"/>
<circle cx="243.831" cy="401.274" r="5.92272" transform="rotate(90 243.831 401.274)" fill="#F9F9F9"/>
<circle cx="6.92103" cy="5.92272" r="5.92272" transform="rotate(90 6.92103 5.92272)" fill="#F9F9F9"/>
<circle cx="32.8702" cy="5.92272" r="5.92272" transform="rotate(90 32.8702 5.92272)" fill="#F9F9F9"/>
<circle cx="59.38" cy="5.92272" r="5.92272" transform="rotate(90 59.38 5.92272)" fill="#F9F9F9"/>
<circle cx="85.8917" cy="5.92272" r="5.92272" transform="rotate(90 85.8917 5.92272)" fill="#F9F9F9"/>
<circle cx="111.839" cy="5.92272" r="5.92272" transform="rotate(90 111.839 5.92272)" fill="#F9F9F9"/>
<circle cx="138.351" cy="5.92272" r="5.92272" transform="rotate(90 138.351 5.92272)" fill="#F9F9F9"/>
<circle cx="164.86" cy="5.92272" r="5.92272" transform="rotate(90 164.86 5.92272)" fill="#F9F9F9"/>
<circle cx="191.372" cy="5.92272" r="5.92272" transform="rotate(90 191.372 5.92272)" fill="#F9F9F9"/>
<circle cx="217.319" cy="5.92272" r="5.92272" transform="rotate(90 217.319 5.92272)" fill="#F9F9F9"/>
<circle cx="243.831" cy="5.92272" r="5.92272" transform="rotate(90 243.831 5.92272)" fill="#F9F9F9"/>
<circle cx="6.92103" cy="32.4344" r="5.92272" transform="rotate(90 6.92103 32.4344)" fill="#F9F9F9"/>
<circle cx="32.8702" cy="32.4344" r="5.92272" transform="rotate(90 32.8702 32.4344)" fill="#F9F9F9"/>
<circle cx="59.38" cy="32.4344" r="5.92272" transform="rotate(90 59.38 32.4344)" fill="#F9F9F9"/>
<circle cx="85.8917" cy="32.4344" r="5.92272" transform="rotate(90 85.8917 32.4344)" fill="#F9F9F9"/>
<circle cx="111.839" cy="32.4344" r="5.92272" transform="rotate(90 111.839 32.4344)" fill="#F9F9F9"/>
<circle cx="138.351" cy="32.4344" r="5.92272" transform="rotate(90 138.351 32.4344)" fill="#F9F9F9"/>
<circle cx="164.86" cy="32.4344" r="5.92272" transform="rotate(90 164.86 32.4344)" fill="#F9F9F9"/>
<circle cx="191.372" cy="32.4344" r="5.92272" transform="rotate(90 191.372 32.4344)" fill="#F9F9F9"/>
<circle cx="217.319" cy="32.4344" r="5.92272" transform="rotate(90 217.319 32.4344)" fill="#F9F9F9"/>
<circle cx="243.831" cy="32.4344" r="5.92272" transform="rotate(90 243.831 32.4344)" fill="#F9F9F9"/>
<circle cx="6.92103" cy="58.3817" r="5.92272" transform="rotate(90 6.92103 58.3817)" fill="#F9F9F9"/>
<circle cx="32.8702" cy="58.3817" r="5.92272" transform="rotate(90 32.8702 58.3817)" fill="#F9F9F9"/>
<circle cx="59.38" cy="58.3817" r="5.92272" transform="rotate(90 59.38 58.3817)" fill="#F9F9F9"/>
<circle cx="85.8917" cy="58.3817" r="5.92272" transform="rotate(90 85.8917 58.3817)" fill="#F9F9F9"/>
<circle cx="111.839" cy="58.3817" r="5.92272" transform="rotate(90 111.839 58.3817)" fill="#F9F9F9"/>
<circle cx="138.351" cy="58.3817" r="5.92272" transform="rotate(90 138.351 58.3817)" fill="#F9F9F9"/>
<circle cx="164.86" cy="58.3817" r="5.92272" transform="rotate(90 164.86 58.3817)" fill="#F9F9F9"/>
<circle cx="191.372" cy="58.3817" r="5.92272" transform="rotate(90 191.372 58.3817)" fill="#F9F9F9"/>
<circle cx="217.319" cy="58.3817" r="5.92272" transform="rotate(90 217.319 58.3817)" fill="#F9F9F9"/>
<circle cx="243.831" cy="58.3817" r="5.92272" transform="rotate(90 243.831 58.3817)" fill="#F9F9F9"/>
<circle cx="6.92298" cy="84.8915" r="5.92272" transform="rotate(90 6.92298 84.8915)" fill="#F9F9F9"/>
<circle cx="32.8702" cy="84.8915" r="5.92272" transform="rotate(90 32.8702 84.8915)" fill="#F9F9F9"/>
<circle cx="59.38" cy="84.8915" r="5.92272" transform="rotate(90 59.38 84.8915)" fill="#F9F9F9"/>
<circle cx="85.8917" cy="84.8915" r="5.92272" transform="rotate(90 85.8917 84.8915)" fill="#F9F9F9"/>
<circle cx="111.839" cy="84.8915" r="5.92272" transform="rotate(90 111.839 84.8915)" fill="#F9F9F9"/>
<circle cx="138.351" cy="84.8915" r="5.92272" transform="rotate(90 138.351 84.8915)" fill="#F9F9F9"/>
<circle cx="164.86" cy="84.8915" r="5.92272" transform="rotate(90 164.86 84.8915)" fill="#F9F9F9"/>
<circle cx="191.372" cy="84.8915" r="5.92272" transform="rotate(90 191.372 84.8915)" fill="#F9F9F9"/>
<circle cx="217.319" cy="84.8915" r="5.92272" transform="rotate(90 217.319 84.8915)" fill="#F9F9F9"/>
<circle cx="243.831" cy="84.8915" r="5.92272" transform="rotate(90 243.831 84.8915)" fill="#F9F9F9"/>
<circle cx="6.92298" cy="111.403" r="5.92272" transform="rotate(90 6.92298 111.403)" fill="#F9F9F9"/>
<circle cx="32.8702" cy="111.403" r="5.92272" transform="rotate(90 32.8702 111.403)" fill="#F9F9F9"/>
<circle cx="59.38" cy="111.403" r="5.92272" transform="rotate(90 59.38 111.403)" fill="#F9F9F9"/>
<circle cx="85.8917" cy="111.403" r="5.92272" transform="rotate(90 85.8917 111.403)" fill="#F9F9F9"/>
<circle cx="111.839" cy="111.403" r="5.92272" transform="rotate(90 111.839 111.403)" fill="#F9F9F9"/>
<circle cx="138.351" cy="111.403" r="5.92272" transform="rotate(90 138.351 111.403)" fill="#F9F9F9"/>
<circle cx="164.86" cy="111.403" r="5.92272" transform="rotate(90 164.86 111.403)" fill="#F9F9F9"/>
<circle cx="191.372" cy="111.403" r="5.92272" transform="rotate(90 191.372 111.403)" fill="#F9F9F9"/>
<circle cx="217.319" cy="111.403" r="5.92272" transform="rotate(90 217.319 111.403)" fill="#F9F9F9"/>
<circle cx="243.831" cy="111.403" r="5.92272" transform="rotate(90 243.831 111.403)" fill="#F9F9F9"/>
<circle cx="6.92298" cy="137.915" r="5.92272" transform="rotate(90 6.92298 137.915)" fill="#F9F9F9"/>
<circle cx="32.8702" cy="137.915" r="5.92272" transform="rotate(90 32.8702 137.915)" fill="#F9F9F9"/>
<circle cx="59.38" cy="137.915" r="5.92272" transform="rotate(90 59.38 137.915)" fill="#F9F9F9"/>
<circle cx="85.8917" cy="137.915" r="5.92272" transform="rotate(90 85.8917 137.915)" fill="#F9F9F9"/>
<circle cx="111.839" cy="137.915" r="5.92272" transform="rotate(90 111.839 137.915)" fill="#F9F9F9"/>
<circle cx="138.351" cy="137.915" r="5.92272" transform="rotate(90 138.351 137.915)" fill="#F9F9F9"/>
<circle cx="164.86" cy="137.915" r="5.92272" transform="rotate(90 164.86 137.915)" fill="#F9F9F9"/>
<circle cx="191.372" cy="137.915" r="5.92272" transform="rotate(90 191.372 137.915)" fill="#F9F9F9"/>
<circle cx="217.319" cy="137.915" r="5.92272" transform="rotate(90 217.319 137.915)" fill="#F9F9F9"/>
<circle cx="243.831" cy="137.915" r="5.92272" transform="rotate(90 243.831 137.915)" fill="#F9F9F9"/>
<circle cx="6.92298" cy="163.862" r="5.92272" transform="rotate(90 6.92298 163.862)" fill="#F9F9F9"/>
<circle cx="32.8702" cy="163.862" r="5.92272" transform="rotate(90 32.8702 163.862)" fill="#F9F9F9"/>
<circle cx="59.38" cy="163.862" r="5.92272" transform="rotate(90 59.38 163.862)" fill="#F9F9F9"/>
<circle cx="85.8917" cy="163.862" r="5.92272" transform="rotate(90 85.8917 163.862)" fill="#F9F9F9"/>
<circle cx="111.839" cy="163.862" r="5.92272" transform="rotate(90 111.839 163.862)" fill="#F9F9F9"/>
<circle cx="138.351" cy="163.862" r="5.92272" transform="rotate(90 138.351 163.862)" fill="#F9F9F9"/>
<circle cx="164.86" cy="163.862" r="5.92272" transform="rotate(90 164.86 163.862)" fill="#F9F9F9"/>
<circle cx="191.372" cy="163.862" r="5.92272" transform="rotate(90 191.372 163.862)" fill="#F9F9F9"/>
<circle cx="217.319" cy="163.862" r="5.92272" transform="rotate(90 217.319 163.862)" fill="#F9F9F9"/>
<circle cx="243.831" cy="163.862" r="5.92272" transform="rotate(90 243.831 163.862)" fill="#F9F9F9"/>
<circle cx="6.92298" cy="190.374" r="5.92272" transform="rotate(90 6.92298 190.374)" fill="#F9F9F9"/>
<circle cx="32.8702" cy="190.374" r="5.92272" transform="rotate(90 32.8702 190.374)" fill="#F9F9F9"/>
<circle cx="59.38" cy="190.374" r="5.92272" transform="rotate(90 59.38 190.374)" fill="#F9F9F9"/>
<circle cx="85.8917" cy="190.374" r="5.92272" transform="rotate(90 85.8917 190.374)" fill="#F9F9F9"/>
<circle cx="111.839" cy="190.374" r="5.92272" transform="rotate(90 111.839 190.374)" fill="#F9F9F9"/>
<circle cx="138.351" cy="190.374" r="5.92272" transform="rotate(90 138.351 190.374)" fill="#F9F9F9"/>
<circle cx="164.86" cy="190.374" r="5.92272" transform="rotate(90 164.86 190.374)" fill="#F9F9F9"/>
<circle cx="191.372" cy="190.374" r="5.92272" transform="rotate(90 191.372 190.374)" fill="#F9F9F9"/>
<circle cx="217.319" cy="190.374" r="5.92272" transform="rotate(90 217.319 190.374)" fill="#F9F9F9"/>
<circle cx="243.831" cy="190.374" r="5.92272" transform="rotate(90 243.831 190.374)" fill="#F9F9F9"/>
</svg>
