<svg width="24" height="24" viewBox="0 0 24 24" fill="none" xmlns="http://www.w3.org/2000/svg">
<path d="M24 4H0V20.0002H24V4Z" fill="#0052B4"/>
<path d="M10.472 12C10.4848 11.9857 10.4975 11.9714 10.5101 11.957C10.4975 11.9715 10.4845 11.9856 10.4717 12H10.472Z" fill="#F0F0F0"/>
<path d="M8.86915 13.9648L9.38281 15.0389L10.5428 14.7709L10.0233 15.8421L10.9561 16.5818L9.79474 16.8436L9.79798 18.0341L8.86915 17.2893L7.94037 18.0341L7.9436 16.8436L6.78223 16.5818L7.71504 15.8421L7.19552 14.7709L8.35549 15.0389L8.86915 13.9648Z" fill="#F0F0F0"/>
<path d="M18.1438 15.2988L18.3888 15.8111L18.9421 15.6833L18.6943 16.1942L19.1393 16.5471L18.5853 16.6719L18.5868 17.2397L18.1438 16.8845L17.7009 17.2397L17.7024 16.6719L17.1484 16.5471L17.5933 16.1942L17.3456 15.6833L17.8989 15.8111L18.1438 15.2988Z" fill="#F0F0F0"/>
<path d="M15.8646 9.86523L16.1096 10.3776L16.6629 10.2497L16.4151 10.7606L16.86 11.1135L16.3061 11.2383L16.3076 11.8062L15.8646 11.4509L15.4216 11.8062L15.4231 11.2383L14.8691 11.1135L15.314 10.7606L15.0663 10.2497L15.6196 10.3776L15.8646 9.86523Z" fill="#F0F0F0"/>
<path d="M18.1438 6.75977L18.3888 7.27211L18.9421 7.14414L18.6943 7.65518L19.1392 8.008L18.5853 8.13288L18.5868 8.70073L18.1438 8.34541L17.7009 8.70073L17.7024 8.13288L17.1484 8.008L17.5933 7.65518L17.3456 7.14414L17.8989 7.27211L18.1438 6.75977Z" fill="#F0F0F0"/>
<path d="M20.135 9.08789L20.3801 9.60019L20.9333 9.47231L20.6856 9.98325L21.1305 10.3361L20.5765 10.461L20.5781 11.0288L20.135 10.6736L19.6921 11.0288L19.6936 10.461L19.1396 10.3361L19.5845 9.98325L19.3368 9.47231L19.89 9.60019L20.135 9.08789Z" fill="#F0F0F0"/>
<path d="M18.7119 11.8066L18.9045 12.3997H19.5282L19.0236 12.7663L19.2164 13.3593L18.7119 12.9928L18.2073 13.3593L18.4 12.7663L17.8955 12.3997H18.5191L18.7119 11.8066Z" fill="#F0F0F0"/>
<path d="M12 4V5.43217L9.8828 6.60869H12V9.39114H9.22955L12 10.9303V11.9998H10.7494L7.30434 10.0861V11.9998H4.69566V9.72297L0.597375 11.9998H0V10.5677L2.1172 9.39114H0V6.60869H2.77045L0 5.06903V4H1.25063L4.69566 5.91377V4H7.30434V6.27686L11.4026 4H12Z" fill="#F0F0F0"/>
<path d="M6.75 4H5.25V7.24994H0V8.74994H5.25V12H6.75V8.74994H12V7.24994H6.75V4Z" fill="#D80027"/>
<path d="M7.30469 9.39062L12.0004 11.9993V11.2616L8.63252 9.39062H7.30469Z" fill="#0052B4"/>
<path d="M7.30469 9.39062L12.0004 11.9993V11.2616L8.63252 9.39062H7.30469Z" fill="#F0F0F0"/>
<path d="M7.30469 9.39062L12.0004 11.9993V11.2616L8.63252 9.39062H7.30469Z" fill="#D80027"/>
<path d="M3.36778 9.39062L0 11.2616V11.9993L4.69566 9.39062H3.36778Z" fill="#D80027"/>
<path d="M4.69566 6.60869L0 4V4.73767L3.36783 6.60869H4.69566Z" fill="#0052B4"/>
<path d="M4.69566 6.60869L0 4V4.73767L3.36783 6.60869H4.69566Z" fill="#F0F0F0"/>
<path d="M4.69566 6.60869L0 4V4.73767L3.36783 6.60869H4.69566Z" fill="#D80027"/>
<path d="M8.63256 6.60869L12.0004 4.73767V4L7.30469 6.60869H8.63256Z" fill="#D80027"/>
</svg>
