<svg width="255" height="323" viewBox="0 0 255 323" fill="none" xmlns="http://www.w3.org/2000/svg">
<circle cx="247.193" cy="7.69039" r="7.69047" transform="rotate(-180 247.193 7.69039)" fill="#E2EEFF" fill-opacity="0.49"/>
<circle cx="247.193" cy="41.3818" r="7.69047" transform="rotate(-180 247.193 41.3818)" fill="#E2EEFF" fill-opacity="0.49"/>
<circle cx="247.193" cy="75.8056" r="7.69047" transform="rotate(-180 247.193 75.8056)" fill="#E2EEFF" fill-opacity="0.49"/>
<circle cx="247.193" cy="110.229" r="7.69047" transform="rotate(-180 247.193 110.229)" fill="#E2EEFF" fill-opacity="0.49"/>
<circle cx="247.193" cy="143.921" r="7.69047" transform="rotate(-180 247.193 143.921)" fill="#E2EEFF" fill-opacity="0.49"/>
<circle cx="247.193" cy="178.347" r="7.69047" transform="rotate(-180 247.193 178.347)" fill="#E2EEFF" fill-opacity="0.49"/>
<circle cx="247.193" cy="212.77" r="7.69047" transform="rotate(-180 247.193 212.77)" fill="#E2EEFF" fill-opacity="0.49"/>
<circle cx="247.193" cy="247.194" r="7.69047" transform="rotate(-180 247.193 247.194)" fill="#E2EEFF" fill-opacity="0.49"/>
<circle cx="247.193" cy="280.886" r="7.69047" transform="rotate(-180 247.193 280.886)" fill="#E2EEFF" fill-opacity="0.49"/>
<circle cx="247.193" cy="315.31" r="7.69047" transform="rotate(-180 247.193 315.31)" fill="#E2EEFF" fill-opacity="0.49"/>
<circle cx="212.769" cy="7.69039" r="7.69047" transform="rotate(-180 212.769 7.69039)" fill="#E2EEFF" fill-opacity="0.49"/>
<circle cx="212.769" cy="41.3818" r="7.69047" transform="rotate(-180 212.769 41.3818)" fill="#E2EEFF" fill-opacity="0.49"/>
<circle cx="212.769" cy="75.8056" r="7.69047" transform="rotate(-180 212.769 75.8056)" fill="#E2EEFF" fill-opacity="0.49"/>
<circle cx="212.769" cy="110.229" r="7.69047" transform="rotate(-180 212.769 110.229)" fill="#E2EEFF" fill-opacity="0.49"/>
<circle cx="212.769" cy="143.921" r="7.69047" transform="rotate(-180 212.769 143.921)" fill="#E2EEFF" fill-opacity="0.49"/>
<circle cx="212.769" cy="178.347" r="7.69047" transform="rotate(-180 212.769 178.347)" fill="#E2EEFF" fill-opacity="0.49"/>
<circle cx="212.769" cy="212.77" r="7.69047" transform="rotate(-180 212.769 212.77)" fill="#E2EEFF" fill-opacity="0.49"/>
<circle cx="212.769" cy="247.194" r="7.69047" transform="rotate(-180 212.769 247.194)" fill="#E2EEFF" fill-opacity="0.49"/>
<circle cx="212.769" cy="280.886" r="7.69047" transform="rotate(-180 212.769 280.886)" fill="#E2EEFF" fill-opacity="0.49"/>
<circle cx="212.769" cy="315.31" r="7.69047" transform="rotate(-180 212.769 315.31)" fill="#E2EEFF" fill-opacity="0.49"/>
<circle cx="179.077" cy="7.69039" r="7.69047" transform="rotate(-180 179.077 7.69039)" fill="#E2EEFF" fill-opacity="0.49"/>
<circle cx="179.077" cy="41.3818" r="7.69047" transform="rotate(-180 179.077 41.3818)" fill="#E2EEFF" fill-opacity="0.49"/>
<circle cx="179.077" cy="75.8056" r="7.69047" transform="rotate(-180 179.077 75.8056)" fill="#E2EEFF" fill-opacity="0.49"/>
<circle cx="179.077" cy="110.229" r="7.69047" transform="rotate(-180 179.077 110.229)" fill="#E2EEFF" fill-opacity="0.49"/>
<circle cx="179.077" cy="143.921" r="7.69047" transform="rotate(-180 179.077 143.921)" fill="#E2EEFF" fill-opacity="0.49"/>
<circle cx="179.077" cy="178.347" r="7.69047" transform="rotate(-180 179.077 178.347)" fill="#E2EEFF" fill-opacity="0.49"/>
<circle cx="179.077" cy="212.77" r="7.69047" transform="rotate(-180 179.077 212.77)" fill="#E2EEFF" fill-opacity="0.49"/>
<circle cx="179.077" cy="247.194" r="7.69047" transform="rotate(-180 179.077 247.194)" fill="#E2EEFF" fill-opacity="0.49"/>
<circle cx="179.077" cy="280.886" r="7.69047" transform="rotate(-180 179.077 280.886)" fill="#E2EEFF" fill-opacity="0.49"/>
<circle cx="179.077" cy="315.31" r="7.69047" transform="rotate(-180 179.077 315.31)" fill="#E2EEFF" fill-opacity="0.49"/>
<circle cx="144.654" cy="7.69039" r="7.69047" transform="rotate(-180 144.654 7.69039)" fill="#E2EEFF" fill-opacity="0.49"/>
<circle cx="144.654" cy="41.3818" r="7.69047" transform="rotate(-180 144.654 41.3818)" fill="#E2EEFF" fill-opacity="0.49"/>
<circle cx="144.654" cy="75.8056" r="7.69047" transform="rotate(-180 144.654 75.8056)" fill="#E2EEFF" fill-opacity="0.49"/>
<circle cx="144.654" cy="110.229" r="7.69047" transform="rotate(-180 144.654 110.229)" fill="#E2EEFF" fill-opacity="0.49"/>
<circle cx="144.654" cy="143.921" r="7.69047" transform="rotate(-180 144.654 143.921)" fill="#E2EEFF" fill-opacity="0.49"/>
<circle cx="144.654" cy="178.347" r="7.69047" transform="rotate(-180 144.654 178.347)" fill="#E2EEFF" fill-opacity="0.49"/>
<circle cx="144.654" cy="212.77" r="7.69047" transform="rotate(-180 144.654 212.77)" fill="#E2EEFF" fill-opacity="0.49"/>
<circle cx="144.654" cy="247.194" r="7.69047" transform="rotate(-180 144.654 247.194)" fill="#E2EEFF" fill-opacity="0.49"/>
<circle cx="144.654" cy="280.886" r="7.69047" transform="rotate(-180 144.654 280.886)" fill="#E2EEFF" fill-opacity="0.49"/>
<circle cx="144.654" cy="315.31" r="7.69047" transform="rotate(-180 144.654 315.31)" fill="#E2EEFF" fill-opacity="0.49"/>
<circle cx="110.229" cy="7.69039" r="7.69047" transform="rotate(-180 110.229 7.69039)" fill="#E2EEFF" fill-opacity="0.49"/>
<circle cx="110.229" cy="41.3818" r="7.69047" transform="rotate(-180 110.229 41.3818)" fill="#E2EEFF" fill-opacity="0.49"/>
<circle cx="110.229" cy="75.8056" r="7.69047" transform="rotate(-180 110.229 75.8056)" fill="#E2EEFF" fill-opacity="0.49"/>
<circle cx="110.229" cy="110.229" r="7.69047" transform="rotate(-180 110.229 110.229)" fill="#E2EEFF" fill-opacity="0.49"/>
<circle cx="110.229" cy="143.921" r="7.69047" transform="rotate(-180 110.229 143.921)" fill="#E2EEFF" fill-opacity="0.49"/>
<circle cx="110.229" cy="178.347" r="7.69047" transform="rotate(-180 110.229 178.347)" fill="#E2EEFF" fill-opacity="0.49"/>
<circle cx="110.229" cy="212.77" r="7.69047" transform="rotate(-180 110.229 212.77)" fill="#E2EEFF" fill-opacity="0.49"/>
<circle cx="110.229" cy="247.194" r="7.69047" transform="rotate(-180 110.229 247.194)" fill="#E2EEFF" fill-opacity="0.49"/>
<circle cx="110.229" cy="280.886" r="7.69047" transform="rotate(-180 110.229 280.886)" fill="#E2EEFF" fill-opacity="0.49"/>
<circle cx="110.229" cy="315.31" r="7.69047" transform="rotate(-180 110.229 315.31)" fill="#E2EEFF" fill-opacity="0.49"/>
<circle cx="75.8056" cy="7.69039" r="7.69047" transform="rotate(-180 75.8056 7.69039)" fill="#E2EEFF" fill-opacity="0.49"/>
<circle cx="75.8056" cy="41.3818" r="7.69047" transform="rotate(-180 75.8056 41.3818)" fill="#E2EEFF" fill-opacity="0.49"/>
<circle cx="75.8056" cy="75.8056" r="7.69047" transform="rotate(-180 75.8056 75.8056)" fill="#E2EEFF" fill-opacity="0.49"/>
<circle cx="75.8056" cy="110.229" r="7.69047" transform="rotate(-180 75.8056 110.229)" fill="#E2EEFF" fill-opacity="0.49"/>
<circle cx="75.8056" cy="143.921" r="7.69047" transform="rotate(-180 75.8056 143.921)" fill="#E2EEFF" fill-opacity="0.49"/>
<circle cx="75.8056" cy="178.347" r="7.69047" transform="rotate(-180 75.8056 178.347)" fill="#E2EEFF" fill-opacity="0.49"/>
<circle cx="75.8056" cy="212.77" r="7.69047" transform="rotate(-180 75.8056 212.77)" fill="#E2EEFF" fill-opacity="0.49"/>
<circle cx="75.8056" cy="247.194" r="7.69047" transform="rotate(-180 75.8056 247.194)" fill="#E2EEFF" fill-opacity="0.49"/>
<circle cx="75.8056" cy="280.886" r="7.69047" transform="rotate(-180 75.8056 280.886)" fill="#E2EEFF" fill-opacity="0.49"/>
<circle cx="75.8056" cy="315.31" r="7.69047" transform="rotate(-180 75.8056 315.31)" fill="#E2EEFF" fill-opacity="0.49"/>
<circle cx="42.1142" cy="7.69039" r="7.69047" transform="rotate(-180 42.1142 7.69039)" fill="#E2EEFF" fill-opacity="0.49"/>
<circle cx="42.1142" cy="41.3818" r="7.69047" transform="rotate(-180 42.1142 41.3818)" fill="#E2EEFF" fill-opacity="0.49"/>
<circle cx="42.1142" cy="75.8056" r="7.69047" transform="rotate(-180 42.1142 75.8056)" fill="#E2EEFF" fill-opacity="0.49"/>
<circle cx="42.1142" cy="110.229" r="7.69047" transform="rotate(-180 42.1142 110.229)" fill="#E2EEFF" fill-opacity="0.49"/>
<circle cx="42.1142" cy="143.921" r="7.69047" transform="rotate(-180 42.1142 143.921)" fill="#E2EEFF" fill-opacity="0.49"/>
<circle cx="42.1142" cy="178.347" r="7.69047" transform="rotate(-180 42.1142 178.347)" fill="#E2EEFF" fill-opacity="0.49"/>
<circle cx="42.1142" cy="212.77" r="7.69047" transform="rotate(-180 42.1142 212.77)" fill="#E2EEFF" fill-opacity="0.49"/>
<circle cx="42.1142" cy="247.194" r="7.69047" transform="rotate(-180 42.1142 247.194)" fill="#E2EEFF" fill-opacity="0.49"/>
<circle cx="42.1142" cy="280.886" r="7.69047" transform="rotate(-180 42.1142 280.886)" fill="#E2EEFF" fill-opacity="0.49"/>
<circle cx="42.1142" cy="315.31" r="7.69047" transform="rotate(-180 42.1142 315.31)" fill="#E2EEFF" fill-opacity="0.49"/>
<circle cx="7.69039" cy="7.69039" r="7.69047" transform="rotate(-180 7.69039 7.69039)" fill="#E2EEFF" fill-opacity="0.49"/>
<circle cx="7.69039" cy="41.3818" r="7.69047" transform="rotate(-180 7.69039 41.3818)" fill="#E2EEFF" fill-opacity="0.49"/>
<circle cx="7.69039" cy="75.8056" r="7.69047" transform="rotate(-180 7.69039 75.8056)" fill="#E2EEFF" fill-opacity="0.49"/>
<circle cx="7.69039" cy="110.229" r="7.69047" transform="rotate(-180 7.69039 110.229)" fill="#E2EEFF" fill-opacity="0.49"/>
<circle cx="7.69039" cy="143.921" r="7.69047" transform="rotate(-180 7.69039 143.921)" fill="#E2EEFF" fill-opacity="0.49"/>
<circle cx="7.69039" cy="178.347" r="7.69047" transform="rotate(-180 7.69039 178.347)" fill="#E2EEFF" fill-opacity="0.49"/>
<circle cx="7.69039" cy="212.77" r="7.69047" transform="rotate(-180 7.69039 212.77)" fill="#E2EEFF" fill-opacity="0.49"/>
<circle cx="7.69039" cy="247.194" r="7.69047" transform="rotate(-180 7.69039 247.194)" fill="#E2EEFF" fill-opacity="0.49"/>
<circle cx="7.69039" cy="280.886" r="7.69047" transform="rotate(-180 7.69039 280.886)" fill="#E2EEFF" fill-opacity="0.49"/>
<circle cx="7.69039" cy="315.31" r="7.69047" transform="rotate(-180 7.69039 315.31)" fill="#E2EEFF" fill-opacity="0.49"/>
</svg>
