<svg width="24" height="24" viewBox="0 0 24 24" fill="none" xmlns="http://www.w3.org/2000/svg">
<path d="M24 4H0V20.0002H24V4Z" fill="#F0F0F0"/>
<path d="M13.5 4H10.5V10.5H0V13.5H10.5V19.9999H13.5V13.5H24V10.5H13.5V4Z" fill="#D80027"/>
<path d="M18.458 14.7832L23.9993 17.8618V14.7832H18.458Z" fill="#0052B4"/>
<path d="M14.6084 14.7832L23.9997 20.0006V18.5252L17.2641 14.7832H14.6084Z" fill="#0052B4"/>
<path d="M21.4982 19.9999L14.6084 16.1719V19.9999H21.4982Z" fill="#0052B4"/>
<path d="M14.6084 14.7832L23.9997 20.0006V18.5252L17.2641 14.7832H14.6084Z" fill="#F0F0F0"/>
<path d="M14.6084 14.7832L23.9997 20.0006V18.5252L17.2641 14.7832H14.6084Z" fill="#D80027"/>
<path d="M4.23473 14.7832L0 17.1359V14.7832H4.23473Z" fill="#0052B4"/>
<path d="M9.39174 15.4473V20.0012H1.19531L9.39174 15.4473Z" fill="#0052B4"/>
<path d="M6.73561 14.7832L0 18.5252V20.0006L9.39131 14.7832H6.73561Z" fill="#D80027"/>
<path d="M5.54133 9.21723L0 6.13867V9.21723H5.54133Z" fill="#0052B4"/>
<path d="M9.39131 9.21737L0 4V5.47534L6.73561 9.21737H9.39131Z" fill="#0052B4"/>
<path d="M2.50195 4L9.39174 7.828V4H2.50195Z" fill="#0052B4"/>
<path d="M9.39131 9.21737L0 4V5.47534L6.73561 9.21737H9.39131Z" fill="#F0F0F0"/>
<path d="M9.39131 9.21737L0 4V5.47534L6.73561 9.21737H9.39131Z" fill="#D80027"/>
<path d="M19.7646 9.21789L23.9994 6.86523V9.21789H19.7646Z" fill="#0052B4"/>
<path d="M14.6084 8.55395V4H22.8048L14.6084 8.55395Z" fill="#0052B4"/>
<path d="M17.2641 9.21737L23.9997 5.47534V4L14.6084 9.21737H17.2641Z" fill="#D80027"/>
</svg>
