<svg width="291" height="426" viewBox="0 0 291 426" fill="none" xmlns="http://www.w3.org/2000/svg">
<line y1="-0.5" x2="88.7418" y2="-0.5" transform="matrix(0.660665 -0.750681 -0.750681 -0.660665 -3.70117 259.834)" stroke="#DAE7F8"/>
<line y1="-0.5" x2="91.618" y2="-0.5" transform="matrix(0.999985 0.00542801 0.00542801 -0.999985 -36.6895 192.72)" stroke="#DAE7F8"/>
<line y1="-0.5" x2="96.1113" y2="-0.5" transform="matrix(-0.977013 -0.213179 -0.213179 0.977013 126.111 158.92)" stroke="#DAE7F8"/>
<line y1="-0.5" x2="79.0153" y2="-0.5" transform="matrix(-0.900885 0.434057 0.434057 0.900885 126.111 158.92)" stroke="#DAE7F8"/>
<line y1="-0.5" x2="83.2826" y2="-0.5" transform="matrix(-0.744412 0.667721 0.667721 0.744412 168.293 14.8604)" stroke="#DAE7F8"/>
<line y1="-0.5" x2="84.8576" y2="-0.5" transform="matrix(-0.715729 0.698378 0.698378 0.715729 54.1484 20.3135)" stroke="#DAE7F8"/>
<line y1="-0.5" x2="70.6817" y2="-0.5" transform="matrix(-0.554762 -0.832009 -0.832009 0.554762 32.625 138.384)" stroke="#DAE7F8"/>
<line y1="-0.5" x2="106.545" y2="-0.5" transform="matrix(-0.996928 0.0783206 0.0783206 0.996928 54.1484 20.3135)" stroke="#DAE7F8"/>
<line y1="-0.5" x2="113.855" y2="-0.5" transform="matrix(-0.998826 0.0484389 0.0484389 0.998826 167.875 14.9072)" stroke="#DAE7F8"/>
<line y1="-0.5" x2="71.8211" y2="-0.5" transform="matrix(-0.71446 -0.699676 -0.699676 0.71446 105.463 70.5645)" stroke="#DAE7F8"/>
<line y1="-0.5" x2="59.3911" y2="-0.5" transform="matrix(-0.902827 0.430005 0.430005 0.902827 221.496 -10.6309)" stroke="#DAE7F8"/>
<line y1="-0.5" x2="194.54" y2="-0.5" transform="matrix(-0.490307 0.87155 0.87155 0.490307 221.496 -10.6309)" stroke="#DAE7F8"/>
<line y1="-0.5" x2="90.5996" y2="-0.5" transform="matrix(0.214119 0.976808 0.976808 -0.214119 106.711 70.4219)" stroke="#DAE7F8"/>
<line y1="-0.5" x2="120.539" y2="-0.5" transform="matrix(-0.181621 0.983369 0.983369 0.181621 54.1016 19.8965)" stroke="#DAE7F8"/>
<line y1="-0.5" x2="88.2941" y2="-0.5" transform="matrix(-0.784507 0.62012 0.62012 0.784507 32.1602 138.015)" stroke="#DAE7F8"/>
<line y1="-0.5" x2="60.0034" y2="-0.5" transform="matrix(-0.373262 -0.927726 -0.927726 0.373262 54.6055 194.098)" stroke="#DAE7F8"/>
<line y1="-0.5" x2="100.876" y2="-0.5" transform="matrix(-0.738559 0.674189 0.674189 0.738559 106.711 70.4219)" stroke="#DAE7F8"/>
<circle r="3.77284" transform="matrix(-0.113574 -0.99353 -0.99353 0.113574 -4.07146 260.297)" fill="#DEEAF9"/>
<circle r="3.77284" transform="matrix(-0.113574 -0.99353 -0.99353 0.113574 32.2078 138.431)" fill="#DEEAF9"/>
<circle r="3.77284" transform="matrix(-0.113574 -0.99353 -0.99353 0.113574 54.1492 20.3129)" fill="#DEEAF9"/>
<circle r="3.77284" transform="matrix(-0.113574 -0.99353 -0.99353 0.113574 106.296 70.4691)" fill="#DEEAF9"/>
<circle r="3.77284" transform="matrix(-0.113574 -0.99353 -0.99353 0.113574 168.292 14.8598)" fill="#DEEAF9"/>
<circle r="3.77284" transform="matrix(-0.113574 -0.99353 -0.99353 0.113574 126.063 158.503)" fill="#DEEAF9"/>
<circle r="3.77284" transform="matrix(-0.113574 -0.99353 -0.99353 0.113574 54.9266 193.217)" fill="#DEEAF9"/>
</svg>
