<svg width="668" height="721" viewBox="0 0 668 721" fill="none" xmlns="http://www.w3.org/2000/svg">
<line y1="-0.5" x2="236.659" y2="-0.5" transform="matrix(0.119482 -0.992836 -0.992836 -0.119482 80.7598 643.677)" stroke="#DAE7F8"/>
<line y1="-0.5" x2="138.626" y2="-0.5" transform="matrix(0.735277 -0.677767 -0.677767 -0.735277 7.10742 502.67)" stroke="#DAE7F8"/>
<line y1="-0.5" x2="168.062" y2="-0.5" transform="matrix(0.660665 -0.750681 -0.750681 -0.660665 109.734 407.835)" stroke="#DAE7F8"/>
<line y1="-0.5" x2="173.509" y2="-0.5" transform="matrix(0.999985 0.00542801 0.00542801 -0.999985 47.2598 280.732)" stroke="#DAE7F8"/>
<line y1="-0.5" x2="182.018" y2="-0.5" transform="matrix(-0.977013 -0.213179 -0.213179 0.977013 355.578 216.721)" stroke="#DAE7F8"/>
<line y1="-0.5" x2="149.641" y2="-0.5" transform="matrix(-0.900885 0.434057 0.434057 0.900885 355.578 216.721)" stroke="#DAE7F8"/>
<line y1="-0.5" x2="157.723" y2="-0.5" transform="matrix(-0.744412 0.667721 0.667721 0.744412 435.461 -56.1045)" stroke="#DAE7F8"/>
<line y1="-0.5" x2="160.706" y2="-0.5" transform="matrix(-0.715729 0.698378 0.698378 0.715729 219.293 -45.7764)" stroke="#DAE7F8"/>
<line y1="-0.5" x2="133.859" y2="-0.5" transform="matrix(-0.554762 -0.832009 -0.832009 0.554762 178.531 177.828)" stroke="#DAE7F8"/>
<line y1="-0.5" x2="136.415" y2="-0.5" transform="matrix(-0.374326 0.927297 0.927297 0.374326 18.1367 -29.9727)" stroke="#DAE7F8"/>
<line y1="-0.5" x2="141.245" y2="-0.5" transform="matrix(-0.976941 0.213509 0.213509 0.976941 105.061 66.3672)" stroke="#DAE7F8"/>
<line y1="-0.5" x2="130.222" y2="-0.5" transform="matrix(-0.673571 -0.739123 -0.739123 0.673571 105.85 66.2764)" stroke="#DAE7F8"/>
<line y1="-0.5" x2="136.017" y2="-0.5" transform="matrix(-0.71446 -0.699676 -0.699676 0.71446 316.473 49.3906)" stroke="#DAE7F8"/>
<line y1="-0.5" x2="368.425" y2="-0.5" transform="matrix(-0.490307 0.87155 0.87155 0.490307 536.219 -104.379)" stroke="#DAE7F8"/>
<line y1="-0.5" x2="171.58" y2="-0.5" transform="matrix(0.214119 0.976808 0.976808 -0.214119 318.838 49.1211)" stroke="#DAE7F8"/>
<line y1="-0.5" x2="228.281" y2="-0.5" transform="matrix(-0.181621 0.983369 0.983369 0.181621 219.203 -46.5654)" stroke="#DAE7F8"/>
<line y1="-0.5" x2="223.052" y2="-0.5" transform="matrix(-0.262262 0.964997 0.964997 0.262262 104.971 65.5771)" stroke="#DAE7F8"/>
<line y1="-0.5" x2="201.435" y2="-0.5" transform="matrix(0.394619 0.918845 0.918845 -0.394619 -33.0176 95.7344)" stroke="#DAE7F8"/>
<line y1="-0.5" x2="223.791" y2="-0.5" transform="matrix(-0.176705 0.984264 0.984264 0.176705 45.8633 282.49)" stroke="#DAE7F8"/>
<line y1="-0.5" x2="143.123" y2="-0.5" transform="matrix(-0.437765 -0.899089 -0.899089 0.437765 109.035 408.714)" stroke="#DAE7F8"/>
<line y1="-0.5" x2="160.4" y2="-0.5" transform="matrix(-0.469576 -0.882892 -0.882892 0.469576 81.6387 644.376)" stroke="#DAE7F8"/>
<line y1="-0.5" x2="167.214" y2="-0.5" transform="matrix(-0.784507 0.62012 0.62012 0.784507 177.652 177.13)" stroke="#DAE7F8"/>
<line y1="-0.5" x2="113.636" y2="-0.5" transform="matrix(-0.373262 -0.927726 -0.927726 0.373262 220.158 283.342)" stroke="#DAE7F8"/>
<line y1="-0.5" x2="191.042" y2="-0.5" transform="matrix(-0.738559 0.674189 0.674189 0.738559 318.838 49.1211)" stroke="#DAE7F8"/>
<line y1="-0.5" x2="107.646" y2="-0.5" transform="matrix(-0.689175 0.724595 0.724595 0.689175 82.248 642.708)" stroke="#DAE7F8"/>
<line y1="-0.5" x2="217.954" y2="-0.5" transform="matrix(0.00798885 0.999968 0.999968 -0.00798885 6.32031 502.76)" stroke="#DAE7F8"/>
<line y1="-0.5" x2="25.9206" y2="-0.5" transform="matrix(-0.934649 -0.355572 -0.355572 0.934649 6.22852 501.972)" stroke="#DAE7F8"/>
<circle r="7.14511" transform="matrix(-0.113574 -0.99353 -0.99353 0.113574 46.3826 280.033)" fill="#DEEAF9"/>
<circle r="7.14511" transform="matrix(-0.113574 -0.99353 -0.99353 0.113574 109.037 408.713)" fill="#DEEAF9"/>
<circle r="7.14511" transform="matrix(-0.113574 -0.99353 -0.99353 0.113574 177.744 177.918)" fill="#DEEAF9"/>
<circle r="7.14511" transform="matrix(-0.113574 -0.99353 -0.99353 0.113574 104.271 66.4568)" fill="#DEEAF9"/>
<circle r="7.14511" transform="matrix(-0.113574 -0.99353 -0.99353 0.113574 318.051 49.2097)" fill="#DEEAF9"/>
<circle r="7.14511" transform="matrix(-0.113574 -0.99353 -0.99353 0.113574 355.488 215.931)" fill="#DEEAF9"/>
<circle r="7.14511" transform="matrix(-0.113574 -0.99353 -0.99353 0.113574 220.767 281.674)" fill="#DEEAF9"/>
<circle r="7.14511" transform="matrix(-0.113574 -0.99353 -0.99353 0.113574 6.31814 502.759)" fill="#DEEAF9"/>
<circle r="7.14511" transform="matrix(-0.113574 -0.99353 -0.99353 0.113574 80.8494 644.466)" fill="#DEEAF9"/>
</svg>
