<svg width="918" height="765" viewBox="0 0 918 765" fill="none" xmlns="http://www.w3.org/2000/svg">
<line x1="90.6011" y1="774.772" x2="396.507" y2="701.988" stroke="#DAE7F8"/>
<line x1="287.569" y1="850.913" x2="396.218" y2="702.18" stroke="#DAE7F8"/>
<line x1="397.307" y1="701.084" x2="547.095" y2="535.472" stroke="#DAE7F8"/>
<line x1="574.396" y1="764.769" x2="546.97" y2="535.867" stroke="#DAE7F8"/>
<line x1="613.34" y1="347.884" x2="691.399" y2="576.786" stroke="#DAE7F8"/>
<line x1="613.339" y1="348.209" x2="547.939" y2="535.972" stroke="#DAE7F8"/>
<line x1="961.375" y1="201.71" x2="840.067" y2="372.596" stroke="#DAE7F8"/>
<line x1="980.348" y1="488.646" x2="849.547" y2="657.422" stroke="#DAE7F8"/>
<line x1="691.154" y1="575.448" x2="849.381" y2="656.671" stroke="#DAE7F8"/>
<line x1="989.686" y1="756.711" x2="830.404" y2="843.208" stroke="#DAE7F8"/>
<line x1="849.65" y1="656.111" x2="830.663" y2="842.819" stroke="#DAE7F8"/>
<line x1="849.445" y1="654.6" x2="989.74" y2="755.866" stroke="#DAE7F8"/>
<line x1="839.975" y1="374.028" x2="980.27" y2="487.951" stroke="#DAE7F8"/>
<line x1="1009.78" y1="61.5311" x2="613.16" y2="348.45" stroke="#DAE7F8"/>
<line x1="839.609" y1="371.749" x2="612.817" y2="348.543" stroke="#DAE7F8"/>
<line x1="981.154" y1="488.818" x2="691.071" y2="577.425" stroke="#DAE7F8"/>
<line x1="850.392" y1="656.525" x2="575.077" y2="766.229" stroke="#DAE7F8"/>
<line x1="396.789" y1="702.002" x2="576.114" y2="765.293" stroke="#DAE7F8"/>
<line x1="692.405" y1="577.211" x2="575.317" y2="766.029" stroke="#DAE7F8"/>
<line x1="545.49" y1="536.381" x2="691.059" y2="576.465" stroke="#DAE7F8"/>
<line x1="840.065" y1="371.545" x2="691.332" y2="577.24" stroke="#DAE7F8"/>
<circle cx="575.949" cy="765.765" r="9.49363" fill="#DEEAF9"/>
<circle cx="396.624" cy="702.474" r="9.49363" fill="#DEEAF9"/>
<circle cx="690.927" cy="576.947" r="9.49363" fill="#DEEAF9"/>
<circle cx="849.154" cy="657.116" r="9.49363" fill="#DEEAF9"/>
<circle cx="839.662" cy="372.307" r="9.49363" fill="#DEEAF9"/>
<circle cx="613.923" cy="348.045" r="9.49363" fill="#DEEAF9"/>
<circle cx="547.468" cy="535.808" r="9.49363" fill="#DEEAF9"/>
</svg>
