<svg width="382" height="257" viewBox="0 0 382 257" fill="none" xmlns="http://www.w3.org/2000/svg">
<g filter="url(#filter0_d)">
<path d="M-54 299L3 181.5L56 299L121.5 139.5L183 299L251.5 96L297 228L327.5 133V299H183H56H-54Z" fill="white"/>
</g>
<path d="M-0.5 171.5C1.83333 160.5 16.2 139.3 55 142.5C93.8 145.7 151.5 115.834 175.5 100.5C199.667 82.0002 259.6 47.5002 306 57.5002C352.4 67.5002 376 24.0001 382 1" stroke="#9CCCF2" stroke-width="2" stroke-dasharray="5 5"/>
<path d="M0 182C2.33333 171 83.2 137.3 122 140.5C144.333 152.5 201.6 161.4 252 101C279.5 49 353.5 17 381.5 17" stroke="#DBEFFF" stroke-width="2" stroke-dasharray="5 5"/>
<circle cx="121.5" cy="141.5" r="8.5" fill="#D7EDFF"/>
<circle cx="251.5" cy="100.5" r="8.5" fill="#D7EDFF"/>
<path d="M0 256.5L57 139L110 256.5L175.5 97L237 256.5L305.5 53.5L351 185.5L381.5 90.5V256.5H237H110H0Z" fill="white"/>
<circle cx="175.5" cy="99.5" r="8.5" fill="url(#paint0_linear)"/>
<circle cx="305.5" cy="57.5" r="8.5" fill="url(#paint1_linear)"/>
<circle cx="56.5" cy="141.5" r="8.5" fill="url(#paint2_linear)"/>
<defs>
<filter id="filter0_d" x="-117" y="63" width="487.5" height="309" filterUnits="userSpaceOnUse" color-interpolation-filters="sRGB">
<feFlood flood-opacity="0" result="BackgroundImageFix"/>
<feColorMatrix in="SourceAlpha" type="matrix" values="0 0 0 0 0 0 0 0 0 0 0 0 0 0 0 0 0 0 127 0"/>
<feOffset dx="-10" dy="20"/>
<feGaussianBlur stdDeviation="26.5"/>
<feColorMatrix type="matrix" values="0 0 0 0 0.0313725 0 0 0 0 0.317647 0 0 0 0 0.74902 0 0 0 0.26 0"/>
<feBlend mode="normal" in2="BackgroundImageFix" result="effect1_dropShadow"/>
<feBlend mode="normal" in="SourceGraphic" in2="effect1_dropShadow" result="shape"/>
</filter>
<linearGradient id="paint0_linear" x1="167" y1="100" x2="184" y2="100" gradientUnits="userSpaceOnUse">
<stop stop-color="#2096F3"/>
<stop offset="1" stop-color="#0851BF"/>
</linearGradient>
<linearGradient id="paint1_linear" x1="297" y1="58" x2="314" y2="58" gradientUnits="userSpaceOnUse">
<stop stop-color="#2096F3"/>
<stop offset="1" stop-color="#0851BF"/>
</linearGradient>
<linearGradient id="paint2_linear" x1="48" y1="142" x2="65" y2="142" gradientUnits="userSpaceOnUse">
<stop stop-color="#2096F3"/>
<stop offset="1" stop-color="#0851BF"/>
</linearGradient>
</defs>
</svg>
