<svg width="116" height="147" viewBox="0 0 116 147" fill="none" xmlns="http://www.w3.org/2000/svg">
<circle cx="111.735" cy="4.47303" r="3.47619" transform="rotate(-180 111.735 4.47303)" fill="#E2EEFF"/>
<circle cx="111.735" cy="19.7035" r="3.47619" transform="rotate(-180 111.735 19.7035)" fill="#E2EEFF"/>
<circle cx="111.735" cy="35.266" r="3.47619" transform="rotate(-180 111.735 35.266)" fill="#E2EEFF"/>
<circle cx="111.735" cy="50.8246" r="3.47619" transform="rotate(-180 111.735 50.8246)" fill="#E2EEFF"/>
<circle cx="111.735" cy="66.0551" r="3.47619" transform="rotate(-180 111.735 66.0551)" fill="#E2EEFF"/>
<circle cx="111.735" cy="81.6136" r="3.47619" transform="rotate(-180 111.735 81.6136)" fill="#E2EEFF"/>
<circle cx="111.735" cy="97.1761" r="3.47619" transform="rotate(-180 111.735 97.1761)" fill="#E2EEFF"/>
<circle cx="111.735" cy="112.735" r="3.47619" transform="rotate(-180 111.735 112.735)" fill="#E2EEFF"/>
<circle cx="111.735" cy="127.965" r="3.47619" transform="rotate(-180 111.735 127.965)" fill="#E2EEFF"/>
<circle cx="111.735" cy="143.524" r="3.47619" transform="rotate(-180 111.735 143.524)" fill="#E2EEFF"/>
<circle cx="96.1761" cy="4.47303" r="3.47619" transform="rotate(-180 96.1761 4.47303)" fill="#E2EEFF"/>
<circle cx="96.1761" cy="19.7035" r="3.47619" transform="rotate(-180 96.1761 19.7035)" fill="#E2EEFF"/>
<circle cx="96.1761" cy="35.266" r="3.47619" transform="rotate(-180 96.1761 35.266)" fill="#E2EEFF"/>
<circle cx="96.1761" cy="50.8246" r="3.47619" transform="rotate(-180 96.1761 50.8246)" fill="#E2EEFF"/>
<circle cx="96.1761" cy="66.0551" r="3.47619" transform="rotate(-180 96.1761 66.0551)" fill="#E2EEFF"/>
<circle cx="96.1761" cy="81.6136" r="3.47619" transform="rotate(-180 96.1761 81.6136)" fill="#E2EEFF"/>
<circle cx="96.1761" cy="97.1761" r="3.47619" transform="rotate(-180 96.1761 97.1761)" fill="#E2EEFF"/>
<circle cx="96.1761" cy="112.735" r="3.47619" transform="rotate(-180 96.1761 112.735)" fill="#E2EEFF"/>
<circle cx="96.1761" cy="127.965" r="3.47619" transform="rotate(-180 96.1761 127.965)" fill="#E2EEFF"/>
<circle cx="96.1761" cy="143.524" r="3.47619" transform="rotate(-180 96.1761 143.524)" fill="#E2EEFF"/>
<circle cx="80.9457" cy="4.47303" r="3.47619" transform="rotate(-180 80.9457 4.47303)" fill="#E2EEFF"/>
<circle cx="80.9457" cy="19.7035" r="3.47619" transform="rotate(-180 80.9457 19.7035)" fill="#E2EEFF"/>
<circle cx="80.9457" cy="35.266" r="3.47619" transform="rotate(-180 80.9457 35.266)" fill="#E2EEFF"/>
<circle cx="80.9457" cy="50.8246" r="3.47619" transform="rotate(-180 80.9457 50.8246)" fill="#E2EEFF"/>
<circle cx="80.9457" cy="66.0551" r="3.47619" transform="rotate(-180 80.9457 66.0551)" fill="#E2EEFF"/>
<circle cx="80.9457" cy="81.6136" r="3.47619" transform="rotate(-180 80.9457 81.6136)" fill="#E2EEFF"/>
<circle cx="80.9457" cy="97.1761" r="3.47619" transform="rotate(-180 80.9457 97.1761)" fill="#E2EEFF"/>
<circle cx="80.9457" cy="112.735" r="3.47619" transform="rotate(-180 80.9457 112.735)" fill="#E2EEFF"/>
<circle cx="80.9457" cy="127.965" r="3.47619" transform="rotate(-180 80.9457 127.965)" fill="#E2EEFF"/>
<circle cx="80.9457" cy="143.524" r="3.47619" transform="rotate(-180 80.9457 143.524)" fill="#E2EEFF"/>
<circle cx="65.3871" cy="4.47303" r="3.47619" transform="rotate(-180 65.3871 4.47303)" fill="#E2EEFF"/>
<circle cx="65.3871" cy="19.7035" r="3.47619" transform="rotate(-180 65.3871 19.7035)" fill="#E2EEFF"/>
<circle cx="65.3871" cy="35.266" r="3.47619" transform="rotate(-180 65.3871 35.266)" fill="#E2EEFF"/>
<circle cx="65.3871" cy="50.8246" r="3.47619" transform="rotate(-180 65.3871 50.8246)" fill="#E2EEFF"/>
<circle cx="65.3871" cy="66.0551" r="3.47619" transform="rotate(-180 65.3871 66.0551)" fill="#E2EEFF"/>
<circle cx="65.3871" cy="81.6136" r="3.47619" transform="rotate(-180 65.3871 81.6136)" fill="#E2EEFF"/>
<circle cx="65.3871" cy="97.1761" r="3.47619" transform="rotate(-180 65.3871 97.1761)" fill="#E2EEFF"/>
<circle cx="65.3871" cy="112.735" r="3.47619" transform="rotate(-180 65.3871 112.735)" fill="#E2EEFF"/>
<circle cx="65.3871" cy="127.965" r="3.47619" transform="rotate(-180 65.3871 127.965)" fill="#E2EEFF"/>
<circle cx="65.3871" cy="143.524" r="3.47619" transform="rotate(-180 65.3871 143.524)" fill="#E2EEFF"/>
<circle cx="49.8246" cy="4.47303" r="3.47619" transform="rotate(-180 49.8246 4.47303)" fill="#E2EEFF"/>
<circle cx="49.8246" cy="19.7035" r="3.47619" transform="rotate(-180 49.8246 19.7035)" fill="#E2EEFF"/>
<circle cx="49.8246" cy="35.266" r="3.47619" transform="rotate(-180 49.8246 35.266)" fill="#E2EEFF"/>
<circle cx="49.8246" cy="50.8246" r="3.47619" transform="rotate(-180 49.8246 50.8246)" fill="#E2EEFF"/>
<circle cx="49.8246" cy="66.0551" r="3.47619" transform="rotate(-180 49.8246 66.0551)" fill="#E2EEFF"/>
<circle cx="49.8246" cy="81.6136" r="3.47619" transform="rotate(-180 49.8246 81.6136)" fill="#E2EEFF"/>
<circle cx="49.8246" cy="97.1761" r="3.47619" transform="rotate(-180 49.8246 97.1761)" fill="#E2EEFF"/>
<circle cx="49.8246" cy="112.735" r="3.47619" transform="rotate(-180 49.8246 112.735)" fill="#E2EEFF"/>
<circle cx="49.8246" cy="127.965" r="3.47619" transform="rotate(-180 49.8246 127.965)" fill="#E2EEFF"/>
<circle cx="49.8246" cy="143.524" r="3.47619" transform="rotate(-180 49.8246 143.524)" fill="#E2EEFF"/>
<circle cx="34.266" cy="4.47303" r="3.47619" transform="rotate(-180 34.266 4.47303)" fill="#E2EEFF"/>
<circle cx="34.266" cy="19.7035" r="3.47619" transform="rotate(-180 34.266 19.7035)" fill="#E2EEFF"/>
<circle cx="34.266" cy="35.266" r="3.47619" transform="rotate(-180 34.266 35.266)" fill="#E2EEFF"/>
<circle cx="34.266" cy="50.8246" r="3.47619" transform="rotate(-180 34.266 50.8246)" fill="#E2EEFF"/>
<circle cx="34.266" cy="66.0551" r="3.47619" transform="rotate(-180 34.266 66.0551)" fill="#E2EEFF"/>
<circle cx="34.266" cy="81.6136" r="3.47619" transform="rotate(-180 34.266 81.6136)" fill="#E2EEFF"/>
<circle cx="34.266" cy="97.1761" r="3.47619" transform="rotate(-180 34.266 97.1761)" fill="#E2EEFF"/>
<circle cx="34.266" cy="112.735" r="3.47619" transform="rotate(-180 34.266 112.735)" fill="#E2EEFF"/>
<circle cx="34.266" cy="127.965" r="3.47619" transform="rotate(-180 34.266 127.965)" fill="#E2EEFF"/>
<circle cx="34.266" cy="143.524" r="3.47619" transform="rotate(-180 34.266 143.524)" fill="#E2EEFF"/>
<circle cx="19.0355" cy="4.47303" r="3.47619" transform="rotate(-180 19.0355 4.47303)" fill="#E2EEFF"/>
<circle cx="19.0355" cy="19.7035" r="3.47619" transform="rotate(-180 19.0355 19.7035)" fill="#E2EEFF"/>
<circle cx="19.0355" cy="35.266" r="3.47619" transform="rotate(-180 19.0355 35.266)" fill="#E2EEFF"/>
<circle cx="19.0355" cy="50.8246" r="3.47619" transform="rotate(-180 19.0355 50.8246)" fill="#E2EEFF"/>
<circle cx="19.0355" cy="66.0551" r="3.47619" transform="rotate(-180 19.0355 66.0551)" fill="#E2EEFF"/>
<circle cx="19.0355" cy="81.6136" r="3.47619" transform="rotate(-180 19.0355 81.6136)" fill="#E2EEFF"/>
<circle cx="19.0355" cy="97.1761" r="3.47619" transform="rotate(-180 19.0355 97.1761)" fill="#E2EEFF"/>
<circle cx="19.0355" cy="112.735" r="3.47619" transform="rotate(-180 19.0355 112.735)" fill="#E2EEFF"/>
<circle cx="19.0355" cy="127.965" r="3.47619" transform="rotate(-180 19.0355 127.965)" fill="#E2EEFF"/>
<circle cx="19.0355" cy="143.524" r="3.47619" transform="rotate(-180 19.0355 143.524)" fill="#E2EEFF"/>
<circle cx="3.47693" cy="4.47303" r="3.47619" transform="rotate(-180 3.47693 4.47303)" fill="#E2EEFF"/>
<circle cx="3.47693" cy="19.7035" r="3.47619" transform="rotate(-180 3.47693 19.7035)" fill="#E2EEFF"/>
<circle cx="3.47693" cy="35.266" r="3.47619" transform="rotate(-180 3.47693 35.266)" fill="#E2EEFF"/>
<circle cx="3.47693" cy="50.8246" r="3.47619" transform="rotate(-180 3.47693 50.8246)" fill="#E2EEFF"/>
<circle cx="3.47693" cy="66.0551" r="3.47619" transform="rotate(-180 3.47693 66.0551)" fill="#E2EEFF"/>
<circle cx="3.47693" cy="81.6136" r="3.47619" transform="rotate(-180 3.47693 81.6136)" fill="#E2EEFF"/>
<circle cx="3.47693" cy="97.1761" r="3.47619" transform="rotate(-180 3.47693 97.1761)" fill="#E2EEFF"/>
<circle cx="3.47693" cy="112.735" r="3.47619" transform="rotate(-180 3.47693 112.735)" fill="#E2EEFF"/>
<circle cx="3.47693" cy="127.965" r="3.47619" transform="rotate(-180 3.47693 127.965)" fill="#E2EEFF"/>
<circle cx="3.47693" cy="143.524" r="3.47619" transform="rotate(-180 3.47693 143.524)" fill="#E2EEFF"/>
</svg>
