<svg width="50" height="70" viewBox="0 0 50 70" fill="none" xmlns="http://www.w3.org/2000/svg">
<path d="M11.7709 70H26.8171C31.0158 70 34.9009 67.5618 36.9559 63.6138L49.9712 38.6171L49.2366 38.0156C49.2228 38.0036 49.209 37.9916 49.1958 37.9796C48.0649 36.9159 46.543 36.3696 44.9941 36.4727C43.4123 36.5933 41.9515 37.3662 40.9615 38.6063L37.2071 43.1767C36.9193 43.5269 36.442 43.6589 36.015 43.5059C35.5875 43.353 35.3027 42.9489 35.3021 42.4949L35.2805 11.0514C35.2787 8.90831 33.6824 7.16514 31.7216 7.16514C29.8039 7.16514 28.2371 8.82735 28.1645 10.9021C28.1645 14.0778 28.1627 17.5348 28.1621 20.825C28.1609 28.2666 28.1597 34.6894 28.1621 35.3124C28.1633 35.5966 28.0506 35.8695 27.8497 36.0704C27.6482 36.2706 27.3754 36.3828 27.0912 36.3816H27.0876C26.8039 36.384 26.5317 36.273 26.3296 36.074C26.1281 35.8749 26.0142 35.6032 26.013 35.3202C26.0106 34.693 26.0118 28.2738 26.013 20.8286C26.013 17.6169 26.0142 14.2445 26.0148 11.1312C26.013 11.106 26.0118 11.0826 26.0118 11.0574C26.0118 10.9963 26.013 10.9375 26.0148 10.8763C26.0148 8.26249 26.0148 5.84832 26.0148 3.8719C26.016 1.72937 24.4191 0 22.4571 0H22.348C20.3859 0 18.7579 1.71558 18.7579 3.85991V35.325C18.7579 35.9181 18.2764 36.3996 17.6833 36.3996C17.0897 36.3996 16.6088 35.9181 16.6088 35.325V7.92789C16.6088 5.78356 15.0455 4.0392 13.0835 4.0392C11.11 4.0392 9.54738 5.78356 9.54738 7.92789V35.325C9.54738 35.9181 9.06586 36.3996 8.47282 36.3996C7.87917 36.3996 7.39826 35.9181 7.39826 35.325V19.1754C7.39826 17.0305 5.76663 15.3509 3.80399 15.3509H3.70145C1.74422 15.3509 0.147365 17.0509 0.142568 19.1886C0.12218 28.0136 0.134772 43.5725 0.147965 57.4998C0.153961 64.4005 5.36846 70 11.7709 70Z" fill="#2096F3"/>
</svg>
