<svg width="70" height="70" viewBox="0 0 70 70" fill="none" xmlns="http://www.w3.org/2000/svg">
<g clip-path="url(#clip0)">
<path d="M67.2444 62.1582H65.3438C66.0368 63.3053 66.3758 64.668 66.2427 66.0971H67.2444C68.332 66.0971 69.2139 65.2154 69.2139 64.1276C69.214 63.04 68.3322 62.1582 67.2444 62.1582Z" fill="#2096F3"/>
<path d="M54.2643 62.1582H48.0137C48.7067 63.305 49.0458 64.668 48.9126 66.0971H53.3651C53.2321 64.6684 53.5712 63.3054 54.2643 62.1582Z" fill="#2096F3"/>
<path d="M37.9134 32.8269C37.9134 31.7391 37.0317 30.8574 35.944 30.8574H32.9526C33.2028 31.7369 33.2347 32.6905 32.9978 33.6397C32.8961 34.0468 32.7484 34.4337 32.5625 34.7963H33.9744V64.1279C33.9744 65.2156 34.8561 66.0973 35.9438 66.0973H36.0335C35.8505 64.13 36.563 62.2533 37.9133 60.91V32.8269H37.9134Z" fill="#2096F3"/>
<path d="M61.8526 54.9941H44.5216C43.7383 54.9941 43.1035 55.6289 43.1035 56.4122C43.1035 57.1955 43.7383 57.8302 44.5216 57.8302H61.8526C62.6359 57.8302 63.2707 57.1955 63.2707 56.4122C63.2707 55.6289 62.6359 54.9941 61.8526 54.9941Z" fill="#2096F3"/>
<path d="M61.8526 50.582H44.5216C43.7383 50.582 43.1035 51.2168 43.1035 52.0001C43.1035 52.7833 43.7383 53.4181 44.5216 53.4181H61.8526C62.6359 53.4181 63.2707 52.7833 63.2707 52.0001C63.2707 51.2168 62.6359 50.582 61.8526 50.582Z" fill="#2096F3"/>
<path d="M61.8526 46.1719H44.5216C43.7383 46.1719 43.1035 46.8067 43.1035 47.5899C43.1035 48.3732 43.7383 49.008 44.5216 49.008H61.8526C62.6359 49.008 63.2707 48.3732 63.2707 47.5899C63.2707 46.8068 62.6359 46.1719 61.8526 46.1719Z" fill="#2096F3"/>
<path d="M61.8526 41.7578H44.5216C43.7383 41.7578 43.1035 42.3926 43.1035 43.1759C43.1035 43.9591 43.7383 44.5939 44.5216 44.5939H61.8526C62.6359 44.5939 63.2707 43.9591 63.2707 43.1759C63.2707 42.3926 62.6359 41.7578 61.8526 41.7578Z" fill="#2096F3"/>
<path d="M61.8526 37.3477H44.5216C43.7383 37.3477 43.1035 37.9824 43.1035 38.7657C43.1035 39.549 43.7383 40.1838 44.5216 40.1838H61.8526C62.6359 40.1838 63.2707 39.549 63.2707 38.7657C63.2707 37.9824 62.6359 37.3477 61.8526 37.3477Z" fill="#2096F3"/>
<path d="M15.7898 12.1929C19.1568 12.1929 21.8862 9.46341 21.8862 6.09644C21.8862 2.72947 19.1568 0 15.7898 0C12.4228 0 9.69336 2.72947 9.69336 6.09644C9.69336 9.46341 12.4228 12.1929 15.7898 12.1929Z" fill="#2096F3"/>
<path d="M28.4132 29.6492C27.4306 29.4039 20.1259 27.5809 19.1433 27.3355L15.6209 17.4386L20.918 25.0456L21.434 19.0437C21.6288 16.7775 19.9497 14.7825 17.6837 14.5878L10.3665 13.9587C8.10036 13.7639 6.10535 15.4431 5.91053 17.7091L4.28904 38.7773C4.2941 38.8203 6.28145 51.5101 6.28145 51.5101L0.999308 65.5151C0.353311 67.2277 1.21806 69.14 2.93087 69.786C4.64383 70.4319 6.55584 69.567 7.20184 67.8545L12.793 53.0307C12.9954 52.4941 13.0551 51.9137 12.9661 51.347C12.7954 50.2605 11.3044 40.7637 11.0844 39.362L12.8327 39.5122L18.1213 51.2145L21.8056 67.4196C22.2114 69.2042 23.9871 70.3225 25.7725 69.9169C27.5574 69.511 28.6753 67.7351 28.2698 65.95L24.5114 49.4191C24.4621 49.2026 24.3912 48.9915 24.2996 48.789L19.7438 38.7079L19.9791 35.9709L15.7265 34.9096C13.3418 34.3143 11.9515 32.2315 11.8001 30.8776L10.5457 19.6543L14.4352 30.5829C14.737 31.4306 15.4465 32.1067 16.3687 32.3368L27.0755 35.0088C28.45 35.3523 29.8591 34.5988 30.3393 33.2703C30.8996 31.721 29.9996 30.0451 28.4132 29.6492Z" fill="#2096F3"/>
<path d="M45.1696 61.9957C44.4227 61.4188 43.4876 61.0742 42.473 61.0742C40.0372 61.0742 38.0527 63.0594 38.0527 65.4945C38.0527 67.95 40.0569 69.9146 42.473 69.9146C44.9096 69.9146 46.8931 67.9301 46.8931 65.4943C46.8931 64.0719 46.2168 62.8048 45.1696 61.9957ZM42.473 67.1666C41.5511 67.1666 40.8011 66.4164 40.8011 65.4946C40.8011 64.5727 41.5512 63.8227 42.473 63.8227C43.3949 63.8227 44.1449 64.5727 44.1449 65.4946C44.1449 66.4164 43.3949 67.1666 42.473 67.1666Z" fill="#2096F3"/>
<path d="M59.8041 61.0742C57.3683 61.0742 55.3838 63.0594 55.3838 65.4945C55.3838 67.95 57.388 69.9146 59.8041 69.9146C62.232 69.9146 64.2242 67.94 64.2242 65.4943C64.2243 63.0543 62.2349 61.0742 59.8041 61.0742ZM59.8041 67.1664C58.8822 67.1664 58.1321 66.4162 58.1321 65.4945C58.1321 64.5726 58.8823 63.8225 59.8041 63.8225C60.7259 63.8225 61.476 64.5726 61.476 65.4945C61.476 66.4162 60.7261 67.1664 59.8041 67.1664Z" fill="#2096F3"/>
</g>
<defs>
<clipPath id="clip0">
<rect width="70" height="70" fill="white"/>
</clipPath>
</defs>
</svg>
