<svg width="24" height="24" viewBox="0 0 24 24" fill="none" xmlns="http://www.w3.org/2000/svg">
<path d="M20.4853 3.51469C18.2188 1.24819 15.2053 0 12 0C8.79469 0 5.78119 1.24819 3.51469 3.51469C1.24823 5.78119 0 8.79469 0 12C0 15.2053 1.24823 18.2188 3.51469 20.4853C5.78119 22.7518 8.79469 24 12 24C15.2053 24 18.2188 22.7518 20.4853 20.4853C22.7518 18.2188 24 15.2053 24 12C24 8.79469 22.7518 5.78119 20.4853 3.51469ZM12 22.5938C6.15858 22.5938 1.40625 17.8414 1.40625 12C1.40625 6.15858 6.15858 1.40625 12 1.40625C17.8414 1.40625 22.5938 6.15858 22.5938 12C22.5938 17.8414 17.8414 22.5938 12 22.5938Z" fill="white"/>
<path d="M12.7539 11.2937H11.2476C10.3895 11.2937 9.69136 10.5956 9.69136 9.7375C9.69136 8.87936 10.3895 8.18125 11.2476 8.18125H14.2601C14.6484 8.18125 14.9633 7.86644 14.9633 7.47813C14.9633 7.08981 14.6484 6.775 14.2601 6.775H12.7039V5.21875C12.7039 4.83044 12.3891 4.51562 12.0008 4.51562C11.6124 4.51562 11.2976 4.83044 11.2976 5.21875V6.775H11.2477C9.61411 6.775 8.28516 8.104 8.28516 9.7375C8.28516 11.371 9.61416 12.7 11.2477 12.7H12.7539C13.612 12.7 14.3101 13.3981 14.3101 14.2562C14.3101 15.1143 13.612 15.8125 12.7539 15.8125H9.74142C9.35311 15.8125 9.0383 16.1273 9.0383 16.5156C9.0383 16.9039 9.35311 17.2187 9.74142 17.2187H11.2976V18.775C11.2976 19.1633 11.6124 19.4781 12.0008 19.4781C12.3891 19.4781 12.7039 19.1633 12.7039 18.775V17.2187H12.7539C14.3874 17.2187 15.7164 15.8897 15.7164 14.2562C15.7164 12.6227 14.3874 11.2937 12.7539 11.2937Z" fill="white"/>
</svg>
