<svg width="24" height="24" viewBox="0 0 24 24" fill="none" xmlns="http://www.w3.org/2000/svg">
<g clip-path="url(#clip0)">
<path d="M8.62117 10.4287C9.10145 8.95043 8.29394 7.36516 6.81541 6.88479C5.3372 6.40436 3.75189 7.21197 3.27147 8.69051C2.79114 10.1688 3.59866 11.7541 5.07719 12.2344C6.54878 12.7127 8.14084 11.9069 8.62117 10.4287ZM5.51177 10.8971C4.77259 10.6569 4.36872 9.86435 4.60891 9.12509C4.84886 8.38666 5.641 7.98185 6.38087 8.22223C7.12005 8.46237 7.52397 9.25493 7.28378 9.9942C7.04416 10.7316 6.24925 11.1367 5.51177 10.8971Z" fill="white"/>
<path d="M9.6422 13.5731C8.38469 12.6594 6.62744 12.9376 5.71371 14.1953C4.80007 15.4528 5.07818 17.2101 6.33593 18.1238C7.59845 19.041 9.35866 18.7483 10.2644 17.5016C11.1781 16.2441 10.8999 14.4868 9.6422 13.5731ZM9.12677 16.675C8.67095 17.3023 7.78984 17.4418 7.16252 16.9861C6.53374 16.5292 6.39457 15.6507 6.85141 15.0218C7.30816 14.3932 8.18683 14.2539 8.81566 14.7107C9.44439 15.1676 9.58361 16.0462 9.12677 16.675Z" fill="white"/>
<path d="M12.9492 13.5731C11.6917 14.4866 11.4132 16.2438 12.327 17.5016C13.236 18.7526 14.9974 19.0378 16.2555 18.1238C17.5129 17.2102 17.7915 15.453 16.8777 14.1953C15.9641 12.9378 14.2069 12.6593 12.9492 13.5731ZM15.4289 16.9861C14.8016 17.4419 13.9204 17.3023 13.4647 16.675C13.0078 16.0463 13.1469 15.1676 13.7758 14.7108C14.4045 14.254 15.2831 14.393 15.74 15.0219C16.1969 15.6506 16.0577 16.5292 15.4289 16.9861Z" fill="white"/>
<path d="M13.9707 10.4287C14.4507 11.9059 16.0419 12.7131 17.5146 12.2344C18.9929 11.7541 19.8008 10.169 19.3204 8.69047C18.84 7.21213 17.255 6.40438 15.7764 6.88475C14.2981 7.36508 13.4903 8.95016 13.9707 10.4287ZM16.211 8.22214C16.9503 7.98196 17.7428 8.38583 17.983 9.125C18.2231 9.86418 17.8194 10.6567 17.0801 10.897C16.3426 11.1365 15.5477 10.7316 15.3081 9.99411C15.0679 9.25499 15.4717 8.46238 16.211 8.22214Z" fill="white"/>
<path d="M11.2969 8.48438C12.8477 8.48438 14.1094 7.22269 14.1094 5.67188C14.1094 4.12106 12.8477 2.85938 11.2969 2.85938C9.74606 2.85938 8.48438 4.12106 8.48438 5.67188C8.48438 7.22269 9.74606 8.48438 11.2969 8.48438ZM11.2969 4.26562C12.0723 4.26562 12.7031 4.89647 12.7031 5.67188C12.7031 6.44728 12.0723 7.07812 11.2969 7.07812C10.5215 7.07812 9.89062 6.44728 9.89062 5.67188C9.89062 4.89647 10.5215 4.26562 11.2969 4.26562Z" fill="white"/>
<path d="M11.2969 12C11.6852 12 12 11.6852 12 11.2969C12 10.9085 11.6852 10.5938 11.2969 10.5938C10.9085 10.5938 10.5938 10.9085 10.5938 11.2969C10.5938 11.6852 10.9085 12 11.2969 12Z" fill="white"/>
<path d="M23.6112 22.6678C21.6741 21.6993 19.4893 21.1873 17.2929 21.1873H16.7273C20.194 19.2604 22.5467 15.5495 22.5467 11.2968C22.5467 5.06771 17.5 0 11.2968 0C5.07802 0 0 5.07844 0 11.2968C0 17.5156 5.07844 22.5936 11.2968 22.5936H17.2929C19.2721 22.5936 21.2395 23.0542 22.9823 23.9256C23.3304 24.0997 23.7523 23.9577 23.9256 23.6112C24.0992 23.2638 23.9585 22.8415 23.6112 22.6678ZM1.40624 11.2968C1.40624 5.84311 5.84311 1.40624 11.2968 1.40624C16.7246 1.40624 21.1405 5.84311 21.1405 11.2968C21.1405 16.7505 16.7246 21.1873 11.2968 21.1873C5.84316 21.1873 1.40624 16.7505 1.40624 11.2968Z" fill="white"/>
</g>
<defs>
<clipPath id="clip0">
<rect width="24" height="24" fill="white"/>
</clipPath>
</defs>
</svg>
