<svg width="24" height="24" viewBox="0 0 24 24" fill="none" xmlns="http://www.w3.org/2000/svg">
<path d="M20.4853 3.51469C18.2188 1.24825 15.2053 0 12 0C8.79469 0 5.78123 1.24825 3.51469 3.51469C1.24825 5.78123 0 8.79469 0 12C0 15.2053 1.24825 18.2188 3.51469 20.4853C5.78123 22.7518 8.79469 24 12 24C15.2053 24 18.2188 22.7518 20.4853 20.4853C22.7518 18.2188 24 15.2053 24 12C24 8.79469 22.7518 5.78123 20.4853 3.51469ZM12 22.5155C6.20175 22.5155 1.48454 17.7983 1.48454 12C1.48454 6.20175 6.20175 1.48454 12 1.48454C17.7983 1.48454 22.5155 6.20175 22.5155 12C22.5155 17.7983 17.7983 22.5155 12 22.5155Z" fill="white"/>
<path d="M8.95898 16.6543L17.0188 11.999L8.95898 7.34375V16.6543Z" fill="white"/>
</svg>
