<svg width="70" height="70" viewBox="0 0 70 70" fill="none" xmlns="http://www.w3.org/2000/svg">
<path d="M68.6019 17.3074L52.6959 1.39975C51.7947 0.49711 50.5954 0 49.3183 0C46.6864 0 44.5455 2.14087 44.5455 4.77273C44.5455 5.73115 44.8286 6.64677 45.353 7.42697C31.5264 21.3164 22.9392 30.9771 22.334 43.1668L8.20655 57.2942C7.88618 57.2432 7.54955 57.2889 7.24305 57.4404L0.879365 60.6223C0.422525 60.8507 0.102603 61.2857 0.0217648 61.7906C-0.0622054 62.2955 0.105735 62.8082 0.466076 63.1702L6.82977 69.5339C7.13119 69.8353 7.53509 70 7.95464 70C8.03861 70 8.12556 69.9937 8.20938 69.9799C8.71276 69.8975 9.14782 69.5775 9.37766 69.1208L12.5594 62.7571C12.7131 62.4512 12.7594 62.1137 12.7072 61.7921L26.8302 47.6691C39.0256 47.0925 48.2932 38.8682 62.5715 24.6491C63.3502 25.1726 64.2666 25.4546 65.2273 25.4546C67.8591 25.4546 70 23.3137 70 20.6819C70.0001 19.4079 69.5029 18.2084 68.6019 17.3074ZM28.9099 41.0887C29.589 36.9189 31.5844 32.9259 34.9426 28.3985L41.6024 35.0572C37.0746 38.4157 33.0808 40.4109 28.9099 41.0887ZM46.5792 31.0354L38.9641 23.4216C41.8871 20.0684 45.5126 16.3054 49.7933 11.9972L58.0027 20.2073C53.6948 24.4874 49.932 28.1124 46.5792 31.0354Z" fill="#0852C0"/>
</svg>
