<svg width="70" height="70" viewBox="0 0 70 70" fill="none" xmlns="http://www.w3.org/2000/svg">
<path d="M63.5565 4.375H32.8028C29.2438 4.375 26.3594 7.25998 26.3594 10.8184V25.9669C27.985 26.775 29.7416 27.6487 31.3811 28.4637L33.8896 23.4446C35.4084 20.4095 39.1111 19.1764 42.1451 20.6926C45.1854 22.2141 46.4175 25.9066 44.8954 28.9475L40.4238 37.893C40.5423 39.077 40.4371 40.2706 40.1033 41.4258H43.0556L35.2691 62.8372C34.8071 64.1072 35.7 65.5892 37.197 65.5892C38.0339 65.5892 38.8211 65.0728 39.1234 64.2386L47.4194 41.4258H48.8566L57.237 64.2455C57.5419 65.0755 58.327 65.5892 59.1633 65.5892C60.562 65.5892 61.5874 64.1921 61.087 62.8319L53.2257 41.4258H63.5565C67.1149 41.4258 69.9999 38.5408 69.9999 34.9824V10.8184C69.9999 7.25998 67.1149 4.375 63.5565 4.375V4.375ZM59.1623 32.64H49.961C48.8288 32.64 47.9102 31.7214 47.9102 30.5892C47.9102 29.4559 48.8288 28.5384 49.961 28.5384H59.1623C60.2955 28.5384 61.213 29.4559 61.213 30.5892C61.213 31.7214 60.2955 32.64 59.1623 32.64ZM59.1623 24.9512H49.961C48.8288 24.9512 47.9102 24.0337 47.9102 22.9004C47.9102 21.7682 48.8288 20.8496 49.961 20.8496H59.1623C60.2955 20.8496 61.213 21.7682 61.213 22.9004C61.213 24.0337 60.2955 24.9512 59.1623 24.9512ZM59.1623 17.2634H37.197C36.0637 17.2634 35.1462 16.3448 35.1462 15.2126C35.1462 14.0804 36.0637 13.1618 37.197 13.1618H59.1623C60.2955 13.1618 61.213 14.0804 61.213 15.2126C61.213 16.3448 60.2955 17.2634 59.1623 17.2634Z" fill="#0852C0"/>
<path d="M36.0831 40.5462C36.4537 39.4604 36.451 38.3261 36.1381 37.2911L41.2276 27.113C41.7339 26.0999 41.3238 24.8679 40.3107 24.3616C39.2981 23.8548 38.066 24.2654 37.5592 25.2785L33.2184 33.9591C30.6239 32.6672 26.6821 30.7072 23.5065 29.128C20.5521 27.6588 18.4437 26.3413 14.8463 26.3413H13.0342C15.8353 26.3413 18.3353 25.0521 19.9716 23.0344C21.2202 21.499 21.9669 19.5422 21.9669 17.4097C21.9669 12.4756 17.9678 8.47656 13.0331 8.47656C8.10059 8.47656 4.10156 12.4756 4.10156 17.4097C4.10156 19.7794 5.02441 21.9327 6.52992 23.5306C8.15773 25.2615 10.4697 26.3413 13.0326 26.3419C9.59648 26.3419 6.23726 27.7341 3.82065 30.1572C1.35704 32.6144 0 35.8881 0 39.3755V45.9653C0 48.8022 1.84196 51.2161 4.39316 52.0749V63.5379C4.39316 64.6706 5.3112 65.5887 6.44394 65.5887H19.6234C20.7561 65.5887 21.6742 64.6706 21.6742 63.5379V40.496C23.6187 41.468 26.1731 42.7449 28.2399 43.7788C29.6888 44.503 31.3818 44.5682 32.8915 43.954C34.397 43.3345 35.5576 42.1014 36.0751 40.5702C36.0777 40.5622 36.0804 40.5542 36.0831 40.5462Z" fill="#0852C0"/>
</svg>
