<svg width="64" height="66" viewBox="0 0 64 66" fill="none" xmlns="http://www.w3.org/2000/svg">
<path d="M34.1875 48.3125V47.2188H29.8125V48.3125C29.8125 48.9162 29.3225 49.4062 28.7187 49.4062H27.0781C26.7762 49.4062 26.5312 49.6513 26.5312 49.9531C26.5312 50.2539 26.7762 50.5 27.0781 50.5H28.7187C29.3225 50.5 29.8125 50.99 29.8125 51.5938V52.6875H30.9062V50.5H33.0937V52.6875H34.1875V51.5938C34.1875 50.99 34.6764 50.5 35.2812 50.5H36.9219C37.2227 50.5 37.4677 50.255 37.4677 49.9542C37.4677 49.6523 37.2227 49.4073 36.9219 49.4073H35.2812C34.6764 49.4062 34.1875 48.9162 34.1875 48.3125Z" fill="#0852C0"/>
<path d="M34.1875 40.6562V39.5625H29.8125V40.6562C29.8125 41.26 29.3225 41.75 28.7187 41.75H27.0781C26.7762 41.75 26.5312 41.995 26.5312 42.2969C26.5312 42.5977 26.7762 42.8437 27.0781 42.8437H28.7187C29.3225 42.8437 29.8125 43.3337 29.8125 43.9375V45.0312H30.9062V42.8437H33.0937V45.0312H34.1875V43.9375C34.1875 43.3337 34.6764 42.8437 35.2812 42.8437H36.9219C37.2227 42.8437 37.4677 42.5987 37.4677 42.298C37.4677 41.9961 37.2227 41.7511 36.9219 41.7511H35.2812C34.6764 41.75 34.1875 41.26 34.1875 40.6562Z" fill="#0852C0"/>
<path d="M34.1875 55.9688V54.875H29.8125V55.9688C29.8125 56.5725 29.3225 57.0625 28.7187 57.0625H27.0781C26.7762 57.0625 26.5312 57.3075 26.5312 57.6094C26.5312 57.9102 26.7762 58.1562 27.0781 58.1562H28.7187C29.3225 58.1562 29.8125 58.6463 29.8125 59.25V60.3438H30.9062V58.1562H33.0937V60.3438H34.1875V59.25C34.1875 58.6463 34.6764 58.1562 35.2812 58.1562H36.9219C37.2227 58.1562 37.4677 57.9112 37.4677 57.6105C37.4677 57.3086 37.2227 57.0636 36.9219 57.0636H35.2812C34.6764 57.0625 34.1875 56.5725 34.1875 55.9688Z" fill="#0852C0"/>
<path d="M33.3326 12.2188H30.666L30.1191 14.4052H33.8795L33.3326 12.2188Z" fill="#0852C0"/>
<path d="M34.1875 33V31.9062H29.8125V33C29.8125 33.6037 29.3225 34.0938 28.7187 34.0938H27.0781C26.7762 34.0938 26.5312 34.3388 26.5312 34.6406C26.5312 34.9414 26.7762 35.1875 27.0781 35.1875H28.7187C29.3225 35.1875 29.8125 35.6775 29.8125 36.2812V37.375H30.9062V35.1875H33.0937V37.375H34.1875V36.2812C34.1875 35.6775 34.6764 35.1875 35.2812 35.1875H36.9219C37.2227 35.1875 37.4677 34.9425 37.4677 34.6417C37.4677 34.3398 37.2227 34.0948 36.9219 34.0948H35.2812C34.6764 34.0937 34.1875 33.6037 34.1875 33Z" fill="#0852C0"/>
<path d="M60.3131 14.205C57.7461 11.638 54.3894 10.3353 51.947 10.9588C51.6266 11.043 51.2809 10.973 51.0152 10.7717C50.7494 10.5705 50.5897 10.2587 50.582 9.92625C50.523 7.53203 48.6067 5.65734 46.2191 5.65734C45.355 5.65734 44.5183 5.91109 43.7986 6.39125C43.4486 6.62531 42.9958 6.63844 42.6305 6.41969C41.6056 5.80719 40.5272 5.28 39.4258 4.85453C38.3988 4.4575 37.5598 3.73781 37.0644 2.82672L36.9091 2.54344C36.5591 1.89922 36.3753 1.17297 36.3753 0.442344V0.1875H27.6253V0.437969C27.6253 1.17297 27.4394 1.9025 27.0861 2.54672L26.9308 2.83109C26.4342 3.74 25.5953 4.45859 24.5705 4.85563C23.4691 5.28219 22.3917 5.80828 21.3702 6.41859C21.0081 6.63516 20.5531 6.62313 20.202 6.39016C19.4813 5.91 18.6445 5.65734 17.7816 5.65734C15.3928 5.65734 13.4766 7.53313 13.4197 9.92625C13.412 10.2598 13.2523 10.5705 12.9866 10.7717C12.7208 10.9741 12.3806 11.0441 12.0547 10.9588C9.62 10.3375 6.25453 11.638 3.6875 14.205C1.86859 16.0239 0.646875 18.2858 0.351562 20.3508L5.08859 25.2956C5.75469 25.218 6.44813 25.0419 7.15688 24.7695C8.14234 24.3933 9.21313 24.4327 10.1723 24.8844C11.1348 25.3372 11.8808 26.1739 12.2198 27.1823C14.4587 33.8269 15.5941 40.7514 15.5941 47.7645C15.5941 53.8764 14.7278 59.9467 13.015 65.8147H50.9867C49.2728 59.9467 48.4066 53.8764 48.4066 47.7645C48.4066 40.7514 49.5419 33.8269 51.7808 27.1823C52.1198 26.175 52.8658 25.3372 53.8283 24.8855C54.7875 24.4338 55.8594 24.3933 56.8438 24.7706C57.5525 25.043 58.2459 25.2191 58.912 25.2967L63.6491 20.3519C63.3538 18.2858 62.1309 16.0228 60.3131 14.205ZM36.3753 23.1573V24.2511H36.9222C38.4294 24.2511 39.6555 25.4772 39.6555 26.9855C39.6555 28.4927 38.4294 29.7198 36.9222 29.7198H36.3753V30.8136V31.9073H36.9222C38.4294 31.9073 39.6555 33.1334 39.6555 34.6417C39.6555 36.1489 38.4294 37.3761 36.9222 37.3761H36.3753V38.4698V39.5636H36.9222C38.4294 39.5636 39.6555 40.7897 39.6555 42.298C39.6555 43.8052 38.4294 45.0323 36.9222 45.0323H36.3753V46.1261V47.2198H36.9222C38.4294 47.2198 39.6555 48.4459 39.6555 49.9542C39.6555 51.4614 38.4294 52.6886 36.9222 52.6886H36.3753V53.7823V54.8761H36.9222C38.4294 54.8761 39.6555 56.1022 39.6555 57.6105C39.6555 59.1177 38.4294 60.3448 36.9222 60.3448H36.3753V61.4386C36.3753 62.0434 35.8853 62.5323 35.2816 62.5323H28.7191C28.1142 62.5323 27.6253 62.0434 27.6253 61.4386V60.3448H27.0784C25.5702 60.3448 24.3441 59.1187 24.3441 57.6116C24.3441 56.1033 25.5702 54.8772 27.0784 54.8772H27.6253V53.7834V52.6897H27.0784C25.5702 52.6897 24.3441 51.4636 24.3441 49.9564C24.3441 48.4481 25.5702 47.222 27.0784 47.222H27.6253V46.1283V45.0345H27.0784C25.5702 45.0345 24.3441 43.8084 24.3441 42.3012C24.3441 40.793 25.5702 39.5669 27.0784 39.5669H27.6253V38.4731V37.3794H27.0784C25.5702 37.3794 24.3441 36.1533 24.3441 34.6461C24.3441 33.1378 25.5702 31.9117 27.0784 31.9117H27.6253V30.818V29.7242H27.0784C25.5702 29.7242 24.3441 28.4981 24.3441 26.9909C24.3441 25.4827 25.5702 24.2566 27.0784 24.2566H27.6253V23.1628V22.0691H27.0784C25.5702 22.0691 24.3441 20.843 24.3441 19.3358C24.3441 17.8275 25.5702 16.6014 27.0784 16.6014H27.6253V15.5077C27.6253 15.4552 27.6483 15.4103 27.6548 15.36C27.6603 15.3206 27.6472 15.2812 27.657 15.243L28.7508 10.868C28.8733 10.3736 29.3108 10.0323 29.8128 10.0323H34.1878C34.6898 10.0323 35.1273 10.3736 35.2488 10.8603L36.3425 15.2353C36.3513 15.2714 36.3392 15.3075 36.3447 15.3436C36.3512 15.3972 36.3753 15.4453 36.3753 15.5011V16.5948H36.9222C38.4294 16.5948 39.6555 17.8209 39.6555 19.3292C39.6555 20.8364 38.4294 22.0636 36.9222 22.0636H36.3753V23.1573C36.3753 23.1562 36.3753 23.1562 36.3753 23.1573Z" fill="#0852C0"/>
<path d="M34.1875 25.3438V24.25H29.8125V25.3438C29.8125 25.9475 29.3225 26.4375 28.7187 26.4375H27.0781C26.7762 26.4375 26.5312 26.6825 26.5312 26.9844C26.5312 27.2852 26.7762 27.5312 27.0781 27.5312H28.7187C29.3225 27.5312 29.8125 28.0213 29.8125 28.625V29.7188H30.9062V27.5312H33.0937V29.7188H34.1875V28.625C34.1875 28.0213 34.6764 27.5312 35.2812 27.5312H36.9219C37.2227 27.5312 37.4677 27.2862 37.4677 26.9855C37.4677 26.6836 37.2227 26.4386 36.9219 26.4386H35.2812C34.6764 26.4375 34.1875 25.9475 34.1875 25.3438Z" fill="#0852C0"/>
<path d="M37.4677 19.3281C37.4677 19.0263 37.2227 18.7812 36.9219 18.7812H35.2812C34.6764 18.7812 34.1875 18.2912 34.1875 17.6875V16.5938H29.8125V17.6875C29.8125 18.2912 29.3225 18.7812 28.7187 18.7812H27.0781C26.7762 18.7812 26.5312 19.0263 26.5312 19.3281C26.5312 19.6289 26.7762 19.875 27.0781 19.875H28.7187C29.3225 19.875 29.8125 20.365 29.8125 20.9688V22.0625H30.9062V19.875H33.0937V22.0625H34.1875V20.9688C34.1875 20.365 34.6764 19.875 35.2812 19.875H36.9219C37.2227 19.8739 37.4677 19.6289 37.4677 19.3281Z" fill="#0852C0"/>
</svg>
