<svg width="70" height="70" viewBox="0 0 70 70" fill="none" xmlns="http://www.w3.org/2000/svg">
<g clip-path="url(#clip0)">
<path d="M52.3709 21.5223C50.2791 20.6838 49.6748 20.1767 49.6748 19.2611C49.6748 18.5283 50.2298 17.6723 51.7946 17.6723C53.1786 17.6723 54.24 18.218 54.2495 18.2227C54.3612 18.2823 54.4865 18.3141 54.6106 18.3141C54.9134 18.3141 55.1814 18.1308 55.2924 17.8471L55.6726 16.8752C55.805 16.521 55.6042 16.2125 55.3481 16.1018C54.4959 15.7309 52.8306 15.4438 52.8136 15.4408C52.7868 15.4361 52.6934 15.4162 52.6934 15.3071L52.6881 13.8972C52.6881 13.4726 52.3336 13.127 51.8983 13.127H51.2163C50.7814 13.127 50.4271 13.4724 50.4271 13.8974L50.4289 15.3797C50.4289 15.4933 50.3058 15.5426 50.2608 15.5531C48.1586 16.0538 46.8448 17.5937 46.8448 19.5361C46.8448 21.9575 48.8464 23.0518 51.0075 23.8731C52.7353 24.5514 53.44 25.2392 53.44 26.248C53.44 27.3457 52.4419 28.1124 51.0119 28.1124C49.7908 28.1124 48.1383 27.3384 48.1219 27.3305C48.0161 27.2804 47.9041 27.2552 47.7888 27.2552C47.4744 27.2552 47.2005 27.4453 47.091 27.7399L46.728 28.7228C46.599 29.0898 46.7976 29.3877 47.0519 29.5203C48.0668 30.0489 50.0307 30.3586 50.1181 30.3722C50.1416 30.3756 50.2612 30.4176 50.2612 30.5269V32.0027C50.2612 32.4273 50.6157 32.7729 51.0511 32.7729H51.7559C52.1915 32.7729 52.5461 32.4275 52.5461 32.0027V30.4496C52.5461 30.3044 52.6532 30.2915 52.6753 30.2862C54.9148 29.7831 56.2943 28.1446 56.2943 26.0872C56.2937 23.9739 55.1202 22.6084 52.3709 21.5223Z" fill="#0852C0"/>
<path d="M51.49 4.43945C41.2668 4.43945 32.98 12.7269 32.98 22.9494C32.98 33.1721 41.2668 41.4598 51.49 41.4598C61.7127 41.4598 69.9997 33.1721 69.9997 22.9494C69.9997 12.7269 61.7127 4.43945 51.49 4.43945ZM51.49 37.17C43.636 37.17 37.2696 30.803 37.2696 22.9496C37.2696 15.0962 43.636 8.72947 51.49 8.72947C59.3435 8.72947 65.7097 15.0962 65.7097 22.9496C65.7097 30.803 59.3435 37.17 51.49 37.17Z" fill="#0852C0"/>
<path d="M66.238 50.4295C62.3019 52.6019 56.8883 54.6106 51.4895 55.4574C46.6861 56.2107 37.6495 54.394 37.6495 52.2484C37.6495 51.4353 45.5749 54.2517 50.369 52.9727C54.0452 51.9919 53.5234 48.553 51.5238 48.0994C49.5358 47.6482 37.889 43.3815 32.9142 43.2343C30.5707 43.1651 24.785 44.0493 21.9854 44.5053C21.0263 44.6614 20.4249 44.6442 20.365 45.562C20.0864 49.8276 19.5373 58.5504 19.238 63.1068C19.2317 63.2031 19.3655 64.4977 20.4338 63.5866C21.6032 62.5895 23.2433 61.4842 24.7603 61.8283C27.1403 62.3683 47.7304 66.1404 50.5705 65.4803C54.6334 64.5358 66.1348 57.7198 68.34 55.6012C71.7579 52.3168 69.1009 48.8494 66.238 50.4295Z" fill="#0852C0"/>
<path d="M14.6836 44.3401L3.89697 43.8085C3.06418 43.7675 2.21364 44.3951 2.00667 45.2026L0.0453468 63.0097C-0.16142 63.8174 0.351156 64.5048 1.18434 64.5369L13.1385 64.5357C13.9719 64.5679 14.7055 63.9141 14.7694 63.0827L16.0822 45.9261C16.1457 45.0949 15.5164 44.3811 14.6836 44.3401ZM8.33338 62.1767C6.68615 62.1767 5.35104 60.8414 5.35104 59.1943C5.35104 57.5471 6.68635 56.212 8.33338 56.212C9.98041 56.212 11.3157 57.5473 11.3157 59.1943C11.3157 60.8416 9.98061 62.1767 8.33338 62.1767Z" fill="#0852C0"/>
</g>
<defs>
<clipPath id="clip0">
<rect width="70" height="70" fill="white"/>
</clipPath>
</defs>
</svg>
