<svg width="70" height="70" viewBox="0 0 70 70" fill="none" xmlns="http://www.w3.org/2000/svg">
<path d="M21.3603 20.0667H30.3333C30.6572 20.0727 30.9555 20.2435 31.1244 20.52L35 26.7294L38.8755 20.5248C39.0438 20.2471 39.3422 20.0746 39.6666 20.0667H48.6396C49.8397 20.0667 50.8666 19.1291 50.8666 17.9284V2.1395C50.8666 0.938195 49.8397 0 48.6396 0H21.3603C20.1602 0 19.1333 0.938195 19.1333 2.1395V17.9284C19.1333 19.1291 20.1602 20.0667 21.3603 20.0667Z" fill="#0852C0"/>
<path d="M23.1095 36.5105C23.1095 32.4587 19.6824 29.1738 15.4545 29.1738C11.2265 29.1738 7.79883 32.4587 7.79883 36.5105C7.79883 40.5622 11.2265 43.8471 15.4545 43.8471C19.6824 43.8471 23.1095 40.5622 23.1095 36.5105Z" fill="#0852C0"/>
<path d="M29.4001 63.5102C29.4001 56.1553 23.136 50.1719 15.4779 50.1719C7.81981 50.1719 1.55566 56.1553 1.55566 63.5102V70.001H29.4001V63.5102Z" fill="#0852C0"/>
<path d="M62.2008 36.5105C62.2008 32.4587 58.7731 29.1738 54.5452 29.1738C50.3172 29.1738 46.8901 32.4587 46.8901 36.5105C46.8901 40.5622 50.3172 43.8471 54.5452 43.8471C58.7731 43.8471 62.2008 40.5622 62.2008 36.5105Z" fill="#0852C0"/>
<path d="M40.6001 63.5102V70.001H68.4445V63.5102C68.4445 56.1553 62.1804 50.1719 54.5223 50.1719C46.8642 50.1719 40.6001 56.1553 40.6001 63.5102Z" fill="#0852C0"/>
</svg>
