<svg width="220" height="278" viewBox="0 0 220 278" fill="none" xmlns="http://www.w3.org/2000/svg">
<circle cx="212.755" cy="6.61925" r="6.61903" transform="rotate(-180 212.755 6.61925)" fill="#E2EEFF"/>
<circle cx="212.755" cy="35.6173" r="6.61903" transform="rotate(-180 212.755 35.6173)" fill="#E2EEFF"/>
<circle cx="212.755" cy="65.2442" r="6.61903" transform="rotate(-180 212.755 65.2442)" fill="#E2EEFF"/>
<circle cx="212.755" cy="94.8732" r="6.61903" transform="rotate(-180 212.755 94.8732)" fill="#E2EEFF"/>
<circle cx="212.755" cy="123.871" r="6.61903" transform="rotate(-180 212.755 123.871)" fill="#E2EEFF"/>
<circle cx="212.755" cy="153.498" r="6.61903" transform="rotate(-180 212.755 153.498)" fill="#E2EEFF"/>
<circle cx="212.755" cy="183.129" r="6.61903" transform="rotate(-180 212.755 183.129)" fill="#E2EEFF"/>
<circle cx="212.755" cy="212.754" r="6.61903" transform="rotate(-180 212.755 212.754)" fill="#E2EEFF"/>
<circle cx="212.755" cy="241.754" r="6.61903" transform="rotate(-180 212.755 241.754)" fill="#E2EEFF"/>
<circle cx="212.755" cy="271.381" r="6.61903" transform="rotate(-180 212.755 271.381)" fill="#E2EEFF"/>
<circle cx="183.127" cy="6.61925" r="6.61903" transform="rotate(-180 183.127 6.61925)" fill="#E2EEFF"/>
<circle cx="183.127" cy="35.6173" r="6.61903" transform="rotate(-180 183.127 35.6173)" fill="#E2EEFF"/>
<circle cx="183.127" cy="65.2442" r="6.61903" transform="rotate(-180 183.127 65.2442)" fill="#E2EEFF"/>
<circle cx="183.127" cy="94.8712" r="6.61903" transform="rotate(-180 183.127 94.8712)" fill="#E2EEFF"/>
<circle cx="183.127" cy="123.871" r="6.61903" transform="rotate(-180 183.127 123.871)" fill="#E2EEFF"/>
<circle cx="183.127" cy="153.498" r="6.61903" transform="rotate(-180 183.127 153.498)" fill="#E2EEFF"/>
<circle cx="183.127" cy="183.129" r="6.61903" transform="rotate(-180 183.127 183.129)" fill="#E2EEFF"/>
<circle cx="183.127" cy="212.754" r="6.61903" transform="rotate(-180 183.127 212.754)" fill="#E2EEFF"/>
<circle cx="183.127" cy="241.754" r="6.61903" transform="rotate(-180 183.127 241.754)" fill="#E2EEFF"/>
<circle cx="183.126" cy="271.381" r="6.61903" transform="rotate(-180 183.126 271.381)" fill="#E2EEFF"/>
<circle cx="154.129" cy="6.61925" r="6.61903" transform="rotate(-180 154.129 6.61925)" fill="#E2EEFF"/>
<circle cx="154.129" cy="35.6173" r="6.61903" transform="rotate(-180 154.129 35.6173)" fill="#E2EEFF"/>
<circle cx="154.129" cy="65.2442" r="6.61903" transform="rotate(-180 154.129 65.2442)" fill="#E2EEFF"/>
<circle cx="154.129" cy="94.8712" r="6.61903" transform="rotate(-180 154.129 94.8712)" fill="#E2EEFF"/>
<circle cx="154.129" cy="123.871" r="6.61903" transform="rotate(-180 154.129 123.871)" fill="#E2EEFF"/>
<circle cx="154.129" cy="153.498" r="6.61903" transform="rotate(-180 154.129 153.498)" fill="#E2EEFF"/>
<circle cx="154.129" cy="183.129" r="6.61903" transform="rotate(-180 154.129 183.129)" fill="#E2EEFF"/>
<circle cx="154.129" cy="212.754" r="6.61903" transform="rotate(-180 154.129 212.754)" fill="#E2EEFF"/>
<circle cx="154.129" cy="241.754" r="6.61903" transform="rotate(-180 154.129 241.754)" fill="#E2EEFF"/>
<circle cx="154.129" cy="271.381" r="6.61903" transform="rotate(-180 154.129 271.381)" fill="#E2EEFF"/>
<circle cx="124.501" cy="6.61925" r="6.61903" transform="rotate(-180 124.501 6.61925)" fill="#E2EEFF"/>
<circle cx="124.501" cy="35.6173" r="6.61903" transform="rotate(-180 124.501 35.6173)" fill="#E2EEFF"/>
<circle cx="124.501" cy="65.2442" r="6.61903" transform="rotate(-180 124.501 65.2442)" fill="#E2EEFF"/>
<circle cx="124.501" cy="94.8712" r="6.61903" transform="rotate(-180 124.501 94.8712)" fill="#E2EEFF"/>
<circle cx="124.501" cy="123.871" r="6.61903" transform="rotate(-180 124.501 123.871)" fill="#E2EEFF"/>
<circle cx="124.501" cy="153.498" r="6.61903" transform="rotate(-180 124.501 153.498)" fill="#E2EEFF"/>
<circle cx="124.501" cy="183.129" r="6.61903" transform="rotate(-180 124.501 183.129)" fill="#E2EEFF"/>
<circle cx="124.501" cy="212.754" r="6.61903" transform="rotate(-180 124.501 212.754)" fill="#E2EEFF"/>
<circle cx="124.501" cy="241.754" r="6.61903" transform="rotate(-180 124.501 241.754)" fill="#E2EEFF"/>
<circle cx="124.501" cy="271.381" r="6.61903" transform="rotate(-180 124.501 271.381)" fill="#E2EEFF"/>
<circle cx="94.8727" cy="6.61925" r="6.61903" transform="rotate(-180 94.8727 6.61925)" fill="#E2EEFF"/>
<circle cx="94.8727" cy="35.6173" r="6.61903" transform="rotate(-180 94.8727 35.6173)" fill="#E2EEFF"/>
<circle cx="94.8727" cy="65.2442" r="6.61903" transform="rotate(-180 94.8727 65.2442)" fill="#E2EEFF"/>
<circle cx="94.8727" cy="94.8712" r="6.61903" transform="rotate(-180 94.8727 94.8712)" fill="#E2EEFF"/>
<circle cx="94.8732" cy="123.871" r="6.61903" transform="rotate(-180 94.8732 123.871)" fill="#E2EEFF"/>
<circle cx="94.8727" cy="153.498" r="6.61903" transform="rotate(-180 94.8727 153.498)" fill="#E2EEFF"/>
<circle cx="94.8727" cy="183.129" r="6.61903" transform="rotate(-180 94.8727 183.129)" fill="#E2EEFF"/>
<circle cx="94.8727" cy="212.754" r="6.61903" transform="rotate(-180 94.8727 212.754)" fill="#E2EEFF"/>
<circle cx="94.8727" cy="241.754" r="6.61903" transform="rotate(-180 94.8727 241.754)" fill="#E2EEFF"/>
<circle cx="94.8727" cy="271.381" r="6.61903" transform="rotate(-180 94.8727 271.381)" fill="#E2EEFF"/>
<circle cx="65.2447" cy="6.61925" r="6.61903" transform="rotate(-180 65.2447 6.61925)" fill="#E2EEFF"/>
<circle cx="65.2447" cy="35.6173" r="6.61903" transform="rotate(-180 65.2447 35.6173)" fill="#E2EEFF"/>
<circle cx="65.2447" cy="65.2442" r="6.61903" transform="rotate(-180 65.2447 65.2442)" fill="#E2EEFF"/>
<circle cx="65.2447" cy="94.8712" r="6.61903" transform="rotate(-180 65.2447 94.8712)" fill="#E2EEFF"/>
<circle cx="65.2447" cy="123.871" r="6.61903" transform="rotate(-180 65.2447 123.871)" fill="#E2EEFF"/>
<circle cx="65.2447" cy="153.498" r="6.61903" transform="rotate(-180 65.2447 153.498)" fill="#E2EEFF"/>
<circle cx="65.2447" cy="183.129" r="6.61903" transform="rotate(-180 65.2447 183.129)" fill="#E2EEFF"/>
<circle cx="65.2447" cy="212.754" r="6.61903" transform="rotate(-180 65.2447 212.754)" fill="#E2EEFF"/>
<circle cx="65.2447" cy="241.754" r="6.61903" transform="rotate(-180 65.2447 241.754)" fill="#E2EEFF"/>
<circle cx="65.2447" cy="271.381" r="6.61903" transform="rotate(-180 65.2447 271.381)" fill="#E2EEFF"/>
<circle cx="36.2467" cy="6.61925" r="6.61903" transform="rotate(-180 36.2467 6.61925)" fill="#E2EEFF"/>
<circle cx="36.2467" cy="35.6173" r="6.61903" transform="rotate(-180 36.2467 35.6173)" fill="#E2EEFF"/>
<circle cx="36.2467" cy="65.2442" r="6.61903" transform="rotate(-180 36.2467 65.2442)" fill="#E2EEFF"/>
<circle cx="36.2467" cy="94.8732" r="6.61903" transform="rotate(-180 36.2467 94.8732)" fill="#E2EEFF"/>
<circle cx="36.2467" cy="123.871" r="6.61903" transform="rotate(-180 36.2467 123.871)" fill="#E2EEFF"/>
<circle cx="36.2467" cy="153.498" r="6.61903" transform="rotate(-180 36.2467 153.498)" fill="#E2EEFF"/>
<circle cx="36.2467" cy="183.129" r="6.61903" transform="rotate(-180 36.2467 183.129)" fill="#E2EEFF"/>
<circle cx="36.2467" cy="212.754" r="6.61903" transform="rotate(-180 36.2467 212.754)" fill="#E2EEFF"/>
<circle cx="36.2467" cy="241.754" r="6.61903" transform="rotate(-180 36.2467 241.754)" fill="#E2EEFF"/>
<circle cx="36.2467" cy="271.381" r="6.61903" transform="rotate(-180 36.2467 271.381)" fill="#E2EEFF"/>
<circle cx="6.61925" cy="6.61925" r="6.61903" transform="rotate(-180 6.61925 6.61925)" fill="#E2EEFF"/>
<circle cx="6.61925" cy="35.6173" r="6.61903" transform="rotate(-180 6.61925 35.6173)" fill="#E2EEFF"/>
<circle cx="6.61925" cy="65.2442" r="6.61903" transform="rotate(-180 6.61925 65.2442)" fill="#E2EEFF"/>
<circle cx="6.61925" cy="94.8732" r="6.61903" transform="rotate(-180 6.61925 94.8732)" fill="#E2EEFF"/>
<circle cx="6.61925" cy="123.871" r="6.61903" transform="rotate(-180 6.61925 123.871)" fill="#E2EEFF"/>
<circle cx="6.61925" cy="153.498" r="6.61903" transform="rotate(-180 6.61925 153.498)" fill="#E2EEFF"/>
<circle cx="6.61925" cy="183.129" r="6.61903" transform="rotate(-180 6.61925 183.129)" fill="#E2EEFF"/>
<circle cx="6.61925" cy="212.754" r="6.61903" transform="rotate(-180 6.61925 212.754)" fill="#E2EEFF"/>
<circle cx="6.61925" cy="241.754" r="6.61903" transform="rotate(-180 6.61925 241.754)" fill="#E2EEFF"/>
<circle cx="6.61925" cy="271.381" r="6.61903" transform="rotate(-180 6.61925 271.381)" fill="#E2EEFF"/>
</svg>
