<svg width="133" height="168" viewBox="0 0 133 168" fill="none" xmlns="http://www.w3.org/2000/svg">
<circle cx="128.463" cy="4.13814" r="3.99663" transform="rotate(-180 128.463 4.13814)" fill="#E2EEFF"/>
<circle cx="128.463" cy="21.646" r="3.99663" transform="rotate(-180 128.463 21.646)" fill="#E2EEFF"/>
<circle cx="128.463" cy="39.5366" r="3.99663" transform="rotate(-180 128.463 39.5366)" fill="#E2EEFF"/>
<circle cx="128.463" cy="57.4272" r="3.99663" transform="rotate(-180 128.463 57.4272)" fill="#E2EEFF"/>
<circle cx="128.463" cy="74.935" r="3.99663" transform="rotate(-180 128.463 74.935)" fill="#E2EEFF"/>
<circle cx="128.463" cy="92.8256" r="3.99663" transform="rotate(-180 128.463 92.8256)" fill="#E2EEFF"/>
<circle cx="128.463" cy="110.716" r="3.99663" transform="rotate(-180 128.463 110.716)" fill="#E2EEFF"/>
<circle cx="128.463" cy="128.603" r="3.99663" transform="rotate(-180 128.463 128.603)" fill="#E2EEFF"/>
<circle cx="128.463" cy="146.115" r="3.99663" transform="rotate(-180 128.463 146.115)" fill="#E2EEFF"/>
<circle cx="128.462" cy="164.003" r="3.99663" transform="rotate(-180 128.462 164.003)" fill="#E2EEFF"/>
<circle cx="110.574" cy="4.13814" r="3.99663" transform="rotate(-180 110.574 4.13814)" fill="#E2EEFF"/>
<circle cx="110.574" cy="21.646" r="3.99663" transform="rotate(-180 110.574 21.646)" fill="#E2EEFF"/>
<circle cx="110.574" cy="39.5366" r="3.99663" transform="rotate(-180 110.574 39.5366)" fill="#E2EEFF"/>
<circle cx="110.574" cy="57.4252" r="3.99663" transform="rotate(-180 110.574 57.4252)" fill="#E2EEFF"/>
<circle cx="110.574" cy="74.935" r="3.99663" transform="rotate(-180 110.574 74.935)" fill="#E2EEFF"/>
<circle cx="110.574" cy="92.8256" r="3.99663" transform="rotate(-180 110.574 92.8256)" fill="#E2EEFF"/>
<circle cx="110.574" cy="110.716" r="3.99663" transform="rotate(-180 110.574 110.716)" fill="#E2EEFF"/>
<circle cx="110.574" cy="128.603" r="3.99663" transform="rotate(-180 110.574 128.603)" fill="#E2EEFF"/>
<circle cx="110.574" cy="146.115" r="3.99663" transform="rotate(-180 110.574 146.115)" fill="#E2EEFF"/>
<circle cx="110.573" cy="164.003" r="3.99663" transform="rotate(-180 110.573 164.003)" fill="#E2EEFF"/>
<circle cx="93.0649" cy="4.13814" r="3.99663" transform="rotate(-180 93.0649 4.13814)" fill="#E2EEFF"/>
<circle cx="93.0649" cy="21.646" r="3.99663" transform="rotate(-180 93.0649 21.646)" fill="#E2EEFF"/>
<circle cx="93.0649" cy="39.5366" r="3.99663" transform="rotate(-180 93.0649 39.5366)" fill="#E2EEFF"/>
<circle cx="93.0649" cy="57.4252" r="3.99663" transform="rotate(-180 93.0649 57.4252)" fill="#E2EEFF"/>
<circle cx="93.0649" cy="74.935" r="3.99663" transform="rotate(-180 93.0649 74.935)" fill="#E2EEFF"/>
<circle cx="93.0649" cy="92.8256" r="3.99663" transform="rotate(-180 93.0649 92.8256)" fill="#E2EEFF"/>
<circle cx="93.0649" cy="110.716" r="3.99663" transform="rotate(-180 93.0649 110.716)" fill="#E2EEFF"/>
<circle cx="93.0649" cy="128.603" r="3.99663" transform="rotate(-180 93.0649 128.603)" fill="#E2EEFF"/>
<circle cx="93.0649" cy="146.115" r="3.99663" transform="rotate(-180 93.0649 146.115)" fill="#E2EEFF"/>
<circle cx="93.0649" cy="164.003" r="3.99663" transform="rotate(-180 93.0649 164.003)" fill="#E2EEFF"/>
<circle cx="75.1752" cy="4.13814" r="3.99663" transform="rotate(-180 75.1752 4.13814)" fill="#E2EEFF"/>
<circle cx="75.1752" cy="21.646" r="3.99663" transform="rotate(-180 75.1752 21.646)" fill="#E2EEFF"/>
<circle cx="75.1752" cy="39.5366" r="3.99663" transform="rotate(-180 75.1752 39.5366)" fill="#E2EEFF"/>
<circle cx="75.1752" cy="57.4252" r="3.99663" transform="rotate(-180 75.1752 57.4252)" fill="#E2EEFF"/>
<circle cx="75.1752" cy="74.935" r="3.99663" transform="rotate(-180 75.1752 74.935)" fill="#E2EEFF"/>
<circle cx="75.1752" cy="92.8256" r="3.99663" transform="rotate(-180 75.1752 92.8256)" fill="#E2EEFF"/>
<circle cx="75.1752" cy="110.716" r="3.99663" transform="rotate(-180 75.1752 110.716)" fill="#E2EEFF"/>
<circle cx="75.1752" cy="128.603" r="3.99663" transform="rotate(-180 75.1752 128.603)" fill="#E2EEFF"/>
<circle cx="75.1752" cy="146.115" r="3.99663" transform="rotate(-180 75.1752 146.115)" fill="#E2EEFF"/>
<circle cx="75.1752" cy="164.003" r="3.99663" transform="rotate(-180 75.1752 164.003)" fill="#E2EEFF"/>
<circle cx="57.2846" cy="4.13814" r="3.99663" transform="rotate(-180 57.2846 4.13814)" fill="#E2EEFF"/>
<circle cx="57.2846" cy="21.646" r="3.99663" transform="rotate(-180 57.2846 21.646)" fill="#E2EEFF"/>
<circle cx="57.2846" cy="39.5366" r="3.99663" transform="rotate(-180 57.2846 39.5366)" fill="#E2EEFF"/>
<circle cx="57.2846" cy="57.4252" r="3.99663" transform="rotate(-180 57.2846 57.4252)" fill="#E2EEFF"/>
<circle cx="57.2856" cy="74.935" r="3.99663" transform="rotate(-180 57.2856 74.935)" fill="#E2EEFF"/>
<circle cx="57.2846" cy="92.8256" r="3.99663" transform="rotate(-180 57.2846 92.8256)" fill="#E2EEFF"/>
<circle cx="57.2846" cy="110.716" r="3.99663" transform="rotate(-180 57.2846 110.716)" fill="#E2EEFF"/>
<circle cx="57.2846" cy="128.603" r="3.99663" transform="rotate(-180 57.2846 128.603)" fill="#E2EEFF"/>
<circle cx="57.2846" cy="146.115" r="3.99663" transform="rotate(-180 57.2846 146.115)" fill="#E2EEFF"/>
<circle cx="57.2846" cy="164.003" r="3.99663" transform="rotate(-180 57.2846 164.003)" fill="#E2EEFF"/>
<circle cx="39.3969" cy="4.13814" r="3.99663" transform="rotate(-180 39.3969 4.13814)" fill="#E2EEFF"/>
<circle cx="39.3969" cy="21.646" r="3.99663" transform="rotate(-180 39.3969 21.646)" fill="#E2EEFF"/>
<circle cx="39.3969" cy="39.5366" r="3.99663" transform="rotate(-180 39.3969 39.5366)" fill="#E2EEFF"/>
<circle cx="39.3969" cy="57.4252" r="3.99663" transform="rotate(-180 39.3969 57.4252)" fill="#E2EEFF"/>
<circle cx="39.3969" cy="74.935" r="3.99663" transform="rotate(-180 39.3969 74.935)" fill="#E2EEFF"/>
<circle cx="39.3969" cy="92.8256" r="3.99663" transform="rotate(-180 39.3969 92.8256)" fill="#E2EEFF"/>
<circle cx="39.3969" cy="110.716" r="3.99663" transform="rotate(-180 39.3969 110.716)" fill="#E2EEFF"/>
<circle cx="39.3969" cy="128.603" r="3.99663" transform="rotate(-180 39.3969 128.603)" fill="#E2EEFF"/>
<circle cx="39.3969" cy="146.115" r="3.99663" transform="rotate(-180 39.3969 146.115)" fill="#E2EEFF"/>
<circle cx="39.3969" cy="164.003" r="3.99663" transform="rotate(-180 39.3969 164.003)" fill="#E2EEFF"/>
<circle cx="21.8862" cy="4.13814" r="3.99663" transform="rotate(-180 21.8862 4.13814)" fill="#E2EEFF"/>
<circle cx="21.8862" cy="21.646" r="3.99663" transform="rotate(-180 21.8862 21.646)" fill="#E2EEFF"/>
<circle cx="21.8862" cy="39.5366" r="3.99663" transform="rotate(-180 21.8862 39.5366)" fill="#E2EEFF"/>
<circle cx="21.8862" cy="57.4272" r="3.99663" transform="rotate(-180 21.8862 57.4272)" fill="#E2EEFF"/>
<circle cx="21.8862" cy="74.935" r="3.99663" transform="rotate(-180 21.8862 74.935)" fill="#E2EEFF"/>
<circle cx="21.8862" cy="92.8256" r="3.99663" transform="rotate(-180 21.8862 92.8256)" fill="#E2EEFF"/>
<circle cx="21.8862" cy="110.716" r="3.99663" transform="rotate(-180 21.8862 110.716)" fill="#E2EEFF"/>
<circle cx="21.8862" cy="128.603" r="3.99663" transform="rotate(-180 21.8862 128.603)" fill="#E2EEFF"/>
<circle cx="21.8862" cy="146.115" r="3.99663" transform="rotate(-180 21.8862 146.115)" fill="#E2EEFF"/>
<circle cx="21.8862" cy="164.003" r="3.99663" transform="rotate(-180 21.8862 164.003)" fill="#E2EEFF"/>
<circle cx="3.99654" cy="4.13814" r="3.99663" transform="rotate(-180 3.99654 4.13814)" fill="#E2EEFF"/>
<circle cx="3.99654" cy="21.646" r="3.99663" transform="rotate(-180 3.99654 21.646)" fill="#E2EEFF"/>
<circle cx="3.99654" cy="39.5366" r="3.99663" transform="rotate(-180 3.99654 39.5366)" fill="#E2EEFF"/>
<circle cx="3.99654" cy="57.4272" r="3.99663" transform="rotate(-180 3.99654 57.4272)" fill="#E2EEFF"/>
<circle cx="3.99654" cy="74.935" r="3.99663" transform="rotate(-180 3.99654 74.935)" fill="#E2EEFF"/>
<circle cx="3.99654" cy="92.8256" r="3.99663" transform="rotate(-180 3.99654 92.8256)" fill="#E2EEFF"/>
<circle cx="3.99654" cy="110.716" r="3.99663" transform="rotate(-180 3.99654 110.716)" fill="#E2EEFF"/>
<circle cx="3.99654" cy="128.603" r="3.99663" transform="rotate(-180 3.99654 128.603)" fill="#E2EEFF"/>
<circle cx="3.99654" cy="146.115" r="3.99663" transform="rotate(-180 3.99654 146.115)" fill="#E2EEFF"/>
<circle cx="3.99654" cy="164.003" r="3.99663" transform="rotate(-180 3.99654 164.003)" fill="#E2EEFF"/>
</svg>
