<svg width="220" height="278" viewBox="0 0 220 278" fill="none" xmlns="http://www.w3.org/2000/svg">
<circle cx="212.754" cy="6.61925" r="6.61903" transform="rotate(-180 212.754 6.61925)" fill="#E2EEFF"/>
<circle cx="212.754" cy="35.6173" r="6.61903" transform="rotate(-180 212.754 35.6173)" fill="#E2EEFF"/>
<circle cx="212.754" cy="65.2442" r="6.61903" transform="rotate(-180 212.754 65.2442)" fill="#E2EEFF"/>
<circle cx="212.754" cy="94.8732" r="6.61903" transform="rotate(-180 212.754 94.8732)" fill="#E2EEFF"/>
<circle cx="212.754" cy="123.871" r="6.61903" transform="rotate(-180 212.754 123.871)" fill="#E2EEFF"/>
<circle cx="212.754" cy="153.498" r="6.61903" transform="rotate(-180 212.754 153.498)" fill="#E2EEFF"/>
<circle cx="212.754" cy="183.129" r="6.61903" transform="rotate(-180 212.754 183.129)" fill="#E2EEFF"/>
<circle cx="212.754" cy="212.754" r="6.61903" transform="rotate(-180 212.754 212.754)" fill="#E2EEFF"/>
<circle cx="212.754" cy="241.754" r="6.61903" transform="rotate(-180 212.754 241.754)" fill="#E2EEFF"/>
<circle cx="212.754" cy="271.381" r="6.61903" transform="rotate(-180 212.754 271.381)" fill="#E2EEFF"/>
<circle cx="183.126" cy="6.61925" r="6.61903" transform="rotate(-180 183.126 6.61925)" fill="#E2EEFF"/>
<circle cx="183.126" cy="35.6173" r="6.61903" transform="rotate(-180 183.126 35.6173)" fill="#E2EEFF"/>
<circle cx="183.126" cy="65.2442" r="6.61903" transform="rotate(-180 183.126 65.2442)" fill="#E2EEFF"/>
<circle cx="183.126" cy="94.8712" r="6.61903" transform="rotate(-180 183.126 94.8712)" fill="#E2EEFF"/>
<circle cx="183.126" cy="123.871" r="6.61903" transform="rotate(-180 183.126 123.871)" fill="#E2EEFF"/>
<circle cx="183.126" cy="153.498" r="6.61903" transform="rotate(-180 183.126 153.498)" fill="#E2EEFF"/>
<circle cx="183.126" cy="183.129" r="6.61903" transform="rotate(-180 183.126 183.129)" fill="#E2EEFF"/>
<circle cx="183.126" cy="212.754" r="6.61903" transform="rotate(-180 183.126 212.754)" fill="#E2EEFF"/>
<circle cx="183.126" cy="241.754" r="6.61903" transform="rotate(-180 183.126 241.754)" fill="#E2EEFF"/>
<circle cx="183.125" cy="271.381" r="6.61903" transform="rotate(-180 183.125 271.381)" fill="#E2EEFF"/>
<circle cx="154.128" cy="6.61925" r="6.61903" transform="rotate(-180 154.128 6.61925)" fill="#E2EEFF"/>
<circle cx="154.128" cy="35.6173" r="6.61903" transform="rotate(-180 154.128 35.6173)" fill="#E2EEFF"/>
<circle cx="154.128" cy="65.2442" r="6.61903" transform="rotate(-180 154.128 65.2442)" fill="#E2EEFF"/>
<circle cx="154.128" cy="94.8712" r="6.61903" transform="rotate(-180 154.128 94.8712)" fill="#E2EEFF"/>
<circle cx="154.128" cy="123.871" r="6.61903" transform="rotate(-180 154.128 123.871)" fill="#E2EEFF"/>
<circle cx="154.128" cy="153.498" r="6.61903" transform="rotate(-180 154.128 153.498)" fill="#E2EEFF"/>
<circle cx="154.128" cy="183.129" r="6.61903" transform="rotate(-180 154.128 183.129)" fill="#E2EEFF"/>
<circle cx="154.128" cy="212.754" r="6.61903" transform="rotate(-180 154.128 212.754)" fill="#E2EEFF"/>
<circle cx="154.128" cy="241.754" r="6.61903" transform="rotate(-180 154.128 241.754)" fill="#E2EEFF"/>
<circle cx="154.128" cy="271.381" r="6.61903" transform="rotate(-180 154.128 271.381)" fill="#E2EEFF"/>
<circle cx="124.5" cy="6.61925" r="6.61903" transform="rotate(-180 124.5 6.61925)" fill="#E2EEFF"/>
<circle cx="124.5" cy="35.6173" r="6.61903" transform="rotate(-180 124.5 35.6173)" fill="#E2EEFF"/>
<circle cx="124.5" cy="65.2442" r="6.61903" transform="rotate(-180 124.5 65.2442)" fill="#E2EEFF"/>
<circle cx="124.5" cy="94.8712" r="6.61903" transform="rotate(-180 124.5 94.8712)" fill="#E2EEFF"/>
<circle cx="124.5" cy="123.871" r="6.61903" transform="rotate(-180 124.5 123.871)" fill="#E2EEFF"/>
<circle cx="124.5" cy="153.498" r="6.61903" transform="rotate(-180 124.5 153.498)" fill="#E2EEFF"/>
<circle cx="124.5" cy="183.129" r="6.61903" transform="rotate(-180 124.5 183.129)" fill="#E2EEFF"/>
<circle cx="124.5" cy="212.754" r="6.61903" transform="rotate(-180 124.5 212.754)" fill="#E2EEFF"/>
<circle cx="124.5" cy="241.754" r="6.61903" transform="rotate(-180 124.5 241.754)" fill="#E2EEFF"/>
<circle cx="124.5" cy="271.381" r="6.61903" transform="rotate(-180 124.5 271.381)" fill="#E2EEFF"/>
<circle cx="94.8722" cy="6.61925" r="6.61903" transform="rotate(-180 94.8722 6.61925)" fill="#E2EEFF"/>
<circle cx="94.8722" cy="35.6173" r="6.61903" transform="rotate(-180 94.8722 35.6173)" fill="#E2EEFF"/>
<circle cx="94.8722" cy="65.2442" r="6.61903" transform="rotate(-180 94.8722 65.2442)" fill="#E2EEFF"/>
<circle cx="94.8722" cy="94.8712" r="6.61903" transform="rotate(-180 94.8722 94.8712)" fill="#E2EEFF"/>
<circle cx="94.8732" cy="123.871" r="6.61903" transform="rotate(-180 94.8732 123.871)" fill="#E2EEFF"/>
<circle cx="94.8722" cy="153.498" r="6.61903" transform="rotate(-180 94.8722 153.498)" fill="#E2EEFF"/>
<circle cx="94.8722" cy="183.129" r="6.61903" transform="rotate(-180 94.8722 183.129)" fill="#E2EEFF"/>
<circle cx="94.8722" cy="212.754" r="6.61903" transform="rotate(-180 94.8722 212.754)" fill="#E2EEFF"/>
<circle cx="94.8722" cy="241.754" r="6.61903" transform="rotate(-180 94.8722 241.754)" fill="#E2EEFF"/>
<circle cx="94.8722" cy="271.381" r="6.61903" transform="rotate(-180 94.8722 271.381)" fill="#E2EEFF"/>
<circle cx="65.2443" cy="6.61925" r="6.61903" transform="rotate(-180 65.2443 6.61925)" fill="#E2EEFF"/>
<circle cx="65.2443" cy="35.6173" r="6.61903" transform="rotate(-180 65.2443 35.6173)" fill="#E2EEFF"/>
<circle cx="65.2443" cy="65.2442" r="6.61903" transform="rotate(-180 65.2443 65.2442)" fill="#E2EEFF"/>
<circle cx="65.2443" cy="94.8712" r="6.61903" transform="rotate(-180 65.2443 94.8712)" fill="#E2EEFF"/>
<circle cx="65.2443" cy="123.871" r="6.61903" transform="rotate(-180 65.2443 123.871)" fill="#E2EEFF"/>
<circle cx="65.2443" cy="153.498" r="6.61903" transform="rotate(-180 65.2443 153.498)" fill="#E2EEFF"/>
<circle cx="65.2443" cy="183.129" r="6.61903" transform="rotate(-180 65.2443 183.129)" fill="#E2EEFF"/>
<circle cx="65.2443" cy="212.754" r="6.61903" transform="rotate(-180 65.2443 212.754)" fill="#E2EEFF"/>
<circle cx="65.2443" cy="241.754" r="6.61903" transform="rotate(-180 65.2443 241.754)" fill="#E2EEFF"/>
<circle cx="65.2443" cy="271.381" r="6.61903" transform="rotate(-180 65.2443 271.381)" fill="#E2EEFF"/>
<circle cx="36.2462" cy="6.61925" r="6.61903" transform="rotate(-180 36.2462 6.61925)" fill="#E2EEFF"/>
<circle cx="36.2462" cy="35.6173" r="6.61903" transform="rotate(-180 36.2462 35.6173)" fill="#E2EEFF"/>
<circle cx="36.2462" cy="65.2442" r="6.61903" transform="rotate(-180 36.2462 65.2442)" fill="#E2EEFF"/>
<circle cx="36.2462" cy="94.8732" r="6.61903" transform="rotate(-180 36.2462 94.8732)" fill="#E2EEFF"/>
<circle cx="36.2462" cy="123.871" r="6.61903" transform="rotate(-180 36.2462 123.871)" fill="#E2EEFF"/>
<circle cx="36.2462" cy="153.498" r="6.61903" transform="rotate(-180 36.2462 153.498)" fill="#E2EEFF"/>
<circle cx="36.2462" cy="183.129" r="6.61903" transform="rotate(-180 36.2462 183.129)" fill="#E2EEFF"/>
<circle cx="36.2462" cy="212.754" r="6.61903" transform="rotate(-180 36.2462 212.754)" fill="#E2EEFF"/>
<circle cx="36.2462" cy="241.754" r="6.61903" transform="rotate(-180 36.2462 241.754)" fill="#E2EEFF"/>
<circle cx="36.2462" cy="271.381" r="6.61903" transform="rotate(-180 36.2462 271.381)" fill="#E2EEFF"/>
<circle cx="6.61828" cy="6.61925" r="6.61903" transform="rotate(-180 6.61828 6.61925)" fill="#E2EEFF"/>
<circle cx="6.61828" cy="35.6173" r="6.61903" transform="rotate(-180 6.61828 35.6173)" fill="#E2EEFF"/>
<circle cx="6.61828" cy="65.2442" r="6.61903" transform="rotate(-180 6.61828 65.2442)" fill="#E2EEFF"/>
<circle cx="6.61828" cy="94.8732" r="6.61903" transform="rotate(-180 6.61828 94.8732)" fill="#E2EEFF"/>
<circle cx="6.61828" cy="123.871" r="6.61903" transform="rotate(-180 6.61828 123.871)" fill="#E2EEFF"/>
<circle cx="6.61828" cy="153.498" r="6.61903" transform="rotate(-180 6.61828 153.498)" fill="#E2EEFF"/>
<circle cx="6.61828" cy="183.129" r="6.61903" transform="rotate(-180 6.61828 183.129)" fill="#E2EEFF"/>
<circle cx="6.61828" cy="212.754" r="6.61903" transform="rotate(-180 6.61828 212.754)" fill="#E2EEFF"/>
<circle cx="6.61828" cy="241.754" r="6.61903" transform="rotate(-180 6.61828 241.754)" fill="#E2EEFF"/>
<circle cx="6.61828" cy="271.381" r="6.61903" transform="rotate(-180 6.61828 271.381)" fill="#E2EEFF"/>
</svg>
