<svg width="96" height="121" viewBox="0 0 96 121" fill="none" xmlns="http://www.w3.org/2000/svg">
<circle cx="92.2094" cy="3.38128" r="2.86872" transform="rotate(-180 92.2094 3.38128)" fill="#E2EEFF"/>
<circle cx="92.2094" cy="15.9496" r="2.86872" transform="rotate(-180 92.2094 15.9496)" fill="#E2EEFF"/>
<circle cx="92.2094" cy="28.7914" r="2.86872" transform="rotate(-180 92.2094 28.7914)" fill="#E2EEFF"/>
<circle cx="92.2094" cy="41.6313" r="2.86872" transform="rotate(-180 92.2094 41.6313)" fill="#E2EEFF"/>
<circle cx="92.2094" cy="54.1996" r="2.86872" transform="rotate(-180 92.2094 54.1996)" fill="#E2EEFF"/>
<circle cx="92.2094" cy="67.0395" r="2.86872" transform="rotate(-180 92.2094 67.0395)" fill="#E2EEFF"/>
<circle cx="92.2094" cy="79.8813" r="2.86872" transform="rotate(-180 92.2094 79.8813)" fill="#E2EEFF"/>
<circle cx="92.2094" cy="92.7231" r="2.86872" transform="rotate(-180 92.2094 92.7231)" fill="#E2EEFF"/>
<circle cx="92.2094" cy="105.291" r="2.86872" transform="rotate(-180 92.2094 105.291)" fill="#E2EEFF"/>
<circle cx="92.2094" cy="118.131" r="2.86872" transform="rotate(-180 92.2094 118.131)" fill="#E2EEFF"/>
<circle cx="79.3686" cy="3.38128" r="2.86872" transform="rotate(-180 79.3686 3.38128)" fill="#E2EEFF"/>
<circle cx="79.3686" cy="15.9496" r="2.86872" transform="rotate(-180 79.3686 15.9496)" fill="#E2EEFF"/>
<circle cx="79.3686" cy="28.7914" r="2.86872" transform="rotate(-180 79.3686 28.7914)" fill="#E2EEFF"/>
<circle cx="79.3686" cy="41.6313" r="2.86872" transform="rotate(-180 79.3686 41.6313)" fill="#E2EEFF"/>
<circle cx="79.3686" cy="54.1996" r="2.86872" transform="rotate(-180 79.3686 54.1996)" fill="#E2EEFF"/>
<circle cx="79.3686" cy="67.0395" r="2.86872" transform="rotate(-180 79.3686 67.0395)" fill="#E2EEFF"/>
<circle cx="79.3686" cy="79.8813" r="2.86872" transform="rotate(-180 79.3686 79.8813)" fill="#E2EEFF"/>
<circle cx="79.3686" cy="92.7231" r="2.86872" transform="rotate(-180 79.3686 92.7231)" fill="#E2EEFF"/>
<circle cx="79.3686" cy="105.291" r="2.86872" transform="rotate(-180 79.3686 105.291)" fill="#E2EEFF"/>
<circle cx="79.3686" cy="118.131" r="2.86872" transform="rotate(-180 79.3686 118.131)" fill="#E2EEFF"/>
<circle cx="66.8002" cy="3.38128" r="2.86872" transform="rotate(-180 66.8002 3.38128)" fill="#E2EEFF"/>
<circle cx="66.8002" cy="15.9496" r="2.86872" transform="rotate(-180 66.8002 15.9496)" fill="#E2EEFF"/>
<circle cx="66.8002" cy="28.7914" r="2.86872" transform="rotate(-180 66.8002 28.7914)" fill="#E2EEFF"/>
<circle cx="66.8002" cy="41.6313" r="2.86872" transform="rotate(-180 66.8002 41.6313)" fill="#E2EEFF"/>
<circle cx="66.8002" cy="54.1996" r="2.86872" transform="rotate(-180 66.8002 54.1996)" fill="#E2EEFF"/>
<circle cx="66.8002" cy="67.0395" r="2.86872" transform="rotate(-180 66.8002 67.0395)" fill="#E2EEFF"/>
<circle cx="66.8002" cy="79.8832" r="2.86872" transform="rotate(-180 66.8002 79.8832)" fill="#E2EEFF"/>
<circle cx="66.8002" cy="92.7231" r="2.86872" transform="rotate(-180 66.8002 92.7231)" fill="#E2EEFF"/>
<circle cx="66.8002" cy="105.291" r="2.86872" transform="rotate(-180 66.8002 105.291)" fill="#E2EEFF"/>
<circle cx="66.8002" cy="118.131" r="2.86872" transform="rotate(-180 66.8002 118.131)" fill="#E2EEFF"/>
<circle cx="53.9594" cy="3.38128" r="2.86872" transform="rotate(-180 53.9594 3.38128)" fill="#E2EEFF"/>
<circle cx="53.9594" cy="15.9496" r="2.86872" transform="rotate(-180 53.9594 15.9496)" fill="#E2EEFF"/>
<circle cx="53.9594" cy="28.7914" r="2.86872" transform="rotate(-180 53.9594 28.7914)" fill="#E2EEFF"/>
<circle cx="53.9594" cy="41.6313" r="2.86872" transform="rotate(-180 53.9594 41.6313)" fill="#E2EEFF"/>
<circle cx="53.9594" cy="54.1996" r="2.86872" transform="rotate(-180 53.9594 54.1996)" fill="#E2EEFF"/>
<circle cx="53.9594" cy="67.0395" r="2.86872" transform="rotate(-180 53.9594 67.0395)" fill="#E2EEFF"/>
<circle cx="53.9594" cy="79.8832" r="2.86872" transform="rotate(-180 53.9594 79.8832)" fill="#E2EEFF"/>
<circle cx="53.9594" cy="92.7231" r="2.86872" transform="rotate(-180 53.9594 92.7231)" fill="#E2EEFF"/>
<circle cx="53.9594" cy="105.291" r="2.86872" transform="rotate(-180 53.9594 105.291)" fill="#E2EEFF"/>
<circle cx="53.9594" cy="118.131" r="2.86872" transform="rotate(-180 53.9594 118.131)" fill="#E2EEFF"/>
<circle cx="41.1186" cy="3.38128" r="2.86872" transform="rotate(-180 41.1186 3.38128)" fill="#E2EEFF"/>
<circle cx="41.1186" cy="15.9496" r="2.86872" transform="rotate(-180 41.1186 15.9496)" fill="#E2EEFF"/>
<circle cx="41.1186" cy="28.7914" r="2.86872" transform="rotate(-180 41.1186 28.7914)" fill="#E2EEFF"/>
<circle cx="41.1186" cy="41.6313" r="2.86872" transform="rotate(-180 41.1186 41.6313)" fill="#E2EEFF"/>
<circle cx="41.1196" cy="54.1996" r="2.86872" transform="rotate(-180 41.1196 54.1996)" fill="#E2EEFF"/>
<circle cx="41.1186" cy="67.0395" r="2.86872" transform="rotate(-180 41.1186 67.0395)" fill="#E2EEFF"/>
<circle cx="41.1186" cy="79.8813" r="2.86872" transform="rotate(-180 41.1186 79.8813)" fill="#E2EEFF"/>
<circle cx="41.1186" cy="92.7231" r="2.86872" transform="rotate(-180 41.1186 92.7231)" fill="#E2EEFF"/>
<circle cx="41.1186" cy="105.291" r="2.86872" transform="rotate(-180 41.1186 105.291)" fill="#E2EEFF"/>
<circle cx="41.1186" cy="118.131" r="2.86872" transform="rotate(-180 41.1186 118.131)" fill="#E2EEFF"/>
<circle cx="28.2778" cy="3.38128" r="2.86872" transform="rotate(-180 28.2778 3.38128)" fill="#E2EEFF"/>
<circle cx="28.2778" cy="15.9496" r="2.86872" transform="rotate(-180 28.2778 15.9496)" fill="#E2EEFF"/>
<circle cx="28.2778" cy="28.7914" r="2.86872" transform="rotate(-180 28.2778 28.7914)" fill="#E2EEFF"/>
<circle cx="28.2778" cy="41.6313" r="2.86872" transform="rotate(-180 28.2778 41.6313)" fill="#E2EEFF"/>
<circle cx="28.2778" cy="54.1996" r="2.86872" transform="rotate(-180 28.2778 54.1996)" fill="#E2EEFF"/>
<circle cx="28.2778" cy="67.0395" r="2.86872" transform="rotate(-180 28.2778 67.0395)" fill="#E2EEFF"/>
<circle cx="28.2778" cy="79.8832" r="2.86872" transform="rotate(-180 28.2778 79.8832)" fill="#E2EEFF"/>
<circle cx="28.2778" cy="92.7231" r="2.86872" transform="rotate(-180 28.2778 92.7231)" fill="#E2EEFF"/>
<circle cx="28.2778" cy="105.291" r="2.86872" transform="rotate(-180 28.2778 105.291)" fill="#E2EEFF"/>
<circle cx="28.2778" cy="118.131" r="2.86872" transform="rotate(-180 28.2778 118.131)" fill="#E2EEFF"/>
<circle cx="15.7104" cy="3.38128" r="2.86872" transform="rotate(-180 15.7104 3.38128)" fill="#E2EEFF"/>
<circle cx="15.7104" cy="15.9496" r="2.86872" transform="rotate(-180 15.7104 15.9496)" fill="#E2EEFF"/>
<circle cx="15.7104" cy="28.7914" r="2.86872" transform="rotate(-180 15.7104 28.7914)" fill="#E2EEFF"/>
<circle cx="15.7104" cy="41.6313" r="2.86872" transform="rotate(-180 15.7104 41.6313)" fill="#E2EEFF"/>
<circle cx="15.7104" cy="54.1996" r="2.86872" transform="rotate(-180 15.7104 54.1996)" fill="#E2EEFF"/>
<circle cx="15.7104" cy="67.0395" r="2.86872" transform="rotate(-180 15.7104 67.0395)" fill="#E2EEFF"/>
<circle cx="15.7104" cy="79.8832" r="2.86872" transform="rotate(-180 15.7104 79.8832)" fill="#E2EEFF"/>
<circle cx="15.7104" cy="92.7231" r="2.86872" transform="rotate(-180 15.7104 92.7231)" fill="#E2EEFF"/>
<circle cx="15.7104" cy="105.291" r="2.86872" transform="rotate(-180 15.7104 105.291)" fill="#E2EEFF"/>
<circle cx="15.7104" cy="118.131" r="2.86872" transform="rotate(-180 15.7104 118.131)" fill="#E2EEFF"/>
<circle cx="2.86956" cy="3.38128" r="2.86872" transform="rotate(-180 2.86956 3.38128)" fill="#E2EEFF"/>
<circle cx="2.86956" cy="15.9496" r="2.86872" transform="rotate(-180 2.86956 15.9496)" fill="#E2EEFF"/>
<circle cx="2.86956" cy="28.7914" r="2.86872" transform="rotate(-180 2.86956 28.7914)" fill="#E2EEFF"/>
<circle cx="2.86956" cy="41.6313" r="2.86872" transform="rotate(-180 2.86956 41.6313)" fill="#E2EEFF"/>
<circle cx="2.86956" cy="54.1996" r="2.86872" transform="rotate(-180 2.86956 54.1996)" fill="#E2EEFF"/>
<circle cx="2.86956" cy="67.0395" r="2.86872" transform="rotate(-180 2.86956 67.0395)" fill="#E2EEFF"/>
<circle cx="2.86956" cy="79.8813" r="2.86872" transform="rotate(-180 2.86956 79.8813)" fill="#E2EEFF"/>
<circle cx="2.86956" cy="92.7231" r="2.86872" transform="rotate(-180 2.86956 92.7231)" fill="#E2EEFF"/>
<circle cx="2.86956" cy="105.291" r="2.86872" transform="rotate(-180 2.86956 105.291)" fill="#E2EEFF"/>
<circle cx="2.86956" cy="118.131" r="2.86872" transform="rotate(-180 2.86956 118.131)" fill="#E2EEFF"/>
</svg>
