<svg width="304" height="385" viewBox="0 0 304 385" fill="none" xmlns="http://www.w3.org/2000/svg">
<circle cx="9.16665" cy="375.833" r="9.16665" fill="#EFF6FF"/>
<circle cx="9.16665" cy="335.674" r="9.16665" fill="#EFF6FF"/>
<circle cx="9.16665" cy="294.642" r="9.16665" fill="#EFF6FF"/>
<circle cx="9.16665" cy="253.611" r="9.16665" fill="#EFF6FF"/>
<circle cx="9.16665" cy="213.452" r="9.16665" fill="#EFF6FF"/>
<circle cx="9.16665" cy="172.421" r="9.16665" fill="#EFF6FF"/>
<circle cx="9.16665" cy="131.388" r="9.16665" fill="#EFF6FF"/>
<circle cx="9.16665" cy="90.3571" r="9.16665" fill="#EFF6FF"/>
<circle cx="9.16665" cy="50.1979" r="9.16665" fill="#EFF6FF"/>
<circle cx="9.16665" cy="9.16665" r="9.16665" fill="#EFF6FF"/>
<circle cx="50.1984" cy="375.833" r="9.16665" fill="#EFF6FF"/>
<circle cx="50.1984" cy="335.674" r="9.16665" fill="#EFF6FF"/>
<circle cx="50.1984" cy="294.642" r="9.16665" fill="#EFF6FF"/>
<circle cx="50.1984" cy="253.611" r="9.16665" fill="#EFF6FF"/>
<circle cx="50.1984" cy="213.452" r="9.16665" fill="#EFF6FF"/>
<circle cx="50.1984" cy="172.421" r="9.16665" fill="#EFF6FF"/>
<circle cx="50.1984" cy="131.388" r="9.16665" fill="#EFF6FF"/>
<circle cx="50.1984" cy="90.3571" r="9.16665" fill="#EFF6FF"/>
<circle cx="50.1984" cy="50.1979" r="9.16665" fill="#EFF6FF"/>
<circle cx="50.1989" cy="9.16665" r="9.16665" fill="#EFF6FF"/>
<circle cx="90.3571" cy="375.833" r="9.16665" fill="#EFF6FF"/>
<circle cx="90.3571" cy="335.674" r="9.16665" fill="#EFF6FF"/>
<circle cx="90.3571" cy="294.642" r="9.16665" fill="#EFF6FF"/>
<circle cx="90.3571" cy="253.611" r="9.16665" fill="#EFF6FF"/>
<circle cx="90.3571" cy="213.452" r="9.16665" fill="#EFF6FF"/>
<circle cx="90.3571" cy="172.421" r="9.16665" fill="#EFF6FF"/>
<circle cx="90.3571" cy="131.388" r="9.16665" fill="#EFF6FF"/>
<circle cx="90.3571" cy="90.3571" r="9.16665" fill="#EFF6FF"/>
<circle cx="90.3571" cy="50.1979" r="9.16665" fill="#EFF6FF"/>
<circle cx="90.3571" cy="9.16665" r="9.16665" fill="#EFF6FF"/>
<circle cx="131.389" cy="375.833" r="9.16665" fill="#EFF6FF"/>
<circle cx="131.389" cy="335.674" r="9.16665" fill="#EFF6FF"/>
<circle cx="131.389" cy="294.642" r="9.16665" fill="#EFF6FF"/>
<circle cx="131.389" cy="253.611" r="9.16665" fill="#EFF6FF"/>
<circle cx="131.389" cy="213.452" r="9.16665" fill="#EFF6FF"/>
<circle cx="131.389" cy="172.421" r="9.16665" fill="#EFF6FF"/>
<circle cx="131.389" cy="131.388" r="9.16665" fill="#EFF6FF"/>
<circle cx="131.389" cy="90.3571" r="9.16665" fill="#EFF6FF"/>
<circle cx="131.389" cy="50.1979" r="9.16665" fill="#EFF6FF"/>
<circle cx="131.389" cy="9.16665" r="9.16665" fill="#EFF6FF"/>
<circle cx="172.421" cy="375.833" r="9.16665" fill="#EFF6FF"/>
<circle cx="172.421" cy="335.674" r="9.16665" fill="#EFF6FF"/>
<circle cx="172.421" cy="294.642" r="9.16665" fill="#EFF6FF"/>
<circle cx="172.421" cy="253.611" r="9.16665" fill="#EFF6FF"/>
<circle cx="172.42" cy="213.452" r="9.16665" fill="#EFF6FF"/>
<circle cx="172.421" cy="172.421" r="9.16665" fill="#EFF6FF"/>
<circle cx="172.421" cy="131.388" r="9.16665" fill="#EFF6FF"/>
<circle cx="172.421" cy="90.3571" r="9.16665" fill="#EFF6FF"/>
<circle cx="172.421" cy="50.1979" r="9.16665" fill="#EFF6FF"/>
<circle cx="172.421" cy="9.16665" r="9.16665" fill="#EFF6FF"/>
<circle cx="213.452" cy="375.833" r="9.16665" fill="#EFF6FF"/>
<circle cx="213.452" cy="335.674" r="9.16665" fill="#EFF6FF"/>
<circle cx="213.452" cy="294.642" r="9.16665" fill="#EFF6FF"/>
<circle cx="213.452" cy="253.611" r="9.16665" fill="#EFF6FF"/>
<circle cx="213.452" cy="213.452" r="9.16665" fill="#EFF6FF"/>
<circle cx="213.452" cy="172.421" r="9.16665" fill="#EFF6FF"/>
<circle cx="213.452" cy="131.388" r="9.16665" fill="#EFF6FF"/>
<circle cx="213.452" cy="90.3571" r="9.16665" fill="#EFF6FF"/>
<circle cx="213.452" cy="50.1979" r="9.16665" fill="#EFF6FF"/>
<circle cx="213.452" cy="9.16665" r="9.16665" fill="#EFF6FF"/>
<circle cx="253.611" cy="375.833" r="9.16665" fill="#EFF6FF"/>
<circle cx="253.611" cy="335.674" r="9.16665" fill="#EFF6FF"/>
<circle cx="253.611" cy="294.642" r="9.16665" fill="#EFF6FF"/>
<circle cx="253.611" cy="253.611" r="9.16665" fill="#EFF6FF"/>
<circle cx="253.611" cy="213.452" r="9.16665" fill="#EFF6FF"/>
<circle cx="253.611" cy="172.421" r="9.16665" fill="#EFF6FF"/>
<circle cx="253.611" cy="131.388" r="9.16665" fill="#EFF6FF"/>
<circle cx="253.611" cy="90.3571" r="9.16665" fill="#EFF6FF"/>
<circle cx="253.611" cy="50.1979" r="9.16665" fill="#EFF6FF"/>
<circle cx="253.611" cy="9.16665" r="9.16665" fill="#EFF6FF"/>
<circle cx="294.642" cy="375.833" r="9.16665" fill="#EFF6FF"/>
<circle cx="294.642" cy="335.674" r="9.16665" fill="#EFF6FF"/>
<circle cx="294.642" cy="294.642" r="9.16665" fill="#EFF6FF"/>
<circle cx="294.642" cy="253.611" r="9.16665" fill="#EFF6FF"/>
<circle cx="294.642" cy="213.452" r="9.16665" fill="#EFF6FF"/>
<circle cx="294.642" cy="172.421" r="9.16665" fill="#EFF6FF"/>
<circle cx="294.642" cy="131.388" r="9.16665" fill="#EFF6FF"/>
<circle cx="294.642" cy="90.3571" r="9.16665" fill="#EFF6FF"/>
<circle cx="294.642" cy="50.1979" r="9.16665" fill="#EFF6FF"/>
<circle cx="294.642" cy="9.16665" r="9.16665" fill="#EFF6FF"/>
</svg>
