<svg width="116" height="146" viewBox="0 0 116 146" fill="none" xmlns="http://www.w3.org/2000/svg">
<circle cx="3.47619" cy="142.523" r="3.47619" fill="#EFF6FF"/>
<circle cx="3.47619" cy="127.296" r="3.47619" fill="#EFF6FF"/>
<circle cx="3.47619" cy="111.734" r="3.47619" fill="#EFF6FF"/>
<circle cx="3.47619" cy="96.1744" r="3.47619" fill="#EFF6FF"/>
<circle cx="3.47619" cy="80.9459" r="3.47619" fill="#EFF6FF"/>
<circle cx="3.47619" cy="65.3854" r="3.47619" fill="#EFF6FF"/>
<circle cx="3.47619" cy="49.8258" r="3.47619" fill="#EFF6FF"/>
<circle cx="3.47619" cy="34.2653" r="3.47619" fill="#EFF6FF"/>
<circle cx="3.47619" cy="19.0358" r="3.47619" fill="#EFF6FF"/>
<circle cx="3.47619" cy="3.47619" r="3.47619" fill="#EFF6FF"/>
<circle cx="19.0362" cy="142.523" r="3.47619" fill="#EFF6FF"/>
<circle cx="19.0362" cy="127.296" r="3.47619" fill="#EFF6FF"/>
<circle cx="19.0362" cy="111.734" r="3.47619" fill="#EFF6FF"/>
<circle cx="19.0362" cy="96.1744" r="3.47619" fill="#EFF6FF"/>
<circle cx="19.0362" cy="80.9459" r="3.47619" fill="#EFF6FF"/>
<circle cx="19.0362" cy="65.3854" r="3.47619" fill="#EFF6FF"/>
<circle cx="19.0362" cy="49.8258" r="3.47619" fill="#EFF6FF"/>
<circle cx="19.0362" cy="34.2653" r="3.47619" fill="#EFF6FF"/>
<circle cx="19.0362" cy="19.0358" r="3.47619" fill="#EFF6FF"/>
<circle cx="19.0367" cy="3.47619" r="3.47619" fill="#EFF6FF"/>
<circle cx="34.2653" cy="142.523" r="3.47619" fill="#EFF6FF"/>
<circle cx="34.2653" cy="127.296" r="3.47619" fill="#EFF6FF"/>
<circle cx="34.2653" cy="111.734" r="3.47619" fill="#EFF6FF"/>
<circle cx="34.2653" cy="96.1744" r="3.47619" fill="#EFF6FF"/>
<circle cx="34.2653" cy="80.9459" r="3.47619" fill="#EFF6FF"/>
<circle cx="34.2653" cy="65.3854" r="3.47619" fill="#EFF6FF"/>
<circle cx="34.2653" cy="49.8258" r="3.47619" fill="#EFF6FF"/>
<circle cx="34.2653" cy="34.2653" r="3.47619" fill="#EFF6FF"/>
<circle cx="34.2653" cy="19.0358" r="3.47619" fill="#EFF6FF"/>
<circle cx="34.2653" cy="3.47619" r="3.47619" fill="#EFF6FF"/>
<circle cx="49.8253" cy="142.523" r="3.47619" fill="#EFF6FF"/>
<circle cx="49.8253" cy="127.296" r="3.47619" fill="#EFF6FF"/>
<circle cx="49.8253" cy="111.734" r="3.47619" fill="#EFF6FF"/>
<circle cx="49.8253" cy="96.1744" r="3.47619" fill="#EFF6FF"/>
<circle cx="49.8253" cy="80.9459" r="3.47619" fill="#EFF6FF"/>
<circle cx="49.8253" cy="65.3854" r="3.47619" fill="#EFF6FF"/>
<circle cx="49.8253" cy="49.8258" r="3.47619" fill="#EFF6FF"/>
<circle cx="49.8253" cy="34.2653" r="3.47619" fill="#EFF6FF"/>
<circle cx="49.8253" cy="19.0358" r="3.47619" fill="#EFF6FF"/>
<circle cx="49.8253" cy="3.47619" r="3.47619" fill="#EFF6FF"/>
<circle cx="65.3859" cy="142.523" r="3.47619" fill="#EFF6FF"/>
<circle cx="65.3859" cy="127.296" r="3.47619" fill="#EFF6FF"/>
<circle cx="65.3859" cy="111.734" r="3.47619" fill="#EFF6FF"/>
<circle cx="65.3859" cy="96.1744" r="3.47619" fill="#EFF6FF"/>
<circle cx="65.3854" cy="80.9459" r="3.47619" fill="#EFF6FF"/>
<circle cx="65.3859" cy="65.3854" r="3.47619" fill="#EFF6FF"/>
<circle cx="65.3859" cy="49.8258" r="3.47619" fill="#EFF6FF"/>
<circle cx="65.3859" cy="34.2653" r="3.47619" fill="#EFF6FF"/>
<circle cx="65.3859" cy="19.0358" r="3.47619" fill="#EFF6FF"/>
<circle cx="65.3859" cy="3.47619" r="3.47619" fill="#EFF6FF"/>
<circle cx="80.9454" cy="142.523" r="3.47619" fill="#EFF6FF"/>
<circle cx="80.9454" cy="127.296" r="3.47619" fill="#EFF6FF"/>
<circle cx="80.9454" cy="111.734" r="3.47619" fill="#EFF6FF"/>
<circle cx="80.9454" cy="96.1744" r="3.47619" fill="#EFF6FF"/>
<circle cx="80.9454" cy="80.9459" r="3.47619" fill="#EFF6FF"/>
<circle cx="80.9454" cy="65.3854" r="3.47619" fill="#EFF6FF"/>
<circle cx="80.9454" cy="49.8258" r="3.47619" fill="#EFF6FF"/>
<circle cx="80.9454" cy="34.2653" r="3.47619" fill="#EFF6FF"/>
<circle cx="80.9454" cy="19.0358" r="3.47619" fill="#EFF6FF"/>
<circle cx="80.9454" cy="3.47619" r="3.47619" fill="#EFF6FF"/>
<circle cx="96.1749" cy="142.523" r="3.47619" fill="#EFF6FF"/>
<circle cx="96.1749" cy="127.296" r="3.47619" fill="#EFF6FF"/>
<circle cx="96.1749" cy="111.734" r="3.47619" fill="#EFF6FF"/>
<circle cx="96.1744" cy="96.1744" r="3.47619" fill="#EFF6FF"/>
<circle cx="96.1744" cy="80.9459" r="3.47619" fill="#EFF6FF"/>
<circle cx="96.1744" cy="65.3854" r="3.47619" fill="#EFF6FF"/>
<circle cx="96.1744" cy="49.8258" r="3.47619" fill="#EFF6FF"/>
<circle cx="96.1744" cy="34.2653" r="3.47619" fill="#EFF6FF"/>
<circle cx="96.1744" cy="19.0358" r="3.47619" fill="#EFF6FF"/>
<circle cx="96.1744" cy="3.47619" r="3.47619" fill="#EFF6FF"/>
<circle cx="111.734" cy="142.523" r="3.47619" fill="#EFF6FF"/>
<circle cx="111.734" cy="127.296" r="3.47619" fill="#EFF6FF"/>
<circle cx="111.734" cy="111.734" r="3.47619" fill="#EFF6FF"/>
<circle cx="111.734" cy="96.1744" r="3.47619" fill="#EFF6FF"/>
<circle cx="111.734" cy="80.9459" r="3.47619" fill="#EFF6FF"/>
<circle cx="111.734" cy="65.3854" r="3.47619" fill="#EFF6FF"/>
<circle cx="111.734" cy="49.8258" r="3.47619" fill="#EFF6FF"/>
<circle cx="111.734" cy="34.2653" r="3.47619" fill="#EFF6FF"/>
<circle cx="111.734" cy="19.0358" r="3.47619" fill="#EFF6FF"/>
<circle cx="111.734" cy="3.47619" r="3.47619" fill="#EFF6FF"/>
</svg>
