<svg width="20" height="20" viewBox="0 0 20 20" fill="none" xmlns="http://www.w3.org/2000/svg">
<g clip-path="url(#clip0)">
<path d="M10 1V19C14.9708 19 19.0001 14.9706 19.0001 10.0001C19.0001 5.02913 14.9707 1 10 1Z" fill="#252F6B"/>
<path d="M9.99987 1C5.02943 1 1 5.02928 1 9.99998C1 14.9704 5.02943 18.9998 9.99987 18.9998C14.9706 18.9998 14.9706 1 9.99987 1Z" fill="#273375"/>
<path d="M7.17267 14.7958L7.77958 14.0392L6.84199 14.209L6.5167 13.3008L6.16315 14.209L5.20591 14.0392L5.81426 14.7791L5.18262 15.5182L6.14536 15.367L6.47008 16.2565L6.82379 15.3674L7.80572 15.5429L7.17267 14.7958Z" fill="#F3F4F5"/>
<path d="M14.3462 15.4623L14.6904 15.0336L14.1589 15.1298L13.9746 14.6152L13.7742 15.1298L13.2318 15.0336L13.5766 15.4527L13.2188 15.8717L13.7642 15.7859L13.9482 16.2897L14.1485 15.7862L14.705 15.8857L14.3462 15.4623Z" fill="#F3F4F5"/>
<path d="M14.3462 5.98969L14.6904 5.56081L14.1589 5.65715L13.9746 5.14258L13.7742 5.65715L13.2318 5.56081L13.5766 5.98015L13.2188 6.39896L13.7642 6.31327L13.9482 6.81731L14.1485 6.31353L14.705 6.41287L14.3462 5.98969Z" fill="#F3F4F5"/>
<path d="M16.5721 8.44082L16.916 8.01195L16.3848 8.10832L16.2005 7.59375L16.0001 8.10832L15.4574 8.01195L15.8021 8.43132L15.4443 8.85024L15.9898 8.7644L16.1738 9.26847L16.3741 8.7647L16.9306 8.86403L16.5721 8.44082Z" fill="#F3F4F5"/>
<path d="M12.4203 9.53055L12.7645 9.10179L12.233 9.19816L12.0487 8.68359L11.8483 9.19816L11.306 9.10179L11.6507 9.52086L11.293 9.93993L11.8384 9.85424L12.0224 10.3579L12.2228 9.85454L12.7793 9.95388L12.4203 9.53055Z" fill="#F3F4F5"/>
<path d="M2.8899 4.48438C2.74865 4.6664 2.61378 4.85328 2.48633 5.04583H3.45109L2.8899 4.48438Z" fill="#29337A"/>
<path d="M7.53809 9.9998H8.40507L7.53809 9.13281V9.9998Z" fill="#29337A"/>
<path d="M4.66423 2.75391C4.45774 2.90625 4.25896 3.06783 4.06641 3.23678L4.66423 3.83434V2.75391Z" fill="#29337A"/>
<path d="M3.79688 10.0001H4.66412V9.13281L3.79688 10.0001Z" fill="#29337A"/>
<path d="M10.0002 1C9.14615 1 8.32108 1.12149 7.53809 1.34391V3.83359L10.0005 1.3713V1H10.0002Z" fill="#29337A"/>
<path d="M10.0005 9.16946V7.91992H8.75098L10.0005 9.16946Z" fill="#29337A"/>
<path d="M1.37134 9.9992L3.45104 7.91992H1.24427C1.08611 8.58767 1 9.28327 1 9.9992H1.37134Z" fill="#29337A"/>
<path d="M8.74902 5.04503H9.99938V3.79492L8.74902 5.04503Z" fill="#29337A"/>
<path d="M9.99954 9.43216V9.16969L8.75 7.92015H9.99954V7.47266H8.04004L9.99954 9.43216Z" fill="white"/>
<path d="M3.45154 5.04669H2.48678C2.39045 5.19265 2.29891 5.34199 2.21094 5.49377H4.10622L2.98129 4.36914C2.95047 4.40752 2.92018 4.44632 2.8902 4.48508L3.45154 5.04669Z" fill="white"/>
<path d="M4.66345 9.13319V10.0004H5.11068V8.47852L3.58887 10.0004H3.7962L4.66345 9.13319Z" fill="white"/>
<path d="M7.5379 1.34375C7.38711 1.38654 7.23819 1.43313 7.09082 1.48329V4.48826L10.0003 1.57894V1.3716L7.5379 3.83343V1.34375Z" fill="white"/>
<path d="M4.648 7.92L4.66377 7.90423L5.09535 7.47266H1.36209C1.31904 7.62029 1.27967 7.76936 1.24414 7.92H3.45091L1.37121 9.99928H2.56861L4.648 7.92Z" fill="white"/>
<path d="M1.37109 10.0012L3.45079 7.92188L1.37109 10.0012Z" fill="white"/>
<path d="M10 5.49404V5.04681H8.74964L10 3.7967V2.59961L7.10547 5.49404H10Z" fill="white"/>
<path d="M9.99942 3.79688L8.74902 5.04698L9.99942 3.79688Z" fill="white"/>
<path d="M4.66408 3.83397L4.06626 3.23641C3.85425 3.42273 3.65072 3.61881 3.45703 3.82432L4.66408 5.03137L4.67689 5.04444L5.11131 5.47886V2.44531C4.95927 2.54408 4.80962 2.64596 4.66423 2.75338V3.83397H4.66408Z" fill="white"/>
<path d="M7.53707 9.13227L8.40406 9.99925H9.54632L7.08984 7.54297V9.99925H7.53707V9.13227Z" fill="white"/>
<path d="M4.66406 5.0293L4.67687 5.04237L4.66406 5.0293Z" fill="#D32030"/>
<path d="M8.48781 7.91968L8.04073 7.47234H10.0002V5.49281H7.10568L7.09075 5.50801V5.49281H7.10568L10.0002 2.59854V1.57792L7.0906 4.48739V1.48242C6.38732 1.72274 5.72368 2.047 5.11107 2.44418V5.47758L5.12657 5.49277H5.11107V5.47758L4.67664 5.04319L4.67919 5.04574H4.66399V5.03023L3.45694 3.82318C3.29126 3.99855 3.13253 4.18016 2.98117 4.3683L4.10607 5.49293H2.21082C1.8527 6.11025 1.56637 6.77358 1.3623 7.47245H5.09556L5.11107 7.45668V7.47245H5.09556L4.66399 7.90406V7.91983H4.64822L2.56879 9.999H3.58941L5.11122 8.47704V9.999H7.09075V7.54268L9.54707 9.999H9.88486C9.92336 9.95879 9.96261 9.91885 10.0004 9.87751V9.43169L8.48781 7.91968Z" fill="#D32030"/>
<path d="M7.09082 4.4876L10.0005 1.57812L7.09082 4.4876Z" fill="#D32030"/>
<path d="M4.66421 7.91827V7.90234L4.64844 7.91827H4.66421Z" fill="#D32030"/>
<path d="M5.11132 7.45703L5.0957 7.4728H5.11132V7.45703Z" fill="#D32030"/>
<path d="M7.09082 5.50739L7.10591 5.49219H7.09082V5.50739Z" fill="#D32030"/>
<path d="M4.66406 5.04476H4.67941L4.67687 5.04237L4.66406 5.0293V5.04476Z" fill="#D32030"/>
<path d="M5.12679 5.49387L5.11133 5.47852V5.49387H5.12679Z" fill="#D32030"/>
</g>
<circle cx="10" cy="10" r="9.5" stroke="white"/>
<defs>
<clipPath id="clip0">
<rect width="18" height="18" fill="white" transform="translate(1 1)"/>
</clipPath>
</defs>
</svg>
