<svg width="18" height="18" viewBox="0 0 18 18" fill="none" xmlns="http://www.w3.org/2000/svg">
<g clip-path="url(#clip0)">
<path d="M8.47254 17.9066V14.0801C7.51426 14.1166 6.56518 14.2517 5.66211 14.4757C5.80754 14.8271 5.9667 15.1637 6.13905 15.4815C6.82693 16.7491 7.6818 17.6252 8.47254 17.9066Z" fill="white"/>
<path d="M11.8608 15.4815C12.0332 15.1639 12.1924 14.8271 12.3378 14.4757C11.4347 14.2517 10.4856 14.1166 9.52734 14.0801V17.9066C10.3181 17.6252 11.173 16.7491 11.8608 15.4815Z" fill="white"/>
<path d="M8.47272 13.0267V9.51758H4.62695C4.67502 10.8876 4.90875 12.2496 5.30014 13.4827C6.31898 13.2213 7.3918 13.0652 8.47272 13.0267Z" fill="white"/>
<path d="M8.47272 8.46106V4.95189C7.3918 4.91344 6.31898 4.75729 5.30014 4.49609C4.90875 5.72917 4.67502 7.09106 4.62695 8.46106H8.47272Z" fill="white"/>
<path d="M13.3573 3.20308C13.9988 2.98679 14.6069 2.72353 15.1661 2.41742C14.1842 1.49525 12.9964 0.789658 11.6797 0.378906C12.0741 0.824539 12.4472 1.36507 12.7872 1.9917C12.9961 2.37636 13.1862 2.78148 13.3573 3.20308Z" fill="white"/>
<path d="M6.13905 2.49541C5.9667 2.81319 5.80754 3.14978 5.66211 3.50121C6.56518 3.72519 7.51426 3.86032 8.47254 3.89685V0.0703125C7.6818 0.3517 6.82693 1.22786 6.13905 2.49541Z" fill="white"/>
<path d="M9.52734 9.51758V13.0267C10.6084 13.0653 11.6811 13.2213 12.6999 13.4827C13.0913 12.2496 13.325 10.8876 13.3732 9.51758H9.52734Z" fill="white"/>
<path d="M9.52734 4.95189V8.46106H13.3731C13.325 7.09106 13.0913 5.72917 12.6999 4.49609C11.6811 4.75729 10.6084 4.91344 9.52734 4.95189Z" fill="white"/>
<path d="M4.28481 13.7843C3.8632 12.4568 3.61821 11.004 3.57111 9.51758H0C0.115494 11.5102 0.880966 13.3311 2.08713 14.7711C2.75894 14.3812 3.49956 14.0503 4.28481 13.7843Z" fill="white"/>
<path d="M13.3573 14.7734C13.1861 15.195 12.996 15.6002 12.7872 15.985C12.4472 16.6116 12.0741 17.152 11.6797 17.5976C12.9964 17.1869 14.1842 16.4813 15.1662 15.5591C14.6069 15.253 13.9988 14.9897 13.3573 14.7734Z" fill="white"/>
<path d="M4.64177 14.7734C4.00031 14.9897 3.39221 15.253 2.83301 15.5591C3.81491 16.4814 5.00267 17.1868 6.31938 17.5977C5.92511 17.152 5.55199 16.6116 5.21182 15.9849C5.00295 15.6002 4.81288 15.195 4.64177 14.7734Z" fill="white"/>
<path d="M13.7148 4.19569C14.1364 5.52312 14.3814 6.97592 14.4285 8.46237H17.9996C17.8842 6.46973 17.1187 4.64902 15.9125 3.20898C15.2407 3.59886 14.5001 3.92969 13.7148 4.19569Z" fill="white"/>
<path d="M13.7148 13.7843C14.5001 14.0503 15.2407 14.3811 15.9125 14.771C17.1187 13.3309 17.8842 11.5101 17.9996 9.51758H14.4285C14.3814 11.004 14.1364 12.4568 13.7148 13.7843Z" fill="white"/>
<path d="M9.52734 0.0703125V3.89685C10.4856 3.86032 11.4347 3.72519 12.3378 3.50134C12.1924 3.14978 12.0333 2.81319 11.8608 2.49541C11.173 1.22786 10.3181 0.3517 9.52734 0.0703125Z" fill="white"/>
<path d="M4.28481 4.19569C3.49956 3.92969 2.75894 3.59886 2.08713 3.20898C0.880829 4.64902 0.115494 6.46986 0 8.46237H3.57111C3.61821 6.97592 3.8632 5.52312 4.28481 4.19569Z" fill="white"/>
<path d="M4.64289 3.20308C4.81414 2.78148 5.0042 2.37636 5.21294 1.9917C5.55297 1.36493 5.92609 0.824539 6.3205 0.378906C5.00379 0.789658 3.81603 1.49525 2.83398 2.41742C3.39333 2.72353 4.00142 2.98679 4.64289 3.20308Z" fill="white"/>
</g>
<defs>
<clipPath id="clip0">
<rect width="18" height="18" fill="white"/>
</clipPath>
</defs>
</svg>
