<svg width="350" height="277" viewBox="0 0 350 277" fill="none" xmlns="http://www.w3.org/2000/svg">
<circle cx="8.33464" cy="8.33333" r="8.33333" transform="rotate(90 8.33464 8.33333)" fill="#EDF3FD"/>
<circle cx="44.8415" cy="8.33333" r="8.33333" transform="rotate(90 44.8415 8.33333)" fill="#EDF3FD"/>
<circle cx="82.1432" cy="8.33333" r="8.33333" transform="rotate(90 82.1432 8.33333)" fill="#EDF3FD"/>
<circle cx="119.445" cy="8.33333" r="8.33333" transform="rotate(90 119.445 8.33333)" fill="#EDF3FD"/>
<circle cx="155.953" cy="8.33333" r="8.33333" transform="rotate(90 155.953 8.33333)" fill="#EDF3FD"/>
<circle cx="193.256" cy="8.33333" r="8.33333" transform="rotate(90 193.256 8.33333)" fill="#EDF3FD"/>
<circle cx="230.556" cy="8.33333" r="8.33333" transform="rotate(90 230.556 8.33333)" fill="#EDF3FD"/>
<circle cx="267.858" cy="8.33333" r="8.33333" transform="rotate(90 267.858 8.33333)" fill="#EDF3FD"/>
<circle cx="304.366" cy="8.33333" r="8.33333" transform="rotate(90 304.366 8.33333)" fill="#EDF3FD"/>
<circle cx="341.668" cy="8.33333" r="8.33333" transform="rotate(90 341.668 8.33333)" fill="#EDF3FD"/>
<circle cx="8.33464" cy="45.638" r="8.33333" transform="rotate(90 8.33464 45.638)" fill="#EDF3FD"/>
<circle cx="44.8415" cy="45.638" r="8.33333" transform="rotate(90 44.8415 45.638)" fill="#EDF3FD"/>
<circle cx="82.1432" cy="45.638" r="8.33333" transform="rotate(90 82.1432 45.638)" fill="#EDF3FD"/>
<circle cx="119.445" cy="45.638" r="8.33333" transform="rotate(90 119.445 45.638)" fill="#EDF3FD"/>
<circle cx="155.953" cy="45.638" r="8.33333" transform="rotate(90 155.953 45.638)" fill="#EDF3FD"/>
<circle cx="193.256" cy="45.638" r="8.33333" transform="rotate(90 193.256 45.638)" fill="#EDF3FD"/>
<circle cx="230.556" cy="45.638" r="8.33333" transform="rotate(90 230.556 45.638)" fill="#EDF3FD"/>
<circle cx="267.858" cy="45.638" r="8.33333" transform="rotate(90 267.858 45.638)" fill="#EDF3FD"/>
<circle cx="304.366" cy="45.638" r="8.33333" transform="rotate(90 304.366 45.638)" fill="#EDF3FD"/>
<circle cx="341.668" cy="45.638" r="8.33333" transform="rotate(90 341.668 45.638)" fill="#EDF3FD"/>
<circle cx="8.33464" cy="82.1439" r="8.33333" transform="rotate(90 8.33464 82.1439)" fill="#EDF3FD"/>
<circle cx="44.8415" cy="82.1439" r="8.33333" transform="rotate(90 44.8415 82.1439)" fill="#EDF3FD"/>
<circle cx="82.1432" cy="82.1439" r="8.33333" transform="rotate(90 82.1432 82.1439)" fill="#EDF3FD"/>
<circle cx="119.445" cy="82.1439" r="8.33333" transform="rotate(90 119.445 82.1439)" fill="#EDF3FD"/>
<circle cx="155.953" cy="82.1439" r="8.33333" transform="rotate(90 155.953 82.1439)" fill="#EDF3FD"/>
<circle cx="193.256" cy="82.1439" r="8.33333" transform="rotate(90 193.256 82.1439)" fill="#EDF3FD"/>
<circle cx="230.556" cy="82.1439" r="8.33333" transform="rotate(90 230.556 82.1439)" fill="#EDF3FD"/>
<circle cx="267.858" cy="82.1439" r="8.33333" transform="rotate(90 267.858 82.1439)" fill="#EDF3FD"/>
<circle cx="304.366" cy="82.1439" r="8.33333" transform="rotate(90 304.366 82.1439)" fill="#EDF3FD"/>
<circle cx="341.668" cy="82.1439" r="8.33333" transform="rotate(90 341.668 82.1439)" fill="#EDF3FD"/>
<circle cx="8.33464" cy="119.445" r="8.33333" transform="rotate(90 8.33464 119.445)" fill="#EDF3FD"/>
<circle cx="44.8415" cy="119.445" r="8.33333" transform="rotate(90 44.8415 119.445)" fill="#EDF3FD"/>
<circle cx="82.1432" cy="119.445" r="8.33333" transform="rotate(90 82.1432 119.445)" fill="#EDF3FD"/>
<circle cx="119.445" cy="119.445" r="8.33333" transform="rotate(90 119.445 119.445)" fill="#EDF3FD"/>
<circle cx="155.953" cy="119.445" r="8.33333" transform="rotate(90 155.953 119.445)" fill="#EDF3FD"/>
<circle cx="193.256" cy="119.445" r="8.33333" transform="rotate(90 193.256 119.445)" fill="#EDF3FD"/>
<circle cx="230.556" cy="119.445" r="8.33333" transform="rotate(90 230.556 119.445)" fill="#EDF3FD"/>
<circle cx="267.858" cy="119.445" r="8.33333" transform="rotate(90 267.858 119.445)" fill="#EDF3FD"/>
<circle cx="304.366" cy="119.445" r="8.33333" transform="rotate(90 304.366 119.445)" fill="#EDF3FD"/>
<circle cx="341.668" cy="119.445" r="8.33333" transform="rotate(90 341.668 119.445)" fill="#EDF3FD"/>
<circle cx="8.33464" cy="156.745" r="8.33333" transform="rotate(90 8.33464 156.745)" fill="#EDF3FD"/>
<circle cx="44.8415" cy="156.745" r="8.33333" transform="rotate(90 44.8415 156.745)" fill="#EDF3FD"/>
<circle cx="82.1432" cy="156.745" r="8.33333" transform="rotate(90 82.1432 156.745)" fill="#EDF3FD"/>
<circle cx="119.445" cy="156.745" r="8.33333" transform="rotate(90 119.445 156.745)" fill="#EDF3FD"/>
<circle cx="155.953" cy="156.745" r="8.33333" transform="rotate(90 155.953 156.745)" fill="#EDF3FD"/>
<circle cx="193.256" cy="156.745" r="8.33333" transform="rotate(90 193.256 156.745)" fill="#EDF3FD"/>
<circle cx="230.556" cy="156.745" r="8.33333" transform="rotate(90 230.556 156.745)" fill="#EDF3FD"/>
<circle cx="267.858" cy="156.745" r="8.33333" transform="rotate(90 267.858 156.745)" fill="#EDF3FD"/>
<circle cx="304.366" cy="156.745" r="8.33333" transform="rotate(90 304.366 156.745)" fill="#EDF3FD"/>
<circle cx="341.668" cy="156.745" r="8.33333" transform="rotate(90 341.668 156.745)" fill="#EDF3FD"/>
<circle cx="8.33464" cy="194.048" r="8.33333" transform="rotate(90 8.33464 194.048)" fill="#EDF3FD"/>
<circle cx="44.8415" cy="194.048" r="8.33333" transform="rotate(90 44.8415 194.048)" fill="#EDF3FD"/>
<circle cx="82.1432" cy="194.048" r="8.33333" transform="rotate(90 82.1432 194.048)" fill="#EDF3FD"/>
<circle cx="119.445" cy="194.048" r="8.33333" transform="rotate(90 119.445 194.048)" fill="#EDF3FD"/>
<circle cx="155.953" cy="194.048" r="8.33333" transform="rotate(90 155.953 194.048)" fill="#EDF3FD"/>
<circle cx="193.256" cy="194.048" r="8.33333" transform="rotate(90 193.256 194.048)" fill="#EDF3FD"/>
<circle cx="230.556" cy="194.048" r="8.33333" transform="rotate(90 230.556 194.048)" fill="#EDF3FD"/>
<circle cx="267.858" cy="194.048" r="8.33333" transform="rotate(90 267.858 194.048)" fill="#EDF3FD"/>
<circle cx="304.366" cy="194.048" r="8.33333" transform="rotate(90 304.366 194.048)" fill="#EDF3FD"/>
<circle cx="341.668" cy="194.048" r="8.33333" transform="rotate(90 341.668 194.048)" fill="#EDF3FD"/>
<circle cx="8.33464" cy="230.556" r="8.33333" transform="rotate(90 8.33464 230.556)" fill="#EDF3FD"/>
<circle cx="44.8415" cy="230.556" r="8.33333" transform="rotate(90 44.8415 230.556)" fill="#EDF3FD"/>
<circle cx="82.1432" cy="230.556" r="8.33333" transform="rotate(90 82.1432 230.556)" fill="#EDF3FD"/>
<circle cx="119.445" cy="230.556" r="8.33333" transform="rotate(90 119.445 230.556)" fill="#EDF3FD"/>
<circle cx="155.953" cy="230.556" r="8.33333" transform="rotate(90 155.953 230.556)" fill="#EDF3FD"/>
<circle cx="193.256" cy="230.556" r="8.33333" transform="rotate(90 193.256 230.556)" fill="#EDF3FD"/>
<circle cx="230.556" cy="230.556" r="8.33333" transform="rotate(90 230.556 230.556)" fill="#EDF3FD"/>
<circle cx="267.858" cy="230.556" r="8.33333" transform="rotate(90 267.858 230.556)" fill="#EDF3FD"/>
<circle cx="304.366" cy="230.556" r="8.33333" transform="rotate(90 304.366 230.556)" fill="#EDF3FD"/>
<circle cx="341.668" cy="230.556" r="8.33333" transform="rotate(90 341.668 230.556)" fill="#EDF3FD"/>
<circle cx="8.33464" cy="267.857" r="8.33333" transform="rotate(90 8.33464 267.857)" fill="#EDF3FD"/>
<circle cx="44.8415" cy="267.857" r="8.33333" transform="rotate(90 44.8415 267.857)" fill="#EDF3FD"/>
<circle cx="82.1432" cy="267.857" r="8.33333" transform="rotate(90 82.1432 267.857)" fill="#EDF3FD"/>
<circle cx="119.445" cy="267.857" r="8.33333" transform="rotate(90 119.445 267.857)" fill="#EDF3FD"/>
<circle cx="155.953" cy="267.857" r="8.33333" transform="rotate(90 155.953 267.857)" fill="#EDF3FD"/>
<circle cx="193.256" cy="267.857" r="8.33333" transform="rotate(90 193.256 267.857)" fill="#EDF3FD"/>
<circle cx="230.556" cy="267.857" r="8.33333" transform="rotate(90 230.556 267.857)" fill="#EDF3FD"/>
<circle cx="267.858" cy="267.857" r="8.33333" transform="rotate(90 267.858 267.857)" fill="#EDF3FD"/>
<circle cx="304.366" cy="267.857" r="8.33333" transform="rotate(90 304.366 267.857)" fill="#EDF3FD"/>
<circle cx="341.668" cy="267.857" r="8.33333" transform="rotate(90 341.668 267.857)" fill="#EDF3FD"/>
</svg>
