<svg width="327" height="258" viewBox="0 0 327 258" fill="none" xmlns="http://www.w3.org/2000/svg">
<circle cx="7.7674" cy="7.76189" r="7.76189" transform="rotate(90 7.7674 7.76189)" fill="#E2EEFF"/>
<circle cx="41.7713" cy="7.76189" r="7.76189" transform="rotate(90 41.7713 7.76189)" fill="#E2EEFF"/>
<circle cx="76.5145" cy="7.76189" r="7.76189" transform="rotate(90 76.5145 7.76189)" fill="#E2EEFF"/>
<circle cx="111.259" cy="7.76189" r="7.76189" transform="rotate(90 111.259 7.76189)" fill="#E2EEFF"/>
<circle cx="145.264" cy="7.76189" r="7.76189" transform="rotate(90 145.264 7.76189)" fill="#E2EEFF"/>
<circle cx="180.008" cy="7.76189" r="7.76189" transform="rotate(90 180.008 7.76189)" fill="#E2EEFF"/>
<circle cx="214.751" cy="7.76189" r="7.76189" transform="rotate(90 214.751 7.76189)" fill="#E2EEFF"/>
<circle cx="249.495" cy="7.76189" r="7.76189" transform="rotate(90 249.495 7.76189)" fill="#E2EEFF"/>
<circle cx="283.499" cy="7.76189" r="7.76189" transform="rotate(90 283.499 7.76189)" fill="#E2EEFF"/>
<circle cx="318.243" cy="7.76189" r="7.76189" transform="rotate(90 318.243 7.76189)" fill="#E2EEFF"/>
<circle cx="7.7674" cy="42.506" r="7.76189" transform="rotate(90 7.7674 42.506)" fill="#E2EEFF"/>
<circle cx="41.7713" cy="42.506" r="7.76189" transform="rotate(90 41.7713 42.506)" fill="#E2EEFF"/>
<circle cx="76.5145" cy="42.506" r="7.76189" transform="rotate(90 76.5145 42.506)" fill="#E2EEFF"/>
<circle cx="111.259" cy="42.506" r="7.76189" transform="rotate(90 111.259 42.506)" fill="#E2EEFF"/>
<circle cx="145.264" cy="42.506" r="7.76189" transform="rotate(90 145.264 42.506)" fill="#E2EEFF"/>
<circle cx="180.008" cy="42.506" r="7.76189" transform="rotate(90 180.008 42.506)" fill="#E2EEFF"/>
<circle cx="214.751" cy="42.506" r="7.76189" transform="rotate(90 214.751 42.506)" fill="#E2EEFF"/>
<circle cx="249.495" cy="42.506" r="7.76189" transform="rotate(90 249.495 42.506)" fill="#E2EEFF"/>
<circle cx="283.499" cy="42.506" r="7.76189" transform="rotate(90 283.499 42.506)" fill="#E2EEFF"/>
<circle cx="318.243" cy="42.506" r="7.76189" transform="rotate(90 318.243 42.506)" fill="#E2EEFF"/>
<circle cx="7.7674" cy="76.5099" r="7.76189" transform="rotate(90 7.7674 76.5099)" fill="#E2EEFF"/>
<circle cx="41.7713" cy="76.5099" r="7.76189" transform="rotate(90 41.7713 76.5099)" fill="#E2EEFF"/>
<circle cx="76.5145" cy="76.5099" r="7.76189" transform="rotate(90 76.5145 76.5099)" fill="#E2EEFF"/>
<circle cx="111.259" cy="76.5099" r="7.76189" transform="rotate(90 111.259 76.5099)" fill="#E2EEFF"/>
<circle cx="145.264" cy="76.5099" r="7.76189" transform="rotate(90 145.264 76.5099)" fill="#E2EEFF"/>
<circle cx="180.008" cy="76.5099" r="7.76189" transform="rotate(90 180.008 76.5099)" fill="#E2EEFF"/>
<circle cx="214.751" cy="76.5099" r="7.76189" transform="rotate(90 214.751 76.5099)" fill="#E2EEFF"/>
<circle cx="249.495" cy="76.5099" r="7.76189" transform="rotate(90 249.495 76.5099)" fill="#E2EEFF"/>
<circle cx="283.499" cy="76.5099" r="7.76189" transform="rotate(90 283.499 76.5099)" fill="#E2EEFF"/>
<circle cx="318.243" cy="76.5099" r="7.76189" transform="rotate(90 318.243 76.5099)" fill="#E2EEFF"/>
<circle cx="7.7674" cy="111.254" r="7.76189" transform="rotate(90 7.7674 111.254)" fill="#E2EEFF"/>
<circle cx="41.7713" cy="111.254" r="7.76189" transform="rotate(90 41.7713 111.254)" fill="#E2EEFF"/>
<circle cx="76.5145" cy="111.254" r="7.76189" transform="rotate(90 76.5145 111.254)" fill="#E2EEFF"/>
<circle cx="111.259" cy="111.254" r="7.76189" transform="rotate(90 111.259 111.254)" fill="#E2EEFF"/>
<circle cx="145.264" cy="111.254" r="7.76189" transform="rotate(90 145.264 111.254)" fill="#E2EEFF"/>
<circle cx="180.008" cy="111.254" r="7.76189" transform="rotate(90 180.008 111.254)" fill="#E2EEFF"/>
<circle cx="214.751" cy="111.254" r="7.76189" transform="rotate(90 214.751 111.254)" fill="#E2EEFF"/>
<circle cx="249.495" cy="111.254" r="7.76189" transform="rotate(90 249.495 111.254)" fill="#E2EEFF"/>
<circle cx="283.499" cy="111.254" r="7.76189" transform="rotate(90 283.499 111.254)" fill="#E2EEFF"/>
<circle cx="318.243" cy="111.254" r="7.76189" transform="rotate(90 318.243 111.254)" fill="#E2EEFF"/>
<circle cx="7.7674" cy="145.996" r="7.76189" transform="rotate(90 7.7674 145.996)" fill="#E2EEFF"/>
<circle cx="41.7713" cy="145.996" r="7.76189" transform="rotate(90 41.7713 145.996)" fill="#E2EEFF"/>
<circle cx="76.5145" cy="145.996" r="7.76189" transform="rotate(90 76.5145 145.996)" fill="#E2EEFF"/>
<circle cx="111.259" cy="145.996" r="7.76189" transform="rotate(90 111.259 145.996)" fill="#E2EEFF"/>
<circle cx="145.264" cy="145.996" r="7.76189" transform="rotate(90 145.264 145.996)" fill="#E2EEFF"/>
<circle cx="180.008" cy="145.996" r="7.76189" transform="rotate(90 180.008 145.996)" fill="#E2EEFF"/>
<circle cx="214.751" cy="145.996" r="7.76189" transform="rotate(90 214.751 145.996)" fill="#E2EEFF"/>
<circle cx="249.495" cy="145.996" r="7.76189" transform="rotate(90 249.495 145.996)" fill="#E2EEFF"/>
<circle cx="283.499" cy="145.996" r="7.76189" transform="rotate(90 283.499 145.996)" fill="#E2EEFF"/>
<circle cx="318.243" cy="145.996" r="7.76189" transform="rotate(90 318.243 145.996)" fill="#E2EEFF"/>
<circle cx="7.7674" cy="180.742" r="7.76189" transform="rotate(90 7.7674 180.742)" fill="#E2EEFF"/>
<circle cx="41.7713" cy="180.742" r="7.76189" transform="rotate(90 41.7713 180.742)" fill="#E2EEFF"/>
<circle cx="76.5145" cy="180.742" r="7.76189" transform="rotate(90 76.5145 180.742)" fill="#E2EEFF"/>
<circle cx="111.259" cy="180.742" r="7.76189" transform="rotate(90 111.259 180.742)" fill="#E2EEFF"/>
<circle cx="145.264" cy="180.742" r="7.76189" transform="rotate(90 145.264 180.742)" fill="#E2EEFF"/>
<circle cx="180.008" cy="180.742" r="7.76189" transform="rotate(90 180.008 180.742)" fill="#E2EEFF"/>
<circle cx="214.751" cy="180.742" r="7.76189" transform="rotate(90 214.751 180.742)" fill="#E2EEFF"/>
<circle cx="249.495" cy="180.742" r="7.76189" transform="rotate(90 249.495 180.742)" fill="#E2EEFF"/>
<circle cx="283.499" cy="180.742" r="7.76189" transform="rotate(90 283.499 180.742)" fill="#E2EEFF"/>
<circle cx="318.243" cy="180.742" r="7.76189" transform="rotate(90 318.243 180.742)" fill="#E2EEFF"/>
<circle cx="7.7674" cy="214.746" r="7.76189" transform="rotate(90 7.7674 214.746)" fill="#E2EEFF"/>
<circle cx="41.7713" cy="214.746" r="7.76189" transform="rotate(90 41.7713 214.746)" fill="#E2EEFF"/>
<circle cx="76.5145" cy="214.746" r="7.76189" transform="rotate(90 76.5145 214.746)" fill="#E2EEFF"/>
<circle cx="111.259" cy="214.746" r="7.76189" transform="rotate(90 111.259 214.746)" fill="#E2EEFF"/>
<circle cx="145.264" cy="214.746" r="7.76189" transform="rotate(90 145.264 214.746)" fill="#E2EEFF"/>
<circle cx="180.008" cy="214.746" r="7.76189" transform="rotate(90 180.008 214.746)" fill="#E2EEFF"/>
<circle cx="214.751" cy="214.746" r="7.76189" transform="rotate(90 214.751 214.746)" fill="#E2EEFF"/>
<circle cx="249.495" cy="214.746" r="7.76189" transform="rotate(90 249.495 214.746)" fill="#E2EEFF"/>
<circle cx="283.499" cy="214.746" r="7.76189" transform="rotate(90 283.499 214.746)" fill="#E2EEFF"/>
<circle cx="318.243" cy="214.746" r="7.76189" transform="rotate(90 318.243 214.746)" fill="#E2EEFF"/>
<circle cx="7.7674" cy="249.49" r="7.76189" transform="rotate(90 7.7674 249.49)" fill="#E2EEFF"/>
<circle cx="41.7713" cy="249.49" r="7.76189" transform="rotate(90 41.7713 249.49)" fill="#E2EEFF"/>
<circle cx="76.5145" cy="249.49" r="7.76189" transform="rotate(90 76.5145 249.49)" fill="#E2EEFF"/>
<circle cx="111.259" cy="249.49" r="7.76189" transform="rotate(90 111.259 249.49)" fill="#E2EEFF"/>
<circle cx="145.264" cy="249.49" r="7.76189" transform="rotate(90 145.264 249.49)" fill="#E2EEFF"/>
<circle cx="180.008" cy="249.49" r="7.76189" transform="rotate(90 180.008 249.49)" fill="#E2EEFF"/>
<circle cx="214.751" cy="249.49" r="7.76189" transform="rotate(90 214.751 249.49)" fill="#E2EEFF"/>
<circle cx="249.495" cy="249.49" r="7.76189" transform="rotate(90 249.495 249.49)" fill="#E2EEFF"/>
<circle cx="283.499" cy="249.49" r="7.76189" transform="rotate(90 283.499 249.49)" fill="#E2EEFF"/>
<circle cx="318.243" cy="249.49" r="7.76189" transform="rotate(90 318.243 249.49)" fill="#E2EEFF"/>
</svg>
