<svg width="67" height="67" viewBox="0 0 67 67" fill="none" xmlns="http://www.w3.org/2000/svg">
<path d="M65.0844 9.15914C64.0988 8.17181 62.4995 8.17011 61.5139 9.15496L31.2209 39.368L20.2912 27.4974C19.3468 26.4722 17.7501 26.4058 16.7232 27.35C15.6971 28.2944 15.6314 29.892 16.5759 30.918L29.2857 44.7212C29.7512 45.2271 30.4026 45.5209 31.0895 45.5352C31.1079 45.536 31.1257 45.536 31.1434 45.536C31.8109 45.536 32.453 45.2708 32.9261 44.7995L65.0794 12.7304C66.0675 11.7457 66.0692 10.1465 65.0844 9.15914Z" fill="#2096F3"/>
<path d="M64.4748 30.9748C63.0801 30.9748 61.9497 32.1052 61.9497 33.5C61.9497 49.1878 49.1878 61.9497 33.5 61.9497C17.8131 61.9497 5.05026 49.1878 5.05026 33.5C5.05026 17.8131 17.8131 5.05026 33.5 5.05026C34.8947 5.05026 36.0252 3.91989 36.0252 2.52519C36.0252 1.13036 34.8947 0 33.5 0C15.0279 0 0 15.0279 0 33.5C0 51.9713 15.0279 67 33.5 67C51.9713 67 67 51.9713 67 33.5C67 32.1053 65.8696 30.9748 64.4748 30.9748Z" fill="#2096F3"/>
</svg>
