<svg width="60" height="60" viewBox="0 0 60 60" fill="none" xmlns="http://www.w3.org/2000/svg">
<path d="M21.2507 59.3549C25.267 59.3549 28.5229 56.0991 28.5229 52.0827C28.5229 48.0664 25.267 44.8105 21.2507 44.8105C17.2344 44.8105 13.9785 48.0664 13.9785 52.0827C13.9785 56.0991 17.2344 59.3549 21.2507 59.3549Z" fill="#E2EEFF"/>
<path d="M44.5507 44.739C40.5149 44.3418 36.9213 47.2915 36.5241 51.3273C36.127 55.3632 39.0766 58.9568 43.1125 59.3539C43.5907 59.401 44.0725 59.401 44.5507 59.3539C48.5866 58.9568 51.5363 55.3632 51.1391 51.3273C50.796 47.8406 48.0374 45.082 44.5507 44.739Z" fill="#E2EEFF"/>
<path d="M59.519 17.0631C59.1577 16.5221 58.5456 16.2028 57.8951 16.2159H49.8463V16.0747C49.8468 7.53505 42.9246 0.61188 34.385 0.611328C25.8455 0.610777 18.9224 7.53298 18.9218 16.0726C18.9218 16.0733 18.9218 16.074 18.9218 16.0747V16.2159H12.9205L10.873 6.89617C10.6456 5.94812 9.80042 5.2778 8.82548 5.27228H0V9.50851H7.13099L13.6971 39.6563C13.8705 40.6475 14.7385 41.3659 15.7447 41.3508H52.6704C53.6454 41.3452 54.4904 40.675 54.718 39.7269L59.9426 18.8282C60.0958 18.2059 59.938 17.548 59.519 17.0631ZM34.3841 27.3007C28.1842 27.3007 23.1581 22.2746 23.1581 16.0747C23.1581 9.87477 28.1842 4.84866 34.3841 4.84866C40.584 4.84866 45.6101 9.87477 45.6101 16.0747C45.5716 22.2586 40.568 27.2621 34.3841 27.3007Z" fill="#E2EEFF"/>
<path d="M32.6887 16.2867L28.8055 12.3328L25.7695 15.2982L31.1354 20.7347C31.5265 21.1338 32.0593 21.3621 32.6181 21.3701C33.1696 21.3972 33.7071 21.1924 34.1008 20.8053L42.9969 12.4034L40.1021 9.29688L32.6887 16.2867Z" fill="#E2EEFF"/>
</svg>
