<svg width="60" height="60" viewBox="0 0 60 60" fill="none" xmlns="http://www.w3.org/2000/svg">
<path d="M58.2398 58.6521C56.5223 57.3361 54.6642 56.2141 52.6995 55.3073L45.6761 52.0645C45.3286 53.0546 44.4204 55.2702 42.6255 57.4981C41.867 58.4397 41.0394 59.2742 40.1504 60.0007H59.9995L58.2398 58.6521Z" fill="#E2EEFF"/>
<path d="M17.374 57.4981C15.5791 55.2702 14.6709 53.0546 14.3234 52.0645L7.29996 55.3073C5.33524 56.2141 3.47717 57.3361 1.75964 58.6521L0 60.0007H19.8491C18.9606 59.2742 18.1325 58.4402 17.374 57.4981Z" fill="#E2EEFF"/>
<path d="M41.4423 48.9841V48.584C38.3446 51.1882 34.352 52.7592 29.9991 52.7592C25.6463 52.7592 21.6537 51.1882 18.5564 48.584V48.9841C18.5564 49.668 18.1554 50.2946 17.5352 50.5807C17.5352 50.5807 20.2479 60.0002 29.9996 60.0002C39.7509 60.0002 42.4636 50.5807 42.4636 50.5807C41.8429 50.2946 41.4423 49.668 41.4423 48.9841Z" fill="#E2EEFF"/>
<path d="M30 49.242C37.8836 49.242 44.2969 42.826 44.2969 34.9392V28.6074H15.7031V34.9392C15.7031 42.826 22.1169 49.242 30 49.242Z" fill="#E2EEFF"/>
<path d="M11.9946 25.0892H48.0041C48.975 25.0892 49.7619 24.3019 49.7619 23.331C49.7619 22.3596 48.975 21.5722 48.0041 21.5722H46.5274V19.754C46.5274 14.086 43.6618 9.0762 39.3043 6.0957V13.5156C39.3043 14.487 38.5174 15.2743 37.5465 15.2743C36.576 15.2743 35.7887 14.487 35.7887 13.5156V4.97739C35.7887 4.74347 35.8354 4.52008 35.9187 4.31592C34.6035 3.80963 33.2083 3.46677 31.7572 3.3125V15.6726C31.7572 16.644 30.9698 17.4313 29.9994 17.4313C29.0284 17.4313 28.2415 16.644 28.2415 15.6726V3.3125C26.7904 3.46631 25.3956 3.80963 24.0809 4.31546C24.1638 4.52008 24.2105 4.74301 24.2105 4.97739V13.5156C24.2105 14.487 23.4236 15.2743 22.4527 15.2743C21.4818 15.2743 20.6949 14.487 20.6949 13.5156V6.09479C16.3369 9.07529 13.4709 14.086 13.4709 19.754V21.5722H11.9941C11.0237 21.5722 10.2363 22.3596 10.2363 23.331C10.2363 24.3019 11.0237 25.0892 11.9946 25.0892Z" fill="#E2EEFF"/>
<path d="M39.3055 4.97748C39.3055 4.0061 38.5186 3.21875 37.5477 3.21875C36.8112 3.21875 36.1808 3.67285 35.9199 4.31647C37.122 4.77927 38.2573 5.37848 39.3055 6.09579V4.97748Z" fill="#E2EEFF"/>
<path d="M22.4531 3.21875C21.4822 3.21875 20.6953 4.0061 20.6953 4.97748V6.09488C21.7436 5.37756 22.8788 4.77835 24.0809 4.31555C23.8195 3.67285 23.1897 3.21875 22.4531 3.21875Z" fill="#E2EEFF"/>
<path d="M31.7578 3.31284V1.75873C31.7578 0.787354 30.9709 0 30 0C29.0291 0 28.2422 0.787354 28.2422 1.75873V3.31284C28.8199 3.25104 29.4063 3.21899 30 3.21899C30.5937 3.21899 31.1801 3.25104 31.7578 3.31284Z" fill="#E2EEFF"/>
</svg>
