<svg width="60" height="60" viewBox="0 0 60 60" fill="none" xmlns="http://www.w3.org/2000/svg">
<path d="M42.7704 54.4183H43.0545C40.0903 54.0478 38.5094 52.8621 37.6696 51.6641H22.3299C21.4901 52.8621 19.9092 54.0478 16.945 54.4183H17.1302C16.2039 54.4183 15.4629 55.1717 15.4629 56.0856C15.4629 57.0119 16.2163 57.753 17.1302 57.753H42.7704C43.6967 57.753 44.4378 56.9996 44.4378 56.0856C44.4501 55.1593 43.6967 54.4183 42.7704 54.4183Z" fill="#E2EEFF"/>
<path d="M60 38.0159V6.60787C60 4.19947 58.0486 2.24805 55.6402 2.24805H4.35982C1.95142 2.24805 0 4.19947 0 6.60787V38.7816C0 38.794 0 38.8187 0 38.831V44.6606C0 44.6853 0 44.71 0 44.7347V45.0558C0 45.0805 0 45.1052 0 45.1299V45.2164C0.0741046 47.2666 1.76616 48.9092 3.84109 48.9092H21.5397H23.3059H36.6818H37.7686H56.1466C58.2215 48.9092 59.9012 47.2666 59.9877 45.2164L60 38.0159ZM33.4829 44.7223C33.4829 45.2534 33.0506 45.6857 32.5196 45.6857H27.4681C26.937 45.6857 26.5047 45.2534 26.5047 44.7223V44.0554C26.5047 43.5243 26.937 43.092 27.4681 43.092H32.5196C33.0506 43.092 33.4829 43.5243 33.4829 44.0554V44.7223ZM55.6402 39.5474H4.35982C3.93989 39.5474 3.59407 39.2015 3.59407 38.7816V6.60787C3.59407 6.18794 3.93989 5.84212 4.35982 5.84212H55.6278C56.0478 5.84212 56.3936 6.18794 56.3936 6.60787V38.7816C56.3936 39.2015 56.0601 39.5474 55.6402 39.5474Z" fill="#E2EEFF"/>
<path d="M42.5117 21.4053H44.4384L44.5002 21.3436C44.5002 20.7508 44.4508 20.1456 44.3643 19.5527L42.5117 21.4053Z" fill="#E2EEFF"/>
<path d="M38.0902 10.4609L31.9766 16.5746V18.5013L39.2635 11.2143C38.8806 10.9303 38.4854 10.6833 38.0902 10.4609Z" fill="#E2EEFF"/>
<path d="M35.373 9.33789L31.9766 12.7344V14.6611L36.7934 9.84427C36.3364 9.63431 35.8547 9.47375 35.373 9.33789Z" fill="#E2EEFF"/>
<path d="M33.7921 9.005C33.1993 8.91854 32.6065 8.86914 32.0013 8.86914L31.9766 8.89384V10.8206L33.7921 9.005Z" fill="#E2EEFF"/>
<path d="M36.7568 21.4034L42.8951 15.2651C42.6728 14.8699 42.4258 14.4747 42.1417 14.0918L34.8301 21.4034H36.7568Z" fill="#E2EEFF"/>
<path d="M41.289 13.018C41.1408 12.8575 40.9926 12.6969 40.8321 12.5364C40.6715 12.3758 40.4986 12.2152 40.3257 12.0547L31.9766 20.4162V21.3919H32.9152L41.289 13.018Z" fill="#E2EEFF"/>
<path d="M40.598 21.4027L44.0315 17.9692C43.8956 17.4875 43.7227 17.0182 43.5374 16.5488L38.6836 21.4027H40.598Z" fill="#E2EEFF"/>
<path d="M29.7899 11.0293C22.8487 11.0293 17.2168 16.6612 17.2168 23.6024C17.2168 30.5435 22.8487 36.1755 29.7899 36.1755C36.731 36.1755 42.3629 30.5435 42.3629 23.6024H29.7899V11.0293Z" fill="#E2EEFF"/>
</svg>
