<svg width="60" height="60" viewBox="0 0 60 60" fill="none" xmlns="http://www.w3.org/2000/svg">
<path d="M10.5469 25.8984C6.66984 25.8984 3.51562 22.7442 3.51562 18.8672C3.51562 14.9902 6.66984 11.8359 10.5469 11.8359C14.4239 11.8359 17.5781 14.9902 17.5781 18.8672C17.5781 22.7442 14.4239 25.8984 10.5469 25.8984Z" fill="#E2EEFF"/>
<path d="M35.1562 21.2109C31.2792 21.2109 28.125 18.0567 28.125 14.1797C28.125 10.3027 31.2792 7.14844 35.1562 7.14844C39.0333 7.14844 42.1875 10.3027 42.1875 14.1797C42.1875 18.0567 39.0333 21.2109 35.1562 21.2109Z" fill="#E2EEFF"/>
<path d="M58.2422 18.8672H51.2109C50.2402 18.8672 49.4531 19.6542 49.4531 20.625C49.4531 21.5958 50.2402 22.3828 51.2109 22.3828H53.9985L35.9766 40.4047L31.3601 35.7882C30.6737 35.1019 29.5607 35.1019 28.8742 35.7882L15.3266 49.3359H1.75781C0.787031 49.3359 0 50.123 0 51.0938C0 52.0645 0.787031 52.8516 1.75781 52.8516H16.0547C16.521 52.8516 16.968 52.6664 17.2976 52.3366L30.1172 39.5172L34.7337 44.1336C35.42 44.82 36.5331 44.82 37.2196 44.1336L56.4844 24.8687V27.6562C56.4844 28.627 57.2714 29.4141 58.2422 29.4141C59.213 29.4141 60 28.627 60 27.6562V20.625C60 19.6542 59.213 18.8672 58.2422 18.8672Z" fill="#E2EEFF"/>
<path d="M40.9833 22.9648C39.3127 24.0764 37.309 24.7252 35.1562 24.7252C33.0036 24.7252 30.9998 24.0765 29.3292 22.9648C26.4848 24.8539 24.6094 28.0859 24.6094 31.7565V35.08L26.3884 33.301C27.3844 32.305 28.7087 31.7565 30.1172 31.7565C31.5257 31.7565 32.85 32.305 33.846 33.3009L35.9766 35.4315L44.516 26.8919C43.6884 25.3027 42.4678 23.951 40.9833 22.9648Z" fill="#E2EEFF"/>
<path d="M4.71984 27.6523C1.87547 29.5414 0 32.7734 0 36.444V45.819H13.8703L21.0938 38.5957V36.444C21.0938 32.7734 19.2183 29.5414 16.3739 27.6523C14.7033 28.764 12.6995 29.4127 10.5469 29.4127C8.39426 29.4127 6.39047 28.764 4.71984 27.6523Z" fill="#E2EEFF"/>
</svg>
