<svg width="447" height="353" viewBox="0 0 447 353" fill="none" xmlns="http://www.w3.org/2000/svg">
<circle cx="10.6423" cy="10.6428" r="10.6428" transform="rotate(90 10.6423 10.6428)" fill="#EFF6FF"/>
<circle cx="57.2693" cy="10.6428" r="10.6428" transform="rotate(90 57.2693 10.6428)" fill="#EFF6FF"/>
<circle cx="104.908" cy="10.6428" r="10.6428" transform="rotate(90 104.908 10.6428)" fill="#EFF6FF"/>
<circle cx="152.549" cy="10.6428" r="10.6428" transform="rotate(90 152.549 10.6428)" fill="#EFF6FF"/>
<circle cx="199.174" cy="10.6428" r="10.6428" transform="rotate(90 199.174 10.6428)" fill="#EFF6FF"/>
<circle cx="246.812" cy="10.6428" r="10.6428" transform="rotate(90 246.812 10.6428)" fill="#EFF6FF"/>
<circle cx="294.453" cy="10.6428" r="10.6428" transform="rotate(90 294.453 10.6428)" fill="#EFF6FF"/>
<circle cx="342.092" cy="10.6428" r="10.6428" transform="rotate(90 342.092 10.6428)" fill="#EFF6FF"/>
<circle cx="388.718" cy="10.6428" r="10.6428" transform="rotate(90 388.718 10.6428)" fill="#EFF6FF"/>
<circle cx="436.357" cy="10.6428" r="10.6428" transform="rotate(90 436.357 10.6428)" fill="#EFF6FF"/>
<circle cx="10.6423" cy="58.2815" r="10.6428" transform="rotate(90 10.6423 58.2815)" fill="#EFF6FF"/>
<circle cx="57.2693" cy="58.2815" r="10.6428" transform="rotate(90 57.2693 58.2815)" fill="#EFF6FF"/>
<circle cx="104.908" cy="58.2815" r="10.6428" transform="rotate(90 104.908 58.2815)" fill="#EFF6FF"/>
<circle cx="152.547" cy="58.2815" r="10.6428" transform="rotate(90 152.547 58.2815)" fill="#EFF6FF"/>
<circle cx="199.174" cy="58.2815" r="10.6428" transform="rotate(90 199.174 58.2815)" fill="#EFF6FF"/>
<circle cx="246.812" cy="58.2815" r="10.6428" transform="rotate(90 246.812 58.2815)" fill="#EFF6FF"/>
<circle cx="294.453" cy="58.2815" r="10.6428" transform="rotate(90 294.453 58.2815)" fill="#EFF6FF"/>
<circle cx="342.092" cy="58.2815" r="10.6428" transform="rotate(90 342.092 58.2815)" fill="#EFF6FF"/>
<circle cx="388.718" cy="58.2815" r="10.6428" transform="rotate(90 388.718 58.2815)" fill="#EFF6FF"/>
<circle cx="436.357" cy="58.2835" r="10.6428" transform="rotate(90 436.357 58.2835)" fill="#EFF6FF"/>
<circle cx="10.6423" cy="104.908" r="10.6428" transform="rotate(90 10.6423 104.908)" fill="#EFF6FF"/>
<circle cx="57.2693" cy="104.908" r="10.6428" transform="rotate(90 57.2693 104.908)" fill="#EFF6FF"/>
<circle cx="104.908" cy="104.908" r="10.6428" transform="rotate(90 104.908 104.908)" fill="#EFF6FF"/>
<circle cx="152.547" cy="104.908" r="10.6428" transform="rotate(90 152.547 104.908)" fill="#EFF6FF"/>
<circle cx="199.174" cy="104.908" r="10.6428" transform="rotate(90 199.174 104.908)" fill="#EFF6FF"/>
<circle cx="246.812" cy="104.908" r="10.6428" transform="rotate(90 246.812 104.908)" fill="#EFF6FF"/>
<circle cx="294.453" cy="104.908" r="10.6428" transform="rotate(90 294.453 104.908)" fill="#EFF6FF"/>
<circle cx="342.092" cy="104.908" r="10.6428" transform="rotate(90 342.092 104.908)" fill="#EFF6FF"/>
<circle cx="388.718" cy="104.908" r="10.6428" transform="rotate(90 388.718 104.908)" fill="#EFF6FF"/>
<circle cx="436.357" cy="104.908" r="10.6428" transform="rotate(90 436.357 104.908)" fill="#EFF6FF"/>
<circle cx="10.6423" cy="152.547" r="10.6428" transform="rotate(90 10.6423 152.547)" fill="#EFF6FF"/>
<circle cx="57.2693" cy="152.547" r="10.6428" transform="rotate(90 57.2693 152.547)" fill="#EFF6FF"/>
<circle cx="104.908" cy="152.547" r="10.6428" transform="rotate(90 104.908 152.547)" fill="#EFF6FF"/>
<circle cx="152.547" cy="152.547" r="10.6428" transform="rotate(90 152.547 152.547)" fill="#EFF6FF"/>
<circle cx="199.174" cy="152.547" r="10.6428" transform="rotate(90 199.174 152.547)" fill="#EFF6FF"/>
<circle cx="246.812" cy="152.547" r="10.6428" transform="rotate(90 246.812 152.547)" fill="#EFF6FF"/>
<circle cx="294.453" cy="152.547" r="10.6428" transform="rotate(90 294.453 152.547)" fill="#EFF6FF"/>
<circle cx="342.092" cy="152.547" r="10.6428" transform="rotate(90 342.092 152.547)" fill="#EFF6FF"/>
<circle cx="388.718" cy="152.547" r="10.6428" transform="rotate(90 388.718 152.547)" fill="#EFF6FF"/>
<circle cx="436.357" cy="152.547" r="10.6428" transform="rotate(90 436.357 152.547)" fill="#EFF6FF"/>
<circle cx="10.6423" cy="200.188" r="10.6428" transform="rotate(90 10.6423 200.188)" fill="#EFF6FF"/>
<circle cx="57.2693" cy="200.188" r="10.6428" transform="rotate(90 57.2693 200.188)" fill="#EFF6FF"/>
<circle cx="104.908" cy="200.188" r="10.6428" transform="rotate(90 104.908 200.188)" fill="#EFF6FF"/>
<circle cx="152.547" cy="200.188" r="10.6428" transform="rotate(90 152.547 200.188)" fill="#EFF6FF"/>
<circle cx="199.174" cy="200.186" r="10.6428" transform="rotate(90 199.174 200.186)" fill="#EFF6FF"/>
<circle cx="246.812" cy="200.188" r="10.6428" transform="rotate(90 246.812 200.188)" fill="#EFF6FF"/>
<circle cx="294.453" cy="200.188" r="10.6428" transform="rotate(90 294.453 200.188)" fill="#EFF6FF"/>
<circle cx="342.092" cy="200.188" r="10.6428" transform="rotate(90 342.092 200.188)" fill="#EFF6FF"/>
<circle cx="388.718" cy="200.188" r="10.6428" transform="rotate(90 388.718 200.188)" fill="#EFF6FF"/>
<circle cx="436.357" cy="200.188" r="10.6428" transform="rotate(90 436.357 200.188)" fill="#EFF6FF"/>
<circle cx="10.6423" cy="247.826" r="10.6428" transform="rotate(90 10.6423 247.826)" fill="#EFF6FF"/>
<circle cx="57.2693" cy="247.826" r="10.6428" transform="rotate(90 57.2693 247.826)" fill="#EFF6FF"/>
<circle cx="104.908" cy="247.826" r="10.6428" transform="rotate(90 104.908 247.826)" fill="#EFF6FF"/>
<circle cx="152.547" cy="247.826" r="10.6428" transform="rotate(90 152.547 247.826)" fill="#EFF6FF"/>
<circle cx="199.174" cy="247.826" r="10.6428" transform="rotate(90 199.174 247.826)" fill="#EFF6FF"/>
<circle cx="246.812" cy="247.826" r="10.6428" transform="rotate(90 246.812 247.826)" fill="#EFF6FF"/>
<circle cx="294.453" cy="247.826" r="10.6428" transform="rotate(90 294.453 247.826)" fill="#EFF6FF"/>
<circle cx="342.092" cy="247.826" r="10.6428" transform="rotate(90 342.092 247.826)" fill="#EFF6FF"/>
<circle cx="388.718" cy="247.826" r="10.6428" transform="rotate(90 388.718 247.826)" fill="#EFF6FF"/>
<circle cx="436.357" cy="247.826" r="10.6428" transform="rotate(90 436.357 247.826)" fill="#EFF6FF"/>
<circle cx="10.6423" cy="294.451" r="10.6428" transform="rotate(90 10.6423 294.451)" fill="#EFF6FF"/>
<circle cx="57.2693" cy="294.451" r="10.6428" transform="rotate(90 57.2693 294.451)" fill="#EFF6FF"/>
<circle cx="104.908" cy="294.451" r="10.6428" transform="rotate(90 104.908 294.451)" fill="#EFF6FF"/>
<circle cx="152.549" cy="294.451" r="10.6428" transform="rotate(90 152.549 294.451)" fill="#EFF6FF"/>
<circle cx="199.174" cy="294.451" r="10.6428" transform="rotate(90 199.174 294.451)" fill="#EFF6FF"/>
<circle cx="246.812" cy="294.451" r="10.6428" transform="rotate(90 246.812 294.451)" fill="#EFF6FF"/>
<circle cx="294.453" cy="294.451" r="10.6428" transform="rotate(90 294.453 294.451)" fill="#EFF6FF"/>
<circle cx="342.092" cy="294.451" r="10.6428" transform="rotate(90 342.092 294.451)" fill="#EFF6FF"/>
<circle cx="388.718" cy="294.451" r="10.6428" transform="rotate(90 388.718 294.451)" fill="#EFF6FF"/>
<circle cx="436.357" cy="294.451" r="10.6428" transform="rotate(90 436.357 294.451)" fill="#EFF6FF"/>
<circle cx="10.6423" cy="342.092" r="10.6428" transform="rotate(90 10.6423 342.092)" fill="#EFF6FF"/>
<circle cx="57.2693" cy="342.092" r="10.6428" transform="rotate(90 57.2693 342.092)" fill="#EFF6FF"/>
<circle cx="104.908" cy="342.092" r="10.6428" transform="rotate(90 104.908 342.092)" fill="#EFF6FF"/>
<circle cx="152.549" cy="342.092" r="10.6428" transform="rotate(90 152.549 342.092)" fill="#EFF6FF"/>
<circle cx="199.174" cy="342.092" r="10.6428" transform="rotate(90 199.174 342.092)" fill="#EFF6FF"/>
<circle cx="246.812" cy="342.092" r="10.6428" transform="rotate(90 246.812 342.092)" fill="#EFF6FF"/>
<circle cx="294.453" cy="342.092" r="10.6428" transform="rotate(90 294.453 342.092)" fill="#EFF6FF"/>
<circle cx="342.092" cy="342.092" r="10.6428" transform="rotate(90 342.092 342.092)" fill="#EFF6FF"/>
<circle cx="388.718" cy="342.092" r="10.6428" transform="rotate(90 388.718 342.092)" fill="#EFF6FF"/>
<circle cx="436.357" cy="342.092" r="10.6428" transform="rotate(90 436.357 342.092)" fill="#EFF6FF"/>
</svg>
