<svg width="155" height="220" viewBox="0 0 155 220" fill="none" xmlns="http://www.w3.org/2000/svg">
<circle cx="154.129" cy="212.754" r="6.61903" transform="rotate(-90 154.129 212.754)" fill="#E2EEFF"/>
<circle cx="124.501" cy="212.754" r="6.61903" transform="rotate(-90 124.501 212.754)" fill="#E2EEFF"/>
<circle cx="94.872" cy="212.754" r="6.61903" transform="rotate(-90 94.872 212.754)" fill="#E2EEFF"/>
<circle cx="65.246" cy="212.754" r="6.61903" transform="rotate(-90 65.246 212.754)" fill="#E2EEFF"/>
<circle cx="36.247" cy="212.754" r="6.61903" transform="rotate(-90 36.247 212.754)" fill="#E2EEFF"/>
<circle cx="6.61903" cy="212.754" r="6.61903" transform="rotate(-90 6.61903 212.754)" fill="#E2EEFF"/>
<circle cx="154.129" cy="183.125" r="6.61903" transform="rotate(-90 154.129 183.125)" fill="#E2EEFF"/>
<circle cx="124.501" cy="183.125" r="6.61903" transform="rotate(-90 124.501 183.125)" fill="#E2EEFF"/>
<circle cx="94.872" cy="183.125" r="6.61903" transform="rotate(-90 94.872 183.125)" fill="#E2EEFF"/>
<circle cx="65.246" cy="183.125" r="6.61903" transform="rotate(-90 65.246 183.125)" fill="#E2EEFF"/>
<circle cx="36.247" cy="183.125" r="6.61903" transform="rotate(-90 36.247 183.125)" fill="#E2EEFF"/>
<circle cx="6.61903" cy="183.125" r="6.61903" transform="rotate(-90 6.61903 183.125)" fill="#E2EEFF"/>
<circle cx="154.129" cy="154.129" r="6.61903" transform="rotate(-90 154.129 154.129)" fill="#E2EEFF"/>
<circle cx="124.501" cy="154.129" r="6.61903" transform="rotate(-90 124.501 154.129)" fill="#E2EEFF"/>
<circle cx="94.872" cy="154.129" r="6.61903" transform="rotate(-90 94.872 154.129)" fill="#E2EEFF"/>
<circle cx="65.246" cy="154.129" r="6.61903" transform="rotate(-90 65.246 154.129)" fill="#E2EEFF"/>
<circle cx="36.247" cy="154.129" r="6.61903" transform="rotate(-90 36.247 154.129)" fill="#E2EEFF"/>
<circle cx="6.61903" cy="154.129" r="6.61903" transform="rotate(-90 6.61903 154.129)" fill="#E2EEFF"/>
<circle cx="154.129" cy="124.5" r="6.61903" transform="rotate(-90 154.129 124.5)" fill="#E2EEFF"/>
<circle cx="124.501" cy="124.5" r="6.61903" transform="rotate(-90 124.501 124.5)" fill="#E2EEFF"/>
<circle cx="94.872" cy="124.5" r="6.61903" transform="rotate(-90 94.872 124.5)" fill="#E2EEFF"/>
<circle cx="65.246" cy="124.5" r="6.61903" transform="rotate(-90 65.246 124.5)" fill="#E2EEFF"/>
<circle cx="36.247" cy="124.5" r="6.61903" transform="rotate(-90 36.247 124.5)" fill="#E2EEFF"/>
<circle cx="6.61903" cy="124.5" r="6.61903" transform="rotate(-90 6.61903 124.5)" fill="#E2EEFF"/>
<circle cx="154.129" cy="94.8732" r="6.61903" transform="rotate(-90 154.129 94.8732)" fill="#E2EEFF"/>
<circle cx="124.501" cy="94.8732" r="6.61903" transform="rotate(-90 124.501 94.8732)" fill="#E2EEFF"/>
<circle cx="94.872" cy="94.8732" r="6.61903" transform="rotate(-90 94.872 94.8732)" fill="#E2EEFF"/>
<circle cx="65.246" cy="94.8732" r="6.61903" transform="rotate(-90 65.246 94.8732)" fill="#E2EEFF"/>
<circle cx="36.247" cy="94.8732" r="6.61903" transform="rotate(-90 36.247 94.8732)" fill="#E2EEFF"/>
<circle cx="6.61903" cy="94.8732" r="6.61903" transform="rotate(-90 6.61903 94.8732)" fill="#E2EEFF"/>
<circle cx="154.129" cy="65.2442" r="6.61903" transform="rotate(-90 154.129 65.2442)" fill="#E2EEFF"/>
<circle cx="124.501" cy="65.2442" r="6.61903" transform="rotate(-90 124.501 65.2442)" fill="#E2EEFF"/>
<circle cx="94.872" cy="65.2442" r="6.61903" transform="rotate(-90 94.872 65.2442)" fill="#E2EEFF"/>
<circle cx="65.246" cy="65.2442" r="6.61903" transform="rotate(-90 65.246 65.2442)" fill="#E2EEFF"/>
<circle cx="36.247" cy="65.2442" r="6.61903" transform="rotate(-90 36.247 65.2442)" fill="#E2EEFF"/>
<circle cx="6.61903" cy="65.2442" r="6.61903" transform="rotate(-90 6.61903 65.2442)" fill="#E2EEFF"/>
<circle cx="154.129" cy="36.2462" r="6.61903" transform="rotate(-90 154.129 36.2462)" fill="#E2EEFF"/>
<circle cx="124.501" cy="36.2462" r="6.61903" transform="rotate(-90 124.501 36.2462)" fill="#E2EEFF"/>
<circle cx="94.872" cy="36.2462" r="6.61903" transform="rotate(-90 94.872 36.2462)" fill="#E2EEFF"/>
<circle cx="65.246" cy="36.2462" r="6.61903" transform="rotate(-90 65.246 36.2462)" fill="#E2EEFF"/>
<circle cx="36.247" cy="36.2462" r="6.61903" transform="rotate(-90 36.247 36.2462)" fill="#E2EEFF"/>
<circle cx="6.61903" cy="36.2462" r="6.61903" transform="rotate(-90 6.61903 36.2462)" fill="#E2EEFF"/>
<circle cx="154.129" cy="6.61925" r="6.61903" transform="rotate(-90 154.129 6.61925)" fill="#E2EEFF"/>
<circle cx="124.501" cy="6.61925" r="6.61903" transform="rotate(-90 124.501 6.61925)" fill="#E2EEFF"/>
<circle cx="94.872" cy="6.61925" r="6.61903" transform="rotate(-90 94.872 6.61925)" fill="#E2EEFF"/>
<circle cx="65.246" cy="6.61925" r="6.61903" transform="rotate(-90 65.246 6.61925)" fill="#E2EEFF"/>
<circle cx="36.247" cy="6.61925" r="6.61903" transform="rotate(-90 36.247 6.61925)" fill="#E2EEFF"/>
<circle cx="6.61903" cy="6.61925" r="6.61903" transform="rotate(-90 6.61903 6.61925)" fill="#E2EEFF"/>
</svg>
