<svg width="117" height="278" viewBox="0 0 117 278" fill="none" xmlns="http://www.w3.org/2000/svg">
<circle cx="109.754" cy="6.61925" r="6.61903" transform="rotate(-180 109.754 6.61925)" fill="#E2EEFF"/>
<circle cx="109.754" cy="35.6173" r="6.61903" transform="rotate(-180 109.754 35.6173)" fill="#E2EEFF"/>
<circle cx="109.754" cy="65.2442" r="6.61903" transform="rotate(-180 109.754 65.2442)" fill="#E2EEFF"/>
<circle cx="109.754" cy="94.8732" r="6.61903" transform="rotate(-180 109.754 94.8732)" fill="#E2EEFF"/>
<circle cx="109.754" cy="123.871" r="6.61903" transform="rotate(-180 109.754 123.871)" fill="#E2EEFF"/>
<circle cx="109.754" cy="153.498" r="6.61903" transform="rotate(-180 109.754 153.498)" fill="#E2EEFF"/>
<circle cx="109.754" cy="183.129" r="6.61903" transform="rotate(-180 109.754 183.129)" fill="#E2EEFF"/>
<circle cx="109.754" cy="212.754" r="6.61903" transform="rotate(-180 109.754 212.754)" fill="#E2EEFF"/>
<circle cx="109.754" cy="241.754" r="6.61903" transform="rotate(-180 109.754 241.754)" fill="#E2EEFF"/>
<circle cx="109.754" cy="271.381" r="6.61903" transform="rotate(-180 109.754 271.381)" fill="#E2EEFF"/>
<circle cx="80.1251" cy="6.61925" r="6.61903" transform="rotate(-180 80.1251 6.61925)" fill="#E2EEFF"/>
<circle cx="80.1251" cy="35.6173" r="6.61903" transform="rotate(-180 80.1251 35.6173)" fill="#E2EEFF"/>
<circle cx="80.1251" cy="65.2442" r="6.61903" transform="rotate(-180 80.1251 65.2442)" fill="#E2EEFF"/>
<circle cx="80.1251" cy="94.8712" r="6.61903" transform="rotate(-180 80.1251 94.8712)" fill="#E2EEFF"/>
<circle cx="80.1251" cy="123.871" r="6.61903" transform="rotate(-180 80.1251 123.871)" fill="#E2EEFF"/>
<circle cx="80.1251" cy="153.498" r="6.61903" transform="rotate(-180 80.1251 153.498)" fill="#E2EEFF"/>
<circle cx="80.1251" cy="183.129" r="6.61903" transform="rotate(-180 80.1251 183.129)" fill="#E2EEFF"/>
<circle cx="80.1251" cy="212.754" r="6.61903" transform="rotate(-180 80.1251 212.754)" fill="#E2EEFF"/>
<circle cx="80.1251" cy="241.754" r="6.61903" transform="rotate(-180 80.1251 241.754)" fill="#E2EEFF"/>
<circle cx="80.1251" cy="271.381" r="6.61903" transform="rotate(-180 80.1251 271.381)" fill="#E2EEFF"/>
<circle cx="51.129" cy="6.61925" r="6.61903" transform="rotate(-180 51.129 6.61925)" fill="#E2EEFF"/>
<circle cx="51.129" cy="35.6173" r="6.61903" transform="rotate(-180 51.129 35.6173)" fill="#E2EEFF"/>
<circle cx="51.129" cy="65.2442" r="6.61903" transform="rotate(-180 51.129 65.2442)" fill="#E2EEFF"/>
<circle cx="51.129" cy="94.8712" r="6.61903" transform="rotate(-180 51.129 94.8712)" fill="#E2EEFF"/>
<circle cx="51.129" cy="123.871" r="6.61903" transform="rotate(-180 51.129 123.871)" fill="#E2EEFF"/>
<circle cx="51.129" cy="153.498" r="6.61903" transform="rotate(-180 51.129 153.498)" fill="#E2EEFF"/>
<circle cx="51.129" cy="183.129" r="6.61903" transform="rotate(-180 51.129 183.129)" fill="#E2EEFF"/>
<circle cx="51.129" cy="212.754" r="6.61903" transform="rotate(-180 51.129 212.754)" fill="#E2EEFF"/>
<circle cx="51.129" cy="241.754" r="6.61903" transform="rotate(-180 51.129 241.754)" fill="#E2EEFF"/>
<circle cx="51.129" cy="271.381" r="6.61903" transform="rotate(-180 51.129 271.381)" fill="#E2EEFF"/>
<circle cx="21.5001" cy="6.61925" r="6.61903" transform="rotate(-180 21.5001 6.61925)" fill="#E2EEFF"/>
<circle cx="21.5001" cy="35.6173" r="6.61903" transform="rotate(-180 21.5001 35.6173)" fill="#E2EEFF"/>
<circle cx="21.5001" cy="65.2442" r="6.61903" transform="rotate(-180 21.5001 65.2442)" fill="#E2EEFF"/>
<circle cx="21.5001" cy="94.8712" r="6.61903" transform="rotate(-180 21.5001 94.8712)" fill="#E2EEFF"/>
<circle cx="21.5001" cy="123.871" r="6.61903" transform="rotate(-180 21.5001 123.871)" fill="#E2EEFF"/>
<circle cx="21.5001" cy="153.498" r="6.61903" transform="rotate(-180 21.5001 153.498)" fill="#E2EEFF"/>
<circle cx="21.5001" cy="183.129" r="6.61903" transform="rotate(-180 21.5001 183.129)" fill="#E2EEFF"/>
<circle cx="21.5001" cy="212.754" r="6.61903" transform="rotate(-180 21.5001 212.754)" fill="#E2EEFF"/>
<circle cx="21.5001" cy="241.754" r="6.61903" transform="rotate(-180 21.5001 241.754)" fill="#E2EEFF"/>
<circle cx="21.5001" cy="271.381" r="6.61903" transform="rotate(-180 21.5001 271.381)" fill="#E2EEFF"/>
</svg>
