<svg width="69" height="127" viewBox="0 0 69 127" fill="none" xmlns="http://www.w3.org/2000/svg">
<circle cx="3.808" cy="3.80821" r="3.80821" transform="rotate(90 3.808 3.80821)" fill="#F9F9F9" fill-opacity="0.05"/>
<circle cx="20.8539" cy="3.80821" r="3.80821" transform="rotate(90 20.8539 3.80821)" fill="#F9F9F9" fill-opacity="0.05"/>
<circle cx="37.9008" cy="3.80821" r="3.80821" transform="rotate(90 37.9008 3.80821)" fill="#F9F9F9" fill-opacity="0.05"/>
<circle cx="54.5839" cy="3.80821" r="3.80821" transform="rotate(90 54.5839 3.80821)" fill="#F9F9F9" fill-opacity="0.05"/>
<circle cx="71.6303" cy="3.80821" r="3.80821" transform="rotate(90 71.6303 3.80821)" fill="#F9F9F9" fill-opacity="0.05"/>
<circle cx="3.808" cy="20.8541" r="3.80821" transform="rotate(90 3.808 20.8541)" fill="#F9F9F9" fill-opacity="0.05"/>
<circle cx="20.8539" cy="20.8541" r="3.80821" transform="rotate(90 20.8539 20.8541)" fill="#F9F9F9" fill-opacity="0.05"/>
<circle cx="37.9008" cy="20.8541" r="3.80821" transform="rotate(90 37.9008 20.8541)" fill="#F9F9F9" fill-opacity="0.05"/>
<circle cx="54.5839" cy="20.8541" r="3.80821" transform="rotate(90 54.5839 20.8541)" fill="#F9F9F9" fill-opacity="0.05"/>
<circle cx="71.6303" cy="20.8541" r="3.80821" transform="rotate(90 71.6303 20.8541)" fill="#F9F9F9" fill-opacity="0.05"/>
<circle cx="3.808" cy="37.5382" r="3.80821" transform="rotate(90 3.808 37.5382)" fill="#F9F9F9" fill-opacity="0.05"/>
<circle cx="20.8539" cy="37.5382" r="3.80821" transform="rotate(90 20.8539 37.5382)" fill="#F9F9F9" fill-opacity="0.05"/>
<circle cx="37.9008" cy="37.5382" r="3.80821" transform="rotate(90 37.9008 37.5382)" fill="#F9F9F9" fill-opacity="0.05"/>
<circle cx="54.5839" cy="37.5382" r="3.80821" transform="rotate(90 54.5839 37.5382)" fill="#F9F9F9" fill-opacity="0.05"/>
<circle cx="71.6303" cy="37.5382" r="3.80821" transform="rotate(90 71.6303 37.5382)" fill="#F9F9F9" fill-opacity="0.05"/>
<circle cx="3.808" cy="54.5841" r="3.80821" transform="rotate(90 3.808 54.5841)" fill="#F9F9F9" fill-opacity="0.05"/>
<circle cx="20.8539" cy="54.5841" r="3.80821" transform="rotate(90 20.8539 54.5841)" fill="#F9F9F9" fill-opacity="0.05"/>
<circle cx="37.9008" cy="54.5841" r="3.80821" transform="rotate(90 37.9008 54.5841)" fill="#F9F9F9" fill-opacity="0.05"/>
<circle cx="54.5839" cy="54.5841" r="3.80821" transform="rotate(90 54.5839 54.5841)" fill="#F9F9F9" fill-opacity="0.05"/>
<circle cx="71.6303" cy="54.5841" r="3.80821" transform="rotate(90 71.6303 54.5841)" fill="#F9F9F9" fill-opacity="0.05"/>
<circle cx="3.808" cy="71.631" r="3.80821" transform="rotate(90 3.808 71.631)" fill="#F9F9F9" fill-opacity="0.05"/>
<circle cx="20.8539" cy="71.631" r="3.80821" transform="rotate(90 20.8539 71.631)" fill="#F9F9F9" fill-opacity="0.05"/>
<circle cx="37.9008" cy="71.631" r="3.80821" transform="rotate(90 37.9008 71.631)" fill="#F9F9F9" fill-opacity="0.05"/>
<circle cx="54.5839" cy="71.6305" r="3.80821" transform="rotate(90 54.5839 71.6305)" fill="#F9F9F9" fill-opacity="0.05"/>
<circle cx="71.6303" cy="71.6305" r="3.80821" transform="rotate(90 71.6303 71.6305)" fill="#F9F9F9" fill-opacity="0.05"/>
<circle cx="3.808" cy="88.6769" r="3.80821" transform="rotate(90 3.808 88.6769)" fill="#F9F9F9" fill-opacity="0.05"/>
<circle cx="20.8539" cy="88.6769" r="3.80821" transform="rotate(90 20.8539 88.6769)" fill="#F9F9F9" fill-opacity="0.05"/>
<circle cx="37.9008" cy="88.6769" r="3.80821" transform="rotate(90 37.9008 88.6769)" fill="#F9F9F9" fill-opacity="0.05"/>
<circle cx="54.5839" cy="88.6769" r="3.80821" transform="rotate(90 54.5839 88.6769)" fill="#F9F9F9" fill-opacity="0.05"/>
<circle cx="71.6303" cy="88.6769" r="3.80821" transform="rotate(90 71.6303 88.6769)" fill="#F9F9F9" fill-opacity="0.05"/>
<circle cx="3.808" cy="105.36" r="3.80821" transform="rotate(90 3.808 105.36)" fill="#F9F9F9" fill-opacity="0.05"/>
<circle cx="20.8539" cy="105.36" r="3.80821" transform="rotate(90 20.8539 105.36)" fill="#F9F9F9" fill-opacity="0.05"/>
<circle cx="37.9008" cy="105.36" r="3.80821" transform="rotate(90 37.9008 105.36)" fill="#F9F9F9" fill-opacity="0.05"/>
<circle cx="54.5839" cy="105.36" r="3.80821" transform="rotate(90 54.5839 105.36)" fill="#F9F9F9" fill-opacity="0.05"/>
<circle cx="71.6303" cy="105.36" r="3.80821" transform="rotate(90 71.6303 105.36)" fill="#F9F9F9" fill-opacity="0.05"/>
<circle cx="3.808" cy="122.407" r="3.80821" transform="rotate(90 3.808 122.407)" fill="#F9F9F9" fill-opacity="0.05"/>
<circle cx="20.8539" cy="122.407" r="3.80821" transform="rotate(90 20.8539 122.407)" fill="#F9F9F9" fill-opacity="0.05"/>
<circle cx="37.9008" cy="122.407" r="3.80821" transform="rotate(90 37.9008 122.407)" fill="#F9F9F9" fill-opacity="0.05"/>
<circle cx="54.5839" cy="122.407" r="3.80821" transform="rotate(90 54.5839 122.407)" fill="#F9F9F9" fill-opacity="0.05"/>
<circle cx="71.6303" cy="122.407" r="3.80821" transform="rotate(90 71.6303 122.407)" fill="#F9F9F9" fill-opacity="0.05"/>
</svg>
