<svg width="544" height="629" viewBox="0 0 544 629" fill="none" xmlns="http://www.w3.org/2000/svg">
<circle cx="229.745" cy="426.135" r="6.28635" transform="rotate(90 229.745 426.135)" fill="#F9F9F9" fill-opacity="0.05"/>
<circle cx="257.286" cy="426.135" r="6.28635" transform="rotate(90 257.286 426.135)" fill="#F9F9F9" fill-opacity="0.05"/>
<circle cx="285.425" cy="426.135" r="6.28635" transform="rotate(90 285.425 426.135)" fill="#F9F9F9" fill-opacity="0.05"/>
<circle cx="313.564" cy="426.135" r="6.28635" transform="rotate(90 313.564 426.135)" fill="#F9F9F9" fill-opacity="0.05"/>
<circle cx="341.104" cy="426.135" r="6.28635" transform="rotate(90 341.104 426.135)" fill="#F9F9F9" fill-opacity="0.05"/>
<circle cx="369.243" cy="426.135" r="6.28635" transform="rotate(90 369.243 426.135)" fill="#F9F9F9" fill-opacity="0.05"/>
<circle cx="397.382" cy="426.135" r="6.28635" transform="rotate(90 397.382 426.135)" fill="#F9F9F9" fill-opacity="0.05"/>
<circle cx="425.521" cy="426.135" r="6.28635" transform="rotate(90 425.521 426.135)" fill="#F9F9F9" fill-opacity="0.05"/>
<circle cx="453.061" cy="426.135" r="6.28635" transform="rotate(90 453.061 426.135)" fill="#F9F9F9" fill-opacity="0.05"/>
<circle cx="481.2" cy="426.135" r="6.28635" transform="rotate(90 481.2 426.135)" fill="#F9F9F9" fill-opacity="0.05"/>
<circle cx="229.745" cy="454.274" r="6.28635" transform="rotate(90 229.745 454.274)" fill="#F9F9F9" fill-opacity="0.05"/>
<circle cx="257.286" cy="454.274" r="6.28635" transform="rotate(90 257.286 454.274)" fill="#F9F9F9" fill-opacity="0.05"/>
<circle cx="285.425" cy="454.274" r="6.28635" transform="rotate(90 285.425 454.274)" fill="#F9F9F9" fill-opacity="0.05"/>
<circle cx="313.564" cy="454.274" r="6.28635" transform="rotate(90 313.564 454.274)" fill="#F9F9F9" fill-opacity="0.05"/>
<circle cx="341.104" cy="454.274" r="6.28635" transform="rotate(90 341.104 454.274)" fill="#F9F9F9" fill-opacity="0.05"/>
<circle cx="369.243" cy="454.274" r="6.28635" transform="rotate(90 369.243 454.274)" fill="#F9F9F9" fill-opacity="0.05"/>
<circle cx="397.382" cy="454.274" r="6.28635" transform="rotate(90 397.382 454.274)" fill="#F9F9F9" fill-opacity="0.05"/>
<circle cx="425.521" cy="454.274" r="6.28635" transform="rotate(90 425.521 454.274)" fill="#F9F9F9" fill-opacity="0.05"/>
<circle cx="453.061" cy="454.274" r="6.28635" transform="rotate(90 453.061 454.274)" fill="#F9F9F9" fill-opacity="0.05"/>
<circle cx="481.2" cy="454.275" r="6.28635" transform="rotate(90 481.2 454.275)" fill="#F9F9F9" fill-opacity="0.05"/>
<circle cx="229.745" cy="481.815" r="6.28635" transform="rotate(90 229.745 481.815)" fill="#F9F9F9" fill-opacity="0.05"/>
<circle cx="257.286" cy="481.815" r="6.28635" transform="rotate(90 257.286 481.815)" fill="#F9F9F9" fill-opacity="0.05"/>
<circle cx="285.425" cy="481.815" r="6.28635" transform="rotate(90 285.425 481.815)" fill="#F9F9F9" fill-opacity="0.05"/>
<circle cx="313.564" cy="481.815" r="6.28635" transform="rotate(90 313.564 481.815)" fill="#F9F9F9" fill-opacity="0.05"/>
<circle cx="341.104" cy="481.815" r="6.28635" transform="rotate(90 341.104 481.815)" fill="#F9F9F9" fill-opacity="0.05"/>
<circle cx="369.243" cy="481.815" r="6.28635" transform="rotate(90 369.243 481.815)" fill="#F9F9F9" fill-opacity="0.05"/>
<circle cx="397.382" cy="481.815" r="6.28635" transform="rotate(90 397.382 481.815)" fill="#F9F9F9" fill-opacity="0.05"/>
<circle cx="425.521" cy="481.815" r="6.28635" transform="rotate(90 425.521 481.815)" fill="#F9F9F9" fill-opacity="0.05"/>
<circle cx="453.061" cy="481.815" r="6.28635" transform="rotate(90 453.061 481.815)" fill="#F9F9F9" fill-opacity="0.05"/>
<circle cx="481.2" cy="481.815" r="6.28635" transform="rotate(90 481.2 481.815)" fill="#F9F9F9" fill-opacity="0.05"/>
<circle cx="229.745" cy="509.953" r="6.28635" transform="rotate(90 229.745 509.953)" fill="#F9F9F9" fill-opacity="0.05"/>
<circle cx="257.286" cy="509.953" r="6.28635" transform="rotate(90 257.286 509.953)" fill="#F9F9F9" fill-opacity="0.05"/>
<circle cx="285.425" cy="509.953" r="6.28635" transform="rotate(90 285.425 509.953)" fill="#F9F9F9" fill-opacity="0.05"/>
<circle cx="313.564" cy="509.953" r="6.28635" transform="rotate(90 313.564 509.953)" fill="#F9F9F9" fill-opacity="0.05"/>
<circle cx="341.104" cy="509.953" r="6.28635" transform="rotate(90 341.104 509.953)" fill="#F9F9F9" fill-opacity="0.05"/>
<circle cx="369.243" cy="509.953" r="6.28635" transform="rotate(90 369.243 509.953)" fill="#F9F9F9" fill-opacity="0.05"/>
<circle cx="397.382" cy="509.953" r="6.28635" transform="rotate(90 397.382 509.953)" fill="#F9F9F9" fill-opacity="0.05"/>
<circle cx="425.521" cy="509.953" r="6.28635" transform="rotate(90 425.521 509.953)" fill="#F9F9F9" fill-opacity="0.05"/>
<circle cx="453.061" cy="509.953" r="6.28635" transform="rotate(90 453.061 509.953)" fill="#F9F9F9" fill-opacity="0.05"/>
<circle cx="481.2" cy="509.953" r="6.28635" transform="rotate(90 481.2 509.953)" fill="#F9F9F9" fill-opacity="0.05"/>
<circle cx="229.745" cy="538.093" r="6.28635" transform="rotate(90 229.745 538.093)" fill="#F9F9F9" fill-opacity="0.05"/>
<circle cx="257.286" cy="538.093" r="6.28635" transform="rotate(90 257.286 538.093)" fill="#F9F9F9" fill-opacity="0.05"/>
<circle cx="285.425" cy="538.093" r="6.28635" transform="rotate(90 285.425 538.093)" fill="#F9F9F9" fill-opacity="0.05"/>
<circle cx="313.564" cy="538.093" r="6.28635" transform="rotate(90 313.564 538.093)" fill="#F9F9F9" fill-opacity="0.05"/>
<circle cx="341.104" cy="538.093" r="6.28635" transform="rotate(90 341.104 538.093)" fill="#F9F9F9" fill-opacity="0.05"/>
<circle cx="369.243" cy="538.093" r="6.28635" transform="rotate(90 369.243 538.093)" fill="#F9F9F9" fill-opacity="0.05"/>
<circle cx="397.382" cy="538.093" r="6.28635" transform="rotate(90 397.382 538.093)" fill="#F9F9F9" fill-opacity="0.05"/>
<circle cx="425.521" cy="538.093" r="6.28635" transform="rotate(90 425.521 538.093)" fill="#F9F9F9" fill-opacity="0.05"/>
<circle cx="453.061" cy="538.093" r="6.28635" transform="rotate(90 453.061 538.093)" fill="#F9F9F9" fill-opacity="0.05"/>
<circle cx="481.2" cy="538.093" r="6.28635" transform="rotate(90 481.2 538.093)" fill="#F9F9F9" fill-opacity="0.05"/>
<circle cx="229.745" cy="566.231" r="6.28635" transform="rotate(90 229.745 566.231)" fill="#F9F9F9" fill-opacity="0.05"/>
<circle cx="257.286" cy="566.231" r="6.28635" transform="rotate(90 257.286 566.231)" fill="#F9F9F9" fill-opacity="0.05"/>
<circle cx="285.425" cy="566.231" r="6.28635" transform="rotate(90 285.425 566.231)" fill="#F9F9F9" fill-opacity="0.05"/>
<circle cx="313.564" cy="566.231" r="6.28635" transform="rotate(90 313.564 566.231)" fill="#F9F9F9" fill-opacity="0.05"/>
<circle cx="341.104" cy="566.231" r="6.28635" transform="rotate(90 341.104 566.231)" fill="#F9F9F9" fill-opacity="0.05"/>
<circle cx="369.243" cy="566.231" r="6.28635" transform="rotate(90 369.243 566.231)" fill="#F9F9F9" fill-opacity="0.05"/>
<circle cx="397.382" cy="566.231" r="6.28635" transform="rotate(90 397.382 566.231)" fill="#F9F9F9" fill-opacity="0.05"/>
<circle cx="425.521" cy="566.231" r="6.28635" transform="rotate(90 425.521 566.231)" fill="#F9F9F9" fill-opacity="0.05"/>
<circle cx="453.061" cy="566.231" r="6.28635" transform="rotate(90 453.061 566.231)" fill="#F9F9F9" fill-opacity="0.05"/>
<circle cx="481.2" cy="566.231" r="6.28635" transform="rotate(90 481.2 566.231)" fill="#F9F9F9" fill-opacity="0.05"/>
<circle cx="229.745" cy="593.772" r="6.28635" transform="rotate(90 229.745 593.772)" fill="#F9F9F9" fill-opacity="0.05"/>
<circle cx="257.286" cy="593.772" r="6.28635" transform="rotate(90 257.286 593.772)" fill="#F9F9F9" fill-opacity="0.05"/>
<circle cx="285.425" cy="593.772" r="6.28635" transform="rotate(90 285.425 593.772)" fill="#F9F9F9" fill-opacity="0.05"/>
<circle cx="313.564" cy="593.772" r="6.28635" transform="rotate(90 313.564 593.772)" fill="#F9F9F9" fill-opacity="0.05"/>
<circle cx="341.104" cy="593.772" r="6.28635" transform="rotate(90 341.104 593.772)" fill="#F9F9F9" fill-opacity="0.05"/>
<circle cx="369.243" cy="593.772" r="6.28635" transform="rotate(90 369.243 593.772)" fill="#F9F9F9" fill-opacity="0.05"/>
<circle cx="397.382" cy="593.772" r="6.28635" transform="rotate(90 397.382 593.772)" fill="#F9F9F9" fill-opacity="0.05"/>
<circle cx="425.521" cy="593.772" r="6.28635" transform="rotate(90 425.521 593.772)" fill="#F9F9F9" fill-opacity="0.05"/>
<circle cx="453.061" cy="593.772" r="6.28635" transform="rotate(90 453.061 593.772)" fill="#F9F9F9" fill-opacity="0.05"/>
<circle cx="481.2" cy="593.772" r="6.28635" transform="rotate(90 481.2 593.772)" fill="#F9F9F9" fill-opacity="0.05"/>
<circle cx="229.745" cy="621.91" r="6.28635" transform="rotate(90 229.745 621.91)" fill="#F9F9F9" fill-opacity="0.05"/>
<circle cx="257.286" cy="621.91" r="6.28635" transform="rotate(90 257.286 621.91)" fill="#F9F9F9" fill-opacity="0.05"/>
<circle cx="285.425" cy="621.91" r="6.28635" transform="rotate(90 285.425 621.91)" fill="#F9F9F9" fill-opacity="0.05"/>
<circle cx="313.564" cy="621.91" r="6.28635" transform="rotate(90 313.564 621.91)" fill="#F9F9F9" fill-opacity="0.05"/>
<circle cx="341.104" cy="621.91" r="6.28635" transform="rotate(90 341.104 621.91)" fill="#F9F9F9" fill-opacity="0.05"/>
<circle cx="369.243" cy="621.91" r="6.28635" transform="rotate(90 369.243 621.91)" fill="#F9F9F9" fill-opacity="0.05"/>
<circle cx="397.382" cy="621.91" r="6.28635" transform="rotate(90 397.382 621.91)" fill="#F9F9F9" fill-opacity="0.05"/>
<circle cx="425.521" cy="621.91" r="6.28635" transform="rotate(90 425.521 621.91)" fill="#F9F9F9" fill-opacity="0.05"/>
<circle cx="453.061" cy="621.91" r="6.28635" transform="rotate(90 453.061 621.91)" fill="#F9F9F9" fill-opacity="0.05"/>
<circle cx="481.2" cy="621.91" r="6.28635" transform="rotate(90 481.2 621.91)" fill="#F9F9F9" fill-opacity="0.05"/>
<circle cx="509.557" cy="426.135" r="6.28635" transform="rotate(90 509.557 426.135)" fill="#F9F9F9" fill-opacity="0.05"/>
<circle cx="537.098" cy="426.135" r="6.28635" transform="rotate(90 537.098 426.135)" fill="#F9F9F9" fill-opacity="0.05"/>
<circle cx="509.557" cy="454.274" r="6.28635" transform="rotate(90 509.557 454.274)" fill="#F9F9F9" fill-opacity="0.05"/>
<circle cx="537.098" cy="454.274" r="6.28635" transform="rotate(90 537.098 454.274)" fill="#F9F9F9" fill-opacity="0.05"/>
<circle cx="509.557" cy="481.815" r="6.28635" transform="rotate(90 509.557 481.815)" fill="#F9F9F9" fill-opacity="0.05"/>
<circle cx="537.098" cy="481.815" r="6.28635" transform="rotate(90 537.098 481.815)" fill="#F9F9F9" fill-opacity="0.05"/>
<circle cx="509.557" cy="509.953" r="6.28635" transform="rotate(90 509.557 509.953)" fill="#F9F9F9" fill-opacity="0.05"/>
<circle cx="537.098" cy="509.953" r="6.28635" transform="rotate(90 537.098 509.953)" fill="#F9F9F9" fill-opacity="0.05"/>
<circle cx="509.557" cy="538.093" r="6.28635" transform="rotate(90 509.557 538.093)" fill="#F9F9F9" fill-opacity="0.05"/>
<circle cx="537.098" cy="538.093" r="6.28635" transform="rotate(90 537.098 538.093)" fill="#F9F9F9" fill-opacity="0.05"/>
<circle cx="509.557" cy="566.231" r="6.28635" transform="rotate(90 509.557 566.231)" fill="#F9F9F9" fill-opacity="0.05"/>
<circle cx="537.098" cy="566.231" r="6.28635" transform="rotate(90 537.098 566.231)" fill="#F9F9F9" fill-opacity="0.05"/>
<circle cx="509.557" cy="593.772" r="6.28635" transform="rotate(90 509.557 593.772)" fill="#F9F9F9" fill-opacity="0.05"/>
<circle cx="537.098" cy="593.772" r="6.28635" transform="rotate(90 537.098 593.772)" fill="#F9F9F9" fill-opacity="0.05"/>
<circle cx="509.557" cy="621.91" r="6.28635" transform="rotate(90 509.557 621.91)" fill="#F9F9F9" fill-opacity="0.05"/>
<circle cx="537.098" cy="621.91" r="6.28635" transform="rotate(90 537.098 621.91)" fill="#F9F9F9" fill-opacity="0.05"/>
<circle cx="229.746" cy="202.286" r="6.28635" transform="rotate(90 229.746 202.286)" fill="#F9F9F9" fill-opacity="0.05"/>
<circle cx="257.286" cy="202.286" r="6.28635" transform="rotate(90 257.286 202.286)" fill="#F9F9F9" fill-opacity="0.05"/>
<circle cx="285.425" cy="202.286" r="6.28635" transform="rotate(90 285.425 202.286)" fill="#F9F9F9" fill-opacity="0.05"/>
<circle cx="313.564" cy="202.286" r="6.28635" transform="rotate(90 313.564 202.286)" fill="#F9F9F9" fill-opacity="0.05"/>
<circle cx="341.104" cy="202.286" r="6.28635" transform="rotate(90 341.104 202.286)" fill="#F9F9F9" fill-opacity="0.05"/>
<circle cx="369.243" cy="202.286" r="6.28635" transform="rotate(90 369.243 202.286)" fill="#F9F9F9" fill-opacity="0.05"/>
<circle cx="397.382" cy="202.286" r="6.28635" transform="rotate(90 397.382 202.286)" fill="#F9F9F9" fill-opacity="0.05"/>
<circle cx="425.521" cy="202.286" r="6.28635" transform="rotate(90 425.521 202.286)" fill="#F9F9F9" fill-opacity="0.05"/>
<circle cx="453.061" cy="202.286" r="6.28635" transform="rotate(90 453.061 202.286)" fill="#F9F9F9" fill-opacity="0.05"/>
<circle cx="481.2" cy="202.286" r="6.28635" transform="rotate(90 481.2 202.286)" fill="#F9F9F9" fill-opacity="0.05"/>
<circle cx="229.746" cy="230.425" r="6.28635" transform="rotate(90 229.746 230.425)" fill="#F9F9F9" fill-opacity="0.05"/>
<circle cx="257.286" cy="230.425" r="6.28635" transform="rotate(90 257.286 230.425)" fill="#F9F9F9" fill-opacity="0.05"/>
<circle cx="285.425" cy="230.425" r="6.28635" transform="rotate(90 285.425 230.425)" fill="#F9F9F9" fill-opacity="0.05"/>
<circle cx="313.564" cy="230.425" r="6.28635" transform="rotate(90 313.564 230.425)" fill="#F9F9F9" fill-opacity="0.05"/>
<circle cx="341.104" cy="230.425" r="6.28635" transform="rotate(90 341.104 230.425)" fill="#F9F9F9" fill-opacity="0.05"/>
<circle cx="369.243" cy="230.425" r="6.28635" transform="rotate(90 369.243 230.425)" fill="#F9F9F9" fill-opacity="0.05"/>
<circle cx="397.382" cy="230.425" r="6.28635" transform="rotate(90 397.382 230.425)" fill="#F9F9F9" fill-opacity="0.05"/>
<circle cx="425.521" cy="230.425" r="6.28635" transform="rotate(90 425.521 230.425)" fill="#F9F9F9" fill-opacity="0.05"/>
<circle cx="453.061" cy="230.425" r="6.28635" transform="rotate(90 453.061 230.425)" fill="#F9F9F9" fill-opacity="0.05"/>
<circle cx="481.2" cy="230.426" r="6.28635" transform="rotate(90 481.2 230.426)" fill="#F9F9F9" fill-opacity="0.05"/>
<circle cx="229.746" cy="257.966" r="6.28635" transform="rotate(90 229.746 257.966)" fill="#F9F9F9" fill-opacity="0.05"/>
<circle cx="257.286" cy="257.966" r="6.28635" transform="rotate(90 257.286 257.966)" fill="#F9F9F9" fill-opacity="0.05"/>
<circle cx="285.425" cy="257.966" r="6.28635" transform="rotate(90 285.425 257.966)" fill="#F9F9F9" fill-opacity="0.05"/>
<circle cx="313.564" cy="257.966" r="6.28635" transform="rotate(90 313.564 257.966)" fill="#F9F9F9" fill-opacity="0.05"/>
<circle cx="341.104" cy="257.966" r="6.28635" transform="rotate(90 341.104 257.966)" fill="#F9F9F9" fill-opacity="0.05"/>
<circle cx="369.243" cy="257.966" r="6.28635" transform="rotate(90 369.243 257.966)" fill="#F9F9F9" fill-opacity="0.05"/>
<circle cx="397.382" cy="257.966" r="6.28635" transform="rotate(90 397.382 257.966)" fill="#F9F9F9" fill-opacity="0.05"/>
<circle cx="425.521" cy="257.966" r="6.28635" transform="rotate(90 425.521 257.966)" fill="#F9F9F9" fill-opacity="0.05"/>
<circle cx="453.061" cy="257.966" r="6.28635" transform="rotate(90 453.061 257.966)" fill="#F9F9F9" fill-opacity="0.05"/>
<circle cx="481.2" cy="257.966" r="6.28635" transform="rotate(90 481.2 257.966)" fill="#F9F9F9" fill-opacity="0.05"/>
<circle cx="229.746" cy="286.104" r="6.28635" transform="rotate(90 229.746 286.104)" fill="#F9F9F9" fill-opacity="0.05"/>
<circle cx="257.286" cy="286.104" r="6.28635" transform="rotate(90 257.286 286.104)" fill="#F9F9F9" fill-opacity="0.05"/>
<circle cx="285.425" cy="286.104" r="6.28635" transform="rotate(90 285.425 286.104)" fill="#F9F9F9" fill-opacity="0.05"/>
<circle cx="313.564" cy="286.104" r="6.28635" transform="rotate(90 313.564 286.104)" fill="#F9F9F9" fill-opacity="0.05"/>
<circle cx="341.104" cy="286.104" r="6.28635" transform="rotate(90 341.104 286.104)" fill="#F9F9F9" fill-opacity="0.05"/>
<circle cx="369.243" cy="286.104" r="6.28635" transform="rotate(90 369.243 286.104)" fill="#F9F9F9" fill-opacity="0.05"/>
<circle cx="397.382" cy="286.104" r="6.28635" transform="rotate(90 397.382 286.104)" fill="#F9F9F9" fill-opacity="0.05"/>
<circle cx="425.521" cy="286.104" r="6.28635" transform="rotate(90 425.521 286.104)" fill="#F9F9F9" fill-opacity="0.05"/>
<circle cx="453.061" cy="286.104" r="6.28635" transform="rotate(90 453.061 286.104)" fill="#F9F9F9" fill-opacity="0.05"/>
<circle cx="481.2" cy="286.104" r="6.28635" transform="rotate(90 481.2 286.104)" fill="#F9F9F9" fill-opacity="0.05"/>
<circle cx="229.746" cy="314.243" r="6.28635" transform="rotate(90 229.746 314.243)" fill="#F9F9F9" fill-opacity="0.05"/>
<circle cx="257.286" cy="314.243" r="6.28635" transform="rotate(90 257.286 314.243)" fill="#F9F9F9" fill-opacity="0.05"/>
<circle cx="285.425" cy="314.243" r="6.28635" transform="rotate(90 285.425 314.243)" fill="#F9F9F9" fill-opacity="0.05"/>
<circle cx="313.564" cy="314.243" r="6.28635" transform="rotate(90 313.564 314.243)" fill="#F9F9F9" fill-opacity="0.05"/>
<circle cx="341.104" cy="314.243" r="6.28635" transform="rotate(90 341.104 314.243)" fill="#F9F9F9" fill-opacity="0.05"/>
<circle cx="369.243" cy="314.243" r="6.28635" transform="rotate(90 369.243 314.243)" fill="#F9F9F9" fill-opacity="0.05"/>
<circle cx="397.382" cy="314.243" r="6.28635" transform="rotate(90 397.382 314.243)" fill="#F9F9F9" fill-opacity="0.05"/>
<circle cx="425.521" cy="314.243" r="6.28635" transform="rotate(90 425.521 314.243)" fill="#F9F9F9" fill-opacity="0.05"/>
<circle cx="453.061" cy="314.243" r="6.28635" transform="rotate(90 453.061 314.243)" fill="#F9F9F9" fill-opacity="0.05"/>
<circle cx="481.2" cy="314.243" r="6.28635" transform="rotate(90 481.2 314.243)" fill="#F9F9F9" fill-opacity="0.05"/>
<circle cx="229.746" cy="342.382" r="6.28635" transform="rotate(90 229.746 342.382)" fill="#F9F9F9" fill-opacity="0.05"/>
<circle cx="257.286" cy="342.382" r="6.28635" transform="rotate(90 257.286 342.382)" fill="#F9F9F9" fill-opacity="0.05"/>
<circle cx="285.425" cy="342.382" r="6.28635" transform="rotate(90 285.425 342.382)" fill="#F9F9F9" fill-opacity="0.05"/>
<circle cx="313.564" cy="342.382" r="6.28635" transform="rotate(90 313.564 342.382)" fill="#F9F9F9" fill-opacity="0.05"/>
<circle cx="341.104" cy="342.382" r="6.28635" transform="rotate(90 341.104 342.382)" fill="#F9F9F9" fill-opacity="0.05"/>
<circle cx="369.243" cy="342.382" r="6.28635" transform="rotate(90 369.243 342.382)" fill="#F9F9F9" fill-opacity="0.05"/>
<circle cx="397.382" cy="342.382" r="6.28635" transform="rotate(90 397.382 342.382)" fill="#F9F9F9" fill-opacity="0.05"/>
<circle cx="425.521" cy="342.382" r="6.28635" transform="rotate(90 425.521 342.382)" fill="#F9F9F9" fill-opacity="0.05"/>
<circle cx="453.061" cy="342.382" r="6.28635" transform="rotate(90 453.061 342.382)" fill="#F9F9F9" fill-opacity="0.05"/>
<circle cx="481.2" cy="342.382" r="6.28635" transform="rotate(90 481.2 342.382)" fill="#F9F9F9" fill-opacity="0.05"/>
<circle cx="229.746" cy="369.923" r="6.28635" transform="rotate(90 229.746 369.923)" fill="#F9F9F9" fill-opacity="0.05"/>
<circle cx="257.286" cy="369.923" r="6.28635" transform="rotate(90 257.286 369.923)" fill="#F9F9F9" fill-opacity="0.05"/>
<circle cx="285.425" cy="369.923" r="6.28635" transform="rotate(90 285.425 369.923)" fill="#F9F9F9" fill-opacity="0.05"/>
<circle cx="313.564" cy="369.923" r="6.28635" transform="rotate(90 313.564 369.923)" fill="#F9F9F9" fill-opacity="0.05"/>
<circle cx="341.104" cy="369.923" r="6.28635" transform="rotate(90 341.104 369.923)" fill="#F9F9F9" fill-opacity="0.05"/>
<circle cx="369.243" cy="369.923" r="6.28635" transform="rotate(90 369.243 369.923)" fill="#F9F9F9" fill-opacity="0.05"/>
<circle cx="397.382" cy="369.923" r="6.28635" transform="rotate(90 397.382 369.923)" fill="#F9F9F9" fill-opacity="0.05"/>
<circle cx="425.521" cy="369.923" r="6.28635" transform="rotate(90 425.521 369.923)" fill="#F9F9F9" fill-opacity="0.05"/>
<circle cx="453.061" cy="369.923" r="6.28635" transform="rotate(90 453.061 369.923)" fill="#F9F9F9" fill-opacity="0.05"/>
<circle cx="481.2" cy="369.923" r="6.28635" transform="rotate(90 481.2 369.923)" fill="#F9F9F9" fill-opacity="0.05"/>
<circle cx="229.746" cy="398.061" r="6.28635" transform="rotate(90 229.746 398.061)" fill="#F9F9F9" fill-opacity="0.05"/>
<circle cx="257.286" cy="398.061" r="6.28635" transform="rotate(90 257.286 398.061)" fill="#F9F9F9" fill-opacity="0.05"/>
<circle cx="285.425" cy="398.061" r="6.28635" transform="rotate(90 285.425 398.061)" fill="#F9F9F9" fill-opacity="0.05"/>
<circle cx="313.564" cy="398.061" r="6.28635" transform="rotate(90 313.564 398.061)" fill="#F9F9F9" fill-opacity="0.05"/>
<circle cx="341.104" cy="398.061" r="6.28635" transform="rotate(90 341.104 398.061)" fill="#F9F9F9" fill-opacity="0.05"/>
<circle cx="369.243" cy="398.061" r="6.28635" transform="rotate(90 369.243 398.061)" fill="#F9F9F9" fill-opacity="0.05"/>
<circle cx="397.382" cy="398.061" r="6.28635" transform="rotate(90 397.382 398.061)" fill="#F9F9F9" fill-opacity="0.05"/>
<circle cx="425.521" cy="398.061" r="6.28635" transform="rotate(90 425.521 398.061)" fill="#F9F9F9" fill-opacity="0.05"/>
<circle cx="453.061" cy="398.061" r="6.28635" transform="rotate(90 453.061 398.061)" fill="#F9F9F9" fill-opacity="0.05"/>
<circle cx="481.2" cy="398.061" r="6.28635" transform="rotate(90 481.2 398.061)" fill="#F9F9F9" fill-opacity="0.05"/>
<circle cx="6.28591" cy="6.28635" r="6.28635" transform="rotate(90 6.28591 6.28635)" fill="#F9F9F9" fill-opacity="0.05"/>
<circle cx="34.4246" cy="6.28635" r="6.28635" transform="rotate(90 34.4246 6.28635)" fill="#F9F9F9" fill-opacity="0.05"/>
<circle cx="62.5637" cy="6.28635" r="6.28635" transform="rotate(90 62.5637 6.28635)" fill="#F9F9F9" fill-opacity="0.05"/>
<circle cx="90.1038" cy="6.28635" r="6.28635" transform="rotate(90 90.1038 6.28635)" fill="#F9F9F9" fill-opacity="0.05"/>
<circle cx="118.243" cy="6.28635" r="6.28635" transform="rotate(90 118.243 6.28635)" fill="#F9F9F9" fill-opacity="0.05"/>
<circle cx="146.382" cy="6.28635" r="6.28635" transform="rotate(90 146.382 6.28635)" fill="#F9F9F9" fill-opacity="0.05"/>
<circle cx="174.521" cy="6.28635" r="6.28635" transform="rotate(90 174.521 6.28635)" fill="#F9F9F9" fill-opacity="0.05"/>
<circle cx="202.061" cy="6.28635" r="6.28635" transform="rotate(90 202.061 6.28635)" fill="#F9F9F9" fill-opacity="0.05"/>
<circle cx="230.2" cy="6.28635" r="6.28635" transform="rotate(90 230.2 6.28635)" fill="#F9F9F9" fill-opacity="0.05"/>
<circle cx="6.28591" cy="34.425" r="6.28635" transform="rotate(90 6.28591 34.425)" fill="#F9F9F9" fill-opacity="0.05"/>
<circle cx="34.4246" cy="34.425" r="6.28635" transform="rotate(90 34.4246 34.425)" fill="#F9F9F9" fill-opacity="0.05"/>
<circle cx="62.5637" cy="34.425" r="6.28635" transform="rotate(90 62.5637 34.425)" fill="#F9F9F9" fill-opacity="0.05"/>
<circle cx="90.1038" cy="34.425" r="6.28635" transform="rotate(90 90.1038 34.425)" fill="#F9F9F9" fill-opacity="0.05"/>
<circle cx="118.243" cy="34.425" r="6.28635" transform="rotate(90 118.243 34.425)" fill="#F9F9F9" fill-opacity="0.05"/>
<circle cx="146.382" cy="34.425" r="6.28635" transform="rotate(90 146.382 34.425)" fill="#F9F9F9" fill-opacity="0.05"/>
<circle cx="174.521" cy="34.425" r="6.28635" transform="rotate(90 174.521 34.425)" fill="#F9F9F9" fill-opacity="0.05"/>
<circle cx="202.061" cy="34.425" r="6.28635" transform="rotate(90 202.061 34.425)" fill="#F9F9F9" fill-opacity="0.05"/>
<circle cx="230.2" cy="34.4255" r="6.28635" transform="rotate(90 230.2 34.4255)" fill="#F9F9F9" fill-opacity="0.05"/>
<circle cx="6.28591" cy="61.9655" r="6.28635" transform="rotate(90 6.28591 61.9655)" fill="#F9F9F9" fill-opacity="0.05"/>
<circle cx="34.4246" cy="61.9655" r="6.28635" transform="rotate(90 34.4246 61.9655)" fill="#F9F9F9" fill-opacity="0.05"/>
<circle cx="62.5637" cy="61.9655" r="6.28635" transform="rotate(90 62.5637 61.9655)" fill="#F9F9F9" fill-opacity="0.05"/>
<circle cx="90.1038" cy="61.9655" r="6.28635" transform="rotate(90 90.1038 61.9655)" fill="#F9F9F9" fill-opacity="0.05"/>
<circle cx="118.243" cy="61.9655" r="6.28635" transform="rotate(90 118.243 61.9655)" fill="#F9F9F9" fill-opacity="0.05"/>
<circle cx="146.382" cy="61.9655" r="6.28635" transform="rotate(90 146.382 61.9655)" fill="#F9F9F9" fill-opacity="0.05"/>
<circle cx="174.521" cy="61.9655" r="6.28635" transform="rotate(90 174.521 61.9655)" fill="#F9F9F9" fill-opacity="0.05"/>
<circle cx="202.061" cy="61.9655" r="6.28635" transform="rotate(90 202.061 61.9655)" fill="#F9F9F9" fill-opacity="0.05"/>
<circle cx="230.2" cy="61.9655" r="6.28635" transform="rotate(90 230.2 61.9655)" fill="#F9F9F9" fill-opacity="0.05"/>
<circle cx="6.28591" cy="90.1042" r="6.28635" transform="rotate(90 6.28591 90.1042)" fill="#F9F9F9" fill-opacity="0.05"/>
<circle cx="34.4246" cy="90.1042" r="6.28635" transform="rotate(90 34.4246 90.1042)" fill="#F9F9F9" fill-opacity="0.05"/>
<circle cx="62.5637" cy="90.1042" r="6.28635" transform="rotate(90 62.5637 90.1042)" fill="#F9F9F9" fill-opacity="0.05"/>
<circle cx="90.1038" cy="90.1042" r="6.28635" transform="rotate(90 90.1038 90.1042)" fill="#F9F9F9" fill-opacity="0.05"/>
<circle cx="118.243" cy="90.1042" r="6.28635" transform="rotate(90 118.243 90.1042)" fill="#F9F9F9" fill-opacity="0.05"/>
<circle cx="146.382" cy="90.1042" r="6.28635" transform="rotate(90 146.382 90.1042)" fill="#F9F9F9" fill-opacity="0.05"/>
<circle cx="174.521" cy="90.1042" r="6.28635" transform="rotate(90 174.521 90.1042)" fill="#F9F9F9" fill-opacity="0.05"/>
<circle cx="202.061" cy="90.1042" r="6.28635" transform="rotate(90 202.061 90.1042)" fill="#F9F9F9" fill-opacity="0.05"/>
<circle cx="230.2" cy="90.1042" r="6.28635" transform="rotate(90 230.2 90.1042)" fill="#F9F9F9" fill-opacity="0.05"/>
<circle cx="6.28591" cy="118.243" r="6.28635" transform="rotate(90 6.28591 118.243)" fill="#F9F9F9" fill-opacity="0.05"/>
<circle cx="34.4246" cy="118.243" r="6.28635" transform="rotate(90 34.4246 118.243)" fill="#F9F9F9" fill-opacity="0.05"/>
<circle cx="62.5637" cy="118.243" r="6.28635" transform="rotate(90 62.5637 118.243)" fill="#F9F9F9" fill-opacity="0.05"/>
<circle cx="90.1038" cy="118.243" r="6.28635" transform="rotate(90 90.1038 118.243)" fill="#F9F9F9" fill-opacity="0.05"/>
<circle cx="118.243" cy="118.243" r="6.28635" transform="rotate(90 118.243 118.243)" fill="#F9F9F9" fill-opacity="0.05"/>
<circle cx="146.382" cy="118.243" r="6.28635" transform="rotate(90 146.382 118.243)" fill="#F9F9F9" fill-opacity="0.05"/>
<circle cx="174.521" cy="118.243" r="6.28635" transform="rotate(90 174.521 118.243)" fill="#F9F9F9" fill-opacity="0.05"/>
<circle cx="202.061" cy="118.243" r="6.28635" transform="rotate(90 202.061 118.243)" fill="#F9F9F9" fill-opacity="0.05"/>
<circle cx="230.2" cy="118.243" r="6.28635" transform="rotate(90 230.2 118.243)" fill="#F9F9F9" fill-opacity="0.05"/>
<circle cx="6.28591" cy="146.382" r="6.28635" transform="rotate(90 6.28591 146.382)" fill="#F9F9F9" fill-opacity="0.05"/>
<circle cx="34.4246" cy="146.382" r="6.28635" transform="rotate(90 34.4246 146.382)" fill="#F9F9F9" fill-opacity="0.05"/>
<circle cx="62.5637" cy="146.382" r="6.28635" transform="rotate(90 62.5637 146.382)" fill="#F9F9F9" fill-opacity="0.05"/>
<circle cx="90.1038" cy="146.382" r="6.28635" transform="rotate(90 90.1038 146.382)" fill="#F9F9F9" fill-opacity="0.05"/>
<circle cx="118.243" cy="146.382" r="6.28635" transform="rotate(90 118.243 146.382)" fill="#F9F9F9" fill-opacity="0.05"/>
<circle cx="146.382" cy="146.382" r="6.28635" transform="rotate(90 146.382 146.382)" fill="#F9F9F9" fill-opacity="0.05"/>
<circle cx="174.521" cy="146.382" r="6.28635" transform="rotate(90 174.521 146.382)" fill="#F9F9F9" fill-opacity="0.05"/>
<circle cx="202.061" cy="146.382" r="6.28635" transform="rotate(90 202.061 146.382)" fill="#F9F9F9" fill-opacity="0.05"/>
<circle cx="230.2" cy="146.382" r="6.28635" transform="rotate(90 230.2 146.382)" fill="#F9F9F9" fill-opacity="0.05"/>
<circle cx="6.28591" cy="173.923" r="6.28635" transform="rotate(90 6.28591 173.923)" fill="#F9F9F9" fill-opacity="0.05"/>
<circle cx="34.4246" cy="173.923" r="6.28635" transform="rotate(90 34.4246 173.923)" fill="#F9F9F9" fill-opacity="0.05"/>
<circle cx="62.5637" cy="173.923" r="6.28635" transform="rotate(90 62.5637 173.923)" fill="#F9F9F9" fill-opacity="0.05"/>
<circle cx="90.1038" cy="173.923" r="6.28635" transform="rotate(90 90.1038 173.923)" fill="#F9F9F9" fill-opacity="0.05"/>
<circle cx="118.243" cy="173.923" r="6.28635" transform="rotate(90 118.243 173.923)" fill="#F9F9F9" fill-opacity="0.05"/>
<circle cx="146.382" cy="173.923" r="6.28635" transform="rotate(90 146.382 173.923)" fill="#F9F9F9" fill-opacity="0.05"/>
<circle cx="174.521" cy="173.923" r="6.28635" transform="rotate(90 174.521 173.923)" fill="#F9F9F9" fill-opacity="0.05"/>
<circle cx="202.061" cy="173.923" r="6.28635" transform="rotate(90 202.061 173.923)" fill="#F9F9F9" fill-opacity="0.05"/>
<circle cx="230.2" cy="173.923" r="6.28635" transform="rotate(90 230.2 173.923)" fill="#F9F9F9" fill-opacity="0.05"/>
<circle cx="6.28591" cy="202.061" r="6.28635" transform="rotate(90 6.28591 202.061)" fill="#F9F9F9" fill-opacity="0.05"/>
<circle cx="34.4246" cy="202.061" r="6.28635" transform="rotate(90 34.4246 202.061)" fill="#F9F9F9" fill-opacity="0.05"/>
<circle cx="62.5637" cy="202.061" r="6.28635" transform="rotate(90 62.5637 202.061)" fill="#F9F9F9" fill-opacity="0.05"/>
<circle cx="90.1038" cy="202.061" r="6.28635" transform="rotate(90 90.1038 202.061)" fill="#F9F9F9" fill-opacity="0.05"/>
<circle cx="118.243" cy="202.061" r="6.28635" transform="rotate(90 118.243 202.061)" fill="#F9F9F9" fill-opacity="0.05"/>
<circle cx="146.382" cy="202.061" r="6.28635" transform="rotate(90 146.382 202.061)" fill="#F9F9F9" fill-opacity="0.05"/>
<circle cx="174.521" cy="202.061" r="6.28635" transform="rotate(90 174.521 202.061)" fill="#F9F9F9" fill-opacity="0.05"/>
<circle cx="202.061" cy="202.061" r="6.28635" transform="rotate(90 202.061 202.061)" fill="#F9F9F9" fill-opacity="0.05"/>
<circle cx="509.557" cy="202.286" r="6.28635" transform="rotate(90 509.557 202.286)" fill="#F9F9F9" fill-opacity="0.05"/>
<circle cx="537.098" cy="202.286" r="6.28635" transform="rotate(90 537.098 202.286)" fill="#F9F9F9" fill-opacity="0.05"/>
<circle cx="509.557" cy="230.425" r="6.28635" transform="rotate(90 509.557 230.425)" fill="#F9F9F9" fill-opacity="0.05"/>
<circle cx="537.098" cy="230.425" r="6.28635" transform="rotate(90 537.098 230.425)" fill="#F9F9F9" fill-opacity="0.05"/>
<circle cx="509.557" cy="257.966" r="6.28635" transform="rotate(90 509.557 257.966)" fill="#F9F9F9" fill-opacity="0.05"/>
<circle cx="537.098" cy="257.966" r="6.28635" transform="rotate(90 537.098 257.966)" fill="#F9F9F9" fill-opacity="0.05"/>
<circle cx="509.557" cy="286.104" r="6.28635" transform="rotate(90 509.557 286.104)" fill="#F9F9F9" fill-opacity="0.05"/>
<circle cx="537.098" cy="286.104" r="6.28635" transform="rotate(90 537.098 286.104)" fill="#F9F9F9" fill-opacity="0.05"/>
<circle cx="509.557" cy="314.243" r="6.28635" transform="rotate(90 509.557 314.243)" fill="#F9F9F9" fill-opacity="0.05"/>
<circle cx="537.098" cy="314.243" r="6.28635" transform="rotate(90 537.098 314.243)" fill="#F9F9F9" fill-opacity="0.05"/>
<circle cx="509.557" cy="342.382" r="6.28635" transform="rotate(90 509.557 342.382)" fill="#F9F9F9" fill-opacity="0.05"/>
<circle cx="537.098" cy="342.382" r="6.28635" transform="rotate(90 537.098 342.382)" fill="#F9F9F9" fill-opacity="0.05"/>
<circle cx="509.557" cy="369.923" r="6.28635" transform="rotate(90 509.557 369.923)" fill="#F9F9F9" fill-opacity="0.05"/>
<circle cx="537.098" cy="369.923" r="6.28635" transform="rotate(90 537.098 369.923)" fill="#F9F9F9" fill-opacity="0.05"/>
<circle cx="509.557" cy="398.061" r="6.28635" transform="rotate(90 509.557 398.061)" fill="#F9F9F9" fill-opacity="0.05"/>
<circle cx="537.098" cy="398.061" r="6.28635" transform="rotate(90 537.098 398.061)" fill="#F9F9F9" fill-opacity="0.05"/>
</svg>
