<svg width="80" height="248" viewBox="0 0 80 248" fill="none" xmlns="http://www.w3.org/2000/svg">
<circle cx="12.206" cy="132.303" r="3.58793" transform="rotate(90 12.206 132.303)" fill="#F9F9F9" fill-opacity="0.05"/>
<circle cx="28.2661" cy="132.303" r="3.58793" transform="rotate(90 28.2661 132.303)" fill="#F9F9F9" fill-opacity="0.05"/>
<circle cx="44.3266" cy="132.303" r="3.58793" transform="rotate(90 44.3266 132.303)" fill="#F9F9F9" fill-opacity="0.05"/>
<circle cx="60.0454" cy="132.303" r="3.58793" transform="rotate(90 60.0454 132.303)" fill="#F9F9F9" fill-opacity="0.05"/>
<circle cx="76.1054" cy="132.303" r="3.58793" transform="rotate(90 76.1054 132.303)" fill="#F9F9F9" fill-opacity="0.05"/>
<circle cx="12.206" cy="148.363" r="3.58793" transform="rotate(90 12.206 148.363)" fill="#F9F9F9" fill-opacity="0.05"/>
<circle cx="28.2661" cy="148.363" r="3.58793" transform="rotate(90 28.2661 148.363)" fill="#F9F9F9" fill-opacity="0.05"/>
<circle cx="44.3266" cy="148.363" r="3.58793" transform="rotate(90 44.3266 148.363)" fill="#F9F9F9" fill-opacity="0.05"/>
<circle cx="60.0454" cy="148.363" r="3.58793" transform="rotate(90 60.0454 148.363)" fill="#F9F9F9" fill-opacity="0.05"/>
<circle cx="76.1054" cy="148.363" r="3.58793" transform="rotate(90 76.1054 148.363)" fill="#F9F9F9" fill-opacity="0.05"/>
<circle cx="12.206" cy="164.082" r="3.58793" transform="rotate(90 12.206 164.082)" fill="#F9F9F9" fill-opacity="0.05"/>
<circle cx="28.2661" cy="164.082" r="3.58793" transform="rotate(90 28.2661 164.082)" fill="#F9F9F9" fill-opacity="0.05"/>
<circle cx="44.3266" cy="164.082" r="3.58793" transform="rotate(90 44.3266 164.082)" fill="#F9F9F9" fill-opacity="0.05"/>
<circle cx="60.0454" cy="164.082" r="3.58793" transform="rotate(90 60.0454 164.082)" fill="#F9F9F9" fill-opacity="0.05"/>
<circle cx="76.1054" cy="164.082" r="3.58793" transform="rotate(90 76.1054 164.082)" fill="#F9F9F9" fill-opacity="0.05"/>
<circle cx="12.206" cy="180.142" r="3.58793" transform="rotate(90 12.206 180.142)" fill="#F9F9F9" fill-opacity="0.05"/>
<circle cx="28.2661" cy="180.142" r="3.58793" transform="rotate(90 28.2661 180.142)" fill="#F9F9F9" fill-opacity="0.05"/>
<circle cx="44.3266" cy="180.142" r="3.58793" transform="rotate(90 44.3266 180.142)" fill="#F9F9F9" fill-opacity="0.05"/>
<circle cx="60.0454" cy="180.142" r="3.58793" transform="rotate(90 60.0454 180.142)" fill="#F9F9F9" fill-opacity="0.05"/>
<circle cx="76.1054" cy="180.142" r="3.58793" transform="rotate(90 76.1054 180.142)" fill="#F9F9F9" fill-opacity="0.05"/>
<circle cx="12.206" cy="196.202" r="3.58793" transform="rotate(90 12.206 196.202)" fill="#F9F9F9" fill-opacity="0.05"/>
<circle cx="28.2661" cy="196.202" r="3.58793" transform="rotate(90 28.2661 196.202)" fill="#F9F9F9" fill-opacity="0.05"/>
<circle cx="44.3266" cy="196.202" r="3.58793" transform="rotate(90 44.3266 196.202)" fill="#F9F9F9" fill-opacity="0.05"/>
<circle cx="60.0454" cy="196.202" r="3.58793" transform="rotate(90 60.0454 196.202)" fill="#F9F9F9" fill-opacity="0.05"/>
<circle cx="76.1054" cy="196.202" r="3.58793" transform="rotate(90 76.1054 196.202)" fill="#F9F9F9" fill-opacity="0.05"/>
<circle cx="12.206" cy="212.263" r="3.58793" transform="rotate(90 12.206 212.263)" fill="#F9F9F9" fill-opacity="0.05"/>
<circle cx="28.2661" cy="212.263" r="3.58793" transform="rotate(90 28.2661 212.263)" fill="#F9F9F9" fill-opacity="0.05"/>
<circle cx="44.3266" cy="212.263" r="3.58793" transform="rotate(90 44.3266 212.263)" fill="#F9F9F9" fill-opacity="0.05"/>
<circle cx="60.0454" cy="212.263" r="3.58793" transform="rotate(90 60.0454 212.263)" fill="#F9F9F9" fill-opacity="0.05"/>
<circle cx="76.1054" cy="212.263" r="3.58793" transform="rotate(90 76.1054 212.263)" fill="#F9F9F9" fill-opacity="0.05"/>
<circle cx="12.206" cy="227.981" r="3.58793" transform="rotate(90 12.206 227.981)" fill="#F9F9F9" fill-opacity="0.05"/>
<circle cx="28.2661" cy="227.981" r="3.58793" transform="rotate(90 28.2661 227.981)" fill="#F9F9F9" fill-opacity="0.05"/>
<circle cx="44.3266" cy="227.981" r="3.58793" transform="rotate(90 44.3266 227.981)" fill="#F9F9F9" fill-opacity="0.05"/>
<circle cx="60.0454" cy="227.981" r="3.58793" transform="rotate(90 60.0454 227.981)" fill="#F9F9F9" fill-opacity="0.05"/>
<circle cx="76.1054" cy="227.981" r="3.58793" transform="rotate(90 76.1054 227.981)" fill="#F9F9F9" fill-opacity="0.05"/>
<circle cx="12.206" cy="244.042" r="3.58793" transform="rotate(90 12.206 244.042)" fill="#F9F9F9" fill-opacity="0.05"/>
<circle cx="28.2661" cy="244.042" r="3.58793" transform="rotate(90 28.2661 244.042)" fill="#F9F9F9" fill-opacity="0.05"/>
<circle cx="44.3266" cy="244.042" r="3.58793" transform="rotate(90 44.3266 244.042)" fill="#F9F9F9" fill-opacity="0.05"/>
<circle cx="60.0454" cy="244.042" r="3.58793" transform="rotate(90 60.0454 244.042)" fill="#F9F9F9" fill-opacity="0.05"/>
<circle cx="76.1054" cy="244.042" r="3.58793" transform="rotate(90 76.1054 244.042)" fill="#F9F9F9" fill-opacity="0.05"/>
<circle cx="12.206" cy="4.54105" r="3.58793" transform="rotate(90 12.206 4.54105)" fill="#F9F9F9" fill-opacity="0.05"/>
<circle cx="28.2661" cy="4.54105" r="3.58793" transform="rotate(90 28.2661 4.54105)" fill="#F9F9F9" fill-opacity="0.05"/>
<circle cx="44.3266" cy="4.54105" r="3.58793" transform="rotate(90 44.3266 4.54105)" fill="#F9F9F9" fill-opacity="0.05"/>
<circle cx="60.0454" cy="4.54105" r="3.58793" transform="rotate(90 60.0454 4.54105)" fill="#F9F9F9" fill-opacity="0.05"/>
<circle cx="76.1049" cy="4.54154" r="3.58793" transform="rotate(90 76.1049 4.54154)" fill="#F9F9F9" fill-opacity="0.05"/>
<circle cx="12.206" cy="20.6016" r="3.58793" transform="rotate(90 12.206 20.6016)" fill="#F9F9F9" fill-opacity="0.05"/>
<circle cx="28.2661" cy="20.6016" r="3.58793" transform="rotate(90 28.2661 20.6016)" fill="#F9F9F9" fill-opacity="0.05"/>
<circle cx="44.3266" cy="20.6016" r="3.58793" transform="rotate(90 44.3266 20.6016)" fill="#F9F9F9" fill-opacity="0.05"/>
<circle cx="60.0454" cy="20.6016" r="3.58793" transform="rotate(90 60.0454 20.6016)" fill="#F9F9F9" fill-opacity="0.05"/>
<circle cx="76.1054" cy="20.6016" r="3.58793" transform="rotate(90 76.1054 20.6016)" fill="#F9F9F9" fill-opacity="0.05"/>
<circle cx="12.206" cy="36.3199" r="3.58793" transform="rotate(90 12.206 36.3199)" fill="#F9F9F9" fill-opacity="0.05"/>
<circle cx="28.2661" cy="36.3199" r="3.58793" transform="rotate(90 28.2661 36.3199)" fill="#F9F9F9" fill-opacity="0.05"/>
<circle cx="44.3266" cy="36.3199" r="3.58793" transform="rotate(90 44.3266 36.3199)" fill="#F9F9F9" fill-opacity="0.05"/>
<circle cx="60.0454" cy="36.3199" r="3.58793" transform="rotate(90 60.0454 36.3199)" fill="#F9F9F9" fill-opacity="0.05"/>
<circle cx="76.1054" cy="36.3199" r="3.58793" transform="rotate(90 76.1054 36.3199)" fill="#F9F9F9" fill-opacity="0.05"/>
<circle cx="12.206" cy="52.3804" r="3.58793" transform="rotate(90 12.206 52.3804)" fill="#F9F9F9" fill-opacity="0.05"/>
<circle cx="28.2661" cy="52.3804" r="3.58793" transform="rotate(90 28.2661 52.3804)" fill="#F9F9F9" fill-opacity="0.05"/>
<circle cx="44.3266" cy="52.3804" r="3.58793" transform="rotate(90 44.3266 52.3804)" fill="#F9F9F9" fill-opacity="0.05"/>
<circle cx="60.0454" cy="52.3804" r="3.58793" transform="rotate(90 60.0454 52.3804)" fill="#F9F9F9" fill-opacity="0.05"/>
<circle cx="76.1054" cy="52.3804" r="3.58793" transform="rotate(90 76.1054 52.3804)" fill="#F9F9F9" fill-opacity="0.05"/>
<circle cx="12.206" cy="68.4405" r="3.58793" transform="rotate(90 12.206 68.4405)" fill="#F9F9F9" fill-opacity="0.05"/>
<circle cx="28.2661" cy="68.4405" r="3.58793" transform="rotate(90 28.2661 68.4405)" fill="#F9F9F9" fill-opacity="0.05"/>
<circle cx="44.3266" cy="68.4405" r="3.58793" transform="rotate(90 44.3266 68.4405)" fill="#F9F9F9" fill-opacity="0.05"/>
<circle cx="60.0454" cy="68.4405" r="3.58793" transform="rotate(90 60.0454 68.4405)" fill="#F9F9F9" fill-opacity="0.05"/>
<circle cx="76.1054" cy="68.4405" r="3.58793" transform="rotate(90 76.1054 68.4405)" fill="#F9F9F9" fill-opacity="0.05"/>
<circle cx="12.206" cy="84.5005" r="3.58793" transform="rotate(90 12.206 84.5005)" fill="#F9F9F9" fill-opacity="0.05"/>
<circle cx="28.2661" cy="84.5005" r="3.58793" transform="rotate(90 28.2661 84.5005)" fill="#F9F9F9" fill-opacity="0.05"/>
<circle cx="44.3266" cy="84.5005" r="3.58793" transform="rotate(90 44.3266 84.5005)" fill="#F9F9F9" fill-opacity="0.05"/>
<circle cx="60.0454" cy="84.5005" r="3.58793" transform="rotate(90 60.0454 84.5005)" fill="#F9F9F9" fill-opacity="0.05"/>
<circle cx="76.1054" cy="84.501" r="3.58793" transform="rotate(90 76.1054 84.501)" fill="#F9F9F9" fill-opacity="0.05"/>
<circle cx="12.206" cy="100.219" r="3.58793" transform="rotate(90 12.206 100.219)" fill="#F9F9F9" fill-opacity="0.05"/>
<circle cx="28.2661" cy="100.219" r="3.58793" transform="rotate(90 28.2661 100.219)" fill="#F9F9F9" fill-opacity="0.05"/>
<circle cx="44.3266" cy="100.219" r="3.58793" transform="rotate(90 44.3266 100.219)" fill="#F9F9F9" fill-opacity="0.05"/>
<circle cx="60.0454" cy="100.219" r="3.58793" transform="rotate(90 60.0454 100.219)" fill="#F9F9F9" fill-opacity="0.05"/>
<circle cx="76.1054" cy="100.219" r="3.58793" transform="rotate(90 76.1054 100.219)" fill="#F9F9F9" fill-opacity="0.05"/>
<circle cx="12.206" cy="116.28" r="3.58793" transform="rotate(90 12.206 116.28)" fill="#F9F9F9" fill-opacity="0.05"/>
<circle cx="28.2661" cy="116.28" r="3.58793" transform="rotate(90 28.2661 116.28)" fill="#F9F9F9" fill-opacity="0.05"/>
<circle cx="44.3266" cy="116.28" r="3.58793" transform="rotate(90 44.3266 116.28)" fill="#F9F9F9" fill-opacity="0.05"/>
<circle cx="60.0454" cy="116.28" r="3.58793" transform="rotate(90 60.0454 116.28)" fill="#F9F9F9" fill-opacity="0.05"/>
<circle cx="76.1054" cy="116.28" r="3.58793" transform="rotate(90 76.1054 116.28)" fill="#F9F9F9" fill-opacity="0.05"/>
</svg>
