<svg width="249" height="408" viewBox="0 0 249 408" fill="none" xmlns="http://www.w3.org/2000/svg">
<circle cx="5.92298" cy="216.824" r="5.92272" transform="rotate(90 5.92298 216.824)" fill="#F9F9F9" fill-opacity="0.05"/>
<circle cx="31.8702" cy="216.824" r="5.92272" transform="rotate(90 31.8702 216.824)" fill="#F9F9F9" fill-opacity="0.05"/>
<circle cx="58.3815" cy="216.824" r="5.92272" transform="rotate(90 58.3815 216.824)" fill="#F9F9F9" fill-opacity="0.05"/>
<circle cx="84.8927" cy="216.824" r="5.92272" transform="rotate(90 84.8927 216.824)" fill="#F9F9F9" fill-opacity="0.05"/>
<circle cx="110.84" cy="216.824" r="5.92272" transform="rotate(90 110.84 216.824)" fill="#F9F9F9" fill-opacity="0.05"/>
<circle cx="137.351" cy="216.824" r="5.92272" transform="rotate(90 137.351 216.824)" fill="#F9F9F9" fill-opacity="0.05"/>
<circle cx="163.862" cy="216.824" r="5.92272" transform="rotate(90 163.862 216.824)" fill="#F9F9F9" fill-opacity="0.05"/>
<circle cx="190.374" cy="216.824" r="5.92272" transform="rotate(90 190.374 216.824)" fill="#F9F9F9" fill-opacity="0.05"/>
<circle cx="216.321" cy="216.824" r="5.92272" transform="rotate(90 216.321 216.824)" fill="#F9F9F9" fill-opacity="0.05"/>
<circle cx="242.832" cy="216.824" r="5.92272" transform="rotate(90 242.832 216.824)" fill="#F9F9F9" fill-opacity="0.05"/>
<circle cx="5.92298" cy="243.335" r="5.92272" transform="rotate(90 5.92298 243.335)" fill="#F9F9F9" fill-opacity="0.05"/>
<circle cx="31.8702" cy="243.335" r="5.92272" transform="rotate(90 31.8702 243.335)" fill="#F9F9F9" fill-opacity="0.05"/>
<circle cx="58.3815" cy="243.335" r="5.92272" transform="rotate(90 58.3815 243.335)" fill="#F9F9F9" fill-opacity="0.05"/>
<circle cx="84.8927" cy="243.335" r="5.92272" transform="rotate(90 84.8927 243.335)" fill="#F9F9F9" fill-opacity="0.05"/>
<circle cx="110.84" cy="243.335" r="5.92272" transform="rotate(90 110.84 243.335)" fill="#F9F9F9" fill-opacity="0.05"/>
<circle cx="137.351" cy="243.335" r="5.92272" transform="rotate(90 137.351 243.335)" fill="#F9F9F9" fill-opacity="0.05"/>
<circle cx="163.862" cy="243.335" r="5.92272" transform="rotate(90 163.862 243.335)" fill="#F9F9F9" fill-opacity="0.05"/>
<circle cx="190.374" cy="243.335" r="5.92272" transform="rotate(90 190.374 243.335)" fill="#F9F9F9" fill-opacity="0.05"/>
<circle cx="216.321" cy="243.335" r="5.92272" transform="rotate(90 216.321 243.335)" fill="#F9F9F9" fill-opacity="0.05"/>
<circle cx="242.832" cy="243.335" r="5.92272" transform="rotate(90 242.832 243.335)" fill="#F9F9F9" fill-opacity="0.05"/>
<circle cx="5.92298" cy="269.282" r="5.92272" transform="rotate(90 5.92298 269.282)" fill="#F9F9F9" fill-opacity="0.05"/>
<circle cx="31.8702" cy="269.282" r="5.92272" transform="rotate(90 31.8702 269.282)" fill="#F9F9F9" fill-opacity="0.05"/>
<circle cx="58.3815" cy="269.282" r="5.92272" transform="rotate(90 58.3815 269.282)" fill="#F9F9F9" fill-opacity="0.05"/>
<circle cx="84.8927" cy="269.282" r="5.92272" transform="rotate(90 84.8927 269.282)" fill="#F9F9F9" fill-opacity="0.05"/>
<circle cx="110.84" cy="269.282" r="5.92272" transform="rotate(90 110.84 269.282)" fill="#F9F9F9" fill-opacity="0.05"/>
<circle cx="137.351" cy="269.282" r="5.92272" transform="rotate(90 137.351 269.282)" fill="#F9F9F9" fill-opacity="0.05"/>
<circle cx="163.862" cy="269.282" r="5.92272" transform="rotate(90 163.862 269.282)" fill="#F9F9F9" fill-opacity="0.05"/>
<circle cx="190.374" cy="269.282" r="5.92272" transform="rotate(90 190.374 269.282)" fill="#F9F9F9" fill-opacity="0.05"/>
<circle cx="216.321" cy="269.282" r="5.92272" transform="rotate(90 216.321 269.282)" fill="#F9F9F9" fill-opacity="0.05"/>
<circle cx="242.832" cy="269.282" r="5.92272" transform="rotate(90 242.832 269.282)" fill="#F9F9F9" fill-opacity="0.05"/>
<circle cx="5.92298" cy="295.793" r="5.92272" transform="rotate(90 5.92298 295.793)" fill="#F9F9F9" fill-opacity="0.05"/>
<circle cx="31.8702" cy="295.793" r="5.92272" transform="rotate(90 31.8702 295.793)" fill="#F9F9F9" fill-opacity="0.05"/>
<circle cx="58.3815" cy="295.793" r="5.92272" transform="rotate(90 58.3815 295.793)" fill="#F9F9F9" fill-opacity="0.05"/>
<circle cx="84.8927" cy="295.793" r="5.92272" transform="rotate(90 84.8927 295.793)" fill="#F9F9F9" fill-opacity="0.05"/>
<circle cx="110.84" cy="295.793" r="5.92272" transform="rotate(90 110.84 295.793)" fill="#F9F9F9" fill-opacity="0.05"/>
<circle cx="137.351" cy="295.793" r="5.92272" transform="rotate(90 137.351 295.793)" fill="#F9F9F9" fill-opacity="0.05"/>
<circle cx="163.862" cy="295.793" r="5.92272" transform="rotate(90 163.862 295.793)" fill="#F9F9F9" fill-opacity="0.05"/>
<circle cx="190.374" cy="295.793" r="5.92272" transform="rotate(90 190.374 295.793)" fill="#F9F9F9" fill-opacity="0.05"/>
<circle cx="216.321" cy="295.793" r="5.92272" transform="rotate(90 216.321 295.793)" fill="#F9F9F9" fill-opacity="0.05"/>
<circle cx="242.832" cy="295.793" r="5.92272" transform="rotate(90 242.832 295.793)" fill="#F9F9F9" fill-opacity="0.05"/>
<circle cx="5.92298" cy="322.305" r="5.92272" transform="rotate(90 5.92298 322.305)" fill="#F9F9F9" fill-opacity="0.05"/>
<circle cx="31.8702" cy="322.305" r="5.92272" transform="rotate(90 31.8702 322.305)" fill="#F9F9F9" fill-opacity="0.05"/>
<circle cx="58.3815" cy="322.305" r="5.92272" transform="rotate(90 58.3815 322.305)" fill="#F9F9F9" fill-opacity="0.05"/>
<circle cx="84.8927" cy="322.305" r="5.92272" transform="rotate(90 84.8927 322.305)" fill="#F9F9F9" fill-opacity="0.05"/>
<circle cx="110.84" cy="322.305" r="5.92272" transform="rotate(90 110.84 322.305)" fill="#F9F9F9" fill-opacity="0.05"/>
<circle cx="137.351" cy="322.305" r="5.92272" transform="rotate(90 137.351 322.305)" fill="#F9F9F9" fill-opacity="0.05"/>
<circle cx="163.862" cy="322.305" r="5.92272" transform="rotate(90 163.862 322.305)" fill="#F9F9F9" fill-opacity="0.05"/>
<circle cx="190.374" cy="322.305" r="5.92272" transform="rotate(90 190.374 322.305)" fill="#F9F9F9" fill-opacity="0.05"/>
<circle cx="216.321" cy="322.305" r="5.92272" transform="rotate(90 216.321 322.305)" fill="#F9F9F9" fill-opacity="0.05"/>
<circle cx="242.832" cy="322.305" r="5.92272" transform="rotate(90 242.832 322.305)" fill="#F9F9F9" fill-opacity="0.05"/>
<circle cx="5.92298" cy="348.816" r="5.92272" transform="rotate(90 5.92298 348.816)" fill="#F9F9F9" fill-opacity="0.05"/>
<circle cx="31.8702" cy="348.816" r="5.92272" transform="rotate(90 31.8702 348.816)" fill="#F9F9F9" fill-opacity="0.05"/>
<circle cx="58.3815" cy="348.816" r="5.92272" transform="rotate(90 58.3815 348.816)" fill="#F9F9F9" fill-opacity="0.05"/>
<circle cx="84.8927" cy="348.816" r="5.92272" transform="rotate(90 84.8927 348.816)" fill="#F9F9F9" fill-opacity="0.05"/>
<circle cx="110.84" cy="348.816" r="5.92272" transform="rotate(90 110.84 348.816)" fill="#F9F9F9" fill-opacity="0.05"/>
<circle cx="137.351" cy="348.816" r="5.92272" transform="rotate(90 137.351 348.816)" fill="#F9F9F9" fill-opacity="0.05"/>
<circle cx="163.862" cy="348.816" r="5.92272" transform="rotate(90 163.862 348.816)" fill="#F9F9F9" fill-opacity="0.05"/>
<circle cx="190.374" cy="348.816" r="5.92272" transform="rotate(90 190.374 348.816)" fill="#F9F9F9" fill-opacity="0.05"/>
<circle cx="216.321" cy="348.816" r="5.92272" transform="rotate(90 216.321 348.816)" fill="#F9F9F9" fill-opacity="0.05"/>
<circle cx="242.832" cy="348.816" r="5.92272" transform="rotate(90 242.832 348.816)" fill="#F9F9F9" fill-opacity="0.05"/>
<circle cx="5.92298" cy="374.763" r="5.92272" transform="rotate(90 5.92298 374.763)" fill="#F9F9F9" fill-opacity="0.05"/>
<circle cx="31.8702" cy="374.763" r="5.92272" transform="rotate(90 31.8702 374.763)" fill="#F9F9F9" fill-opacity="0.05"/>
<circle cx="58.3815" cy="374.763" r="5.92272" transform="rotate(90 58.3815 374.763)" fill="#F9F9F9" fill-opacity="0.05"/>
<circle cx="84.8927" cy="374.763" r="5.92272" transform="rotate(90 84.8927 374.763)" fill="#F9F9F9" fill-opacity="0.05"/>
<circle cx="110.84" cy="374.763" r="5.92272" transform="rotate(90 110.84 374.763)" fill="#F9F9F9" fill-opacity="0.05"/>
<circle cx="137.351" cy="374.763" r="5.92272" transform="rotate(90 137.351 374.763)" fill="#F9F9F9" fill-opacity="0.05"/>
<circle cx="163.862" cy="374.763" r="5.92272" transform="rotate(90 163.862 374.763)" fill="#F9F9F9" fill-opacity="0.05"/>
<circle cx="190.374" cy="374.763" r="5.92272" transform="rotate(90 190.374 374.763)" fill="#F9F9F9" fill-opacity="0.05"/>
<circle cx="216.321" cy="374.763" r="5.92272" transform="rotate(90 216.321 374.763)" fill="#F9F9F9" fill-opacity="0.05"/>
<circle cx="242.832" cy="374.763" r="5.92272" transform="rotate(90 242.832 374.763)" fill="#F9F9F9" fill-opacity="0.05"/>
<circle cx="5.92298" cy="401.274" r="5.92272" transform="rotate(90 5.92298 401.274)" fill="#F9F9F9" fill-opacity="0.05"/>
<circle cx="31.8702" cy="401.274" r="5.92272" transform="rotate(90 31.8702 401.274)" fill="#F9F9F9" fill-opacity="0.05"/>
<circle cx="58.3815" cy="401.274" r="5.92272" transform="rotate(90 58.3815 401.274)" fill="#F9F9F9" fill-opacity="0.05"/>
<circle cx="84.8927" cy="401.274" r="5.92272" transform="rotate(90 84.8927 401.274)" fill="#F9F9F9" fill-opacity="0.05"/>
<circle cx="110.84" cy="401.274" r="5.92272" transform="rotate(90 110.84 401.274)" fill="#F9F9F9" fill-opacity="0.05"/>
<circle cx="137.351" cy="401.274" r="5.92272" transform="rotate(90 137.351 401.274)" fill="#F9F9F9" fill-opacity="0.05"/>
<circle cx="163.862" cy="401.274" r="5.92272" transform="rotate(90 163.862 401.274)" fill="#F9F9F9" fill-opacity="0.05"/>
<circle cx="190.374" cy="401.274" r="5.92272" transform="rotate(90 190.374 401.274)" fill="#F9F9F9" fill-opacity="0.05"/>
<circle cx="216.321" cy="401.274" r="5.92272" transform="rotate(90 216.321 401.274)" fill="#F9F9F9" fill-opacity="0.05"/>
<circle cx="242.832" cy="401.274" r="5.92272" transform="rotate(90 242.832 401.274)" fill="#F9F9F9" fill-opacity="0.05"/>
<circle cx="5.92298" cy="5.92272" r="5.92272" transform="rotate(90 5.92298 5.92272)" fill="#F9F9F9" fill-opacity="0.05"/>
<circle cx="31.8702" cy="5.92272" r="5.92272" transform="rotate(90 31.8702 5.92272)" fill="#F9F9F9" fill-opacity="0.05"/>
<circle cx="58.3815" cy="5.92272" r="5.92272" transform="rotate(90 58.3815 5.92272)" fill="#F9F9F9" fill-opacity="0.05"/>
<circle cx="84.8927" cy="5.92272" r="5.92272" transform="rotate(90 84.8927 5.92272)" fill="#F9F9F9" fill-opacity="0.05"/>
<circle cx="110.84" cy="5.92272" r="5.92272" transform="rotate(90 110.84 5.92272)" fill="#F9F9F9" fill-opacity="0.05"/>
<circle cx="137.351" cy="5.92272" r="5.92272" transform="rotate(90 137.351 5.92272)" fill="#F9F9F9" fill-opacity="0.05"/>
<circle cx="163.862" cy="5.92272" r="5.92272" transform="rotate(90 163.862 5.92272)" fill="#F9F9F9" fill-opacity="0.05"/>
<circle cx="190.374" cy="5.92272" r="5.92272" transform="rotate(90 190.374 5.92272)" fill="#F9F9F9" fill-opacity="0.05"/>
<circle cx="216.321" cy="5.92272" r="5.92272" transform="rotate(90 216.321 5.92272)" fill="#F9F9F9" fill-opacity="0.05"/>
<circle cx="242.832" cy="5.92272" r="5.92272" transform="rotate(90 242.832 5.92272)" fill="#F9F9F9" fill-opacity="0.05"/>
<circle cx="5.92298" cy="32.434" r="5.92272" transform="rotate(90 5.92298 32.434)" fill="#F9F9F9" fill-opacity="0.05"/>
<circle cx="31.8702" cy="32.434" r="5.92272" transform="rotate(90 31.8702 32.434)" fill="#F9F9F9" fill-opacity="0.05"/>
<circle cx="58.3815" cy="32.434" r="5.92272" transform="rotate(90 58.3815 32.434)" fill="#F9F9F9" fill-opacity="0.05"/>
<circle cx="84.8927" cy="32.434" r="5.92272" transform="rotate(90 84.8927 32.434)" fill="#F9F9F9" fill-opacity="0.05"/>
<circle cx="110.84" cy="32.434" r="5.92272" transform="rotate(90 110.84 32.434)" fill="#F9F9F9" fill-opacity="0.05"/>
<circle cx="137.351" cy="32.434" r="5.92272" transform="rotate(90 137.351 32.434)" fill="#F9F9F9" fill-opacity="0.05"/>
<circle cx="163.862" cy="32.434" r="5.92272" transform="rotate(90 163.862 32.434)" fill="#F9F9F9" fill-opacity="0.05"/>
<circle cx="190.374" cy="32.434" r="5.92272" transform="rotate(90 190.374 32.434)" fill="#F9F9F9" fill-opacity="0.05"/>
<circle cx="216.321" cy="32.434" r="5.92272" transform="rotate(90 216.321 32.434)" fill="#F9F9F9" fill-opacity="0.05"/>
<circle cx="242.832" cy="32.434" r="5.92272" transform="rotate(90 242.832 32.434)" fill="#F9F9F9" fill-opacity="0.05"/>
<circle cx="5.92298" cy="58.3812" r="5.92272" transform="rotate(90 5.92298 58.3812)" fill="#F9F9F9" fill-opacity="0.05"/>
<circle cx="31.8702" cy="58.3812" r="5.92272" transform="rotate(90 31.8702 58.3812)" fill="#F9F9F9" fill-opacity="0.05"/>
<circle cx="58.3815" cy="58.3812" r="5.92272" transform="rotate(90 58.3815 58.3812)" fill="#F9F9F9" fill-opacity="0.05"/>
<circle cx="84.8927" cy="58.3812" r="5.92272" transform="rotate(90 84.8927 58.3812)" fill="#F9F9F9" fill-opacity="0.05"/>
<circle cx="110.84" cy="58.3812" r="5.92272" transform="rotate(90 110.84 58.3812)" fill="#F9F9F9" fill-opacity="0.05"/>
<circle cx="137.351" cy="58.3812" r="5.92272" transform="rotate(90 137.351 58.3812)" fill="#F9F9F9" fill-opacity="0.05"/>
<circle cx="163.862" cy="58.3812" r="5.92272" transform="rotate(90 163.862 58.3812)" fill="#F9F9F9" fill-opacity="0.05"/>
<circle cx="190.374" cy="58.3812" r="5.92272" transform="rotate(90 190.374 58.3812)" fill="#F9F9F9" fill-opacity="0.05"/>
<circle cx="216.321" cy="58.3812" r="5.92272" transform="rotate(90 216.321 58.3812)" fill="#F9F9F9" fill-opacity="0.05"/>
<circle cx="242.832" cy="58.3812" r="5.92272" transform="rotate(90 242.832 58.3812)" fill="#F9F9F9" fill-opacity="0.05"/>
<circle cx="5.92298" cy="84.8924" r="5.92272" transform="rotate(90 5.92298 84.8924)" fill="#F9F9F9" fill-opacity="0.05"/>
<circle cx="31.8702" cy="84.8924" r="5.92272" transform="rotate(90 31.8702 84.8924)" fill="#F9F9F9" fill-opacity="0.05"/>
<circle cx="58.3815" cy="84.8924" r="5.92272" transform="rotate(90 58.3815 84.8924)" fill="#F9F9F9" fill-opacity="0.05"/>
<circle cx="84.8927" cy="84.8924" r="5.92272" transform="rotate(90 84.8927 84.8924)" fill="#F9F9F9" fill-opacity="0.05"/>
<circle cx="110.84" cy="84.8924" r="5.92272" transform="rotate(90 110.84 84.8924)" fill="#F9F9F9" fill-opacity="0.05"/>
<circle cx="137.351" cy="84.8924" r="5.92272" transform="rotate(90 137.351 84.8924)" fill="#F9F9F9" fill-opacity="0.05"/>
<circle cx="163.862" cy="84.8924" r="5.92272" transform="rotate(90 163.862 84.8924)" fill="#F9F9F9" fill-opacity="0.05"/>
<circle cx="190.374" cy="84.8924" r="5.92272" transform="rotate(90 190.374 84.8924)" fill="#F9F9F9" fill-opacity="0.05"/>
<circle cx="216.321" cy="84.8924" r="5.92272" transform="rotate(90 216.321 84.8924)" fill="#F9F9F9" fill-opacity="0.05"/>
<circle cx="242.832" cy="84.8924" r="5.92272" transform="rotate(90 242.832 84.8924)" fill="#F9F9F9" fill-opacity="0.05"/>
<circle cx="5.92298" cy="111.404" r="5.92272" transform="rotate(90 5.92298 111.404)" fill="#F9F9F9" fill-opacity="0.05"/>
<circle cx="31.8702" cy="111.404" r="5.92272" transform="rotate(90 31.8702 111.404)" fill="#F9F9F9" fill-opacity="0.05"/>
<circle cx="58.3815" cy="111.404" r="5.92272" transform="rotate(90 58.3815 111.404)" fill="#F9F9F9" fill-opacity="0.05"/>
<circle cx="84.8927" cy="111.404" r="5.92272" transform="rotate(90 84.8927 111.404)" fill="#F9F9F9" fill-opacity="0.05"/>
<circle cx="110.84" cy="111.404" r="5.92272" transform="rotate(90 110.84 111.404)" fill="#F9F9F9" fill-opacity="0.05"/>
<circle cx="137.351" cy="111.404" r="5.92272" transform="rotate(90 137.351 111.404)" fill="#F9F9F9" fill-opacity="0.05"/>
<circle cx="163.862" cy="111.404" r="5.92272" transform="rotate(90 163.862 111.404)" fill="#F9F9F9" fill-opacity="0.05"/>
<circle cx="190.374" cy="111.404" r="5.92272" transform="rotate(90 190.374 111.404)" fill="#F9F9F9" fill-opacity="0.05"/>
<circle cx="216.321" cy="111.404" r="5.92272" transform="rotate(90 216.321 111.404)" fill="#F9F9F9" fill-opacity="0.05"/>
<circle cx="242.832" cy="111.404" r="5.92272" transform="rotate(90 242.832 111.404)" fill="#F9F9F9" fill-opacity="0.05"/>
<circle cx="5.92298" cy="137.915" r="5.92272" transform="rotate(90 5.92298 137.915)" fill="#F9F9F9" fill-opacity="0.05"/>
<circle cx="31.8702" cy="137.915" r="5.92272" transform="rotate(90 31.8702 137.915)" fill="#F9F9F9" fill-opacity="0.05"/>
<circle cx="58.3815" cy="137.915" r="5.92272" transform="rotate(90 58.3815 137.915)" fill="#F9F9F9" fill-opacity="0.05"/>
<circle cx="84.8927" cy="137.915" r="5.92272" transform="rotate(90 84.8927 137.915)" fill="#F9F9F9" fill-opacity="0.05"/>
<circle cx="110.84" cy="137.915" r="5.92272" transform="rotate(90 110.84 137.915)" fill="#F9F9F9" fill-opacity="0.05"/>
<circle cx="137.351" cy="137.915" r="5.92272" transform="rotate(90 137.351 137.915)" fill="#F9F9F9" fill-opacity="0.05"/>
<circle cx="163.862" cy="137.915" r="5.92272" transform="rotate(90 163.862 137.915)" fill="#F9F9F9" fill-opacity="0.05"/>
<circle cx="190.374" cy="137.915" r="5.92272" transform="rotate(90 190.374 137.915)" fill="#F9F9F9" fill-opacity="0.05"/>
<circle cx="216.321" cy="137.915" r="5.92272" transform="rotate(90 216.321 137.915)" fill="#F9F9F9" fill-opacity="0.05"/>
<circle cx="242.832" cy="137.915" r="5.92272" transform="rotate(90 242.832 137.915)" fill="#F9F9F9" fill-opacity="0.05"/>
<circle cx="5.92298" cy="163.862" r="5.92272" transform="rotate(90 5.92298 163.862)" fill="#F9F9F9" fill-opacity="0.05"/>
<circle cx="31.8702" cy="163.862" r="5.92272" transform="rotate(90 31.8702 163.862)" fill="#F9F9F9" fill-opacity="0.05"/>
<circle cx="58.3815" cy="163.862" r="5.92272" transform="rotate(90 58.3815 163.862)" fill="#F9F9F9" fill-opacity="0.05"/>
<circle cx="84.8927" cy="163.862" r="5.92272" transform="rotate(90 84.8927 163.862)" fill="#F9F9F9" fill-opacity="0.05"/>
<circle cx="110.84" cy="163.862" r="5.92272" transform="rotate(90 110.84 163.862)" fill="#F9F9F9" fill-opacity="0.05"/>
<circle cx="137.351" cy="163.862" r="5.92272" transform="rotate(90 137.351 163.862)" fill="#F9F9F9" fill-opacity="0.05"/>
<circle cx="163.862" cy="163.862" r="5.92272" transform="rotate(90 163.862 163.862)" fill="#F9F9F9" fill-opacity="0.05"/>
<circle cx="190.374" cy="163.862" r="5.92272" transform="rotate(90 190.374 163.862)" fill="#F9F9F9" fill-opacity="0.05"/>
<circle cx="216.321" cy="163.862" r="5.92272" transform="rotate(90 216.321 163.862)" fill="#F9F9F9" fill-opacity="0.05"/>
<circle cx="242.832" cy="163.862" r="5.92272" transform="rotate(90 242.832 163.862)" fill="#F9F9F9" fill-opacity="0.05"/>
<circle cx="5.92298" cy="190.373" r="5.92272" transform="rotate(90 5.92298 190.373)" fill="#F9F9F9" fill-opacity="0.05"/>
<circle cx="31.8702" cy="190.373" r="5.92272" transform="rotate(90 31.8702 190.373)" fill="#F9F9F9" fill-opacity="0.05"/>
<circle cx="58.3815" cy="190.373" r="5.92272" transform="rotate(90 58.3815 190.373)" fill="#F9F9F9" fill-opacity="0.05"/>
<circle cx="84.8927" cy="190.373" r="5.92272" transform="rotate(90 84.8927 190.373)" fill="#F9F9F9" fill-opacity="0.05"/>
<circle cx="110.84" cy="190.373" r="5.92272" transform="rotate(90 110.84 190.373)" fill="#F9F9F9" fill-opacity="0.05"/>
<circle cx="137.351" cy="190.373" r="5.92272" transform="rotate(90 137.351 190.373)" fill="#F9F9F9" fill-opacity="0.05"/>
<circle cx="163.862" cy="190.373" r="5.92272" transform="rotate(90 163.862 190.373)" fill="#F9F9F9" fill-opacity="0.05"/>
<circle cx="190.374" cy="190.373" r="5.92272" transform="rotate(90 190.374 190.373)" fill="#F9F9F9" fill-opacity="0.05"/>
<circle cx="216.321" cy="190.373" r="5.92272" transform="rotate(90 216.321 190.373)" fill="#F9F9F9" fill-opacity="0.05"/>
<circle cx="242.832" cy="190.373" r="5.92272" transform="rotate(90 242.832 190.373)" fill="#F9F9F9" fill-opacity="0.05"/>
</svg>
