<svg width="60" height="60" viewBox="0 0 60 60" fill="none" xmlns="http://www.w3.org/2000/svg">
<path d="M17.9814 28.1738C17.9814 35.2693 23.7335 41.0213 30.829 41.0213C37.9246 41.0213 43.6766 35.2693 43.6766 28.1738C43.6766 21.0782 37.9246 15.3262 30.829 15.3262C23.737 15.3341 17.9894 21.0817 17.9814 28.1738ZM30.829 28.9856C28.697 28.9975 26.8905 27.4185 26.6177 25.3039C26.3449 23.1898 27.6914 21.2034 29.7568 20.6743V19.5882C29.7568 19.0963 30.1553 18.6978 30.6472 18.6978C31.1391 18.6978 31.5375 19.0963 31.5375 19.5882V20.6201C33.5577 20.962 35.0324 22.7183 35.0195 24.7678C35.0195 25.2538 34.6255 25.6478 34.1395 25.6478C33.6536 25.6478 33.2596 25.2538 33.2596 24.7678C33.2581 23.4229 32.167 22.3338 30.8221 22.3353C29.4771 22.3367 28.388 23.4283 28.39 24.7733C28.3915 26.1178 29.4831 27.2069 30.828 27.2049C33.0087 27.2173 34.8197 28.8907 35.0041 31.0639C35.1884 33.2367 33.6849 35.1913 31.5375 35.5709V36.6321C31.5375 37.124 31.1391 37.5225 30.6472 37.5225C30.1553 37.5225 29.7568 37.124 29.7568 36.6321V35.5162C27.8961 35.0248 26.5959 33.3475 26.5834 31.4232C26.5834 30.9258 26.9869 30.5224 27.4842 30.5224C27.9816 30.5224 28.385 30.9258 28.385 31.4232C28.388 32.6668 29.3251 33.7097 30.5612 33.8453C30.6069 33.8379 30.6536 33.8344 30.7003 33.8339C30.7674 33.8339 30.834 33.8418 30.8996 33.8567C32.2351 33.8239 33.2949 32.7219 33.2755 31.3864C33.2561 30.0504 32.1646 28.9796 30.829 28.9856Z" fill="white"/>
<path d="M51.4472 47.1464C51.4407 47.1499 51.4338 47.1534 51.4263 47.1569L43.1612 51.0616C43.2501 51.5192 43.2889 51.9848 43.2765 52.4508C43.2635 52.9328 42.869 53.3168 42.3871 53.3168C42.3786 53.3168 42.3702 53.3168 42.3618 53.3168L30.2654 52.9839C29.7735 52.9705 29.386 52.5611 29.3994 52.0692C29.4128 51.5774 29.8227 51.1898 30.3141 51.2032L41.4331 51.5093C41.0645 49.3544 39.2271 47.7586 37.042 47.695L29.6836 47.4927C28.2303 47.451 26.8053 47.0828 25.514 46.4156L24.7653 46.028C21.0881 44.1122 16.6572 44.3616 13.2185 46.6784L12.9238 57.3831L14.1883 56.7059C15.4448 56.0301 16.915 55.8692 18.2883 56.2572L30.7762 59.7625C33.1829 60.2554 35.6841 59.9761 37.9229 58.9635L55.2237 47.7725C54.2365 46.7619 52.7077 46.508 51.4472 47.1464Z" fill="white"/>
<path d="M4.79785 59.243L5.23657 43.3164L11.5257 43.4898L11.087 59.4164L4.79785 59.243Z" fill="white"/>
<path d="M31.6645 10.5571V0.890357C31.6645 0.398474 31.266 0 30.7742 0C30.2823 0 29.8838 0.398474 29.8838 0.890357V10.5571C29.8838 11.049 30.2823 11.4474 30.7742 11.4474C31.266 11.4474 31.6645 11.049 31.6645 10.5571Z" fill="white"/>
<path d="M39.2963 10.5572V5.97825C39.2963 5.48636 38.8979 5.08789 38.406 5.08789C37.9141 5.08789 37.5156 5.48636 37.5156 5.97825V10.5572C37.5156 11.0491 37.9141 11.4476 38.406 11.4476C38.8979 11.4476 39.2963 11.0491 39.2963 10.5572Z" fill="white"/>
<path d="M24.0327 10.5572V5.97825C24.0327 5.48636 23.6342 5.08789 23.1423 5.08789C22.6504 5.08789 22.252 5.48636 22.252 5.97825V10.5572C22.252 11.0491 22.6504 11.4476 23.1423 11.4476C23.6342 11.4476 24.0327 11.0491 24.0327 10.5572Z" fill="white"/>
</svg>
