<svg width="54" height="60" viewBox="0 0 54 60" fill="none" xmlns="http://www.w3.org/2000/svg">
<path d="M52.2639 6.8211L27.7716 0.0620946C27.4683 -0.0206396 27.1206 -0.0207568 26.821 0.0620946C25.7969 0.344633 3.17213 6.58814 2.32852 6.82075C1.40034 7.07692 0.801127 8.03071 0.935871 9.03747L3.09155 25.1393C5.0759 39.9658 13.7706 52.9362 26.424 59.7729C26.4248 59.7732 26.4257 59.7737 26.4265 59.7742C26.9453 60.0587 27.5698 60.0913 28.1661 59.7742C28.1668 59.7738 28.1676 59.7733 28.1684 59.773C40.7889 52.9534 49.5109 40.008 51.5008 25.1395L53.6564 9.03782C53.7914 8.03095 53.1921 7.07716 52.2639 6.8211ZM47.7653 24.5774C46.095 37.0576 39.2309 48.055 29.1829 54.5886V4.58494L49.6844 10.2426L47.7653 24.5774Z" fill="white"/>
</svg>
