<svg width="61" height="60" viewBox="0 0 61 60" fill="none" xmlns="http://www.w3.org/2000/svg">
<g clip-path="url(#clip0)">
<path d="M9.9043 28.125C11.3224 28.125 12.606 27.556 13.5545 26.6423L18.7579 29.2438C18.7318 29.4557 18.6934 29.664 18.6934 29.8828C18.6934 32.7905 21.0591 35.1562 23.9668 35.1562C26.8745 35.1562 29.2402 32.7905 29.2402 29.8828C29.2402 29.0712 29.0406 28.3113 28.7115 27.6237L35.7702 20.565C36.4578 20.8942 37.2177 21.0938 38.0293 21.0938C40.937 21.0938 43.3027 18.728 43.3027 15.8203C43.3027 15.2728 43.1952 14.7551 43.0395 14.2584L49.1726 9.65973C50.0094 10.2187 51.0124 10.5469 52.0918 10.5469C54.9995 10.5469 57.3652 8.18115 57.3652 5.27344C57.3652 2.36572 54.9995 0 52.0918 0C49.1841 0 46.8184 2.36572 46.8184 5.27344C46.8184 5.82092 46.9259 6.33865 47.0816 6.83533L40.9485 11.434C40.1117 10.8751 39.1087 10.5469 38.0293 10.5469C35.1216 10.5469 32.7559 12.9126 32.7559 15.8203C32.7559 16.6319 32.9554 17.3918 33.2846 18.0794L26.2259 25.1381C25.5383 24.809 24.7784 24.6094 23.9668 24.6094C22.5486 24.6094 21.2651 25.1784 20.3166 26.0921L15.1132 23.4906C15.1393 23.2787 15.1777 23.0704 15.1777 22.8516C15.1777 19.9438 12.812 17.5781 9.9043 17.5781C6.99658 17.5781 4.63086 19.9438 4.63086 22.8516C4.63086 25.7593 6.99658 28.125 9.9043 28.125Z" fill="white"/>
<path d="M59.2402 56.4844H57.3652V19.3359C57.3652 18.3646 56.5788 17.5781 55.6074 17.5781H48.5762C47.6048 17.5781 46.8184 18.3646 46.8184 19.3359V56.4844H43.3027V29.8828C43.3027 28.9114 42.5163 28.125 41.5449 28.125H34.5137C33.5423 28.125 32.7559 28.9114 32.7559 29.8828V56.4844H29.2402V43.9453C29.2402 42.9739 28.4538 42.1875 27.4824 42.1875H20.4512C19.4798 42.1875 18.6934 42.9739 18.6934 43.9453V56.4844H15.1777V36.9141C15.1777 35.9427 14.3913 35.1562 13.4199 35.1562H6.38867C5.4173 35.1562 4.63086 35.9427 4.63086 36.9141V56.4844H2.75586C1.78448 56.4844 0.998047 57.2708 0.998047 58.2422C0.998047 59.2136 1.78448 60 2.75586 60H59.2402C60.2116 60 60.998 59.2136 60.998 58.2422C60.998 57.2708 60.2116 56.4844 59.2402 56.4844Z" fill="white"/>
</g>
<defs>
<clipPath id="clip0">
<rect x="0.998047" width="60" height="60" fill="white"/>
</clipPath>
</defs>
</svg>
