<svg width="285" height="353" viewBox="0 0 285 353" fill="none" xmlns="http://www.w3.org/2000/svg">
<circle cx="-9.45241" cy="10.6428" r="10.6428" transform="rotate(90 -9.45241 10.6428)" fill="#F9FCFF" fill-opacity="0.06"/>
<circle cx="37.1736" cy="10.6428" r="10.6428" transform="rotate(90 37.1736 10.6428)" fill="#F9FCFF" fill-opacity="0.06"/>
<circle cx="84.8132" cy="10.6428" r="10.6428" transform="rotate(90 84.8132 10.6428)" fill="#F9FCFF" fill-opacity="0.06"/>
<circle cx="132.453" cy="10.6428" r="10.6428" transform="rotate(90 132.453 10.6428)" fill="#F9FCFF" fill-opacity="0.06"/>
<circle cx="180.092" cy="10.6428" r="10.6428" transform="rotate(90 180.092 10.6428)" fill="#F9FCFF" fill-opacity="0.06"/>
<circle cx="226.718" cy="10.6428" r="10.6428" transform="rotate(90 226.718 10.6428)" fill="#F9FCFF" fill-opacity="0.06"/>
<circle cx="274.357" cy="10.6428" r="10.6428" transform="rotate(90 274.357 10.6428)" fill="#F9FCFF" fill-opacity="0.06"/>
<circle cx="-9.45241" cy="58.2815" r="10.6428" transform="rotate(90 -9.45241 58.2815)" fill="#F9FCFF" fill-opacity="0.06"/>
<circle cx="37.1736" cy="58.2815" r="10.6428" transform="rotate(90 37.1736 58.2815)" fill="#F9FCFF" fill-opacity="0.06"/>
<circle cx="84.8132" cy="58.2815" r="10.6428" transform="rotate(90 84.8132 58.2815)" fill="#F9FCFF" fill-opacity="0.06"/>
<circle cx="132.453" cy="58.2815" r="10.6428" transform="rotate(90 132.453 58.2815)" fill="#F9FCFF" fill-opacity="0.06"/>
<circle cx="180.092" cy="58.2815" r="10.6428" transform="rotate(90 180.092 58.2815)" fill="#F9FCFF" fill-opacity="0.06"/>
<circle cx="226.718" cy="58.2815" r="10.6428" transform="rotate(90 226.718 58.2815)" fill="#F9FCFF" fill-opacity="0.06"/>
<circle cx="274.357" cy="58.2835" r="10.6428" transform="rotate(90 274.357 58.2835)" fill="#F9FCFF" fill-opacity="0.06"/>
<circle cx="-9.45241" cy="104.908" r="10.6428" transform="rotate(90 -9.45241 104.908)" fill="#F9FCFF" fill-opacity="0.06"/>
<circle cx="37.1736" cy="104.908" r="10.6428" transform="rotate(90 37.1736 104.908)" fill="#F9FCFF" fill-opacity="0.06"/>
<circle cx="84.8132" cy="104.908" r="10.6428" transform="rotate(90 84.8132 104.908)" fill="#F9FCFF" fill-opacity="0.06"/>
<circle cx="132.453" cy="104.908" r="10.6428" transform="rotate(90 132.453 104.908)" fill="#F9FCFF" fill-opacity="0.06"/>
<circle cx="180.092" cy="104.908" r="10.6428" transform="rotate(90 180.092 104.908)" fill="#F9FCFF" fill-opacity="0.06"/>
<circle cx="226.718" cy="104.908" r="10.6428" transform="rotate(90 226.718 104.908)" fill="#F9FCFF" fill-opacity="0.06"/>
<circle cx="274.357" cy="104.908" r="10.6428" transform="rotate(90 274.357 104.908)" fill="#F9FCFF" fill-opacity="0.06"/>
<circle cx="-9.45241" cy="152.547" r="10.6428" transform="rotate(90 -9.45241 152.547)" fill="#F9FCFF" fill-opacity="0.06"/>
<circle cx="37.1736" cy="152.547" r="10.6428" transform="rotate(90 37.1736 152.547)" fill="#F9FCFF" fill-opacity="0.06"/>
<circle cx="84.8132" cy="152.547" r="10.6428" transform="rotate(90 84.8132 152.547)" fill="#F9FCFF" fill-opacity="0.06"/>
<circle cx="132.453" cy="152.547" r="10.6428" transform="rotate(90 132.453 152.547)" fill="#F9FCFF" fill-opacity="0.06"/>
<circle cx="180.092" cy="152.547" r="10.6428" transform="rotate(90 180.092 152.547)" fill="#F9FCFF" fill-opacity="0.06"/>
<circle cx="226.718" cy="152.547" r="10.6428" transform="rotate(90 226.718 152.547)" fill="#F9FCFF" fill-opacity="0.06"/>
<circle cx="274.357" cy="152.547" r="10.6428" transform="rotate(90 274.357 152.547)" fill="#F9FCFF" fill-opacity="0.06"/>
<circle cx="-9.45241" cy="200.188" r="10.6428" transform="rotate(90 -9.45241 200.188)" fill="#F9FCFF" fill-opacity="0.06"/>
<circle cx="37.1736" cy="200.186" r="10.6428" transform="rotate(90 37.1736 200.186)" fill="#F9FCFF" fill-opacity="0.06"/>
<circle cx="84.8132" cy="200.188" r="10.6428" transform="rotate(90 84.8132 200.188)" fill="#F9FCFF" fill-opacity="0.06"/>
<circle cx="132.453" cy="200.188" r="10.6428" transform="rotate(90 132.453 200.188)" fill="#F9FCFF" fill-opacity="0.06"/>
<circle cx="180.092" cy="200.188" r="10.6428" transform="rotate(90 180.092 200.188)" fill="#F9FCFF" fill-opacity="0.06"/>
<circle cx="226.718" cy="200.188" r="10.6428" transform="rotate(90 226.718 200.188)" fill="#F9FCFF" fill-opacity="0.06"/>
<circle cx="274.357" cy="200.188" r="10.6428" transform="rotate(90 274.357 200.188)" fill="#F9FCFF" fill-opacity="0.06"/>
<circle cx="-9.45241" cy="247.826" r="10.6428" transform="rotate(90 -9.45241 247.826)" fill="#F9FCFF" fill-opacity="0.06"/>
<circle cx="37.1736" cy="247.826" r="10.6428" transform="rotate(90 37.1736 247.826)" fill="#F9FCFF" fill-opacity="0.06"/>
<circle cx="84.8132" cy="247.826" r="10.6428" transform="rotate(90 84.8132 247.826)" fill="#F9FCFF" fill-opacity="0.06"/>
<circle cx="132.453" cy="247.826" r="10.6428" transform="rotate(90 132.453 247.826)" fill="#F9FCFF" fill-opacity="0.06"/>
<circle cx="180.092" cy="247.826" r="10.6428" transform="rotate(90 180.092 247.826)" fill="#F9FCFF" fill-opacity="0.06"/>
<circle cx="226.718" cy="247.826" r="10.6428" transform="rotate(90 226.718 247.826)" fill="#F9FCFF" fill-opacity="0.06"/>
<circle cx="274.357" cy="247.826" r="10.6428" transform="rotate(90 274.357 247.826)" fill="#F9FCFF" fill-opacity="0.06"/>
<circle cx="-9.45241" cy="294.451" r="10.6428" transform="rotate(90 -9.45241 294.451)" fill="#F9FCFF" fill-opacity="0.06"/>
<circle cx="37.1736" cy="294.451" r="10.6428" transform="rotate(90 37.1736 294.451)" fill="#F9FCFF" fill-opacity="0.06"/>
<circle cx="84.8132" cy="294.451" r="10.6428" transform="rotate(90 84.8132 294.451)" fill="#F9FCFF" fill-opacity="0.06"/>
<circle cx="132.453" cy="294.451" r="10.6428" transform="rotate(90 132.453 294.451)" fill="#F9FCFF" fill-opacity="0.06"/>
<circle cx="180.092" cy="294.451" r="10.6428" transform="rotate(90 180.092 294.451)" fill="#F9FCFF" fill-opacity="0.06"/>
<circle cx="226.718" cy="294.451" r="10.6428" transform="rotate(90 226.718 294.451)" fill="#F9FCFF" fill-opacity="0.06"/>
<circle cx="274.357" cy="294.451" r="10.6428" transform="rotate(90 274.357 294.451)" fill="#F9FCFF" fill-opacity="0.06"/>
<circle cx="-9.45241" cy="342.092" r="10.6428" transform="rotate(90 -9.45241 342.092)" fill="#F9FCFF" fill-opacity="0.06"/>
<circle cx="37.1736" cy="342.092" r="10.6428" transform="rotate(90 37.1736 342.092)" fill="#F9FCFF" fill-opacity="0.06"/>
<circle cx="84.8132" cy="342.092" r="10.6428" transform="rotate(90 84.8132 342.092)" fill="#F9FCFF" fill-opacity="0.06"/>
<circle cx="132.453" cy="342.092" r="10.6428" transform="rotate(90 132.453 342.092)" fill="#F9FCFF" fill-opacity="0.06"/>
<circle cx="180.092" cy="342.092" r="10.6428" transform="rotate(90 180.092 342.092)" fill="#F9FCFF" fill-opacity="0.06"/>
<circle cx="226.718" cy="342.092" r="10.6428" transform="rotate(90 226.718 342.092)" fill="#F9FCFF" fill-opacity="0.06"/>
<circle cx="274.357" cy="342.092" r="10.6428" transform="rotate(90 274.357 342.092)" fill="#F9FCFF" fill-opacity="0.06"/>
</svg>
