<svg width="101" height="192" viewBox="0 0 101 192" fill="none" xmlns="http://www.w3.org/2000/svg">
<ellipse cx="14.1197" cy="5.79003" rx="5.79003" ry="6.00431" transform="rotate(90 14.1197 5.79003)" fill="#F9FCFF" fill-opacity="0.06"/>
<ellipse cx="40.9957" cy="5.79003" rx="5.79003" ry="6.00431" transform="rotate(90 40.9957 5.79003)" fill="#F9FCFF" fill-opacity="0.06"/>
<ellipse cx="67.3004" cy="5.79003" rx="5.79003" ry="6.00431" transform="rotate(90 67.3004 5.79003)" fill="#F9FCFF" fill-opacity="0.06"/>
<ellipse cx="94.1773" cy="5.79003" rx="5.79003" ry="6.00431" transform="rotate(90 94.1773 5.79003)" fill="#F9FCFF" fill-opacity="0.06"/>
<ellipse cx="14.1197" cy="31.706" rx="5.79003" ry="6.00431" transform="rotate(90 14.1197 31.706)" fill="#F9FCFF" fill-opacity="0.06"/>
<ellipse cx="40.9957" cy="31.706" rx="5.79003" ry="6.00431" transform="rotate(90 40.9957 31.706)" fill="#F9FCFF" fill-opacity="0.06"/>
<ellipse cx="67.3004" cy="31.706" rx="5.79003" ry="6.00431" transform="rotate(90 67.3004 31.706)" fill="#F9FCFF" fill-opacity="0.06"/>
<ellipse cx="94.1773" cy="31.708" rx="5.79003" ry="6.00431" transform="rotate(90 94.1773 31.708)" fill="#F9FCFF" fill-opacity="0.06"/>
<ellipse cx="14.1197" cy="57.0732" rx="5.79003" ry="6.00431" transform="rotate(90 14.1197 57.0732)" fill="#F9FCFF" fill-opacity="0.06"/>
<ellipse cx="40.9957" cy="57.0732" rx="5.79003" ry="6.00431" transform="rotate(90 40.9957 57.0732)" fill="#F9FCFF" fill-opacity="0.06"/>
<ellipse cx="67.3004" cy="57.0732" rx="5.79003" ry="6.00431" transform="rotate(90 67.3004 57.0732)" fill="#F9FCFF" fill-opacity="0.06"/>
<ellipse cx="94.1773" cy="57.0732" rx="5.79003" ry="6.00431" transform="rotate(90 94.1773 57.0732)" fill="#F9FCFF" fill-opacity="0.06"/>
<ellipse cx="14.1197" cy="82.9912" rx="5.79003" ry="6.00431" transform="rotate(90 14.1197 82.9912)" fill="#F9FCFF" fill-opacity="0.06"/>
<ellipse cx="40.9957" cy="82.9912" rx="5.79003" ry="6.00431" transform="rotate(90 40.9957 82.9912)" fill="#F9FCFF" fill-opacity="0.06"/>
<ellipse cx="67.3004" cy="82.9912" rx="5.79003" ry="6.00431" transform="rotate(90 67.3004 82.9912)" fill="#F9FCFF" fill-opacity="0.06"/>
<ellipse cx="94.1773" cy="82.9912" rx="5.79003" ry="6.00431" transform="rotate(90 94.1773 82.9912)" fill="#F9FCFF" fill-opacity="0.06"/>
<ellipse cx="14.1197" cy="108.907" rx="5.79003" ry="6.00431" transform="rotate(90 14.1197 108.907)" fill="#F9FCFF" fill-opacity="0.06"/>
<ellipse cx="40.9957" cy="108.907" rx="5.79003" ry="6.00431" transform="rotate(90 40.9957 108.907)" fill="#F9FCFF" fill-opacity="0.06"/>
<ellipse cx="67.3004" cy="108.907" rx="5.79003" ry="6.00431" transform="rotate(90 67.3004 108.907)" fill="#F9FCFF" fill-opacity="0.06"/>
<ellipse cx="94.1773" cy="108.907" rx="5.79003" ry="6.00431" transform="rotate(90 94.1773 108.907)" fill="#F9FCFF" fill-opacity="0.06"/>
<ellipse cx="14.1197" cy="134.825" rx="5.79003" ry="6.00431" transform="rotate(90 14.1197 134.825)" fill="#F9FCFF" fill-opacity="0.06"/>
<ellipse cx="40.9957" cy="134.825" rx="5.79003" ry="6.00431" transform="rotate(90 40.9957 134.825)" fill="#F9FCFF" fill-opacity="0.06"/>
<ellipse cx="67.3004" cy="134.825" rx="5.79003" ry="6.00431" transform="rotate(90 67.3004 134.825)" fill="#F9FCFF" fill-opacity="0.06"/>
<ellipse cx="94.1773" cy="134.825" rx="5.79003" ry="6.00431" transform="rotate(90 94.1773 134.825)" fill="#F9FCFF" fill-opacity="0.06"/>
<ellipse cx="14.1197" cy="160.19" rx="5.79003" ry="6.00431" transform="rotate(90 14.1197 160.19)" fill="#F9FCFF" fill-opacity="0.06"/>
<ellipse cx="40.9957" cy="160.19" rx="5.79003" ry="6.00431" transform="rotate(90 40.9957 160.19)" fill="#F9FCFF" fill-opacity="0.06"/>
<ellipse cx="67.3004" cy="160.19" rx="5.79003" ry="6.00431" transform="rotate(90 67.3004 160.19)" fill="#F9FCFF" fill-opacity="0.06"/>
<ellipse cx="94.1773" cy="160.19" rx="5.79003" ry="6.00431" transform="rotate(90 94.1773 160.19)" fill="#F9FCFF" fill-opacity="0.06"/>
<ellipse cx="14.1197" cy="186.108" rx="5.79003" ry="6.00431" transform="rotate(90 14.1197 186.108)" fill="#F9FCFF" fill-opacity="0.06"/>
<ellipse cx="40.9957" cy="186.108" rx="5.79003" ry="6.00431" transform="rotate(90 40.9957 186.108)" fill="#F9FCFF" fill-opacity="0.06"/>
<ellipse cx="67.3004" cy="186.108" rx="5.79003" ry="6.00431" transform="rotate(90 67.3004 186.108)" fill="#F9FCFF" fill-opacity="0.06"/>
<ellipse cx="94.1773" cy="186.108" rx="5.79003" ry="6.00431" transform="rotate(90 94.1773 186.108)" fill="#F9FCFF" fill-opacity="0.06"/>
</svg>
