<svg width="169" height="133" viewBox="0 0 169 133" fill="none" xmlns="http://www.w3.org/2000/svg">
<circle cx="4.01246" cy="4.01293" r="4.01293" transform="rotate(90 4.01246 4.01293)" fill="#E2EEFF"/>
<circle cx="21.5935" cy="4.01293" r="4.01293" transform="rotate(90 21.5935 4.01293)" fill="#E2EEFF"/>
<circle cx="39.5554" cy="4.01293" r="4.01293" transform="rotate(90 39.5554 4.01293)" fill="#E2EEFF"/>
<circle cx="57.5183" cy="4.01293" r="4.01293" transform="rotate(90 57.5183 4.01293)" fill="#E2EEFF"/>
<circle cx="75.0994" cy="4.01293" r="4.01293" transform="rotate(90 75.0994 4.01293)" fill="#E2EEFF"/>
<circle cx="93.0613" cy="4.01293" r="4.01293" transform="rotate(90 93.0613 4.01293)" fill="#E2EEFF"/>
<circle cx="111.024" cy="4.01293" r="4.01293" transform="rotate(90 111.024 4.01293)" fill="#E2EEFF"/>
<circle cx="128.987" cy="4.01293" r="4.01293" transform="rotate(90 128.987 4.01293)" fill="#E2EEFF"/>
<circle cx="146.567" cy="4.01293" r="4.01293" transform="rotate(90 146.567 4.01293)" fill="#E2EEFF"/>
<circle cx="164.53" cy="4.01293" r="4.01293" transform="rotate(90 164.53 4.01293)" fill="#E2EEFF"/>
<circle cx="4.01246" cy="21.9758" r="4.01293" transform="rotate(90 4.01246 21.9758)" fill="#E2EEFF"/>
<circle cx="21.5935" cy="21.9758" r="4.01293" transform="rotate(90 21.5935 21.9758)" fill="#E2EEFF"/>
<circle cx="39.5554" cy="21.9758" r="4.01293" transform="rotate(90 39.5554 21.9758)" fill="#E2EEFF"/>
<circle cx="57.5183" cy="21.9758" r="4.01293" transform="rotate(90 57.5183 21.9758)" fill="#E2EEFF"/>
<circle cx="75.0994" cy="21.9758" r="4.01293" transform="rotate(90 75.0994 21.9758)" fill="#E2EEFF"/>
<circle cx="93.0613" cy="21.9758" r="4.01293" transform="rotate(90 93.0613 21.9758)" fill="#E2EEFF"/>
<circle cx="111.024" cy="21.9758" r="4.01293" transform="rotate(90 111.024 21.9758)" fill="#E2EEFF"/>
<circle cx="128.987" cy="21.9758" r="4.01293" transform="rotate(90 128.987 21.9758)" fill="#E2EEFF"/>
<circle cx="146.567" cy="21.9758" r="4.01293" transform="rotate(90 146.567 21.9758)" fill="#E2EEFF"/>
<circle cx="164.53" cy="21.9758" r="4.01293" transform="rotate(90 164.53 21.9758)" fill="#E2EEFF"/>
<circle cx="4.01246" cy="39.5559" r="4.01293" transform="rotate(90 4.01246 39.5559)" fill="#E2EEFF"/>
<circle cx="21.5935" cy="39.5559" r="4.01293" transform="rotate(90 21.5935 39.5559)" fill="#E2EEFF"/>
<circle cx="39.5554" cy="39.5559" r="4.01293" transform="rotate(90 39.5554 39.5559)" fill="#E2EEFF"/>
<circle cx="57.5183" cy="39.5559" r="4.01293" transform="rotate(90 57.5183 39.5559)" fill="#E2EEFF"/>
<circle cx="75.0994" cy="39.5559" r="4.01293" transform="rotate(90 75.0994 39.5559)" fill="#E2EEFF"/>
<circle cx="93.0613" cy="39.5559" r="4.01293" transform="rotate(90 93.0613 39.5559)" fill="#E2EEFF"/>
<circle cx="111.024" cy="39.5559" r="4.01293" transform="rotate(90 111.024 39.5559)" fill="#E2EEFF"/>
<circle cx="128.987" cy="39.5559" r="4.01293" transform="rotate(90 128.987 39.5559)" fill="#E2EEFF"/>
<circle cx="146.567" cy="39.5559" r="4.01293" transform="rotate(90 146.567 39.5559)" fill="#E2EEFF"/>
<circle cx="164.53" cy="39.5559" r="4.01293" transform="rotate(90 164.53 39.5559)" fill="#E2EEFF"/>
<circle cx="4.01246" cy="57.5188" r="4.01293" transform="rotate(90 4.01246 57.5188)" fill="#E2EEFF"/>
<circle cx="21.5935" cy="57.5188" r="4.01293" transform="rotate(90 21.5935 57.5188)" fill="#E2EEFF"/>
<circle cx="39.5554" cy="57.5188" r="4.01293" transform="rotate(90 39.5554 57.5188)" fill="#E2EEFF"/>
<circle cx="57.5183" cy="57.5188" r="4.01293" transform="rotate(90 57.5183 57.5188)" fill="#E2EEFF"/>
<circle cx="75.0994" cy="57.5188" r="4.01293" transform="rotate(90 75.0994 57.5188)" fill="#E2EEFF"/>
<circle cx="93.0613" cy="57.5188" r="4.01293" transform="rotate(90 93.0613 57.5188)" fill="#E2EEFF"/>
<circle cx="111.024" cy="57.5188" r="4.01293" transform="rotate(90 111.024 57.5188)" fill="#E2EEFF"/>
<circle cx="128.987" cy="57.5188" r="4.01293" transform="rotate(90 128.987 57.5188)" fill="#E2EEFF"/>
<circle cx="146.567" cy="57.5188" r="4.01293" transform="rotate(90 146.567 57.5188)" fill="#E2EEFF"/>
<circle cx="164.53" cy="57.5188" r="4.01293" transform="rotate(90 164.53 57.5188)" fill="#E2EEFF"/>
<circle cx="4.01246" cy="75.4817" r="4.01293" transform="rotate(90 4.01246 75.4817)" fill="#E2EEFF"/>
<circle cx="21.5935" cy="75.4817" r="4.01293" transform="rotate(90 21.5935 75.4817)" fill="#E2EEFF"/>
<circle cx="39.5554" cy="75.4817" r="4.01293" transform="rotate(90 39.5554 75.4817)" fill="#E2EEFF"/>
<circle cx="57.5183" cy="75.4817" r="4.01293" transform="rotate(90 57.5183 75.4817)" fill="#E2EEFF"/>
<circle cx="75.0994" cy="75.4817" r="4.01293" transform="rotate(90 75.0994 75.4817)" fill="#E2EEFF"/>
<circle cx="93.0613" cy="75.4817" r="4.01293" transform="rotate(90 93.0613 75.4817)" fill="#E2EEFF"/>
<circle cx="111.024" cy="75.4817" r="4.01293" transform="rotate(90 111.024 75.4817)" fill="#E2EEFF"/>
<circle cx="128.987" cy="75.4817" r="4.01293" transform="rotate(90 128.987 75.4817)" fill="#E2EEFF"/>
<circle cx="146.567" cy="75.4817" r="4.01293" transform="rotate(90 146.567 75.4817)" fill="#E2EEFF"/>
<circle cx="164.53" cy="75.4817" r="4.01293" transform="rotate(90 164.53 75.4817)" fill="#E2EEFF"/>
<circle cx="4.01246" cy="93.4446" r="4.01293" transform="rotate(90 4.01246 93.4446)" fill="#E2EEFF"/>
<circle cx="21.5935" cy="93.4446" r="4.01293" transform="rotate(90 21.5935 93.4446)" fill="#E2EEFF"/>
<circle cx="39.5554" cy="93.4446" r="4.01293" transform="rotate(90 39.5554 93.4446)" fill="#E2EEFF"/>
<circle cx="57.5183" cy="93.4446" r="4.01293" transform="rotate(90 57.5183 93.4446)" fill="#E2EEFF"/>
<circle cx="75.0994" cy="93.4446" r="4.01293" transform="rotate(90 75.0994 93.4446)" fill="#E2EEFF"/>
<circle cx="93.0613" cy="93.4446" r="4.01293" transform="rotate(90 93.0613 93.4446)" fill="#E2EEFF"/>
<circle cx="111.024" cy="93.4446" r="4.01293" transform="rotate(90 111.024 93.4446)" fill="#E2EEFF"/>
<circle cx="128.987" cy="93.4446" r="4.01293" transform="rotate(90 128.987 93.4446)" fill="#E2EEFF"/>
<circle cx="146.567" cy="93.4446" r="4.01293" transform="rotate(90 146.567 93.4446)" fill="#E2EEFF"/>
<circle cx="164.53" cy="93.4446" r="4.01293" transform="rotate(90 164.53 93.4446)" fill="#E2EEFF"/>
<circle cx="4.01246" cy="111.025" r="4.01293" transform="rotate(90 4.01246 111.025)" fill="#E2EEFF"/>
<circle cx="21.5935" cy="111.025" r="4.01293" transform="rotate(90 21.5935 111.025)" fill="#E2EEFF"/>
<circle cx="39.5554" cy="111.025" r="4.01293" transform="rotate(90 39.5554 111.025)" fill="#E2EEFF"/>
<circle cx="57.5183" cy="111.025" r="4.01293" transform="rotate(90 57.5183 111.025)" fill="#E2EEFF"/>
<circle cx="75.0994" cy="111.025" r="4.01293" transform="rotate(90 75.0994 111.025)" fill="#E2EEFF"/>
<circle cx="93.0613" cy="111.025" r="4.01293" transform="rotate(90 93.0613 111.025)" fill="#E2EEFF"/>
<circle cx="111.024" cy="111.025" r="4.01293" transform="rotate(90 111.024 111.025)" fill="#E2EEFF"/>
<circle cx="128.987" cy="111.025" r="4.01293" transform="rotate(90 128.987 111.025)" fill="#E2EEFF"/>
<circle cx="146.567" cy="111.025" r="4.01293" transform="rotate(90 146.567 111.025)" fill="#E2EEFF"/>
<circle cx="164.53" cy="111.025" r="4.01293" transform="rotate(90 164.53 111.025)" fill="#E2EEFF"/>
<circle cx="4.01246" cy="128.988" r="4.01293" transform="rotate(90 4.01246 128.988)" fill="#E2EEFF"/>
<circle cx="21.5935" cy="128.988" r="4.01293" transform="rotate(90 21.5935 128.988)" fill="#E2EEFF"/>
<circle cx="39.5554" cy="128.988" r="4.01293" transform="rotate(90 39.5554 128.988)" fill="#E2EEFF"/>
<circle cx="57.5183" cy="128.988" r="4.01293" transform="rotate(90 57.5183 128.988)" fill="#E2EEFF"/>
<circle cx="75.0994" cy="128.988" r="4.01293" transform="rotate(90 75.0994 128.988)" fill="#E2EEFF"/>
<circle cx="93.0613" cy="128.988" r="4.01293" transform="rotate(90 93.0613 128.988)" fill="#E2EEFF"/>
<circle cx="111.024" cy="128.988" r="4.01293" transform="rotate(90 111.024 128.988)" fill="#E2EEFF"/>
<circle cx="128.987" cy="128.988" r="4.01293" transform="rotate(90 128.987 128.988)" fill="#E2EEFF"/>
<circle cx="146.567" cy="128.988" r="4.01293" transform="rotate(90 146.567 128.988)" fill="#E2EEFF"/>
<circle cx="164.53" cy="128.988" r="4.01293" transform="rotate(90 164.53 128.988)" fill="#E2EEFF"/>
</svg>
