<svg width="187" height="237" viewBox="0 0 187 237" fill="none" xmlns="http://www.w3.org/2000/svg">
<circle cx="181.364" cy="5.93659" r="5.63568" transform="rotate(-180 181.364 5.93659)" fill="#E2EEFF"/>
<circle cx="181.364" cy="30.626" r="5.63568" transform="rotate(-180 181.364 30.626)" fill="#E2EEFF"/>
<circle cx="181.364" cy="55.8526" r="5.63568" transform="rotate(-180 181.364 55.8526)" fill="#E2EEFF"/>
<circle cx="181.364" cy="81.0792" r="5.63568" transform="rotate(-180 181.364 81.0792)" fill="#E2EEFF"/>
<circle cx="181.364" cy="105.769" r="5.63568" transform="rotate(-180 181.364 105.769)" fill="#E2EEFF"/>
<circle cx="181.364" cy="130.995" r="5.63568" transform="rotate(-180 181.364 130.995)" fill="#E2EEFF"/>
<circle cx="181.364" cy="156.222" r="5.63568" transform="rotate(-180 181.364 156.222)" fill="#E2EEFF"/>
<circle cx="181.364" cy="181.448" r="5.63568" transform="rotate(-180 181.364 181.448)" fill="#E2EEFF"/>
<circle cx="181.364" cy="206.138" r="5.63568" transform="rotate(-180 181.364 206.138)" fill="#E2EEFF"/>
<circle cx="181.364" cy="231.364" r="5.63568" transform="rotate(-180 181.364 231.364)" fill="#E2EEFF"/>
<circle cx="156.138" cy="5.93659" r="5.63568" transform="rotate(-180 156.138 5.93659)" fill="#E2EEFF"/>
<circle cx="156.138" cy="30.626" r="5.63568" transform="rotate(-180 156.138 30.626)" fill="#E2EEFF"/>
<circle cx="156.138" cy="55.8526" r="5.63568" transform="rotate(-180 156.138 55.8526)" fill="#E2EEFF"/>
<circle cx="156.138" cy="81.0792" r="5.63568" transform="rotate(-180 156.138 81.0792)" fill="#E2EEFF"/>
<circle cx="156.138" cy="105.769" r="5.63568" transform="rotate(-180 156.138 105.769)" fill="#E2EEFF"/>
<circle cx="156.138" cy="130.995" r="5.63568" transform="rotate(-180 156.138 130.995)" fill="#E2EEFF"/>
<circle cx="156.138" cy="156.222" r="5.63568" transform="rotate(-180 156.138 156.222)" fill="#E2EEFF"/>
<circle cx="156.138" cy="181.448" r="5.63568" transform="rotate(-180 156.138 181.448)" fill="#E2EEFF"/>
<circle cx="156.138" cy="206.138" r="5.63568" transform="rotate(-180 156.138 206.138)" fill="#E2EEFF"/>
<circle cx="156.138" cy="231.364" r="5.63568" transform="rotate(-180 156.138 231.364)" fill="#E2EEFF"/>
<circle cx="131.448" cy="5.93659" r="5.63568" transform="rotate(-180 131.448 5.93659)" fill="#E2EEFF"/>
<circle cx="131.448" cy="30.626" r="5.63568" transform="rotate(-180 131.448 30.626)" fill="#E2EEFF"/>
<circle cx="131.448" cy="55.8526" r="5.63568" transform="rotate(-180 131.448 55.8526)" fill="#E2EEFF"/>
<circle cx="131.448" cy="81.0792" r="5.63568" transform="rotate(-180 131.448 81.0792)" fill="#E2EEFF"/>
<circle cx="131.448" cy="105.769" r="5.63568" transform="rotate(-180 131.448 105.769)" fill="#E2EEFF"/>
<circle cx="131.448" cy="130.995" r="5.63568" transform="rotate(-180 131.448 130.995)" fill="#E2EEFF"/>
<circle cx="131.448" cy="156.222" r="5.63568" transform="rotate(-180 131.448 156.222)" fill="#E2EEFF"/>
<circle cx="131.448" cy="181.448" r="5.63568" transform="rotate(-180 131.448 181.448)" fill="#E2EEFF"/>
<circle cx="131.448" cy="206.138" r="5.63568" transform="rotate(-180 131.448 206.138)" fill="#E2EEFF"/>
<circle cx="131.448" cy="231.364" r="5.63568" transform="rotate(-180 131.448 231.364)" fill="#E2EEFF"/>
<circle cx="106.222" cy="5.93659" r="5.63568" transform="rotate(-180 106.222 5.93659)" fill="#E2EEFF"/>
<circle cx="106.222" cy="30.626" r="5.63568" transform="rotate(-180 106.222 30.626)" fill="#E2EEFF"/>
<circle cx="106.222" cy="55.8526" r="5.63568" transform="rotate(-180 106.222 55.8526)" fill="#E2EEFF"/>
<circle cx="106.222" cy="81.0792" r="5.63568" transform="rotate(-180 106.222 81.0792)" fill="#E2EEFF"/>
<circle cx="106.222" cy="105.769" r="5.63568" transform="rotate(-180 106.222 105.769)" fill="#E2EEFF"/>
<circle cx="106.222" cy="130.995" r="5.63568" transform="rotate(-180 106.222 130.995)" fill="#E2EEFF"/>
<circle cx="106.222" cy="156.222" r="5.63568" transform="rotate(-180 106.222 156.222)" fill="#E2EEFF"/>
<circle cx="106.222" cy="181.448" r="5.63568" transform="rotate(-180 106.222 181.448)" fill="#E2EEFF"/>
<circle cx="106.222" cy="206.138" r="5.63568" transform="rotate(-180 106.222 206.138)" fill="#E2EEFF"/>
<circle cx="106.222" cy="231.364" r="5.63568" transform="rotate(-180 106.222 231.364)" fill="#E2EEFF"/>
<circle cx="80.9962" cy="5.93659" r="5.63568" transform="rotate(-180 80.9962 5.93659)" fill="#E2EEFF"/>
<circle cx="80.9962" cy="30.626" r="5.63568" transform="rotate(-180 80.9962 30.626)" fill="#E2EEFF"/>
<circle cx="80.9962" cy="55.8526" r="5.63568" transform="rotate(-180 80.9962 55.8526)" fill="#E2EEFF"/>
<circle cx="80.9962" cy="81.0792" r="5.63568" transform="rotate(-180 80.9962 81.0792)" fill="#E2EEFF"/>
<circle cx="80.9962" cy="105.769" r="5.63568" transform="rotate(-180 80.9962 105.769)" fill="#E2EEFF"/>
<circle cx="80.9962" cy="130.995" r="5.63568" transform="rotate(-180 80.9962 130.995)" fill="#E2EEFF"/>
<circle cx="80.9962" cy="156.222" r="5.63568" transform="rotate(-180 80.9962 156.222)" fill="#E2EEFF"/>
<circle cx="80.9962" cy="181.448" r="5.63568" transform="rotate(-180 80.9962 181.448)" fill="#E2EEFF"/>
<circle cx="80.9962" cy="206.138" r="5.63568" transform="rotate(-180 80.9962 206.138)" fill="#E2EEFF"/>
<circle cx="80.9962" cy="231.364" r="5.63568" transform="rotate(-180 80.9962 231.364)" fill="#E2EEFF"/>
<circle cx="55.7696" cy="5.93659" r="5.63568" transform="rotate(-180 55.7696 5.93659)" fill="#E2EEFF"/>
<circle cx="55.7696" cy="30.626" r="5.63568" transform="rotate(-180 55.7696 30.626)" fill="#E2EEFF"/>
<circle cx="55.7696" cy="55.8526" r="5.63568" transform="rotate(-180 55.7696 55.8526)" fill="#E2EEFF"/>
<circle cx="55.7696" cy="81.0792" r="5.63568" transform="rotate(-180 55.7696 81.0792)" fill="#E2EEFF"/>
<circle cx="55.7696" cy="105.769" r="5.63568" transform="rotate(-180 55.7696 105.769)" fill="#E2EEFF"/>
<circle cx="55.7696" cy="130.995" r="5.63568" transform="rotate(-180 55.7696 130.995)" fill="#E2EEFF"/>
<circle cx="55.7696" cy="156.222" r="5.63568" transform="rotate(-180 55.7696 156.222)" fill="#E2EEFF"/>
<circle cx="55.7696" cy="181.448" r="5.63568" transform="rotate(-180 55.7696 181.448)" fill="#E2EEFF"/>
<circle cx="55.7696" cy="206.138" r="5.63568" transform="rotate(-180 55.7696 206.138)" fill="#E2EEFF"/>
<circle cx="55.7696" cy="231.364" r="5.63568" transform="rotate(-180 55.7696 231.364)" fill="#E2EEFF"/>
<circle cx="31.0792" cy="5.93659" r="5.63568" transform="rotate(-180 31.0792 5.93659)" fill="#E2EEFF"/>
<circle cx="31.0792" cy="30.626" r="5.63568" transform="rotate(-180 31.0792 30.626)" fill="#E2EEFF"/>
<circle cx="31.0792" cy="55.8526" r="5.63568" transform="rotate(-180 31.0792 55.8526)" fill="#E2EEFF"/>
<circle cx="31.0801" cy="81.0792" r="5.63568" transform="rotate(-180 31.0801 81.0792)" fill="#E2EEFF"/>
<circle cx="31.0801" cy="105.769" r="5.63568" transform="rotate(-180 31.0801 105.769)" fill="#E2EEFF"/>
<circle cx="31.0801" cy="130.995" r="5.63568" transform="rotate(-180 31.0801 130.995)" fill="#E2EEFF"/>
<circle cx="31.0801" cy="156.222" r="5.63568" transform="rotate(-180 31.0801 156.222)" fill="#E2EEFF"/>
<circle cx="31.0801" cy="181.448" r="5.63568" transform="rotate(-180 31.0801 181.448)" fill="#E2EEFF"/>
<circle cx="31.0801" cy="206.138" r="5.63568" transform="rotate(-180 31.0801 206.138)" fill="#E2EEFF"/>
<circle cx="31.0792" cy="231.364" r="5.63568" transform="rotate(-180 31.0792 231.364)" fill="#E2EEFF"/>
<circle cx="5.85358" cy="5.93659" r="5.63568" transform="rotate(-180 5.85358 5.93659)" fill="#E2EEFF"/>
<circle cx="5.85358" cy="30.626" r="5.63568" transform="rotate(-180 5.85358 30.626)" fill="#E2EEFF"/>
<circle cx="5.85358" cy="55.8526" r="5.63568" transform="rotate(-180 5.85358 55.8526)" fill="#E2EEFF"/>
<circle cx="5.85358" cy="81.0792" r="5.63568" transform="rotate(-180 5.85358 81.0792)" fill="#E2EEFF"/>
<circle cx="5.85358" cy="105.769" r="5.63568" transform="rotate(-180 5.85358 105.769)" fill="#E2EEFF"/>
<circle cx="5.85358" cy="130.995" r="5.63568" transform="rotate(-180 5.85358 130.995)" fill="#E2EEFF"/>
<circle cx="5.85358" cy="156.222" r="5.63568" transform="rotate(-180 5.85358 156.222)" fill="#E2EEFF"/>
<circle cx="5.85358" cy="181.448" r="5.63568" transform="rotate(-180 5.85358 181.448)" fill="#E2EEFF"/>
<circle cx="5.85358" cy="206.138" r="5.63568" transform="rotate(-180 5.85358 206.138)" fill="#E2EEFF"/>
<circle cx="5.85358" cy="231.364" r="5.63568" transform="rotate(-180 5.85358 231.364)" fill="#E2EEFF"/>
</svg>
