<svg width="447" height="353" viewBox="0 0 447 353" fill="none" xmlns="http://www.w3.org/2000/svg">
<circle cx="10.6433" cy="10.6428" r="10.6428" transform="rotate(90 10.6433 10.6428)" fill="#E2EEFF"/>
<circle cx="57.2693" cy="10.6428" r="10.6428" transform="rotate(90 57.2693 10.6428)" fill="#E2EEFF"/>
<circle cx="104.908" cy="10.6428" r="10.6428" transform="rotate(90 104.908 10.6428)" fill="#E2EEFF"/>
<circle cx="152.548" cy="10.6428" r="10.6428" transform="rotate(90 152.548 10.6428)" fill="#E2EEFF"/>
<circle cx="199.174" cy="10.6428" r="10.6428" transform="rotate(90 199.174 10.6428)" fill="#E2EEFF"/>
<circle cx="246.813" cy="10.6428" r="10.6428" transform="rotate(90 246.813 10.6428)" fill="#E2EEFF"/>
<circle cx="294.453" cy="10.6428" r="10.6428" transform="rotate(90 294.453 10.6428)" fill="#E2EEFF"/>
<circle cx="342.092" cy="10.6428" r="10.6428" transform="rotate(90 342.092 10.6428)" fill="#E2EEFF"/>
<circle cx="388.717" cy="10.6428" r="10.6428" transform="rotate(90 388.717 10.6428)" fill="#E2EEFF"/>
<circle cx="436.357" cy="10.6428" r="10.6428" transform="rotate(90 436.357 10.6428)" fill="#E2EEFF"/>
<circle cx="10.6433" cy="58.2815" r="10.6428" transform="rotate(90 10.6433 58.2815)" fill="#E2EEFF"/>
<circle cx="57.2693" cy="58.2815" r="10.6428" transform="rotate(90 57.2693 58.2815)" fill="#E2EEFF"/>
<circle cx="104.908" cy="58.2815" r="10.6428" transform="rotate(90 104.908 58.2815)" fill="#E2EEFF"/>
<circle cx="152.548" cy="58.2815" r="10.6428" transform="rotate(90 152.548 58.2815)" fill="#E2EEFF"/>
<circle cx="199.174" cy="58.2815" r="10.6428" transform="rotate(90 199.174 58.2815)" fill="#E2EEFF"/>
<circle cx="246.813" cy="58.2815" r="10.6428" transform="rotate(90 246.813 58.2815)" fill="#E2EEFF"/>
<circle cx="294.453" cy="58.2815" r="10.6428" transform="rotate(90 294.453 58.2815)" fill="#E2EEFF"/>
<circle cx="342.092" cy="58.2815" r="10.6428" transform="rotate(90 342.092 58.2815)" fill="#E2EEFF"/>
<circle cx="388.717" cy="58.2815" r="10.6428" transform="rotate(90 388.717 58.2815)" fill="#E2EEFF"/>
<circle cx="436.357" cy="58.2835" r="10.6428" transform="rotate(90 436.357 58.2835)" fill="#E2EEFF"/>
<circle cx="10.6433" cy="104.908" r="10.6428" transform="rotate(90 10.6433 104.908)" fill="#E2EEFF"/>
<circle cx="57.2693" cy="104.908" r="10.6428" transform="rotate(90 57.2693 104.908)" fill="#E2EEFF"/>
<circle cx="104.908" cy="104.908" r="10.6428" transform="rotate(90 104.908 104.908)" fill="#E2EEFF"/>
<circle cx="152.548" cy="104.908" r="10.6428" transform="rotate(90 152.548 104.908)" fill="#E2EEFF"/>
<circle cx="199.174" cy="104.908" r="10.6428" transform="rotate(90 199.174 104.908)" fill="#E2EEFF"/>
<circle cx="246.813" cy="104.908" r="10.6428" transform="rotate(90 246.813 104.908)" fill="#E2EEFF"/>
<circle cx="294.453" cy="104.908" r="10.6428" transform="rotate(90 294.453 104.908)" fill="#E2EEFF"/>
<circle cx="342.092" cy="104.908" r="10.6428" transform="rotate(90 342.092 104.908)" fill="#E2EEFF"/>
<circle cx="388.717" cy="104.908" r="10.6428" transform="rotate(90 388.717 104.908)" fill="#E2EEFF"/>
<circle cx="436.357" cy="104.908" r="10.6428" transform="rotate(90 436.357 104.908)" fill="#E2EEFF"/>
<circle cx="10.6433" cy="152.547" r="10.6428" transform="rotate(90 10.6433 152.547)" fill="#E2EEFF"/>
<circle cx="57.2693" cy="152.547" r="10.6428" transform="rotate(90 57.2693 152.547)" fill="#E2EEFF"/>
<circle cx="104.908" cy="152.547" r="10.6428" transform="rotate(90 104.908 152.547)" fill="#E2EEFF"/>
<circle cx="152.548" cy="152.547" r="10.6428" transform="rotate(90 152.548 152.547)" fill="#E2EEFF"/>
<circle cx="199.174" cy="152.547" r="10.6428" transform="rotate(90 199.174 152.547)" fill="#E2EEFF"/>
<circle cx="246.813" cy="152.547" r="10.6428" transform="rotate(90 246.813 152.547)" fill="#E2EEFF"/>
<circle cx="294.453" cy="152.547" r="10.6428" transform="rotate(90 294.453 152.547)" fill="#E2EEFF"/>
<circle cx="342.092" cy="152.547" r="10.6428" transform="rotate(90 342.092 152.547)" fill="#E2EEFF"/>
<circle cx="388.717" cy="152.547" r="10.6428" transform="rotate(90 388.717 152.547)" fill="#E2EEFF"/>
<circle cx="436.357" cy="152.547" r="10.6428" transform="rotate(90 436.357 152.547)" fill="#E2EEFF"/>
<circle cx="10.6433" cy="200.188" r="10.6428" transform="rotate(90 10.6433 200.188)" fill="#E2EEFF"/>
<circle cx="57.2693" cy="200.188" r="10.6428" transform="rotate(90 57.2693 200.188)" fill="#E2EEFF"/>
<circle cx="104.908" cy="200.188" r="10.6428" transform="rotate(90 104.908 200.188)" fill="#E2EEFF"/>
<circle cx="152.548" cy="200.188" r="10.6428" transform="rotate(90 152.548 200.188)" fill="#E2EEFF"/>
<circle cx="199.174" cy="200.186" r="10.6428" transform="rotate(90 199.174 200.186)" fill="#E2EEFF"/>
<circle cx="246.813" cy="200.188" r="10.6428" transform="rotate(90 246.813 200.188)" fill="#E2EEFF"/>
<circle cx="294.453" cy="200.188" r="10.6428" transform="rotate(90 294.453 200.188)" fill="#E2EEFF"/>
<circle cx="342.092" cy="200.188" r="10.6428" transform="rotate(90 342.092 200.188)" fill="#E2EEFF"/>
<circle cx="388.717" cy="200.188" r="10.6428" transform="rotate(90 388.717 200.188)" fill="#E2EEFF"/>
<circle cx="436.357" cy="200.188" r="10.6428" transform="rotate(90 436.357 200.188)" fill="#E2EEFF"/>
<circle cx="10.6433" cy="247.826" r="10.6428" transform="rotate(90 10.6433 247.826)" fill="#E2EEFF"/>
<circle cx="57.2693" cy="247.826" r="10.6428" transform="rotate(90 57.2693 247.826)" fill="#E2EEFF"/>
<circle cx="104.908" cy="247.826" r="10.6428" transform="rotate(90 104.908 247.826)" fill="#E2EEFF"/>
<circle cx="152.548" cy="247.826" r="10.6428" transform="rotate(90 152.548 247.826)" fill="#E2EEFF"/>
<circle cx="199.174" cy="247.826" r="10.6428" transform="rotate(90 199.174 247.826)" fill="#E2EEFF"/>
<circle cx="246.813" cy="247.826" r="10.6428" transform="rotate(90 246.813 247.826)" fill="#E2EEFF"/>
<circle cx="294.453" cy="247.826" r="10.6428" transform="rotate(90 294.453 247.826)" fill="#E2EEFF"/>
<circle cx="342.092" cy="247.826" r="10.6428" transform="rotate(90 342.092 247.826)" fill="#E2EEFF"/>
<circle cx="388.717" cy="247.826" r="10.6428" transform="rotate(90 388.717 247.826)" fill="#E2EEFF"/>
<circle cx="436.357" cy="247.826" r="10.6428" transform="rotate(90 436.357 247.826)" fill="#E2EEFF"/>
<circle cx="10.6433" cy="294.451" r="10.6428" transform="rotate(90 10.6433 294.451)" fill="#E2EEFF"/>
<circle cx="57.2693" cy="294.451" r="10.6428" transform="rotate(90 57.2693 294.451)" fill="#E2EEFF"/>
<circle cx="104.908" cy="294.451" r="10.6428" transform="rotate(90 104.908 294.451)" fill="#E2EEFF"/>
<circle cx="152.548" cy="294.451" r="10.6428" transform="rotate(90 152.548 294.451)" fill="#E2EEFF"/>
<circle cx="199.174" cy="294.451" r="10.6428" transform="rotate(90 199.174 294.451)" fill="#E2EEFF"/>
<circle cx="246.813" cy="294.451" r="10.6428" transform="rotate(90 246.813 294.451)" fill="#E2EEFF"/>
<circle cx="294.453" cy="294.451" r="10.6428" transform="rotate(90 294.453 294.451)" fill="#E2EEFF"/>
<circle cx="342.092" cy="294.451" r="10.6428" transform="rotate(90 342.092 294.451)" fill="#E2EEFF"/>
<circle cx="388.717" cy="294.451" r="10.6428" transform="rotate(90 388.717 294.451)" fill="#E2EEFF"/>
<circle cx="436.357" cy="294.451" r="10.6428" transform="rotate(90 436.357 294.451)" fill="#E2EEFF"/>
<circle cx="10.6433" cy="342.092" r="10.6428" transform="rotate(90 10.6433 342.092)" fill="#E2EEFF"/>
<circle cx="57.2693" cy="342.092" r="10.6428" transform="rotate(90 57.2693 342.092)" fill="#E2EEFF"/>
<circle cx="104.908" cy="342.092" r="10.6428" transform="rotate(90 104.908 342.092)" fill="#E2EEFF"/>
<circle cx="152.548" cy="342.092" r="10.6428" transform="rotate(90 152.548 342.092)" fill="#E2EEFF"/>
<circle cx="199.174" cy="342.092" r="10.6428" transform="rotate(90 199.174 342.092)" fill="#E2EEFF"/>
<circle cx="246.813" cy="342.092" r="10.6428" transform="rotate(90 246.813 342.092)" fill="#E2EEFF"/>
<circle cx="294.453" cy="342.092" r="10.6428" transform="rotate(90 294.453 342.092)" fill="#E2EEFF"/>
<circle cx="342.092" cy="342.092" r="10.6428" transform="rotate(90 342.092 342.092)" fill="#E2EEFF"/>
<circle cx="388.717" cy="342.092" r="10.6428" transform="rotate(90 388.717 342.092)" fill="#E2EEFF"/>
<circle cx="436.357" cy="342.092" r="10.6428" transform="rotate(90 436.357 342.092)" fill="#E2EEFF"/>
</svg>
