<svg width="212" height="168" viewBox="0 0 212 168" fill="none" xmlns="http://www.w3.org/2000/svg">
<circle cx="5.03054" cy="5.55736" r="5.03001" transform="rotate(90 5.03054 5.55736)" fill="#E2EEFF"/>
<circle cx="27.0667" cy="5.55736" r="5.03001" transform="rotate(90 27.0667 5.55736)" fill="#E2EEFF"/>
<circle cx="49.5813" cy="5.55736" r="5.03001" transform="rotate(90 49.5813 5.55736)" fill="#E2EEFF"/>
<circle cx="72.0969" cy="5.55736" r="5.03001" transform="rotate(90 72.0969 5.55736)" fill="#E2EEFF"/>
<circle cx="94.1331" cy="5.55736" r="5.03001" transform="rotate(90 94.1331 5.55736)" fill="#E2EEFF"/>
<circle cx="116.649" cy="5.55736" r="5.03001" transform="rotate(90 116.649 5.55736)" fill="#E2EEFF"/>
<circle cx="139.164" cy="5.55736" r="5.03001" transform="rotate(90 139.164 5.55736)" fill="#E2EEFF"/>
<circle cx="161.679" cy="5.55736" r="5.03001" transform="rotate(90 161.679 5.55736)" fill="#E2EEFF"/>
<circle cx="183.716" cy="5.55736" r="5.03001" transform="rotate(90 183.716 5.55736)" fill="#E2EEFF"/>
<circle cx="206.231" cy="5.55736" r="5.03001" transform="rotate(90 206.231 5.55736)" fill="#E2EEFF"/>
<circle cx="5.03054" cy="28.073" r="5.03001" transform="rotate(90 5.03054 28.073)" fill="#E2EEFF"/>
<circle cx="27.0667" cy="28.073" r="5.03001" transform="rotate(90 27.0667 28.073)" fill="#E2EEFF"/>
<circle cx="49.5813" cy="28.073" r="5.03001" transform="rotate(90 49.5813 28.073)" fill="#E2EEFF"/>
<circle cx="72.0969" cy="28.073" r="5.03001" transform="rotate(90 72.0969 28.073)" fill="#E2EEFF"/>
<circle cx="94.1331" cy="28.073" r="5.03001" transform="rotate(90 94.1331 28.073)" fill="#E2EEFF"/>
<circle cx="116.649" cy="28.073" r="5.03001" transform="rotate(90 116.649 28.073)" fill="#E2EEFF"/>
<circle cx="139.164" cy="28.073" r="5.03001" transform="rotate(90 139.164 28.073)" fill="#E2EEFF"/>
<circle cx="161.679" cy="28.073" r="5.03001" transform="rotate(90 161.679 28.073)" fill="#E2EEFF"/>
<circle cx="183.716" cy="28.073" r="5.03001" transform="rotate(90 183.716 28.073)" fill="#E2EEFF"/>
<circle cx="206.231" cy="28.073" r="5.03001" transform="rotate(90 206.231 28.073)" fill="#E2EEFF"/>
<circle cx="5.03054" cy="50.1081" r="5.03001" transform="rotate(90 5.03054 50.1081)" fill="#E2EEFF"/>
<circle cx="27.0667" cy="50.1081" r="5.03001" transform="rotate(90 27.0667 50.1081)" fill="#E2EEFF"/>
<circle cx="49.5813" cy="50.1081" r="5.03001" transform="rotate(90 49.5813 50.1081)" fill="#E2EEFF"/>
<circle cx="72.0969" cy="50.1081" r="5.03001" transform="rotate(90 72.0969 50.1081)" fill="#E2EEFF"/>
<circle cx="94.1331" cy="50.1081" r="5.03001" transform="rotate(90 94.1331 50.1081)" fill="#E2EEFF"/>
<circle cx="116.649" cy="50.1081" r="5.03001" transform="rotate(90 116.649 50.1081)" fill="#E2EEFF"/>
<circle cx="139.164" cy="50.1081" r="5.03001" transform="rotate(90 139.164 50.1081)" fill="#E2EEFF"/>
<circle cx="161.679" cy="50.1081" r="5.03001" transform="rotate(90 161.679 50.1081)" fill="#E2EEFF"/>
<circle cx="183.716" cy="50.1081" r="5.03001" transform="rotate(90 183.716 50.1081)" fill="#E2EEFF"/>
<circle cx="206.231" cy="50.1081" r="5.03001" transform="rotate(90 206.231 50.1081)" fill="#E2EEFF"/>
<circle cx="5.03054" cy="72.6238" r="5.03001" transform="rotate(90 5.03054 72.6238)" fill="#E2EEFF"/>
<circle cx="27.0667" cy="72.6238" r="5.03001" transform="rotate(90 27.0667 72.6238)" fill="#E2EEFF"/>
<circle cx="49.5813" cy="72.6238" r="5.03001" transform="rotate(90 49.5813 72.6238)" fill="#E2EEFF"/>
<circle cx="72.0969" cy="72.6238" r="5.03001" transform="rotate(90 72.0969 72.6238)" fill="#E2EEFF"/>
<circle cx="94.1331" cy="72.6238" r="5.03001" transform="rotate(90 94.1331 72.6238)" fill="#E2EEFF"/>
<circle cx="116.649" cy="72.6238" r="5.03001" transform="rotate(90 116.649 72.6238)" fill="#E2EEFF"/>
<circle cx="139.164" cy="72.6238" r="5.03001" transform="rotate(90 139.164 72.6238)" fill="#E2EEFF"/>
<circle cx="161.679" cy="72.6238" r="5.03001" transform="rotate(90 161.679 72.6238)" fill="#E2EEFF"/>
<circle cx="183.716" cy="72.6238" r="5.03001" transform="rotate(90 183.716 72.6238)" fill="#E2EEFF"/>
<circle cx="206.231" cy="72.6238" r="5.03001" transform="rotate(90 206.231 72.6238)" fill="#E2EEFF"/>
<circle cx="5.03054" cy="95.1394" r="5.03001" transform="rotate(90 5.03054 95.1394)" fill="#E2EEFF"/>
<circle cx="27.0667" cy="95.1394" r="5.03001" transform="rotate(90 27.0667 95.1394)" fill="#E2EEFF"/>
<circle cx="49.5813" cy="95.1394" r="5.03001" transform="rotate(90 49.5813 95.1394)" fill="#E2EEFF"/>
<circle cx="72.0969" cy="95.1394" r="5.03001" transform="rotate(90 72.0969 95.1394)" fill="#E2EEFF"/>
<circle cx="94.1331" cy="95.1394" r="5.03001" transform="rotate(90 94.1331 95.1394)" fill="#E2EEFF"/>
<circle cx="116.649" cy="95.1394" r="5.03001" transform="rotate(90 116.649 95.1394)" fill="#E2EEFF"/>
<circle cx="139.164" cy="95.1394" r="5.03001" transform="rotate(90 139.164 95.1394)" fill="#E2EEFF"/>
<circle cx="161.679" cy="95.1394" r="5.03001" transform="rotate(90 161.679 95.1394)" fill="#E2EEFF"/>
<circle cx="183.716" cy="95.1394" r="5.03001" transform="rotate(90 183.716 95.1394)" fill="#E2EEFF"/>
<circle cx="206.231" cy="95.1394" r="5.03001" transform="rotate(90 206.231 95.1394)" fill="#E2EEFF"/>
<circle cx="5.03054" cy="117.655" r="5.03001" transform="rotate(90 5.03054 117.655)" fill="#E2EEFF"/>
<circle cx="27.0667" cy="117.655" r="5.03001" transform="rotate(90 27.0667 117.655)" fill="#E2EEFF"/>
<circle cx="49.5813" cy="117.655" r="5.03001" transform="rotate(90 49.5813 117.655)" fill="#E2EEFF"/>
<circle cx="72.0969" cy="117.655" r="5.03001" transform="rotate(90 72.0969 117.655)" fill="#E2EEFF"/>
<circle cx="94.1331" cy="117.655" r="5.03001" transform="rotate(90 94.1331 117.655)" fill="#E2EEFF"/>
<circle cx="116.649" cy="117.655" r="5.03001" transform="rotate(90 116.649 117.655)" fill="#E2EEFF"/>
<circle cx="139.164" cy="117.655" r="5.03001" transform="rotate(90 139.164 117.655)" fill="#E2EEFF"/>
<circle cx="161.679" cy="117.655" r="5.03001" transform="rotate(90 161.679 117.655)" fill="#E2EEFF"/>
<circle cx="183.716" cy="117.655" r="5.03001" transform="rotate(90 183.716 117.655)" fill="#E2EEFF"/>
<circle cx="206.231" cy="117.655" r="5.03001" transform="rotate(90 206.231 117.655)" fill="#E2EEFF"/>
<circle cx="5.03054" cy="139.692" r="5.03001" transform="rotate(90 5.03054 139.692)" fill="#E2EEFF"/>
<circle cx="27.0667" cy="139.692" r="5.03001" transform="rotate(90 27.0667 139.692)" fill="#E2EEFF"/>
<circle cx="49.5813" cy="139.692" r="5.03001" transform="rotate(90 49.5813 139.692)" fill="#E2EEFF"/>
<circle cx="72.0969" cy="139.69" r="5.03001" transform="rotate(90 72.0969 139.69)" fill="#E2EEFF"/>
<circle cx="94.1331" cy="139.69" r="5.03001" transform="rotate(90 94.1331 139.69)" fill="#E2EEFF"/>
<circle cx="116.649" cy="139.69" r="5.03001" transform="rotate(90 116.649 139.69)" fill="#E2EEFF"/>
<circle cx="139.164" cy="139.69" r="5.03001" transform="rotate(90 139.164 139.69)" fill="#E2EEFF"/>
<circle cx="161.679" cy="139.69" r="5.03001" transform="rotate(90 161.679 139.69)" fill="#E2EEFF"/>
<circle cx="183.716" cy="139.69" r="5.03001" transform="rotate(90 183.716 139.69)" fill="#E2EEFF"/>
<circle cx="206.231" cy="139.692" r="5.03001" transform="rotate(90 206.231 139.692)" fill="#E2EEFF"/>
<circle cx="5.03054" cy="162.206" r="5.03001" transform="rotate(90 5.03054 162.206)" fill="#E2EEFF"/>
<circle cx="27.0667" cy="162.206" r="5.03001" transform="rotate(90 27.0667 162.206)" fill="#E2EEFF"/>
<circle cx="49.5813" cy="162.206" r="5.03001" transform="rotate(90 49.5813 162.206)" fill="#E2EEFF"/>
<circle cx="72.0969" cy="162.206" r="5.03001" transform="rotate(90 72.0969 162.206)" fill="#E2EEFF"/>
<circle cx="94.1331" cy="162.206" r="5.03001" transform="rotate(90 94.1331 162.206)" fill="#E2EEFF"/>
<circle cx="116.649" cy="162.206" r="5.03001" transform="rotate(90 116.649 162.206)" fill="#E2EEFF"/>
<circle cx="139.164" cy="162.206" r="5.03001" transform="rotate(90 139.164 162.206)" fill="#E2EEFF"/>
<circle cx="161.679" cy="162.206" r="5.03001" transform="rotate(90 161.679 162.206)" fill="#E2EEFF"/>
<circle cx="183.716" cy="162.206" r="5.03001" transform="rotate(90 183.716 162.206)" fill="#E2EEFF"/>
<circle cx="206.231" cy="162.206" r="5.03001" transform="rotate(90 206.231 162.206)" fill="#E2EEFF"/>
</svg>
