<svg width="353" height="447" viewBox="0 0 353 447" fill="none" xmlns="http://www.w3.org/2000/svg">
<circle cx="342.092" cy="10.6423" r="10.6428" transform="rotate(-180 342.092 10.6423)" fill="#E2EEFF"/>
<circle cx="342.092" cy="57.2693" r="10.6428" transform="rotate(-180 342.092 57.2693)" fill="#E2EEFF"/>
<circle cx="342.092" cy="104.908" r="10.6428" transform="rotate(-180 342.092 104.908)" fill="#E2EEFF"/>
<circle cx="342.092" cy="152.549" r="10.6428" transform="rotate(-180 342.092 152.549)" fill="#E2EEFF"/>
<circle cx="342.092" cy="199.174" r="10.6428" transform="rotate(-180 342.092 199.174)" fill="#E2EEFF"/>
<circle cx="342.092" cy="246.812" r="10.6428" transform="rotate(-180 342.092 246.812)" fill="#E2EEFF"/>
<circle cx="342.092" cy="294.453" r="10.6428" transform="rotate(-180 342.092 294.453)" fill="#E2EEFF"/>
<circle cx="342.092" cy="342.092" r="10.6428" transform="rotate(-180 342.092 342.092)" fill="#E2EEFF"/>
<circle cx="342.092" cy="388.718" r="10.6428" transform="rotate(-180 342.092 388.718)" fill="#E2EEFF"/>
<circle cx="342.092" cy="436.357" r="10.6428" transform="rotate(-180 342.092 436.357)" fill="#E2EEFF"/>
<circle cx="294.452" cy="10.6423" r="10.6428" transform="rotate(-180 294.452 10.6423)" fill="#E2EEFF"/>
<circle cx="294.452" cy="57.2693" r="10.6428" transform="rotate(-180 294.452 57.2693)" fill="#E2EEFF"/>
<circle cx="294.452" cy="104.908" r="10.6428" transform="rotate(-180 294.452 104.908)" fill="#E2EEFF"/>
<circle cx="294.452" cy="152.547" r="10.6428" transform="rotate(-180 294.452 152.547)" fill="#E2EEFF"/>
<circle cx="294.452" cy="199.174" r="10.6428" transform="rotate(-180 294.452 199.174)" fill="#E2EEFF"/>
<circle cx="294.452" cy="246.812" r="10.6428" transform="rotate(-180 294.452 246.812)" fill="#E2EEFF"/>
<circle cx="294.452" cy="294.453" r="10.6428" transform="rotate(-180 294.452 294.453)" fill="#E2EEFF"/>
<circle cx="294.452" cy="342.092" r="10.6428" transform="rotate(-180 294.452 342.092)" fill="#E2EEFF"/>
<circle cx="294.452" cy="388.718" r="10.6428" transform="rotate(-180 294.452 388.718)" fill="#E2EEFF"/>
<circle cx="294.452" cy="436.357" r="10.6428" transform="rotate(-180 294.452 436.357)" fill="#E2EEFF"/>
<circle cx="247.826" cy="10.6423" r="10.6428" transform="rotate(-180 247.826 10.6423)" fill="#E2EEFF"/>
<circle cx="247.826" cy="57.2693" r="10.6428" transform="rotate(-180 247.826 57.2693)" fill="#E2EEFF"/>
<circle cx="247.826" cy="104.908" r="10.6428" transform="rotate(-180 247.826 104.908)" fill="#E2EEFF"/>
<circle cx="247.826" cy="152.547" r="10.6428" transform="rotate(-180 247.826 152.547)" fill="#E2EEFF"/>
<circle cx="247.826" cy="199.174" r="10.6428" transform="rotate(-180 247.826 199.174)" fill="#E2EEFF"/>
<circle cx="247.826" cy="246.812" r="10.6428" transform="rotate(-180 247.826 246.812)" fill="#E2EEFF"/>
<circle cx="247.826" cy="294.453" r="10.6428" transform="rotate(-180 247.826 294.453)" fill="#E2EEFF"/>
<circle cx="247.826" cy="342.092" r="10.6428" transform="rotate(-180 247.826 342.092)" fill="#E2EEFF"/>
<circle cx="247.826" cy="388.718" r="10.6428" transform="rotate(-180 247.826 388.718)" fill="#E2EEFF"/>
<circle cx="247.826" cy="436.357" r="10.6428" transform="rotate(-180 247.826 436.357)" fill="#E2EEFF"/>
<circle cx="200.187" cy="10.6423" r="10.6428" transform="rotate(-180 200.187 10.6423)" fill="#E2EEFF"/>
<circle cx="200.187" cy="57.2693" r="10.6428" transform="rotate(-180 200.187 57.2693)" fill="#E2EEFF"/>
<circle cx="200.187" cy="104.908" r="10.6428" transform="rotate(-180 200.187 104.908)" fill="#E2EEFF"/>
<circle cx="200.187" cy="152.547" r="10.6428" transform="rotate(-180 200.187 152.547)" fill="#E2EEFF"/>
<circle cx="200.187" cy="199.174" r="10.6428" transform="rotate(-180 200.187 199.174)" fill="#E2EEFF"/>
<circle cx="200.187" cy="246.812" r="10.6428" transform="rotate(-180 200.187 246.812)" fill="#E2EEFF"/>
<circle cx="200.187" cy="294.453" r="10.6428" transform="rotate(-180 200.187 294.453)" fill="#E2EEFF"/>
<circle cx="200.187" cy="342.092" r="10.6428" transform="rotate(-180 200.187 342.092)" fill="#E2EEFF"/>
<circle cx="200.187" cy="388.718" r="10.6428" transform="rotate(-180 200.187 388.718)" fill="#E2EEFF"/>
<circle cx="200.187" cy="436.357" r="10.6428" transform="rotate(-180 200.187 436.357)" fill="#E2EEFF"/>
<circle cx="152.548" cy="10.6423" r="10.6428" transform="rotate(-180 152.548 10.6423)" fill="#E2EEFF"/>
<circle cx="152.548" cy="57.2693" r="10.6428" transform="rotate(-180 152.548 57.2693)" fill="#E2EEFF"/>
<circle cx="152.548" cy="104.908" r="10.6428" transform="rotate(-180 152.548 104.908)" fill="#E2EEFF"/>
<circle cx="152.548" cy="152.547" r="10.6428" transform="rotate(-180 152.548 152.547)" fill="#E2EEFF"/>
<circle cx="152.548" cy="199.174" r="10.6428" transform="rotate(-180 152.548 199.174)" fill="#E2EEFF"/>
<circle cx="152.548" cy="246.812" r="10.6428" transform="rotate(-180 152.548 246.812)" fill="#E2EEFF"/>
<circle cx="152.548" cy="294.453" r="10.6428" transform="rotate(-180 152.548 294.453)" fill="#E2EEFF"/>
<circle cx="152.548" cy="342.092" r="10.6428" transform="rotate(-180 152.548 342.092)" fill="#E2EEFF"/>
<circle cx="152.548" cy="388.718" r="10.6428" transform="rotate(-180 152.548 388.718)" fill="#E2EEFF"/>
<circle cx="152.548" cy="436.357" r="10.6428" transform="rotate(-180 152.548 436.357)" fill="#E2EEFF"/>
<circle cx="104.908" cy="10.6423" r="10.6428" transform="rotate(-180 104.908 10.6423)" fill="#E2EEFF"/>
<circle cx="104.908" cy="57.2693" r="10.6428" transform="rotate(-180 104.908 57.2693)" fill="#E2EEFF"/>
<circle cx="104.908" cy="104.908" r="10.6428" transform="rotate(-180 104.908 104.908)" fill="#E2EEFF"/>
<circle cx="104.908" cy="152.547" r="10.6428" transform="rotate(-180 104.908 152.547)" fill="#E2EEFF"/>
<circle cx="104.908" cy="199.174" r="10.6428" transform="rotate(-180 104.908 199.174)" fill="#E2EEFF"/>
<circle cx="104.908" cy="246.812" r="10.6428" transform="rotate(-180 104.908 246.812)" fill="#E2EEFF"/>
<circle cx="104.908" cy="294.453" r="10.6428" transform="rotate(-180 104.908 294.453)" fill="#E2EEFF"/>
<circle cx="104.908" cy="342.092" r="10.6428" transform="rotate(-180 104.908 342.092)" fill="#E2EEFF"/>
<circle cx="104.908" cy="388.718" r="10.6428" transform="rotate(-180 104.908 388.718)" fill="#E2EEFF"/>
<circle cx="104.908" cy="436.357" r="10.6428" transform="rotate(-180 104.908 436.357)" fill="#E2EEFF"/>
<circle cx="58.282" cy="10.6423" r="10.6428" transform="rotate(-180 58.282 10.6423)" fill="#E2EEFF"/>
<circle cx="58.282" cy="57.2693" r="10.6428" transform="rotate(-180 58.282 57.2693)" fill="#E2EEFF"/>
<circle cx="58.282" cy="104.908" r="10.6428" transform="rotate(-180 58.282 104.908)" fill="#E2EEFF"/>
<circle cx="58.2829" cy="152.549" r="10.6428" transform="rotate(-180 58.2829 152.549)" fill="#E2EEFF"/>
<circle cx="58.2829" cy="199.174" r="10.6428" transform="rotate(-180 58.2829 199.174)" fill="#E2EEFF"/>
<circle cx="58.2829" cy="246.812" r="10.6428" transform="rotate(-180 58.2829 246.812)" fill="#E2EEFF"/>
<circle cx="58.2829" cy="294.453" r="10.6428" transform="rotate(-180 58.2829 294.453)" fill="#E2EEFF"/>
<circle cx="58.2829" cy="342.092" r="10.6428" transform="rotate(-180 58.2829 342.092)" fill="#E2EEFF"/>
<circle cx="58.2829" cy="388.718" r="10.6428" transform="rotate(-180 58.2829 388.718)" fill="#E2EEFF"/>
<circle cx="58.282" cy="436.357" r="10.6428" transform="rotate(-180 58.282 436.357)" fill="#E2EEFF"/>
<circle cx="10.6433" cy="10.6423" r="10.6428" transform="rotate(-180 10.6433 10.6423)" fill="#E2EEFF"/>
<circle cx="10.6433" cy="57.2693" r="10.6428" transform="rotate(-180 10.6433 57.2693)" fill="#E2EEFF"/>
<circle cx="10.6433" cy="104.908" r="10.6428" transform="rotate(-180 10.6433 104.908)" fill="#E2EEFF"/>
<circle cx="10.6433" cy="152.549" r="10.6428" transform="rotate(-180 10.6433 152.549)" fill="#E2EEFF"/>
<circle cx="10.6433" cy="199.174" r="10.6428" transform="rotate(-180 10.6433 199.174)" fill="#E2EEFF"/>
<circle cx="10.6433" cy="246.812" r="10.6428" transform="rotate(-180 10.6433 246.812)" fill="#E2EEFF"/>
<circle cx="10.6433" cy="294.453" r="10.6428" transform="rotate(-180 10.6433 294.453)" fill="#E2EEFF"/>
<circle cx="10.6433" cy="342.092" r="10.6428" transform="rotate(-180 10.6433 342.092)" fill="#E2EEFF"/>
<circle cx="10.6433" cy="388.718" r="10.6428" transform="rotate(-180 10.6433 388.718)" fill="#E2EEFF"/>
<circle cx="10.6433" cy="436.357" r="10.6428" transform="rotate(-180 10.6433 436.357)" fill="#E2EEFF"/>
</svg>
