<svg width="830" height="284" viewBox="0 0 830 284" fill="none" xmlns="http://www.w3.org/2000/svg">
<mask id="mask0" mask-type="alpha" maskUnits="userSpaceOnUse" x="0" y="0" width="830" height="284">
<rect width="830" height="284" rx="5" fill="url(#paint0_linear)"/>
</mask>
<g mask="url(#mask0)">
<circle cx="30" cy="244" r="70" fill="url(#paint1_linear)" fill-opacity="0.11"/>
<circle cx="602.226" cy="297.226" r="70" transform="rotate(58.5845 602.226 297.226)" fill="url(#paint2_linear)" fill-opacity="0.07"/>
<circle cx="644.226" cy="2.22552" r="70" transform="rotate(58.5845 644.226 2.22552)" fill="url(#paint3_linear)" fill-opacity="0.07"/>
<circle cx="50" cy="72" r="114" fill="url(#paint4_linear)" fill-opacity="0.11"/>
<circle cx="759.437" cy="198.71" r="114" transform="rotate(58.5845 759.437 198.71)" fill="url(#paint5_linear)" fill-opacity="0.04"/>
<circle cx="302.71" cy="330.71" r="114" transform="rotate(58.5845 302.71 330.71)" fill="url(#paint6_linear)" fill-opacity="0.04"/>
</g>
<defs>
<linearGradient id="paint0_linear" x1="3.09199e-06" y1="142" x2="830" y2="142" gradientUnits="userSpaceOnUse">
<stop stop-color="#2095F2"/>
<stop offset="1" stop-color="#0851BF"/>
</linearGradient>
<linearGradient id="paint1_linear" x1="30" y1="174" x2="30" y2="314" gradientUnits="userSpaceOnUse">
<stop stop-color="white"/>
<stop offset="1" stop-color="#C4C4C4" stop-opacity="0"/>
</linearGradient>
<linearGradient id="paint2_linear" x1="602.226" y1="227.226" x2="602.226" y2="367.226" gradientUnits="userSpaceOnUse">
<stop stop-color="white"/>
<stop offset="1" stop-color="#C4C4C4" stop-opacity="0"/>
</linearGradient>
<linearGradient id="paint3_linear" x1="644.226" y1="-67.7745" x2="644.226" y2="72.2255" gradientUnits="userSpaceOnUse">
<stop stop-color="white"/>
<stop offset="1" stop-color="#C4C4C4" stop-opacity="0"/>
</linearGradient>
<linearGradient id="paint4_linear" x1="50" y1="-42" x2="50" y2="186" gradientUnits="userSpaceOnUse">
<stop offset="0.453125" stop-color="white"/>
<stop offset="0.84375" stop-color="#C4C4C4" stop-opacity="0"/>
</linearGradient>
<linearGradient id="paint5_linear" x1="759.437" y1="84.7101" x2="759.437" y2="312.71" gradientUnits="userSpaceOnUse">
<stop stop-color="#C4C4C4" stop-opacity="0"/>
<stop offset="1" stop-color="white"/>
</linearGradient>
<linearGradient id="paint6_linear" x1="302.71" y1="216.71" x2="302.71" y2="444.71" gradientUnits="userSpaceOnUse">
<stop stop-color="#C4C4C4" stop-opacity="0"/>
<stop offset="1" stop-color="white"/>
</linearGradient>
</defs>
</svg>
