<svg width="16" height="16" viewBox="0 0 16 16" fill="none" xmlns="http://www.w3.org/2000/svg">
<path d="M14.823 2.66663C14.823 3.86328 13.853 4.83337 12.6564 4.83337C11.4597 4.83337 10.4897 3.86328 10.4897 2.66663C10.4897 1.47009 11.4597 0.5 12.6564 0.5C13.853 0.5 14.823 1.47009 14.823 2.66663Z" fill="#8FA1BF"/>
<path d="M12.6564 5.33337C11.1857 5.33337 9.98975 4.13733 9.98975 2.66663C9.98975 1.19604 11.1857 0 12.6564 0C14.1271 0 15.323 1.19604 15.323 2.66663C15.323 4.13733 14.1271 5.33337 12.6564 5.33337ZM12.6564 1C11.7371 1 10.9897 1.74805 10.9897 2.66663C10.9897 3.58533 11.7371 4.33337 12.6564 4.33337C13.5757 4.33337 14.323 3.58533 14.323 2.66663C14.323 1.74805 13.5757 1 12.6564 1Z" fill="#8FA1BF"/>
<path d="M14.823 13.3328C14.823 14.5293 13.853 15.4994 12.6564 15.4994C11.4597 15.4994 10.4897 14.5293 10.4897 13.3328C10.4897 12.1361 11.4597 11.166 12.6564 11.166C13.853 11.166 14.823 12.1361 14.823 13.3328Z" fill="#8FA1BF"/>
<path d="M12.6564 15.9994C11.1857 15.9994 9.98975 14.8033 9.98975 13.3328C9.98975 11.8621 11.1857 10.666 12.6564 10.666C14.1271 10.666 15.323 11.8621 15.323 13.3328C15.323 14.8033 14.1271 15.9994 12.6564 15.9994ZM12.6564 11.666C11.7371 11.666 10.9897 12.4141 10.9897 13.3328C10.9897 14.2513 11.7371 14.9994 12.6564 14.9994C13.5757 14.9994 14.323 14.2513 14.323 13.3328C14.323 12.4141 13.5757 11.666 12.6564 11.666Z" fill="#8FA1BF"/>
<path d="M5.48962 8.00061C5.48962 9.19727 4.51953 10.1672 3.32288 10.1672C2.12634 10.1672 1.15625 9.19727 1.15625 8.00061C1.15625 6.80396 2.12634 5.83398 3.32288 5.83398C4.51953 5.83398 5.48962 6.80396 5.48962 8.00061Z" fill="#8FA1BF"/>
<path d="M3.32288 10.6672C1.85229 10.6672 0.65625 9.47131 0.65625 8.00061C0.65625 6.52991 1.85229 5.33398 3.32288 5.33398C4.79358 5.33398 5.98962 6.52991 5.98962 8.00061C5.98962 9.47131 4.79358 10.6672 3.32288 10.6672ZM3.32288 6.33398C2.40356 6.33398 1.65625 7.08191 1.65625 8.00061C1.65625 8.91931 2.40356 9.66724 3.32288 9.66724C4.24231 9.66724 4.98962 8.91931 4.98962 8.00061C4.98962 7.08191 4.24231 6.33398 3.32288 6.33398Z" fill="#8FA1BF"/>
<path d="M4.89682 7.67921C4.66477 7.67921 4.43943 7.55848 4.31675 7.34254C4.13474 7.0232 4.2468 6.61585 4.56614 6.43311L10.752 2.9065C11.0714 2.72315 11.4787 2.83521 11.6615 3.15577C11.8435 3.47511 11.7314 3.88245 11.4121 4.06519L5.22605 7.5918C5.12204 7.65113 5.00876 7.67921 4.89682 7.67921Z" fill="#8FA1BF"/>
<path d="M11.0824 13.181C10.9703 13.181 10.857 13.153 10.753 13.0936L4.56702 9.56701C4.24768 9.38501 4.13575 8.97766 4.31775 8.65759C4.49903 8.33764 4.90698 8.22497 5.22705 8.40832L11.4131 11.9349C11.7324 12.1169 11.8443 12.5243 11.6623 12.8444C11.5391 13.0603 11.3137 13.181 11.0824 13.181Z" fill="#8FA1BF"/>
</svg>
