<svg width="184" height="184" viewBox="0 0 184 184" fill="none" xmlns="http://www.w3.org/2000/svg">
<path d="M166.178 27.0084L87.273 140.434L50.1719 133.827L164.271 19.2207L165.603 20.5536C167.332 22.2826 167.574 25.0012 166.178 27.0084V27.0084Z" fill="#55A4F9"/>
<path d="M50.1725 133.828L43.5654 96.7267L156.963 17.8414C158.987 16.4341 161.727 16.6781 163.47 18.4207L164.779 19.7295L50.1725 133.828ZM87.2733 140.435L94.532 133.176L76.8547 119.852L87.2733 140.435Z" fill="#1380E2"/>
<path d="M66.1816 109.178L43.5654 96.7263L50.1725 90.1191L66.1816 109.178Z" fill="#4172CC"/>
<path d="M163.515 18.4658L66.1883 109.185L24.7513 67.7483C22.8757 65.8728 23.6088 62.6812 26.1147 61.8118L156.046 16.7502C158.659 15.8442 161.56 16.5105 163.515 18.4658V18.4658ZM165.534 20.4851L76.8477 119.844L116.252 159.248C118.127 161.124 121.319 160.391 122.188 157.885L167.25 27.9537C168.156 25.341 167.49 22.4405 165.534 20.4851V20.4851Z" fill="#A7D0FC"/>
<path d="M167.25 27.954L141.887 101.085C137.356 114.15 120.716 117.972 110.938 108.194C103.913 101.169 103.592 89.8812 110.208 82.4694L165.534 20.4851C167.49 22.4405 168.156 25.341 167.25 27.954V27.954ZM156.046 16.7502L82.9154 42.1127C69.8496 46.644 66.0277 63.2835 75.8063 73.0624L77.0716 74.3278C84.2074 81.4635 95.7128 81.6655 103.095 74.7846L163.515 18.4658C161.56 16.5105 158.659 15.8442 156.046 16.7502V16.7502Z" fill="#C8E2FD"/>
<path d="M71.8673 126.553L46.9637 151.457C46.6129 151.808 46.1529 151.983 45.6933 151.983C45.2336 151.983 44.7733 151.808 44.4229 151.457C43.721 150.755 43.721 149.617 44.4229 148.916L69.3265 124.013C70.0276 123.311 71.1661 123.311 71.8673 124.013C72.5691 124.714 72.5691 125.852 71.8673 126.553ZM74.2176 135.003C73.5165 134.301 72.378 134.301 71.6768 135.003L58.9715 147.709C58.2696 148.41 58.2696 149.548 58.9715 150.25C59.3222 150.601 59.7822 150.776 60.2419 150.776C60.7015 150.776 61.1619 150.601 61.5122 150.25L74.2176 137.544C74.9195 136.842 74.9195 135.705 74.2176 135.003ZM53.8881 152.791L48.8058 157.874C48.1043 158.575 48.1043 159.713 48.8062 160.415C49.1573 160.766 49.6169 160.941 50.0766 160.941C50.5362 160.941 50.9966 160.766 51.3473 160.415L56.4296 155.332C57.1311 154.63 57.1311 153.493 56.4292 152.791C55.7274 152.09 54.59 152.089 53.8881 152.791ZM69.9935 149.074L64.9109 154.157C64.209 154.859 64.209 155.996 64.9105 156.698C65.2616 157.049 65.7216 157.224 66.1812 157.224C66.6409 157.224 67.1012 157.049 67.4516 156.698L72.5343 151.616C73.2361 150.914 73.2361 149.776 72.5346 149.075C71.8328 148.373 70.6946 148.373 69.9935 149.074Z" fill="white"/>
</svg>
