<svg width="724" height="276" viewBox="0 0 724 276" fill="none" xmlns="http://www.w3.org/2000/svg">
<g filter="url(#filter0_df)">
<path d="M47.1572 9.34082L25.7156 40.1631L15.6338 38.3677L46.6389 7.22461L47.0011 7.58682C47.4708 8.05664 47.5366 8.79541 47.1572 9.34082Z" fill="#55A4F9"/>
<path d="M15.6338 38.3674L13.8384 28.2855L44.653 6.84931C45.2028 6.46688 45.9476 6.53319 46.4212 7.00673L46.7769 7.36239L15.6338 38.3674ZM25.7155 40.1628L27.688 38.1903L22.8844 34.5695L25.7155 40.1628Z" fill="#1380E2"/>
<path d="M19.9841 31.6673L13.8384 28.2837L15.6338 26.4883L19.9841 31.6673Z" fill="#4172CC"/>
<path d="M46.4334 7.01788L19.9859 31.6699L8.72587 20.4099C8.2162 19.9002 8.41542 19.0329 9.09637 18.7967L44.4039 6.55167C45.1139 6.30548 45.902 6.48654 46.4334 7.01788ZM46.9821 7.56661L22.8825 34.5664L33.5901 45.274C34.0998 45.7837 34.9671 45.5845 35.2033 44.9035L47.4483 9.59611C47.6945 8.88614 47.5135 8.09796 46.9821 7.56661Z" fill="#A7D0FC"/>
<path d="M47.4485 9.5962L40.5565 29.4687C39.3252 33.0192 34.8035 34.0577 32.1463 31.4005C30.2373 29.4915 30.1503 26.4242 31.948 24.4102L46.9823 7.56661C47.5137 8.09796 47.6947 8.88615 47.4485 9.5962ZM44.404 6.55167L24.5315 13.4437C20.9811 14.675 19.9425 19.1966 22.5997 21.8539L22.9436 22.1978C24.8826 24.1368 28.0091 24.1917 30.015 22.3219L46.4336 7.01788C45.9022 6.48654 45.1141 6.30548 44.404 6.55167Z" fill="#C8E2FD"/>
<path d="M21.529 36.3901L14.7617 43.1573C14.6664 43.2527 14.5414 43.3004 14.4165 43.3004C14.2916 43.3004 14.1665 43.2527 14.0713 43.1573C13.8805 42.9667 13.8805 42.6575 14.0713 42.4669L20.8386 35.6997C21.0291 35.509 21.3385 35.509 21.529 35.6997C21.7197 35.8903 21.7197 36.1995 21.529 36.3901ZM22.1677 38.6862C21.9771 38.4955 21.6678 38.4955 21.4772 38.6862L18.0247 42.1388C17.834 42.3295 17.834 42.6386 18.0247 42.8293C18.12 42.9247 18.245 42.9723 18.3699 42.9723C18.4948 42.9723 18.6199 42.9247 18.7151 42.8293L22.1677 39.3766C22.3584 39.186 22.3584 38.8768 22.1677 38.6862ZM16.6433 43.5199L15.2623 44.901C15.0717 45.0917 15.0717 45.4009 15.2624 45.5916C15.3578 45.6869 15.4827 45.7345 15.6076 45.7345C15.7325 45.7345 15.8576 45.6869 15.9529 45.5915L17.334 44.2103C17.5246 44.0197 17.5246 43.7105 17.3339 43.5198C17.1431 43.3293 16.8341 43.3292 16.6433 43.5199ZM21.0198 42.5099L19.6386 43.891C19.4479 44.0817 19.4479 44.3909 19.6386 44.5815C19.734 44.6769 19.859 44.7246 19.9839 44.7246C20.1088 44.7246 20.2339 44.6769 20.3291 44.5816L21.7102 43.2006C21.901 43.0098 21.901 42.7007 21.7103 42.51C21.5196 42.3193 21.2103 42.3194 21.0198 42.5099Z" fill="white"/>
</g>
<g filter="url(#filter1_df)">
<path d="M714.961 189.187L679.368 240.352L662.632 237.371L714.1 185.674L714.702 186.275C715.481 187.055 715.591 188.281 714.961 189.187Z" fill="#55A4F9"/>
<path d="M662.632 237.37L659.652 220.634L710.804 185.05C711.717 184.415 712.953 184.525 713.739 185.311L714.33 185.902L662.632 237.37ZM679.368 240.35L682.642 237.076L674.668 231.065L679.368 240.35Z" fill="#1380E2"/>
<path d="M669.854 226.249L659.652 220.633L662.632 217.652L669.854 226.249Z" fill="#4172CC"/>
<path d="M713.759 185.331L669.857 226.253L651.165 207.561C650.319 206.715 650.65 205.276 651.78 204.883L710.39 184.557C711.569 184.148 712.877 184.449 713.759 185.331ZM714.67 186.242L674.665 231.061L692.44 248.836C693.286 249.682 694.725 249.351 695.117 248.221L715.444 189.611C715.853 188.432 715.552 187.124 714.67 186.242Z" fill="#A7D0FC"/>
<path d="M715.444 189.611L704.003 222.599C701.959 228.493 694.453 230.217 690.042 225.806C686.874 222.637 686.729 217.545 689.713 214.202L714.67 186.242C715.552 187.124 715.853 188.432 715.444 189.611ZM710.39 184.557L677.402 195.997C671.508 198.041 669.784 205.547 674.195 209.958L674.766 210.529C677.985 213.748 683.175 213.839 686.505 210.735L713.759 185.331C712.877 184.449 711.569 184.148 710.39 184.557Z" fill="#C8E2FD"/>
<path d="M672.419 234.089L661.185 245.322C661.027 245.481 660.819 245.56 660.612 245.56C660.404 245.56 660.197 245.481 660.039 245.322C659.722 245.006 659.722 244.492 660.039 244.176L671.272 232.943C671.589 232.626 672.102 232.626 672.419 232.943C672.735 233.259 672.735 233.772 672.419 234.089ZM673.479 237.9C673.162 237.584 672.649 237.584 672.333 237.9L666.601 243.632C666.285 243.948 666.285 244.461 666.601 244.778C666.76 244.936 666.967 245.015 667.174 245.015C667.382 245.015 667.589 244.936 667.748 244.778L673.479 239.046C673.795 238.73 673.795 238.217 673.479 237.9ZM664.308 245.924L662.016 248.217C661.699 248.533 661.699 249.046 662.016 249.363C662.174 249.521 662.382 249.6 662.589 249.6C662.796 249.6 663.004 249.521 663.162 249.363L665.455 247.07C665.771 246.754 665.771 246.241 665.455 245.924C665.138 245.608 664.625 245.607 664.308 245.924ZM671.573 244.248L669.281 246.54C668.964 246.857 668.964 247.37 669.28 247.686C669.439 247.845 669.646 247.924 669.854 247.924C670.061 247.924 670.269 247.845 670.427 247.687L672.719 245.394C673.036 245.077 673.036 244.564 672.72 244.248C672.403 243.931 671.89 243.931 671.573 244.248Z" fill="white"/>
</g>
<defs>
<filter id="filter0_df" x="-6" y="-4" width="66" height="82" filterUnits="userSpaceOnUse" color-interpolation-filters="sRGB">
<feFlood flood-opacity="0" result="BackgroundImageFix"/>
<feColorMatrix in="SourceAlpha" type="matrix" values="0 0 0 0 0 0 0 0 0 0 0 0 0 0 0 0 0 0 127 0"/>
<feOffset dy="18"/>
<feGaussianBlur stdDeviation="4"/>
<feColorMatrix type="matrix" values="0 0 0 0 0 0 0 0 0 0.321569 0 0 0 0 0.705882 0 0 0 0.15 0"/>
<feBlend mode="normal" in2="BackgroundImageFix" result="effect1_dropShadow"/>
<feBlend mode="normal" in="SourceGraphic" in2="effect1_dropShadow" result="shape"/>
<feGaussianBlur stdDeviation="3" result="effect2_foregroundBlur"/>
</filter>
<filter id="filter1_df" x="632" y="171" width="99" height="115" filterUnits="userSpaceOnUse" color-interpolation-filters="sRGB">
<feFlood flood-opacity="0" result="BackgroundImageFix"/>
<feColorMatrix in="SourceAlpha" type="matrix" values="0 0 0 0 0 0 0 0 0 0 0 0 0 0 0 0 0 0 127 0"/>
<feOffset dy="18"/>
<feGaussianBlur stdDeviation="4"/>
<feColorMatrix type="matrix" values="0 0 0 0 0 0 0 0 0 0.321569 0 0 0 0 0.705882 0 0 0 0.15 0"/>
<feBlend mode="normal" in2="BackgroundImageFix" result="effect1_dropShadow"/>
<feBlend mode="normal" in="SourceGraphic" in2="effect1_dropShadow" result="shape"/>
<feGaussianBlur stdDeviation="3" result="effect2_foregroundBlur"/>
</filter>
</defs>
</svg>
