<svg width="272" height="357" viewBox="0 0 272 357" fill="none" xmlns="http://www.w3.org/2000/svg">
<g filter="url(#filter0_df)">
<path d="M47.1572 9.34082L25.7156 40.1631L15.6338 38.3677L46.6389 7.22461L47.0011 7.58682C47.4708 8.05664 47.5366 8.79541 47.1572 9.34082Z" fill="#55A4F9"/>
<path d="M15.6338 38.3674L13.8384 28.2855L44.653 6.84931C45.2028 6.46688 45.9476 6.53319 46.4212 7.00673L46.7769 7.36239L15.6338 38.3674ZM25.7155 40.1628L27.688 38.1903L22.8844 34.5695L25.7155 40.1628Z" fill="#1380E2"/>
<path d="M19.9841 31.6673L13.8384 28.2837L15.6338 26.4883L19.9841 31.6673Z" fill="#4172CC"/>
<path d="M46.4334 7.01788L19.9859 31.6699L8.72587 20.4099C8.2162 19.9002 8.41542 19.0329 9.09637 18.7967L44.4039 6.55167C45.1139 6.30548 45.902 6.48654 46.4334 7.01788ZM46.9821 7.56661L22.8825 34.5664L33.5901 45.274C34.0998 45.7837 34.9671 45.5845 35.2033 44.9035L47.4483 9.59611C47.6945 8.88614 47.5135 8.09796 46.9821 7.56661Z" fill="#A7D0FC"/>
<path d="M47.4485 9.5962L40.5565 29.4687C39.3252 33.0192 34.8035 34.0577 32.1463 31.4005C30.2373 29.4915 30.1503 26.4242 31.948 24.4102L46.9823 7.56661C47.5137 8.09796 47.6947 8.88615 47.4485 9.5962ZM44.404 6.55167L24.5315 13.4437C20.9811 14.675 19.9425 19.1966 22.5997 21.8539L22.9436 22.1978C24.8826 24.1368 28.0091 24.1917 30.015 22.3219L46.4336 7.01788C45.9022 6.48654 45.1141 6.30548 44.404 6.55167Z" fill="#C8E2FD"/>
<path d="M21.529 36.3901L14.7617 43.1573C14.6664 43.2527 14.5414 43.3004 14.4165 43.3004C14.2916 43.3004 14.1665 43.2527 14.0713 43.1573C13.8805 42.9667 13.8805 42.6575 14.0713 42.4669L20.8386 35.6997C21.0291 35.509 21.3385 35.509 21.529 35.6997C21.7197 35.8903 21.7197 36.1995 21.529 36.3901ZM22.1677 38.6862C21.9771 38.4955 21.6678 38.4955 21.4772 38.6862L18.0247 42.1388C17.834 42.3295 17.834 42.6386 18.0247 42.8293C18.12 42.9247 18.245 42.9723 18.3699 42.9723C18.4948 42.9723 18.6199 42.9247 18.7151 42.8293L22.1677 39.3766C22.3584 39.186 22.3584 38.8768 22.1677 38.6862ZM16.6433 43.5199L15.2623 44.901C15.0717 45.0917 15.0717 45.4009 15.2624 45.5916C15.3578 45.6869 15.4827 45.7345 15.6076 45.7345C15.7325 45.7345 15.8576 45.6869 15.9529 45.5915L17.334 44.2103C17.5246 44.0197 17.5246 43.7105 17.3339 43.5198C17.1431 43.3293 16.8341 43.3292 16.6433 43.5199ZM21.0198 42.5099L19.6386 43.891C19.4479 44.0817 19.4479 44.3909 19.6386 44.5815C19.734 44.6769 19.859 44.7246 19.9839 44.7246C20.1088 44.7246 20.2339 44.6769 20.3291 44.5816L21.7102 43.2006C21.901 43.0098 21.901 42.7007 21.7103 42.51C21.5196 42.3193 21.2103 42.3194 21.0198 42.5099Z" fill="white"/>
</g>
<g filter="url(#filter1_df)">
<path d="M263.482 311.817L252.332 327.845L247.089 326.911L263.212 310.717L263.4 310.905C263.645 311.149 263.679 311.534 263.482 311.817Z" fill="#55A4F9"/>
<path d="M247.09 326.911L246.156 321.668L262.18 310.521C262.466 310.323 262.853 310.357 263.099 310.603L263.284 310.788L247.09 326.911ZM252.332 327.844L253.358 326.819L250.86 324.936L252.332 327.844Z" fill="#1380E2"/>
<path d="M249.352 323.427L246.156 321.668L247.09 320.734L249.352 323.427Z" fill="#4172CC"/>
<path d="M263.105 310.609L249.353 323.428L243.498 317.573C243.233 317.308 243.336 316.857 243.69 316.734L262.05 310.367C262.419 310.239 262.829 310.333 263.105 310.609ZM263.391 310.895L250.859 324.935L256.427 330.503C256.692 330.768 257.143 330.664 257.266 330.31L263.633 311.95C263.761 311.581 263.667 311.171 263.391 310.895Z" fill="#A7D0FC"/>
<path d="M263.633 311.95L260.05 322.284C259.409 324.13 257.058 324.67 255.676 323.288C254.684 322.296 254.638 320.701 255.573 319.653L263.391 310.895C263.667 311.171 263.761 311.581 263.633 311.95ZM262.05 310.367L251.717 313.951C249.87 314.591 249.33 316.942 250.712 318.324L250.891 318.503C251.899 319.511 253.525 319.54 254.568 318.567L263.106 310.609C262.829 310.333 262.42 310.239 262.05 310.367Z" fill="#C8E2FD"/>
<path d="M250.156 325.883L246.637 329.402C246.587 329.451 246.522 329.476 246.457 329.476C246.392 329.476 246.327 329.451 246.278 329.402C246.178 329.302 246.178 329.142 246.278 329.043L249.796 325.524C249.896 325.424 250.056 325.424 250.156 325.524C250.255 325.623 250.255 325.783 250.156 325.883ZM250.488 327.077C250.389 326.977 250.228 326.977 250.129 327.077L248.333 328.872C248.234 328.971 248.234 329.132 248.333 329.231C248.383 329.281 248.448 329.305 248.513 329.305C248.578 329.305 248.643 329.281 248.692 329.231L250.488 327.436C250.587 327.336 250.587 327.176 250.488 327.077ZM247.615 329.59L246.897 330.308C246.798 330.407 246.798 330.568 246.897 330.667C246.946 330.717 247.011 330.742 247.076 330.742C247.141 330.742 247.206 330.717 247.256 330.667L247.974 329.949C248.073 329.85 248.073 329.689 247.974 329.59C247.875 329.491 247.714 329.491 247.615 329.59ZM249.891 329.065L249.173 329.783C249.073 329.882 249.073 330.043 249.172 330.142C249.222 330.192 249.287 330.217 249.352 330.217C249.417 330.217 249.482 330.192 249.532 330.142L250.25 329.424C250.349 329.325 250.349 329.164 250.25 329.065C250.151 328.966 249.99 328.966 249.891 329.065Z" fill="white"/>
</g>
<defs>
<filter id="filter0_df" x="-6" y="-4" width="66" height="82" filterUnits="userSpaceOnUse" color-interpolation-filters="sRGB">
<feFlood flood-opacity="0" result="BackgroundImageFix"/>
<feColorMatrix in="SourceAlpha" type="matrix" values="0 0 0 0 0 0 0 0 0 0 0 0 0 0 0 0 0 0 127 0"/>
<feOffset dy="18"/>
<feGaussianBlur stdDeviation="4"/>
<feColorMatrix type="matrix" values="0 0 0 0 0 0 0 0 0 0.321569 0 0 0 0 0.705882 0 0 0 0.15 0"/>
<feBlend mode="normal" in2="BackgroundImageFix" result="effect1_dropShadow"/>
<feBlend mode="normal" in="SourceGraphic" in2="effect1_dropShadow" result="shape"/>
<feGaussianBlur stdDeviation="3" result="effect2_foregroundBlur"/>
</filter>
<filter id="filter1_df" x="232" y="302" width="42" height="58" filterUnits="userSpaceOnUse" color-interpolation-filters="sRGB">
<feFlood flood-opacity="0" result="BackgroundImageFix"/>
<feColorMatrix in="SourceAlpha" type="matrix" values="0 0 0 0 0 0 0 0 0 0 0 0 0 0 0 0 0 0 127 0"/>
<feOffset dy="18"/>
<feGaussianBlur stdDeviation="4"/>
<feColorMatrix type="matrix" values="0 0 0 0 0 0 0 0 0 0.321569 0 0 0 0 0.705882 0 0 0 0.15 0"/>
<feBlend mode="normal" in2="BackgroundImageFix" result="effect1_dropShadow"/>
<feBlend mode="normal" in="SourceGraphic" in2="effect1_dropShadow" result="shape"/>
<feGaussianBlur stdDeviation="3" result="effect2_foregroundBlur"/>
</filter>
</defs>
</svg>
