<svg width="53" height="100" viewBox="0 0 53 100" fill="none" xmlns="http://www.w3.org/2000/svg">
<circle cx="49.1691" cy="10.713" r="3.83191" transform="rotate(-180 49.1691 10.713)" fill="#1D304F"/>
<circle cx="49.1691" cy="27.8654" r="3.83191" transform="rotate(-180 49.1691 27.8654)" fill="#1D304F"/>
<circle cx="49.1691" cy="45.0177" r="3.83191" transform="rotate(-180 49.1691 45.0177)" fill="#1D304F"/>
<circle cx="49.1691" cy="62.1681" r="3.83191" transform="rotate(-180 49.1691 62.1681)" fill="#1D304F"/>
<circle cx="49.1691" cy="78.9572" r="3.83191" transform="rotate(-180 49.1691 78.9572)" fill="#1D304F"/>
<circle cx="49.1691" cy="96.1095" r="3.83191" transform="rotate(-180 49.1691 96.1095)" fill="#1D304F"/>
<circle cx="32.0177" cy="10.713" r="3.83191" transform="rotate(-180 32.0177 10.713)" fill="#1D304F"/>
<circle cx="32.0177" cy="27.8654" r="3.83191" transform="rotate(-180 32.0177 27.8654)" fill="#1D304F"/>
<circle cx="32.0177" cy="45.0177" r="3.83191" transform="rotate(-180 32.0177 45.0177)" fill="#1D304F"/>
<circle cx="32.0177" cy="62.1681" r="3.83191" transform="rotate(-180 32.0177 62.1681)" fill="#1D304F"/>
<circle cx="32.0177" cy="78.9572" r="3.83191" transform="rotate(-180 32.0177 78.9572)" fill="#1D304F"/>
<circle cx="32.0157" cy="96.1095" r="3.83191" transform="rotate(-180 32.0157 96.1095)" fill="#1D304F"/>
<circle cx="15.2286" cy="10.713" r="3.83191" transform="rotate(-180 15.2286 10.713)" fill="#1D304F"/>
<circle cx="15.2286" cy="27.8654" r="3.83191" transform="rotate(-180 15.2286 27.8654)" fill="#1D304F"/>
<circle cx="15.2286" cy="45.0177" r="3.83191" transform="rotate(-180 15.2286 45.0177)" fill="#1D304F"/>
<circle cx="15.2286" cy="62.1681" r="3.83191" transform="rotate(-180 15.2286 62.1681)" fill="#1D304F"/>
<circle cx="15.2286" cy="78.9572" r="3.83191" transform="rotate(-180 15.2286 78.9572)" fill="#1D304F"/>
<circle cx="15.2286" cy="96.1095" r="3.83191" transform="rotate(-180 15.2286 96.1095)" fill="#1D304F"/>
<circle cx="-1.92371" cy="10.713" r="3.83191" transform="rotate(-180 -1.92371 10.713)" fill="#1D304F"/>
<circle cx="-1.92371" cy="27.8654" r="3.83191" transform="rotate(-180 -1.92371 27.8654)" fill="#1D304F"/>
<circle cx="-1.92371" cy="45.0177" r="3.83191" transform="rotate(-180 -1.92371 45.0177)" fill="#1D304F"/>
<circle cx="-1.92371" cy="62.1681" r="3.83191" transform="rotate(-180 -1.92371 62.1681)" fill="#1D304F"/>
<circle cx="-1.92371" cy="78.9572" r="3.83191" transform="rotate(-180 -1.92371 78.9572)" fill="#1D304F"/>
<circle cx="-1.92371" cy="96.1095" r="3.83191" transform="rotate(-180 -1.92371 96.1095)" fill="#1D304F"/>
</svg>
