<svg width="139" height="153" viewBox="0 0 139 153" fill="none" xmlns="http://www.w3.org/2000/svg">
<circle cx="124.5" cy="-1.1288" r="6.61903" transform="rotate(-180 124.5 -1.1288)" fill="#1D304F"/>
<circle cx="124.5" cy="28.4982" r="6.61903" transform="rotate(-180 124.5 28.4982)" fill="#1D304F"/>
<circle cx="124.5" cy="58.129" r="6.61903" transform="rotate(-180 124.5 58.129)" fill="#1D304F"/>
<circle cx="124.5" cy="87.754" r="6.61903" transform="rotate(-180 124.5 87.754)" fill="#1D304F"/>
<circle cx="124.5" cy="116.754" r="6.61903" transform="rotate(-180 124.5 116.754)" fill="#1D304F"/>
<circle cx="124.5" cy="146.381" r="6.61903" transform="rotate(-180 124.5 146.381)" fill="#1D304F"/>
<circle cx="94.8732" cy="-1.1288" r="6.61903" transform="rotate(-180 94.8732 -1.1288)" fill="#1D304F"/>
<circle cx="94.8722" cy="28.4982" r="6.61903" transform="rotate(-180 94.8722 28.4982)" fill="#1D304F"/>
<circle cx="94.8722" cy="58.129" r="6.61903" transform="rotate(-180 94.8722 58.129)" fill="#1D304F"/>
<circle cx="94.8722" cy="87.754" r="6.61903" transform="rotate(-180 94.8722 87.754)" fill="#1D304F"/>
<circle cx="94.8722" cy="116.754" r="6.61903" transform="rotate(-180 94.8722 116.754)" fill="#1D304F"/>
<circle cx="94.8722" cy="146.381" r="6.61903" transform="rotate(-180 94.8722 146.381)" fill="#1D304F"/>
<circle cx="65.2443" cy="-1.1288" r="6.61903" transform="rotate(-180 65.2443 -1.1288)" fill="#1D304F"/>
<circle cx="65.2443" cy="28.4982" r="6.61903" transform="rotate(-180 65.2443 28.4982)" fill="#1D304F"/>
<circle cx="65.2443" cy="58.129" r="6.61903" transform="rotate(-180 65.2443 58.129)" fill="#1D304F"/>
<circle cx="65.2443" cy="87.754" r="6.61903" transform="rotate(-180 65.2443 87.754)" fill="#1D304F"/>
<circle cx="65.2443" cy="116.754" r="6.61903" transform="rotate(-180 65.2443 116.754)" fill="#1D304F"/>
<circle cx="65.2443" cy="146.381" r="6.61903" transform="rotate(-180 65.2443 146.381)" fill="#1D304F"/>
<circle cx="36.2462" cy="-1.1288" r="6.61903" transform="rotate(-180 36.2462 -1.1288)" fill="#1D304F"/>
<circle cx="36.2462" cy="28.4982" r="6.61903" transform="rotate(-180 36.2462 28.4982)" fill="#1D304F"/>
<circle cx="36.2462" cy="58.129" r="6.61903" transform="rotate(-180 36.2462 58.129)" fill="#1D304F"/>
<circle cx="36.2462" cy="87.754" r="6.61903" transform="rotate(-180 36.2462 87.754)" fill="#1D304F"/>
<circle cx="36.2462" cy="116.754" r="6.61903" transform="rotate(-180 36.2462 116.754)" fill="#1D304F"/>
<circle cx="36.2462" cy="146.381" r="6.61903" transform="rotate(-180 36.2462 146.381)" fill="#1D304F"/>
<circle cx="6.61828" cy="-1.1288" r="6.61903" transform="rotate(-180 6.61828 -1.1288)" fill="#1D304F"/>
<circle cx="6.61828" cy="28.4982" r="6.61903" transform="rotate(-180 6.61828 28.4982)" fill="#1D304F"/>
<circle cx="6.61828" cy="58.129" r="6.61903" transform="rotate(-180 6.61828 58.129)" fill="#1D304F"/>
<circle cx="6.61828" cy="87.754" r="6.61903" transform="rotate(-180 6.61828 87.754)" fill="#1D304F"/>
<circle cx="6.61828" cy="116.754" r="6.61903" transform="rotate(-180 6.61828 116.754)" fill="#1D304F"/>
<circle cx="6.61828" cy="146.381" r="6.61903" transform="rotate(-180 6.61828 146.381)" fill="#1D304F"/>
</svg>
