<svg width="220" height="104" viewBox="0 0 220 104" fill="none" xmlns="http://www.w3.org/2000/svg">
<circle cx="212.754" cy="6.61925" r="6.61903" transform="rotate(-180 212.754 6.61925)" fill="#1D304F"/>
<circle cx="212.754" cy="35.6173" r="6.61903" transform="rotate(-180 212.754 35.6173)" fill="#1D304F"/>
<circle cx="212.754" cy="65.2442" r="6.61903" transform="rotate(-180 212.754 65.2442)" fill="#1D304F"/>
<circle cx="212.754" cy="94.8732" r="6.61903" transform="rotate(-180 212.754 94.8732)" fill="#1D304F"/>
<circle cx="183.126" cy="6.61925" r="6.61903" transform="rotate(-180 183.126 6.61925)" fill="#1D304F"/>
<circle cx="183.126" cy="35.6173" r="6.61903" transform="rotate(-180 183.126 35.6173)" fill="#1D304F"/>
<circle cx="183.126" cy="65.2442" r="6.61903" transform="rotate(-180 183.126 65.2442)" fill="#1D304F"/>
<circle cx="183.126" cy="94.8712" r="6.61903" transform="rotate(-180 183.126 94.8712)" fill="#1D304F"/>
<circle cx="154.128" cy="6.61925" r="6.61903" transform="rotate(-180 154.128 6.61925)" fill="#1D304F"/>
<circle cx="154.128" cy="35.6173" r="6.61903" transform="rotate(-180 154.128 35.6173)" fill="#1D304F"/>
<circle cx="154.128" cy="65.2442" r="6.61903" transform="rotate(-180 154.128 65.2442)" fill="#1D304F"/>
<circle cx="154.128" cy="94.8712" r="6.61903" transform="rotate(-180 154.128 94.8712)" fill="#1D304F"/>
<circle cx="124.5" cy="6.61925" r="6.61903" transform="rotate(-180 124.5 6.61925)" fill="#1D304F"/>
<circle cx="124.5" cy="35.6173" r="6.61903" transform="rotate(-180 124.5 35.6173)" fill="#1D304F"/>
<circle cx="124.5" cy="65.2442" r="6.61903" transform="rotate(-180 124.5 65.2442)" fill="#1D304F"/>
<circle cx="124.5" cy="94.8712" r="6.61903" transform="rotate(-180 124.5 94.8712)" fill="#1D304F"/>
<circle cx="94.8722" cy="6.61925" r="6.61903" transform="rotate(-180 94.8722 6.61925)" fill="#1D304F"/>
<circle cx="94.8722" cy="35.6173" r="6.61903" transform="rotate(-180 94.8722 35.6173)" fill="#1D304F"/>
<circle cx="94.8722" cy="65.2442" r="6.61903" transform="rotate(-180 94.8722 65.2442)" fill="#1D304F"/>
<circle cx="94.8722" cy="94.8712" r="6.61903" transform="rotate(-180 94.8722 94.8712)" fill="#1D304F"/>
<circle cx="65.2443" cy="6.61925" r="6.61903" transform="rotate(-180 65.2443 6.61925)" fill="#1D304F"/>
<circle cx="65.2443" cy="35.6173" r="6.61903" transform="rotate(-180 65.2443 35.6173)" fill="#1D304F"/>
<circle cx="65.2443" cy="65.2442" r="6.61903" transform="rotate(-180 65.2443 65.2442)" fill="#1D304F"/>
<circle cx="65.2443" cy="94.8712" r="6.61903" transform="rotate(-180 65.2443 94.8712)" fill="#1D304F"/>
<circle cx="36.2462" cy="6.61925" r="6.61903" transform="rotate(-180 36.2462 6.61925)" fill="#1D304F"/>
<circle cx="36.2462" cy="35.6173" r="6.61903" transform="rotate(-180 36.2462 35.6173)" fill="#1D304F"/>
<circle cx="36.2462" cy="65.2442" r="6.61903" transform="rotate(-180 36.2462 65.2442)" fill="#1D304F"/>
<circle cx="36.2462" cy="94.8732" r="6.61903" transform="rotate(-180 36.2462 94.8732)" fill="#1D304F"/>
<circle cx="6.61828" cy="6.61925" r="6.61903" transform="rotate(-180 6.61828 6.61925)" fill="#1D304F"/>
<circle cx="6.61828" cy="35.6173" r="6.61903" transform="rotate(-180 6.61828 35.6173)" fill="#1D304F"/>
<circle cx="6.61828" cy="65.2442" r="6.61903" transform="rotate(-180 6.61828 65.2442)" fill="#1D304F"/>
<circle cx="6.61828" cy="94.8732" r="6.61903" transform="rotate(-180 6.61828 94.8732)" fill="#1D304F"/>
</svg>
