<svg width="40" height="43" viewBox="0 0 40 43" fill="none" xmlns="http://www.w3.org/2000/svg">
<path d="M34.1438 33.3364C41.65 25.5035 41.3853 13.0687 33.5524 5.56248C25.7195 -1.94375 13.2847 -1.67892 5.77843 6.15388C-1.50274 13.752 -1.50274 25.7383 5.77843 33.3364L0.674623 40.1402C0.0829085 40.9293 0.242791 42.0486 1.03174 42.6403C1.8207 43.232 2.94009 43.0721 3.5318 42.2832L8.47845 35.6865C15.3216 40.6725 24.6005 40.6725 31.4435 35.6865L36.3902 42.2832C36.9819 43.0722 38.1013 43.2321 38.8903 42.6403C39.6793 42.0486 39.8392 40.9292 39.2474 40.1402L34.1438 33.3364ZM21.747 19.7823C21.747 20.1688 21.6216 20.5447 21.3899 20.8538L16.0325 27.997C15.4408 28.786 14.3214 28.9459 13.5325 28.3541C12.7435 27.7623 12.5835 26.643 13.1753 25.854L18.1755 19.1877V9.06767C18.1755 8.08137 18.9751 7.28185 19.9614 7.28185C20.9477 7.28185 21.7472 8.08137 21.7472 9.06767V19.7823H21.747Z" fill="white"/>
</svg>
