<svg width="501" height="500" viewBox="0 0 501 500" fill="none" xmlns="http://www.w3.org/2000/svg">
<g clip-path="url(#clip0)">
<path d="M250.756 484.453C380.683 484.453 486.009 379.412 486.009 249.838C486.009 120.263 380.683 15.2227 250.756 15.2227C120.83 15.2227 15.5039 120.263 15.5039 249.838C15.5039 379.412 120.83 484.453 250.756 484.453Z" stroke="#E2EEFF" stroke-width="30"/>
<path d="M416.673 417.809L433.288 412.862L420.686 400.986L416.673 417.809ZM13.2087 239.874C13.1696 240.701 13.8094 241.402 14.6378 241.442C15.4662 241.48 16.1695 240.843 16.2087 240.016L13.2087 239.874ZM84.3306 86.3659C175.633 -4.68875 323.809 -4.54968 415.292 86.6854L417.415 84.5678C324.764 -7.8334 174.686 -7.98005 82.2063 84.2484L84.3306 86.3659ZM415.292 86.6854C503.581 174.735 506.793 315.446 424.841 407.01L427.082 409.005C510.092 316.259 506.833 173.743 417.415 84.5678L415.292 86.6854ZM16.2087 240.016C18.8589 184.113 41.5619 129.019 84.3306 86.3659L82.2063 84.2484C38.8889 127.449 15.8929 183.257 13.2087 239.874L16.2087 240.016Z" fill="url(#paint0_linear)"/>
<path d="M248.802 15.219L233.547 7L234.037 24.2852L248.802 15.219ZM407.934 425.558C408.548 425.001 408.593 424.054 408.035 423.443C407.477 422.831 406.527 422.786 405.914 423.342L407.934 425.558ZM248.802 483.95C119.682 483.95 15.0032 379.359 15.0032 250.333H12C12 381.008 118.017 486.945 248.802 486.945V483.95ZM15.0032 250.333C15.0032 125.813 112.5 24.0496 235.37 17.096L235.2 14.1053C110.744 21.1484 12 124.22 12 250.333H15.0032ZM405.914 423.342C364.402 461.003 309.286 483.95 248.802 483.95V486.945C310.063 486.945 365.893 463.7 407.934 425.558L405.914 423.342Z" fill="url(#paint1_linear)"/>
<path d="M386.567 444.434C387.248 443.961 387.415 443.028 386.94 442.349C386.467 441.67 385.531 441.503 384.85 441.977L386.567 444.434ZM57.7617 385.082L59.7211 402.263L73.6609 391.98L57.7617 385.082ZM384.85 441.977C282.407 513.163 142.948 491.563 66.9846 395L64.6218 396.849C141.566 494.658 282.813 516.53 386.567 444.434L384.85 441.977Z" fill="url(#paint2_linear)"/>
</g>
<defs>
<linearGradient id="paint0_linear" x1="443.961" y1="390.596" x2="111.46" y2="57.1922" gradientUnits="userSpaceOnUse">
<stop stop-color="#497BC1"/>
<stop offset="0.364134" stop-color="#E2EEFF"/>
</linearGradient>
<linearGradient id="paint1_linear" x1="210.213" y1="15.219" x2="210.213" y2="485.448" gradientUnits="userSpaceOnUse">
<stop stop-color="#497BC1"/>
<stop offset="0.364134" stop-color="#E2EEFF"/>
</linearGradient>
<linearGradient id="paint2_linear" x1="79.8225" y1="416.657" x2="465.994" y2="146.852" gradientUnits="userSpaceOnUse">
<stop stop-color="#497BC1"/>
<stop offset="0.103886" stop-color="#E2EEFF"/>
</linearGradient>
<clipPath id="clip0">
<rect width="501" height="500" fill="white"/>
</clipPath>
</defs>
</svg>
