<svg width="50" height="50" viewBox="0 0 50 50" fill="none" xmlns="http://www.w3.org/2000/svg">
<g clip-path="url(#clip0)">
<path d="M28.5715 27.5664H21.4286C19.9493 27.5664 18.75 28.7653 18.75 30.245V32.0307H31.25V30.245C31.25 28.7653 30.0507 27.5664 28.5715 27.5664Z" fill="white"/>
<path d="M27.6785 21.3153C27.6785 22.7945 26.4791 23.9939 24.9999 23.9939C23.5206 23.9939 22.3213 22.7945 22.3213 21.3153C22.3213 19.8356 23.5206 18.6367 24.9999 18.6367C26.4791 18.6367 27.6785 19.8356 27.6785 21.3153Z" fill="white"/>
<path d="M34.8207 15.0664H15.1777V35.6022H34.8207V15.0664ZM33.0349 32.9236C33.0349 33.4167 32.6352 33.8165 32.1421 33.8165H17.8563C17.3632 33.8165 16.9635 33.4167 16.9635 32.9236V30.245C16.9665 27.7805 18.9632 25.7833 21.4278 25.7807H24.9992C22.5334 25.7807 20.5349 23.7818 20.5349 21.3164C20.5349 18.8506 22.5334 16.8521 24.9992 16.8521C27.4646 16.8521 29.4635 18.8506 29.4635 21.3164C29.4605 23.7805 27.4633 25.7777 24.9992 25.7807H28.5706C31.0347 25.7833 33.0319 27.7805 33.0349 30.245V32.9236Z" fill="white"/>
<path d="M25.8932 3.45927C25.8932 3.95235 25.4934 4.35213 25.0003 4.35213C24.5072 4.35213 24.1074 3.95235 24.1074 3.45927C24.1074 2.96575 24.5072 2.56641 25.0003 2.56641C25.4934 2.56641 25.8932 2.96575 25.8932 3.45927Z" fill="white"/>
<path d="M20.9007 2.56139H16.2402C15.6538 2.56227 15.1786 3.03747 15.1777 3.62385V7.91856H34.8207V3.62385C34.8198 3.03747 34.3446 2.56227 33.7582 2.56139H29.0973C28.7442 2.56096 28.4242 2.353 28.2812 2.02995C27.7109 0.725537 26.4226 -0.117188 24.9992 -0.117188C23.5758 -0.117188 22.287 0.725537 21.7168 2.02995C21.5738 2.353 21.2538 2.56096 20.9007 2.56139ZM24.9992 0.775673C26.4784 0.775673 27.6778 1.97458 27.6778 3.45426C27.6778 4.93349 26.4784 6.13284 24.9992 6.13284C23.52 6.13284 22.3206 4.93349 22.3206 3.45426C22.3206 1.97458 23.52 0.775673 24.9992 0.775673Z" fill="white"/>
<path d="M10.7137 5.24609C9.2344 5.24609 8.03516 6.44534 8.03516 7.92468V43.8891C8.03516 47.2028 10.7214 49.8891 14.0352 49.8891H35.9639C39.2776 49.8891 41.9639 47.2028 41.9639 43.8891V7.92467C41.9639 6.44533 40.7646 5.24609 39.2853 5.24609C37.8059 5.24609 36.6067 6.44534 36.6067 7.92468V8.81754C36.6067 9.31062 36.2069 9.7104 35.7138 9.7104H14.2852C13.7921 9.7104 13.3923 9.31062 13.3923 8.81754V7.92468C13.3923 6.44534 12.1931 5.24609 10.7137 5.24609ZM33.9281 45.4248C33.9281 45.9179 33.5284 46.3177 33.0353 46.3177H16.9638C16.4706 46.3177 16.0709 45.9179 16.0709 45.4248C16.0709 44.9317 16.4706 44.532 16.9638 44.532H33.0353C33.5284 44.532 33.9281 44.9317 33.9281 45.4248ZM21.4281 42.7462C20.935 42.7462 20.5352 42.3465 20.5352 41.8534C20.5352 41.3603 20.935 40.9605 21.4281 40.9605H28.571C29.0641 40.9605 29.4638 41.3603 29.4638 41.8534C29.4638 42.3465 29.0641 42.7462 28.5709 42.7462H21.4281ZM14.2852 13.2818H35.7138C36.2069 13.2818 36.6067 13.6812 36.6067 14.1747V36.4962C36.6067 36.9893 36.2069 37.3891 35.7138 37.3891H14.2852C13.7921 37.3891 13.3923 36.9893 13.3923 36.4962V14.1747C13.3923 13.6812 13.7921 13.2818 14.2852 13.2818Z" fill="white"/>
</g>
<defs>
<clipPath id="clip0">
<rect width="50" height="50" fill="white"/>
</clipPath>
</defs>
</svg>
