<svg width="50" height="50" viewBox="0 0 50 50" fill="none" xmlns="http://www.w3.org/2000/svg">
<g clip-path="url(#clip0)">
<path d="M6.24987 22.9141C5.71654 22.9141 5.1832 22.7099 4.77695 22.3036C3.96237 21.4891 3.96237 20.1724 4.77695 19.3578L19.1645 4.97031C19.979 4.15573 21.2957 4.15573 22.1103 4.97031C22.9249 5.7849 22.9249 7.10156 22.1103 7.91615L7.72279 22.3036C7.31654 22.7099 6.7832 22.9141 6.24987 22.9141Z" fill="white"/>
<path d="M23.4373 12.5026C23.0311 12.5026 22.6311 12.3443 22.3332 12.0443L15.0415 4.7526C14.5936 4.30677 14.4603 3.63385 14.7019 3.05052C14.9436 2.46719 15.5144 2.08594 16.1457 2.08594H23.4373C24.2998 2.08594 24.9998 2.78594 24.9998 3.64844V10.9401C24.9998 11.5714 24.6186 12.1422 24.0352 12.3839C23.8415 12.463 23.6394 12.5026 23.4373 12.5026Z" fill="white"/>
<path d="M14.584 31.7682V43.7474H2.08398V31.7682C2.08398 30.3307 3.25065 29.1641 4.68815 29.1641H11.9798C13.4173 29.1641 14.584 30.3307 14.584 31.7682Z" fill="white"/>
<path d="M31.25 23.4401V43.7526H18.75V23.4401C18.75 22.0026 19.9167 20.8359 21.3542 20.8359H28.6458C30.0833 20.8359 31.25 22.0026 31.25 23.4401Z" fill="white"/>
<path d="M47.916 15.1042V43.75H35.416V15.1042C35.416 13.6667 36.5827 12.5 38.0202 12.5H45.3118C46.7493 12.5 47.916 13.6667 47.916 15.1042Z" fill="white"/>
<path d="M48.4375 50H1.5625C0.7 50 0 49.3 0 48.4375C0 47.575 0.7 46.875 1.5625 46.875H48.4375C49.3 46.875 50 47.575 50 48.4375C50 49.3 49.3 50 48.4375 50Z" fill="white"/>
</g>
<defs>
<clipPath id="clip0">
<rect width="50" height="50" fill="white"/>
</clipPath>
</defs>
</svg>
