<svg width="22" height="22" viewBox="0 0 22 22" fill="none" xmlns="http://www.w3.org/2000/svg">
<path d="M11 0C4.93436 0 0 4.93436 0 11C0 17.0656 4.93436 22 11 22C17.0656 22 22 17.0656 22 11C22 4.93436 17.0656 0 11 0Z" fill="#2196F3"/>
<path d="M16.5748 8.67047L10.6164 14.6287C10.4376 14.8074 10.203 14.8974 9.96832 14.8974C9.73367 14.8974 9.49902 14.8074 9.32027 14.6287L6.34116 11.6496C5.98264 11.2912 5.98264 10.7118 6.34116 10.3535C6.69951 9.99495 7.27875 9.99495 7.63727 10.3535L9.96832 12.6845L15.2787 7.37436C15.637 7.01584 16.2162 7.01584 16.5748 7.37436C16.9331 7.73271 16.9331 8.31195 16.5748 8.67047Z" fill="#FAFAFA"/>
</svg>
