<svg width="40" height="50" viewBox="0 0 40 50" fill="none" xmlns="http://www.w3.org/2000/svg">
<path d="M0.688059 26.7507C0.382707 24.1043 0.637167 21.5495 1.3293 19.1881C3.62962 11.3406 10.8461 5.56942 19.4062 5.46764V0.337718C19.4062 0.0527224 19.7624 -0.0999537 19.9965 0.0730793L30.5515 7.82903C30.7245 7.96135 30.7245 8.22598 30.5515 8.34812L20.0067 16.1041C19.7624 16.2771 19.4163 16.1244 19.4163 15.8394V10.7197C13.7877 10.8113 8.98346 14.2821 6.91724 19.1881C6.13351 21.0406 5.73655 23.0865 5.84851 25.2341C6.00119 28.1858 7.11063 30.9035 8.86132 33.102C9.79773 34.2725 9.57381 35.9825 8.36258 36.868C7.21242 37.7128 5.60423 37.4787 4.71871 36.3591C2.55071 33.6516 1.10537 30.3538 0.688059 26.7507ZM31.1622 16.898C32.9231 19.0863 34.0325 21.8142 34.175 24.7659C34.287 26.9237 33.8798 28.9696 33.1063 30.8119C31.0401 35.7179 26.2359 39.1989 20.6072 39.2803V34.1606C20.6072 33.8756 20.251 33.7229 20.0169 33.8959L9.46185 41.6519C9.28881 41.7842 9.28881 42.0488 9.46185 42.171L20.0067 49.9269C20.251 50.0999 20.597 49.9473 20.597 49.6623V44.5324C29.1571 44.4408 36.3837 38.6696 38.6739 30.8119C39.366 28.4505 39.6103 25.8957 39.3151 23.2493C38.908 19.6462 37.4626 16.3484 35.2946 13.6409C34.3989 12.5213 32.8009 12.2872 31.6508 13.132C30.4497 14.0175 30.2258 15.7275 31.1622 16.898Z" fill="white"/>
</svg>
