<svg width="50" height="50" viewBox="0 0 50 50" fill="none" xmlns="http://www.w3.org/2000/svg">
<g clip-path="url(#clip0)">
<path d="M13.1836 0C10.7604 0 8.78906 1.97129 8.78906 4.39453C8.78906 6.81777 10.7604 8.78906 13.1836 8.78906C15.6068 8.78906 17.5781 6.81777 17.5781 4.39453C17.5781 1.97129 15.6068 0 13.1836 0Z" fill="white"/>
<path d="M45.6055 0H24.9023C22.4791 0 20.5078 1.97129 20.5078 4.39453V9.5998C20.9416 9.85244 21.3562 10.1411 21.7209 10.5057L24.5934 13.3781L26.6762 12.3367C28.0726 11.6409 29.2868 11.6112 30.5556 11.8892L37.5853 8.37422C39.7521 7.30078 42.3807 8.14512 43.479 10.3354C44.5735 12.5216 43.6854 15.1518 41.5163 16.2363L34.7795 19.6047C34.2622 21.0071 33.26 22.1497 31.9147 22.821L30.6816 23.4375H45.6055C48.0287 23.4375 50 21.4662 50 19.043V4.39453C50 1.97129 48.0287 0 45.6055 0Z" fill="white"/>
<path d="M40.8611 11.6488C40.4978 10.925 39.6209 10.6346 38.8956 10.9936L30.7265 15.0781C29.9131 14.6118 28.9126 14.4954 27.9865 14.9567L24.0154 16.9423L19.6495 12.5764C19.0959 12.0226 18.3606 11.718 17.5781 11.718H5.85938C2.62783 11.718 0 14.3458 0 17.5773V26.4641C0 28.4834 2.01201 29.9013 3.90674 29.2264L5.85938 28.5369C5.85938 35.0043 5.85938 40.5751 5.85938 47.0695C5.85938 48.6874 7.171 49.9992 8.78906 49.9992C10.4071 49.9992 11.7188 48.6874 11.7188 47.0695C11.7188 43.2118 11.7188 40.3732 11.7188 36.718C11.7188 35.9088 12.3746 35.2531 13.1836 35.2531C13.9926 35.2531 14.6484 35.9088 14.6484 36.718C14.6484 40.4917 14.6484 43.198 14.6484 47.0695C14.6484 48.6874 15.9601 49.9992 17.5781 49.9992C19.1962 49.9992 20.5078 48.6874 20.5078 47.0695C20.5078 38.0492 20.5078 31.5108 20.5078 22.5655L22.4605 23.2536C23.277 23.5426 24.0476 23.4766 24.7479 23.1277L30.6072 20.198C31.6204 19.6926 32.1743 18.6768 32.1922 17.6212L40.206 13.6143C40.9298 13.2524 41.223 12.3726 40.8611 11.6488Z" fill="white"/>
</g>
<defs>
<clipPath id="clip0">
<rect width="50" height="50" fill="white"/>
</clipPath>
</defs>
</svg>
