<svg width="50" height="38" viewBox="0 0 50 38" fill="none" xmlns="http://www.w3.org/2000/svg">
<path d="M1.04364 3.29258C7.90594 9.1042 19.9471 19.3286 23.4862 22.5166C23.9613 22.9469 24.4709 23.1656 24.9999 23.1656C25.5278 23.1656 26.0365 22.9489 26.5105 22.5207C30.0526 19.3296 42.0938 9.1042 48.9562 3.29258C49.3835 2.93145 49.4486 2.29668 49.1027 1.85518C48.3031 0.834961 47.1109 0.25 45.8332 0.25H4.16658C2.88895 0.25 1.69666 0.834961 0.897151 1.85527C0.551252 2.29668 0.616389 2.93145 1.04364 3.29258Z" fill="#2096F3"/>
<path d="M49.3956 6.44086C49.0264 6.26899 48.592 6.32895 48.2848 6.59145C43.7905 10.401 37.8691 15.4344 33.4034 19.2755C33.1684 19.477 33.0362 19.773 33.0413 20.0832C33.0464 20.3925 33.1898 20.6844 33.4319 20.8777C37.5813 24.201 43.8344 28.7726 48.3499 32.0217C48.53 32.1519 48.7436 32.218 48.9582 32.218C49.121 32.218 49.2837 32.1804 49.4333 32.1031C49.7813 31.925 49.9999 31.5669 49.9999 31.1763V7.38588C49.9998 6.98002 49.7638 6.61079 49.3956 6.44086Z" fill="#2096F3"/>
<path d="M1.65 32.0208C6.1666 28.7717 12.4207 24.2002 16.569 20.8768C16.8111 20.6835 16.9546 20.3915 16.9597 20.0824C16.9647 19.7721 16.8325 19.4761 16.5976 19.2746C12.1317 15.4335 6.20928 10.4001 1.71514 6.59055C1.40586 6.32805 0.970508 6.27014 0.604297 6.43997C0.236035 6.60989 0 6.97912 0 7.38498V31.1755C0 31.5661 0.21875 31.9243 0.566602 32.1023C0.716113 32.1796 0.878906 32.2172 1.0417 32.2172C1.25635 32.2172 1.46992 32.1511 1.65 32.0208Z" fill="#2096F3"/>
<path d="M48.7231 34.8554C44.3622 31.7355 36.3289 25.9189 31.5336 22.0268C31.1429 21.7084 30.5773 21.7186 30.1928 22.0502C29.2519 22.8711 28.4645 23.5629 27.906 24.0654C26.1909 25.6136 23.8105 25.6136 22.0914 24.0633C21.5349 23.5619 20.7476 22.868 19.8066 22.0501C19.4252 21.7164 18.8586 21.7063 18.4669 22.0267C13.6878 25.9055 5.64538 31.7292 1.27732 34.8553C1.03415 35.0303 0.877514 35.2998 0.847045 35.5979C0.817553 35.8959 0.916185 36.1919 1.12068 36.4117C1.90915 37.2612 3.01999 37.7485 4.16648 37.7485H45.8332C46.9797 37.7485 48.0894 37.2612 48.8799 36.4118C49.0833 36.193 49.183 35.897 49.1535 35.599C49.1229 35.301 48.9663 35.0304 48.7231 34.8554Z" fill="#2096F3"/>
</svg>
