<svg width="70" height="70" viewBox="0 0 70 70" fill="none" xmlns="http://www.w3.org/2000/svg">
<g clip-path="url(#clip0)">
<path d="M68.6328 67.2656H45.9375V43.75H56.3281C56.8812 43.75 57.3796 43.4169 57.5911 42.906C57.8028 42.3952 57.6859 41.8071 57.2949 41.416L35.9667 20.0879C35.4327 19.554 34.567 19.554 34.0331 20.0879L12.705 41.416C12.3141 41.8071 12.1971 42.3952 12.4087 42.906C12.6204 43.4168 13.119 43.75 13.6719 43.75H24.0625V67.2656H1.36719C0.61209 67.2656 0 67.8777 0 68.6328C0 69.3879 0.61209 70 1.36719 70H25.4297C26.1848 70 26.7969 69.3879 26.7969 68.6328V42.3828C26.7969 41.6277 26.1848 41.0156 25.4297 41.0156H16.9725L35 22.9881L53.0275 41.0156H44.5703C43.8152 41.0156 43.2031 41.6277 43.2031 42.3828V68.6328C43.2031 69.3879 43.8152 70 44.5703 70H68.6328C69.3879 70 70 69.3879 70 68.6328C70 67.8777 69.3879 67.2656 68.6328 67.2656Z" fill="#2295F2"/>
<path d="M67.1387 31.5772L35.9668 0.405298C35.4328 -0.128589 34.5671 -0.128589 34.0332 0.405298L2.86133 31.5772C2.47045 31.9682 2.35342 32.5564 2.56506 33.0671C2.7767 33.5779 3.27531 33.9111 3.8282 33.9111H15.8138C16.5689 33.9111 17.181 33.299 17.181 32.5439C17.181 31.7888 16.5689 31.1767 15.8138 31.1767H7.12886L35.0001 3.30551L62.8713 31.1767H54.3686C53.6135 31.1767 53.0014 31.7888 53.0014 32.5439C53.0014 33.299 53.6135 33.9111 54.3686 33.9111H66.172C66.725 33.9111 67.2233 33.5781 67.435 33.0671C67.6466 32.5562 67.5297 31.9682 67.1387 31.5772Z" fill="#2295F2"/>
<path d="M39.6484 50.1758C38.8933 50.1758 38.2812 50.7879 38.2812 51.543V66.2185C38.2812 66.9736 38.8933 67.5857 39.6484 67.5857C40.4035 67.5857 41.0156 66.9736 41.0156 66.2185V51.543C41.0156 50.7879 40.4035 50.1758 39.6484 50.1758Z" fill="#2295F2"/>
<path d="M39.6484 45.708C38.8933 45.708 38.2812 46.3201 38.2812 47.0752V47.093C38.2812 47.8481 38.8933 48.4602 39.6484 48.4602C40.4035 48.4602 41.0156 47.8481 41.0156 47.093V47.0752C41.0156 46.3201 40.4035 45.708 39.6484 45.708Z" fill="#2295F2"/>
</g>
<defs>
<clipPath id="clip0">
<rect width="70" height="70" fill="white"/>
</clipPath>
</defs>
</svg>
