<svg width="14" height="14" viewBox="0 0 14 14" fill="none" xmlns="http://www.w3.org/2000/svg">
<path d="M11.9792 7.47314H10.8965C11.0068 7.77529 11.0671 8.10137 11.0671 8.44122V12.5332C11.0671 12.6749 11.0425 12.8109 10.9976 12.9374H12.7875C13.4562 12.9374 14.0001 12.3934 14.0001 11.7248V9.4941C14.0001 8.37976 13.0935 7.47314 11.9792 7.47314Z" fill="#2096F3"/>
<path d="M2.93303 8.44171C2.93303 8.10183 2.99333 7.77578 3.10369 7.47363H2.02098C0.906611 7.47363 0 8.38024 0 9.49461V11.7253C0 12.394 0.54395 12.9379 1.21259 12.9379H3.00257C2.9577 12.8114 2.93303 12.6754 2.93303 12.5337V8.44171Z" fill="#2096F3"/>
<path d="M8.2374 6.42041H5.76219C4.64782 6.42041 3.74121 7.32702 3.74121 8.44139V12.5334C3.74121 12.7566 3.92217 12.9376 4.14541 12.9376H9.85418C10.0774 12.9376 10.2584 12.7566 10.2584 12.5334V8.44139C10.2584 7.32702 9.35177 6.42041 8.2374 6.42041Z" fill="#2096F3"/>
<path d="M6.99981 1.06201C5.65964 1.06201 4.56934 2.15232 4.56934 3.49252C4.56934 4.40157 5.07107 5.19549 5.81203 5.61232C6.16348 5.81002 6.56865 5.923 6.99981 5.923C7.43097 5.923 7.83615 5.81002 8.18759 5.61232C8.92858 5.19549 9.43028 4.40154 9.43028 3.49252C9.43028 2.15235 8.33998 1.06201 6.99981 1.06201Z" fill="#2096F3"/>
<path d="M2.73174 3.32715C1.72945 3.32715 0.914062 4.14254 0.914062 5.14483C0.914062 6.14711 1.72945 6.96251 2.73174 6.96251C2.98598 6.96251 3.22809 6.90984 3.44801 6.81518C3.82826 6.65147 4.14178 6.36168 4.33578 5.99869C4.47196 5.74393 4.54942 5.45329 4.54942 5.14483C4.54942 4.14257 3.73403 3.32715 2.73174 3.32715Z" fill="#2096F3"/>
<path d="M11.2679 3.32715C10.2656 3.32715 9.4502 4.14254 9.4502 5.14483C9.4502 5.45332 9.52766 5.74396 9.66383 5.99869C9.85784 6.36171 10.1714 6.6515 10.5516 6.81518C10.7715 6.90984 11.0136 6.96251 11.2679 6.96251C12.2702 6.96251 13.0856 6.14711 13.0856 5.14483C13.0856 4.14254 12.2702 3.32715 11.2679 3.32715Z" fill="#2096F3"/>
</svg>
