<svg width="70" height="70" viewBox="0 0 70 70" fill="none" xmlns="http://www.w3.org/2000/svg">
<path d="M52.5 27.3438C55.5155 27.3438 57.9688 24.8905 57.9688 21.875C57.9688 18.8595 55.5155 16.4062 52.5 16.4062C49.4845 16.4062 47.0312 18.8595 47.0312 21.875C47.0312 24.8905 49.4845 27.3438 52.5 27.3438ZM52.5 18.5938C54.3091 18.5938 55.7812 20.0659 55.7812 21.875C55.7812 23.6841 54.3091 25.1562 52.5 25.1562C50.6909 25.1562 49.2188 23.6841 49.2188 21.875C49.2188 20.0659 50.6909 18.5938 52.5 18.5938Z" fill="#2295F2"/>
<path d="M42.1619 18.3203L40.4688 18.9109V24.8391L42.1619 25.4297C42.3084 25.8584 42.4802 26.273 42.6737 26.6744L41.8961 28.2877L46.0884 32.4789L47.7006 31.7002C48.1009 31.8959 48.5166 32.0666 48.9431 32.2131L49.5359 33.9062H55.4641L56.0558 32.212C56.4834 32.0655 56.8991 31.8948 57.2983 31.6991L58.9105 32.4778L63.1028 28.2866L62.3252 26.6733C62.5198 26.273 62.6905 25.8573 62.837 25.4286L64.5312 24.8391V18.9109L62.8381 18.3203C62.6916 17.8916 62.5198 17.477 62.3263 17.0756L63.1039 15.4623L58.9116 11.2711L57.2983 12.0487C56.8991 11.8541 56.4834 11.6834 56.0558 11.5369L55.4641 9.84375H49.5359L48.9442 11.538C48.5155 11.6845 48.1009 11.8552 47.7006 12.0498L46.0884 11.2722L41.8961 15.4634L42.6737 17.0767C42.4802 17.477 42.3084 17.8916 42.1619 18.3203ZM44.0934 19.472C44.2794 18.8191 44.5353 18.1989 44.8536 17.628L45.1303 17.1314L44.5419 15.9119L46.538 13.9169L47.7564 14.5042L48.253 14.2286C48.8217 13.9114 49.4419 13.6566 50.097 13.4695L50.6428 13.3131L51.0891 12.0312H53.9109L54.3583 13.3131L54.9041 13.4695C55.5581 13.6555 56.1783 13.9114 56.7492 14.2286L57.2447 14.5042L58.4631 13.9169L60.4592 15.9119L59.8708 17.1314L60.1475 17.628C60.4658 18.1978 60.7217 18.8191 60.9077 19.472L61.0641 20.0178L62.3438 20.4641V23.2859L61.063 23.7322L60.9066 24.278C60.7206 24.9309 60.4647 25.5511 60.1464 26.122L59.8697 26.6186L60.4581 27.8381L58.4631 29.8331L57.2447 29.2447L56.7481 29.5203C56.1772 29.8397 55.5559 30.0945 54.9041 30.2805L54.3583 30.4369L53.9109 31.7188H51.0891L50.6417 30.4369L50.0959 30.2805C49.4441 30.0945 48.8228 29.8397 48.2519 29.5203L47.7553 29.2447L46.5369 29.8331L44.5419 27.8381L45.1303 26.6186L44.8536 26.122C44.5353 25.5522 44.2794 24.9309 44.0934 24.278L43.937 23.7322L42.6562 23.2859V20.4641L43.937 20.0178L44.0934 19.472Z" fill="#2295F2"/>
<path d="M24.5109 28.0801L36.1452 20.8088C36.6592 30.144 42.3894 38.4193 51.0573 42.1337L52.5 42.7527L53.9427 42.1348C63.0328 38.2388 68.9062 29.3313 68.9062 19.4416V6.56273H67.6047C62.3514 6.56273 57.237 4.71102 53.2 1.34664L52.5 0.763672L51.8 1.34664C47.763 4.71102 42.6486 6.56273 37.3953 6.56273H36.0938V12.1124C35.6748 12.1977 35.2713 12.3465 34.9048 12.5729L23.9389 19.3213C22.6297 20.1263 21.1531 20.5901 19.6317 20.7224C21.0164 19.3366 21.875 17.4226 21.875 15.3127C21.875 11.092 18.4406 7.65648 14.2188 7.65648C9.99687 7.65648 6.5625 11.092 6.5625 15.3127C6.5625 17.7584 7.71969 19.9349 9.51125 21.3382C4.6375 22.876 1.09375 27.438 1.09375 32.8127V41.5627C1.09375 44.5782 3.54703 47.0315 6.5625 47.0315V64.5315C6.5625 66.9443 8.52469 68.9065 10.9375 68.9065C13.3503 68.9065 15.3125 66.9443 15.3125 64.5315V45.9377H21.875V55.7815C21.875 56.5821 22.1069 57.3226 22.4831 57.969H19.6875V66.719H17.5V68.9065H65.625V66.719H63.4375V44.844H50.3125V66.719H48.125V51.4065H35V66.719H32.8125V57.969H30.0169C30.3931 57.3226 30.625 56.5821 30.625 55.7815V42.6565C30.625 39.641 28.1717 37.1877 25.1562 37.1877H22.9677L22.9688 30.8626C22.9688 29.724 23.5452 28.6838 24.5109 28.0801ZM52.5 3.58992C56.5786 6.7432 61.5672 8.54789 66.7188 8.73383V19.4416C66.7188 28.4541 61.3659 36.573 53.0808 40.1234L52.5 40.3727L51.9192 40.1234C43.6439 36.5774 38.2955 28.4727 38.2823 19.4723L38.7527 19.1791C39.8267 18.5076 40.4688 17.3504 40.4688 16.0827V15.6824C40.4688 14.1905 39.5664 12.9087 38.2812 12.3432V8.73383C43.4328 8.54789 48.4214 6.7432 52.5 3.58992ZM13.125 22.969H17.0866L14.2188 26.656L11.4691 23.1199C12.0083 23.028 12.5595 22.969 13.125 22.969ZM8.75 15.3127C8.75 12.2973 11.2033 9.84398 14.2188 9.84398C17.2342 9.84398 19.6875 12.2973 19.6875 15.3127C19.6875 18.3282 17.2342 20.7815 14.2188 20.7815C11.2033 20.7815 8.75 18.3282 8.75 15.3127ZM52.5 47.0315H61.25V66.719H52.5V47.0315ZM37.1875 53.594H45.9375V66.719H37.1875V53.594ZM30.625 66.719H21.875V60.1565H30.625V66.719ZM25.1562 39.3752C26.9653 39.3752 28.4375 40.8474 28.4375 42.6565V55.7815C28.4375 56.9879 27.4564 57.969 26.25 57.969C25.0436 57.969 24.0625 56.9879 24.0625 55.7815V45.9377C24.0625 44.7313 23.0814 43.7502 21.875 43.7502H15.3125V39.3752H13.125V64.5315C13.125 65.7379 12.1439 66.719 10.9375 66.719C9.73109 66.719 8.75 65.7379 8.75 64.5315V28.4377H6.5625V44.844C4.75344 44.844 3.28125 43.3718 3.28125 41.5627V32.8127C3.28125 28.7746 5.72687 25.2998 9.21375 23.7838L14.2188 30.2195L19.9194 22.8902C21.7448 22.7163 23.5134 22.1509 25.0841 21.184L36.05 14.4355C36.2808 14.2934 36.5466 14.219 36.8178 14.219C37.6239 14.219 38.2812 14.8763 38.2812 15.6824V16.0827C38.2812 16.5913 38.0242 17.0551 37.5933 17.3241L23.3516 26.2262C21.7416 27.2302 20.7812 28.9638 20.7812 30.8626L20.7802 39.3752H25.1562Z" fill="#2295F2"/>
<path d="M56.875 49.2188H59.0625V51.4062H56.875V49.2188Z" fill="#2295F2"/>
<path d="M56.875 53.5938H59.0625V55.7812H56.875V53.5938Z" fill="#2295F2"/>
<path d="M56.875 57.9688H59.0625V60.1562H56.875V57.9688Z" fill="#2295F2"/>
<path d="M41.5625 55.7812H43.75V57.9688H41.5625V55.7812Z" fill="#2295F2"/>
<path d="M41.5625 60.1562H43.75V62.3438H41.5625V60.1562Z" fill="#2295F2"/>
<path d="M26.25 62.3438H28.4375V64.5312H26.25V62.3438Z" fill="#2295F2"/>
</svg>
