<svg width="50" height="50" viewBox="0 0 50 50" fill="none" xmlns="http://www.w3.org/2000/svg">
<g clip-path="url(#clip0)">
<path d="M49.9036 27.3094C49.4547 22.7939 47.4374 18.5369 44.2231 15.3225C41.4761 12.5757 38.114 10.8105 34.5762 10.0256V7.54434C36.0212 7.18486 37.0952 5.87693 37.0952 4.32232C37.0952 2.49143 35.6057 1.00195 33.7748 1.00195H26.7435C24.9126 1.00195 23.4231 2.49143 23.4231 4.32232C23.4231 5.87683 24.4972 7.18476 25.942 7.54434V10.0326C22.4151 10.8208 19.0641 12.5835 16.325 15.3226C15.7255 15.922 15.1728 16.5508 14.6668 17.2044C14.6423 17.2025 14.6178 17.2006 14.5928 17.2006H7.63362C7.09435 17.2006 6.65704 17.6379 6.65704 18.1772C6.65704 18.7166 7.09435 19.1538 7.63362 19.1538H13.338C12.622 20.3526 12.0446 21.6115 11.6052 22.9074H0.976578C0.437312 22.9074 0 23.3446 0 23.884C0 24.4233 0.437312 24.8605 0.976578 24.8605H11.0533C10.7718 26.096 10.6103 27.3533 10.5686 28.6142H6.2501C5.71083 28.6142 5.27352 29.0514 5.27352 29.5908C5.27352 30.1301 5.71083 30.5674 6.2501 30.5674H10.5998C10.6822 31.8314 10.8854 33.0889 11.2095 34.321H4.88289C4.34362 34.321 3.90631 34.7582 3.90631 35.2976C3.90631 35.837 4.34362 36.2742 4.88289 36.2742H11.8328C12.7908 38.8085 14.288 41.1838 16.325 43.2208C19.5424 46.4382 23.8038 48.456 28.324 48.9026C28.9691 48.9663 29.6147 48.9978 30.2595 48.9978C34.0703 48.9978 37.8326 47.895 41.0251 45.816C41.477 45.5217 41.6049 44.9167 41.3105 44.4647C41.0162 44.0128 40.4112 43.885 39.9592 44.1793C32.9711 48.7299 23.6123 47.7459 17.706 41.8397C10.776 34.9097 10.776 23.6339 17.706 16.7038C24.6359 9.77387 35.9118 9.77387 42.8419 16.7038C48.7403 22.6023 49.7296 31.9531 45.1941 38.9378C44.9003 39.3902 45.0289 39.995 45.4812 40.2887C45.9337 40.5825 46.5384 40.4538 46.8321 40.0015C49.2554 36.2695 50.3462 31.7621 49.9036 27.3094ZM25.3763 4.32242C25.3763 3.5685 25.9896 2.95521 26.7435 2.95521H33.7748C34.5288 2.95521 35.1421 3.5685 35.1421 4.32242C35.1421 5.07633 34.5288 5.68962 33.7748 5.68962H33.5996H26.9186H26.7435C25.9896 5.68962 25.3763 5.07624 25.3763 4.32242ZM27.8952 9.69682V7.64278H32.6231V9.6933C31.0531 9.50658 29.4648 9.50775 27.8952 9.69682Z" fill="#2295F2"/>
<path d="M43.5332 41.5532C43.2754 41.5532 43.0244 41.6577 42.8429 41.8394C42.6603 42.021 42.5566 42.2729 42.5566 42.5298C42.5566 42.7866 42.6603 43.0386 42.8429 43.2202C43.0244 43.4028 43.2755 43.5063 43.5332 43.5063C43.79 43.5063 44.041 43.4028 44.2236 43.2202C44.4053 43.0386 44.5098 42.7866 44.5098 42.5298C44.5098 42.2729 44.4054 42.021 44.2236 41.8394C44.041 41.6577 43.7899 41.5532 43.5332 41.5532Z" fill="#2295F2"/>
<path d="M30.2746 14.1221C21.9211 14.1221 15.125 20.9181 15.125 29.2716C15.125 37.6252 21.9211 44.4212 30.2746 44.4212C38.628 44.4212 45.4241 37.6252 45.4241 29.2716C45.4241 20.9181 38.628 14.1221 30.2746 14.1221ZM30.2746 42.468C22.998 42.468 17.0782 36.5481 17.0782 29.2716C17.0782 21.9951 22.998 16.0752 30.2746 16.0752C37.5511 16.0752 43.4709 21.9951 43.4709 29.2716C43.4709 36.5481 37.5511 42.468 30.2746 42.468Z" fill="#2295F2"/>
<path d="M36.4514 21.7128L31.6144 26.5497C31.2099 26.3497 30.7549 26.2367 30.274 26.2367C29.7929 26.2367 29.338 26.3497 28.9335 26.5497L26.7688 24.3849C26.3873 24.0035 25.7691 24.0035 25.3876 24.3849C25.0062 24.7662 25.0062 25.3846 25.3876 25.766L27.5524 27.9307C27.3523 28.3352 27.2394 28.7902 27.2394 29.2712C27.2394 30.9445 28.6006 32.3058 30.274 32.3058C31.9473 32.3058 33.3086 30.9445 33.3086 29.2712C33.3086 28.7902 33.1956 28.3352 32.9956 27.9307L37.6906 23.2357L37.8325 23.0938C38.2138 22.7125 38.2138 22.0941 37.8325 21.7128C37.4511 21.3314 36.833 21.3314 36.4514 21.7128ZM30.274 30.3528C29.6777 30.3528 29.1925 29.8676 29.1925 29.2713C29.1925 28.675 29.6777 28.1898 30.274 28.1898C30.8703 28.1898 31.3554 28.675 31.3554 29.2713C31.3554 29.8676 30.8703 30.3528 30.274 30.3528Z" fill="#2295F2"/>
<path d="M40.7153 28.3066H39.8105C39.2713 28.3066 38.834 28.7438 38.834 29.2832C38.834 29.8226 39.2713 30.2598 39.8105 30.2598H40.7153C41.2546 30.2598 41.6919 29.8226 41.6919 29.2832C41.6919 28.7438 41.2546 28.3066 40.7153 28.3066Z" fill="#2295F2"/>
<path d="M20.7377 28.2832H19.833C19.2938 28.2832 18.8564 28.7204 18.8564 29.2598C18.8564 29.7991 19.2938 30.2363 19.833 30.2363H20.7377C21.277 30.2363 21.7143 29.7991 21.7143 29.2598C21.7143 28.7204 21.277 28.2832 20.7377 28.2832Z" fill="#2295F2"/>
<path d="M30.2861 20.7113C30.8254 20.7113 31.2627 20.2741 31.2627 19.7348V18.8301C31.2627 18.2907 30.8254 17.8535 30.2861 17.8535C29.7469 17.8535 29.3096 18.2907 29.3096 18.8301V19.7348C29.3096 20.2741 29.7469 20.7113 30.2861 20.7113Z" fill="#2295F2"/>
<path d="M30.2617 37.8315C29.7225 37.8315 29.2852 38.2688 29.2852 38.8081V39.7128C29.2852 40.2522 29.7225 40.6894 30.2617 40.6894C30.801 40.6894 31.2383 40.2522 31.2383 39.7128V38.8081C31.2383 38.2688 30.801 37.8315 30.2617 37.8315Z" fill="#2295F2"/>
<path d="M0.976562 34.3208C0.719727 34.3208 0.467773 34.4253 0.286133 34.6069C0.104492 34.7886 0 35.0405 0 35.2974C0 35.5552 0.104395 35.8062 0.286133 35.9878C0.467871 36.1694 0.719727 36.2739 0.976562 36.2739C1.2334 36.2739 1.48535 36.1694 1.66689 35.9878C1.84854 35.8062 1.95312 35.5542 1.95312 35.2974C1.95312 35.0405 1.84863 34.7886 1.66689 34.6069C1.48535 34.4253 1.2334 34.3208 0.976562 34.3208Z" fill="#2295F2"/>
</g>
<defs>
<clipPath id="clip0">
<rect width="50" height="50" fill="white"/>
</clipPath>
</defs>
</svg>
