<?xml version="1.0" standalone="no"?>
<!DOCTYPE svg PUBLIC "-//W3C//DTD SVG 20010904//EN"
 "http://www.w3.org/TR/2001/REC-SVG-20010904/DTD/svg10.dtd">
<svg version="1.0" xmlns="http://www.w3.org/2000/svg"
 width="180.000000pt" height="180.000000pt" viewBox="0 0 180.000000 180.000000"
 preserveAspectRatio="xMidYMid meet">
<metadata>
Created by potrace 1.11, written by Peter Selinger 2001-2013
</metadata>
<g transform="translate(0.000000,180.000000) scale(0.100000,-0.100000)"
fill="#000000" stroke="none">
<path d="M804 1519 c-3 -6 -17 -9 -30 -6 -13 2 -23 1 -22 -2 2 -19 -4 -22 -19
-10 -14 12 -16 12 -8 0 6 -11 4 -13 -8 -8 -10 3 -17 2 -17 -4 0 -6 -5 -7 -11
-3 -6 3 -15 1 -19 -5 -4 -7 -17 -13 -28 -14 -15 -1 -22 -8 -22 -22 0 -17 -2
-17 -10 -5 -9 13 -11 13 -20 0 -5 -8 -10 -10 -10 -5 0 6 -5 2 -11 -7 -5 -10
-15 -18 -20 -18 -6 0 -18 -8 -27 -18 -10 -10 -15 -13 -12 -7 3 6 -4 1 -15 -12
-12 -13 -27 -23 -34 -23 -11 0 -11 -3 0 -17 9 -10 9 -14 2 -10 -14 9 -51 -24
-46 -40 2 -6 -1 -15 -8 -19 -8 -5 -9 -3 -4 6 5 9 4 11 -3 6 -16 -10 8 -48 26
-41 7 2 17 -5 22 -18 5 -12 9 -16 9 -9 1 10 6 10 22 1 14 -7 19 -7 15 0 -4 5
2 19 13 30 11 11 17 22 14 25 -4 3 -1 7 5 7 27 3 31 4 39 13 5 5 2 6 -7 2 -9
-5 -8 -2 2 7 10 8 15 17 11 20 -3 4 3 5 15 2 14 -2 22 3 25 17 4 15 11 19 26
15 12 -3 18 -1 15 4 -3 5 3 12 13 15 10 3 26 10 36 15 10 5 22 7 27 4 6 -4 10
-1 10 6 0 7 3 9 7 6 3 -4 12 -2 20 4 10 9 13 8 13 -2 0 -8 6 -6 16 7 8 10 13
13 9 7 -3 -7 -1 -13 4 -13 6 0 11 3 11 8 0 4 17 6 37 6 21 -1 44 4 52 10 11 8
13 8 7 -1 -4 -7 -3 -13 1 -13 5 0 15 6 22 13 11 10 13 9 8 -4 -3 -9 0 -16 9
-16 8 0 14 5 14 11 0 6 5 4 10 -4 7 -11 10 -11 10 -2 0 7 5 10 10 7 6 -4 7
-12 3 -18 -4 -7 0 -6 10 2 12 9 17 10 17 2 0 -7 5 -9 10 -6 6 3 10 1 10 -4 0
-6 5 -11 11 -11 5 0 7 4 4 10 -3 6 1 7 9 4 9 -3 16 -11 16 -16 0 -6 7 -8 15
-4 9 3 19 -3 26 -16 9 -17 13 -18 20 -7 7 11 9 10 9 -3 0 -10 5 -18 11 -18 5
0 7 5 3 12 -4 7 -3 8 4 4 7 -4 12 -14 12 -23 0 -10 6 -13 16 -9 9 3 12 2 9 -5
-4 -6 2 -13 14 -16 11 -3 18 -9 15 -14 -3 -5 2 -9 10 -9 8 0 18 -9 21 -20 3
-11 13 -20 21 -20 8 0 14 -5 14 -12 0 -9 3 -9 12 0 18 18 32 14 17 -5 -8 -10
0 -7 18 7 18 13 29 28 26 33 -4 7 1 8 13 4 18 -7 18 -6 2 7 -10 7 -18 18 -18
23 0 6 -11 18 -24 29 -14 10 -23 21 -20 26 3 4 -1 8 -9 8 -8 0 -25 13 -38 29
-13 16 -33 31 -44 33 -11 2 -19 9 -18 14 1 5 -8 11 -19 11 -11 1 -29 10 -40
20 -11 10 -22 17 -24 16 -12 -8 -24 -1 -18 10 4 6 4 9 -1 5 -4 -4 -16 -3 -26
3 -14 7 -19 6 -19 -3 0 -10 -2 -10 -9 1 -5 8 -14 10 -21 6 -8 -5 -11 -4 -7 2
4 6 0 14 -9 17 -8 3 -12 2 -9 -4 3 -6 2 -10 -3 -10 -6 0 -13 7 -16 16 -4 9
-11 12 -18 7 -20 -12 -38 -12 -38 -1 0 7 -5 6 -14 -1 -11 -9 -16 -9 -21 0 -6
8 -10 7 -16 -2 -7 -11 -9 -11 -9 -1 0 10 -5 10 -21 1 -16 -8 -20 -8 -14 1 6 9
3 9 -13 1 -26 -14 -35 -14 -27 -1 3 6 4 10 1 10 -3 0 -8 -5 -12 -11z"/>
<path d="M731 1313 c-5 -10 -12 -17 -15 -15 -14 6 -27 1 -21 -8 3 -6 -1 -7 -9
-4 -9 4 -16 1 -16 -6 0 -7 -7 -10 -16 -6 -8 3 -13 2 -11 -2 3 -4 -7 -18 -21
-32 -13 -14 -21 -19 -17 -11 5 9 4 12 -3 7 -7 -4 -12 -14 -12 -23 0 -9 -3 -14
-6 -11 -7 8 -42 -25 -37 -34 2 -5 0 -8 -6 -8 -6 0 -7 -7 -4 -17 4 -9 2 -14 -3
-11 -10 7 -29 -11 -30 -29 -2 -30 -5 -34 -16 -27 -8 5 -7 0 2 -11 9 -11 10
-16 3 -11 -13 7 -16 0 -16 -36 0 -10 -3 -18 -7 -18 -4 0 -11 -7 -14 -16 -6
-15 -4 -15 11 -3 16 13 16 11 -1 -15 -13 -21 -16 -31 -7 -34 9 -3 9 -8 1 -17
-8 -10 -8 -15 0 -20 8 -5 8 -11 -1 -21 -9 -11 -9 -14 1 -14 10 0 10 -3 1 -14
-7 -8 -8 -16 -2 -18 5 -1 11 -16 13 -33 1 -16 7 -33 13 -37 6 -5 4 -8 -5 -8
-9 0 -7 -5 8 -16 19 -13 21 -18 10 -32 -10 -12 -10 -14 0 -8 7 4 12 1 12 -8 0
-9 5 -16 10 -16 6 0 10 -8 10 -17 0 -10 5 -25 11 -33 9 -12 10 -11 5 5 -6 20
-6 20 9 1 8 -11 15 -26 15 -34 0 -7 3 -11 8 -9 10 5 51 -40 43 -49 -3 -4 0 -4
7 0 8 5 21 0 33 -13 11 -12 24 -19 30 -16 5 4 9 1 9 -4 0 -6 9 -11 21 -11 11
0 18 -4 15 -8 -3 -5 2 -9 10 -9 9 0 13 6 10 14 -3 8 -2 12 3 9 4 -3 17 2 27
10 10 9 12 12 4 8 -12 -6 -13 -5 -2 7 11 12 14 12 21 0 10 -16 91 -21 91 -6 0
6 5 3 10 -5 9 -13 12 -13 21 3 9 15 13 16 26 5 13 -10 18 -9 30 7 9 12 13 14
11 5 -6 -18 15 -40 36 -40 9 0 16 -6 16 -12 0 -9 3 -9 9 1 5 8 16 11 24 8 11
-4 14 -1 10 9 -3 9 2 14 16 14 12 0 24 7 27 15 4 8 10 12 15 9 5 -3 9 0 9 6 0
6 5 8 10 5 6 -3 10 1 10 10 0 9 5 13 10 10 6 -3 10 -1 10 5 0 6 5 8 12 4 7 -4
8 -3 4 5 -8 13 18 43 29 33 4 -4 6 0 3 8 -3 8 5 24 18 35 12 11 24 35 26 53 2
18 10 37 17 42 18 10 25 63 8 54 -8 -5 -8 -3 1 7 6 7 12 21 12 32 0 12 4 16
13 11 6 -4 4 2 -6 13 -12 14 -15 23 -7 28 5 3 7 11 3 18 -10 17 -10 57 0 57 5
0 4 7 -3 15 -6 8 -9 19 -5 25 3 5 2 10 -2 10 -5 0 -9 10 -10 22 -1 11 -8 25
-15 29 -7 5 -9 9 -4 9 6 0 1 7 -10 16 -19 15 -19 16 1 10 19 -6 19 -5 3 8 -10
7 -18 16 -18 20 0 5 -8 15 -18 24 -11 10 -12 13 -2 8 8 -5 4 2 -10 16 -14 14
-28 24 -32 21 -4 -2 -5 4 -1 13 4 12 3 15 -5 10 -7 -4 -12 -2 -12 4 0 6 -4 8
-10 5 -5 -3 -10 2 -10 11 0 10 -3 15 -6 11 -4 -3 -15 4 -25 16 -18 20 -19 21
-13 2 4 -14 1 -12 -13 7 -13 19 -23 24 -32 18 -9 -5 -22 -3 -32 3 -14 9 -21 8
-31 -2 -10 -10 -10 -12 -1 -7 9 5 11 2 7 -9 -4 -9 -12 -14 -18 -12 -6 2 -16
-3 -23 -12 -11 -15 -12 -14 -13 1 0 11 -6 15 -20 11 -13 -3 -20 0 -20 8 0 11
-2 11 -9 0 -8 -12 -12 -13 -25 -1 -14 11 -16 10 -10 -6 5 -18 5 -18 -10 0 -16
20 -16 20 -16 0 0 -16 -2 -17 -10 -4 -9 13 -10 13 -10 0 0 -12 -2 -13 -9 -1
-7 11 -10 10 -18 -3 -8 -15 -11 -14 -21 9 -10 22 -22 30 -44 26 -4 0 -5 6 -2
14 8 21 -3 19 -15 -2z m53 -39 c5 -14 4 -15 -9 -4 -17 14 -19 20 -6 20 5 0 12
-7 15 -16z m53 -38 c-4 -11 -1 -13 10 -9 10 4 14 2 10 -4 -3 -5 0 -10 7 -10 8
0 12 6 9 13 -3 9 2 11 17 7 16 -4 18 -8 8 -14 -9 -6 -9 -9 -1 -9 6 0 15 5 18
10 4 6 11 8 16 5 5 -4 9 0 9 7 0 9 3 9 10 -2 5 -8 10 -10 10 -4 0 9 31 11 50
4 3 -1 8 -2 11 -2 3 1 6 -5 6 -13 0 -8 -4 -12 -8 -9 -10 6 -3 -36 7 -45 4 -3
4 2 1 12 -5 13 -3 16 5 10 17 -10 48 -11 42 -1 -13 21 13 4 30 -19 11 -14 14
-23 8 -19 -7 4 -12 5 -12 2 0 -2 -3 -11 -6 -20 -3 -9 -1 -16 6 -16 6 0 8 5 4
12 -4 7 -3 8 5 4 8 -6 9 -12 2 -20 -6 -7 -7 -16 -3 -20 4 -4 2 -7 -3 -6 -6 1
-12 1 -15 0 -20 -7 -41 -7 -47 2 -4 7 -1 8 8 3 8 -5 11 -4 6 1 -5 5 -14 9 -20
9 -17 1 -28 -18 -16 -26 19 -11 -2 -36 -29 -34 -15 1 -35 -2 -44 -7 -10 -5
-19 -4 -24 4 -5 7 -3 8 6 3 9 -6 11 -4 5 4 -5 9 -10 10 -18 2 -7 -7 -15 -7
-22 -1 -16 13 -47 2 -38 -14 5 -8 3 -8 -8 0 -8 6 -25 10 -38 8 -32 -6 -49 11
-45 44 2 15 1 19 -2 9 -6 -18 -6 -18 -21 0 -8 10 -12 13 -9 7 3 -7 -3 -14 -14
-17 -11 -3 -18 -1 -14 4 3 5 1 9 -5 9 -6 0 -15 10 -22 22 -10 18 -9 20 5 15
14 -6 15 -3 6 13 -8 14 -8 20 0 20 6 0 8 5 5 10 -3 6 0 11 7 11 7 1 20 2 28 3
8 0 18 -8 22 -19 6 -19 6 -18 7 3 1 12 6 22 11 22 6 0 10 6 9 13 -4 31 1 38
20 28 14 -8 20 -7 25 4 3 8 8 15 12 15 3 0 4 -7 1 -14z m-22 -216 c-3 -5 -12
-10 -18 -10 -7 0 -6 4 3 10 19 12 23 12 15 0z m180 0 c3 -5 1 -10 -4 -10 -6 0
-11 5 -11 10 0 6 2 10 4 10 3 0 8 -4 11 -10z m-124 -30 c10 0 19 -6 20 -12 0
-10 2 -10 5 -1 3 7 12 9 20 6 8 -3 14 0 14 7 0 6 5 8 12 4 7 -5 28 -7 46 -5
23 2 32 -1 28 -8 -4 -6 -1 -11 6 -11 10 0 11 -2 0 -8 -9 -6 -6 -12 13 -20 21
-10 25 -9 26 6 1 16 2 16 6 -1 2 -10 10 -16 17 -15 6 2 11 0 11 -3 0 -3 6 -13
14 -22 12 -15 11 -17 -5 -18 -16 -1 -16 -2 -2 -6 15 -4 15 -7 -4 -29 -18 -20
-24 -22 -37 -10 -37 31 -42 28 -41 -33 0 -14 -3 -22 -6 -19 -3 4 -19 2 -35 -2
-24 -7 -29 -6 -29 8 0 15 -2 15 -10 2 -8 -12 -11 -13 -19 -1 -5 8 -11 9 -15 3
-7 -12 -24 -11 -45 2 -10 7 -12 6 -6 -4 6 -10 3 -12 -13 -8 -13 4 -22 1 -23
-5 0 -8 -2 -8 -6 1 -2 6 -9 9 -14 6 -6 -3 -17 -3 -25 0 -13 5 -13 8 0 29 15
22 14 23 -14 25 -17 1 -30 -2 -30 -8 0 -14 -47 17 -54 37 -4 11 -2 14 9 9 13
-5 14 -2 4 15 -9 17 -8 20 2 14 9 -6 11 -4 6 8 -8 22 23 31 38 11 9 -14 14
-14 20 -4 6 9 4 11 -5 5 -9 -6 -11 -4 -5 4 5 9 10 10 18 2 21 -21 27 -11 10
16 -10 15 -12 24 -5 20 7 -5 12 -3 12 3 0 6 5 8 10 5 6 -3 10 -1 10 5 0 6 13
4 33 -6 20 -10 27 -11 20 -3 -7 7 -13 18 -12 24 0 5 3 4 6 -2 2 -7 13 -13 24
-13z m-40 -229 c0 10 2 11 6 2 2 -7 16 -13 29 -13 14 0 22 -4 19 -10 -3 -6 1
-7 9 -4 9 3 13 11 9 18 -4 6 1 5 10 -3 13 -10 17 -10 17 -1 0 9 4 9 17 -1 9
-8 14 -9 10 -2 -5 8 2 11 20 9 42 -3 55 -14 43 -35 -5 -10 -6 -21 -3 -25 9 -9
35 -8 30 2 -3 4 8 7 23 7 16 1 26 -3 24 -7 -3 -4 -1 -8 5 -8 13 0 11 -41 -3
-59 -8 -11 -8 -13 1 -7 9 5 11 2 7 -8 -3 -9 -10 -14 -14 -11 -5 3 -11 -1 -13
-7 -3 -8 -6 -6 -6 4 -1 18 -24 20 -49 4 -9 -5 -10 -12 -3 -20 5 -6 7 -16 3
-21 -9 -13 -35 -18 -27 -5 3 6 0 7 -9 4 -9 -3 -14 -10 -11 -14 3 -5 -4 -6 -15
-3 -11 3 -20 10 -20 15 0 5 -5 6 -10 3 -6 -4 -8 -12 -4 -18 3 -7 -2 -3 -10 7
-12 15 -16 16 -16 5 0 -12 -2 -12 -10 1 -9 13 -10 13 -10 0 0 -13 -1 -13 -10
0 -6 10 -10 11 -10 3 0 -7 -3 -12 -7 -12 -21 3 -33 -2 -28 -12 4 -6 -2 -5 -13
2 -12 7 -18 18 -14 24 3 5 -1 4 -9 -2 -13 -10 -16 -10 -16 0 0 6 -4 21 -9 32
-7 19 -6 19 12 5 17 -14 18 -13 7 1 -7 9 -9 20 -5 25 4 4 0 3 -8 -3 -22 -17
-65 -23 -81 -11 -11 7 -9 8 6 4 18 -6 18 -5 -2 11 -16 13 -20 22 -13 33 5 8 6
18 3 24 -3 5 -1 6 4 3 6 -4 13 0 17 8 3 8 10 15 16 15 6 0 9 -4 6 -8 -2 -4 4
-8 14 -8 10 0 16 4 14 8 -3 4 5 8 18 8 15 0 19 3 11 8 -10 6 -9 13 3 30 13 18
19 21 30 11 11 -9 14 -8 15 2z"/>
<path d="M775 1061 c-3 -5 -2 -12 3 -15 5 -3 9 1 9 9 0 17 -3 19 -12 6z"/>
<path d="M1010 936 c0 -2 7 -7 16 -10 8 -3 12 -2 9 4 -6 10 -25 14 -25 6z"/>
<path d="M1050 1321 c0 -5 5 -13 10 -16 6 -3 10 -2 10 4 0 5 -4 13 -10 16 -5
3 -10 2 -10 -4z"/>
<path d="M304 1108 c-4 -7 -3 -8 4 -4 7 4 12 2 12 -3 0 -6 -4 -11 -9 -11 -5 0
-12 -7 -15 -16 -4 -10 -2 -13 7 -8 8 6 8 3 -1 -9 -8 -9 -11 -21 -7 -27 3 -5 2
-10 -4 -10 -5 0 -8 -9 -6 -20 2 -11 1 -20 -3 -20 -4 0 -8 -9 -8 -20 0 -11 5
-20 11 -20 5 0 3 -5 -5 -10 -8 -5 -11 -10 -6 -10 5 0 2 -8 -5 -17 -8 -10 -9
-14 -2 -10 6 4 14 3 18 -3 3 -5 0 -10 -7 -10 -9 0 -9 -3 2 -10 8 -5 10 -10 4
-10 -12 0 -12 -29 0 -48 4 -6 5 -12 1 -12 -3 0 -1 -10 6 -21 6 -13 7 -19 1
-15 -12 7 -10 -20 3 -31 4 -4 5 -2 0 6 -6 10 -4 12 4 6 7 -4 11 -18 8 -31 -2
-13 0 -24 5 -24 5 0 7 -4 3 -9 -3 -5 -1 -12 5 -16 5 -3 10 -15 10 -26 0 -12 4
-17 11 -13 8 4 9 0 4 -15 -5 -15 -2 -21 9 -21 9 0 15 -6 14 -12 -2 -7 3 -12
10 -10 6 1 12 -4 12 -12 0 -21 26 -67 33 -59 7 6 11 -12 8 -30 -1 -5 3 -6 8
-2 12 7 51 -25 51 -42 0 -7 7 -13 15 -13 8 0 15 -5 15 -11 0 -6 6 -9 14 -6 17
7 39 -16 28 -28 -4 -5 -1 -5 6 -1 7 4 15 1 18 -7 3 -9 16 -14 29 -12 14 1 23
-1 21 -4 -2 -3 2 -11 9 -18 11 -10 15 -10 18 0 4 9 6 9 6 0 1 -7 9 -13 19 -13
10 0 22 -3 26 -7 4 -5 17 -9 29 -10 12 -1 35 -3 51 -5 24 -2 29 1 31 19 1 12
-3 19 -8 16 -5 -3 -4 4 2 16 10 17 9 22 -4 27 -8 3 -13 10 -10 14 3 4 -2 11
-11 14 -8 3 -12 2 -9 -4 3 -6 2 -10 -4 -10 -5 0 -12 4 -16 9 -3 6 -14 8 -25 6
-11 -2 -22 1 -25 6 -4 5 -12 6 -18 2 -8 -4 -7 -1 1 9 11 14 10 16 -5 14 -10
-2 -30 6 -45 17 -15 11 -31 16 -39 12 -6 -5 -10 -4 -7 1 3 5 0 15 -8 22 -8 7
-14 11 -14 8 0 -3 -13 7 -28 22 -15 15 -26 30 -24 34 1 4 -5 5 -14 1 -12 -4
-15 -3 -10 5 4 7 1 15 -8 18 -9 3 -14 9 -11 13 2 4 -5 14 -16 21 -10 8 -19 22
-19 32 0 10 -4 18 -10 18 -5 0 -10 9 -10 19 0 11 -4 22 -10 26 -5 3 -6 13 -3
22 4 10 2 14 -4 10 -6 -4 -14 0 -17 9 -3 8 -2 13 2 10 5 -3 9 1 9 9 0 8 -4 12
-8 10 -4 -3 -9 2 -13 10 -3 8 -1 15 5 15 6 0 7 5 4 10 -4 6 -12 7 -18 4 -9 -5
-9 -4 0 6 9 9 9 19 2 33 -8 14 -8 18 0 13 6 -4 11 -2 11 3 0 6 -5 11 -11 11
-6 0 -7 5 -2 13 12 19 13 40 1 54 -7 9 -7 13 0 13 7 0 11 16 10 36 -1 20 4 39
11 44 11 6 11 9 0 13 -12 5 -12 6 0 6 11 1 11 4 0 18 -12 14 -12 16 0 8 10 -5
12 -4 7 3 -4 7 -16 12 -27 12 -11 0 -22 7 -26 16 -5 13 -7 13 -14 2 -7 -10 -9
-10 -9 0 0 15 -16 16 -26 0z"/>
<path d="M1431 1103 c-12 -8 -24 -12 -29 -10 -12 8 -12 -56 1 -72 10 -12 9
-13 -3 -6 -13 8 -13 6 -2 -8 8 -9 11 -21 7 -27 -3 -5 0 -10 7 -10 9 0 9 -3 -2
-10 -10 -6 -11 -10 -2 -10 6 0 12 -5 12 -11 0 -6 -6 -7 -12 -2 -7 4 -5 -4 4
-19 16 -24 16 -28 -1 -62 -10 -20 -15 -33 -9 -30 7 5 6 -38 -3 -56 -3 -7 -7
-23 -8 -38 0 -7 -5 -10 -11 -7 -5 3 -10 2 -10 -4 0 -5 6 -12 13 -14 9 -4 9 -6
0 -6 -7 -1 -10 -8 -6 -18 4 -10 2 -14 -4 -10 -6 4 -16 -6 -22 -23 -13 -39 -46
-82 -55 -72 -4 3 -4 -1 -1 -10 4 -9 1 -19 -6 -24 -8 -5 -10 -3 -5 7 4 8 0 5
-8 -5 -9 -11 -16 -24 -16 -29 0 -5 -8 -6 -17 -3 -10 4 -15 4 -11 1 9 -9 -40
-55 -58 -55 -8 0 -13 -4 -10 -9 3 -5 -1 -12 -10 -15 -10 -4 -13 -2 -9 7 4 6 0
3 -9 -7 -8 -10 -29 -19 -45 -20 -16 -1 -29 -5 -28 -11 1 -5 -10 -10 -25 -9
-19 0 -28 -5 -28 -15 0 -11 -3 -12 -8 -4 -5 8 -13 9 -22 3 -10 -7 -11 -10 -2
-10 6 0 12 -5 12 -11 0 -5 -4 -7 -10 -4 -6 4 -10 -5 -10 -20 0 -14 4 -24 9
-21 5 4 7 -2 4 -12 -5 -20 20 -24 46 -7 10 6 12 4 6 -6 -5 -8 -5 -11 0 -7 4 4
15 2 24 -5 14 -10 14 -10 3 5 -9 11 -10 18 -2 23 5 3 10 0 10 -7 0 -10 2 -10
8 -1 5 7 20 14 34 15 15 1 24 6 21 12 -3 5 5 7 20 4 18 -4 24 -1 20 9 -3 8 2
13 15 13 11 0 25 7 32 15 7 8 19 15 27 15 8 0 12 4 8 9 -3 5 -1 12 5 16 5 3
10 1 10 -5 0 -6 5 -8 10 -5 6 4 8 11 5 16 -6 8 8 13 28 10 4 0 6 2 6 6 -3 20
2 34 11 28 5 -3 15 5 21 19 7 14 15 23 20 21 4 -3 10 4 14 15 3 11 11 20 16
20 5 0 9 9 9 21 0 11 5 17 10 14 6 -3 10 1 10 9 0 8 10 22 23 32 12 9 15 14 6
11 -9 -3 -16 1 -16 9 0 7 4 11 9 8 4 -3 8 0 8 6 0 6 4 9 9 5 6 -3 8 4 6 15 -2
11 1 20 7 20 6 0 5 7 -3 17 -10 11 -10 14 -1 9 6 -4 13 -2 13 3 5 40 7 51 9
54 3 3 10 45 11 75 1 12 6 25 11 28 5 3 3 13 -4 22 -10 12 -10 16 -1 19 9 3
10 10 3 24 -8 14 -7 19 2 19 10 0 10 2 0 9 -7 4 -12 12 -11 17 4 21 -2 35 -11
29 -6 -3 -7 1 -4 9 3 9 11 13 18 9 6 -3 2 4 -9 16 -11 13 -19 25 -17 27 1 2 2
12 2 23 0 25 -33 33 -59 14z"/>
</g>
</svg>
