<svg width="256" height="202" viewBox="0 0 256 202" fill="none" xmlns="http://www.w3.org/2000/svg">
<circle cx="6.09462" cy="6.09483" r="6.09483" transform="rotate(90 6.09462 6.09483)" fill="#E2EEFF"/>
<circle cx="32.7958" cy="6.09483" r="6.09483" transform="rotate(90 32.7958 6.09483)" fill="#E2EEFF"/>
<circle cx="60.079" cy="6.09483" r="6.09483" transform="rotate(90 60.079 6.09483)" fill="#E2EEFF"/>
<circle cx="87.3602" cy="6.09483" r="6.09483" transform="rotate(90 87.3602 6.09483)" fill="#E2EEFF"/>
<circle cx="114.063" cy="6.09483" r="6.09483" transform="rotate(90 114.063 6.09483)" fill="#E2EEFF"/>
<circle cx="141.343" cy="6.09483" r="6.09483" transform="rotate(90 141.343 6.09483)" fill="#E2EEFF"/>
<circle cx="168.626" cy="6.09483" r="6.09483" transform="rotate(90 168.626 6.09483)" fill="#E2EEFF"/>
<circle cx="195.905" cy="6.09483" r="6.09483" transform="rotate(90 195.905 6.09483)" fill="#E2EEFF"/>
<circle cx="222.608" cy="6.09483" r="6.09483" transform="rotate(90 222.608 6.09483)" fill="#E2EEFF"/>
<circle cx="249.89" cy="6.09483" r="6.09483" transform="rotate(90 249.89 6.09483)" fill="#E2EEFF"/>
<circle cx="6.09462" cy="33.3761" r="6.09483" transform="rotate(90 6.09462 33.3761)" fill="#E2EEFF"/>
<circle cx="32.7958" cy="33.3761" r="6.09483" transform="rotate(90 32.7958 33.3761)" fill="#E2EEFF"/>
<circle cx="60.079" cy="33.3761" r="6.09483" transform="rotate(90 60.079 33.3761)" fill="#E2EEFF"/>
<circle cx="87.3602" cy="33.3761" r="6.09483" transform="rotate(90 87.3602 33.3761)" fill="#E2EEFF"/>
<circle cx="114.063" cy="33.3761" r="6.09483" transform="rotate(90 114.063 33.3761)" fill="#E2EEFF"/>
<circle cx="141.343" cy="33.3761" r="6.09483" transform="rotate(90 141.343 33.3761)" fill="#E2EEFF"/>
<circle cx="168.626" cy="33.3761" r="6.09483" transform="rotate(90 168.626 33.3761)" fill="#E2EEFF"/>
<circle cx="195.905" cy="33.3761" r="6.09483" transform="rotate(90 195.905 33.3761)" fill="#E2EEFF"/>
<circle cx="222.608" cy="33.3761" r="6.09483" transform="rotate(90 222.608 33.3761)" fill="#E2EEFF"/>
<circle cx="249.89" cy="33.3766" r="6.09483" transform="rotate(90 249.89 33.3766)" fill="#E2EEFF"/>
<circle cx="6.09462" cy="60.0777" r="6.09483" transform="rotate(90 6.09462 60.0777)" fill="#E2EEFF"/>
<circle cx="32.7958" cy="60.0777" r="6.09483" transform="rotate(90 32.7958 60.0777)" fill="#E2EEFF"/>
<circle cx="60.079" cy="60.0777" r="6.09483" transform="rotate(90 60.079 60.0777)" fill="#E2EEFF"/>
<circle cx="87.3602" cy="60.0777" r="6.09483" transform="rotate(90 87.3602 60.0777)" fill="#E2EEFF"/>
<circle cx="114.063" cy="60.0777" r="6.09483" transform="rotate(90 114.063 60.0777)" fill="#E2EEFF"/>
<circle cx="141.343" cy="60.0777" r="6.09483" transform="rotate(90 141.343 60.0777)" fill="#E2EEFF"/>
<circle cx="168.626" cy="60.0777" r="6.09483" transform="rotate(90 168.626 60.0777)" fill="#E2EEFF"/>
<circle cx="195.905" cy="60.0777" r="6.09483" transform="rotate(90 195.905 60.0777)" fill="#E2EEFF"/>
<circle cx="222.608" cy="60.0777" r="6.09483" transform="rotate(90 222.608 60.0777)" fill="#E2EEFF"/>
<circle cx="249.89" cy="60.0777" r="6.09483" transform="rotate(90 249.89 60.0777)" fill="#E2EEFF"/>
<circle cx="6.09462" cy="87.3595" r="6.09483" transform="rotate(90 6.09462 87.3595)" fill="#E2EEFF"/>
<circle cx="32.7958" cy="87.3595" r="6.09483" transform="rotate(90 32.7958 87.3595)" fill="#E2EEFF"/>
<circle cx="60.079" cy="87.3595" r="6.09483" transform="rotate(90 60.079 87.3595)" fill="#E2EEFF"/>
<circle cx="87.3602" cy="87.3595" r="6.09483" transform="rotate(90 87.3602 87.3595)" fill="#E2EEFF"/>
<circle cx="114.063" cy="87.3595" r="6.09483" transform="rotate(90 114.063 87.3595)" fill="#E2EEFF"/>
<circle cx="141.343" cy="87.3595" r="6.09483" transform="rotate(90 141.343 87.3595)" fill="#E2EEFF"/>
<circle cx="168.626" cy="87.3595" r="6.09483" transform="rotate(90 168.626 87.3595)" fill="#E2EEFF"/>
<circle cx="195.905" cy="87.3595" r="6.09483" transform="rotate(90 195.905 87.3595)" fill="#E2EEFF"/>
<circle cx="222.608" cy="87.3595" r="6.09483" transform="rotate(90 222.608 87.3595)" fill="#E2EEFF"/>
<circle cx="249.89" cy="87.3595" r="6.09483" transform="rotate(90 249.89 87.3595)" fill="#E2EEFF"/>
<circle cx="6.09462" cy="114.641" r="6.09483" transform="rotate(90 6.09462 114.641)" fill="#E2EEFF"/>
<circle cx="32.7958" cy="114.641" r="6.09483" transform="rotate(90 32.7958 114.641)" fill="#E2EEFF"/>
<circle cx="60.079" cy="114.641" r="6.09483" transform="rotate(90 60.079 114.641)" fill="#E2EEFF"/>
<circle cx="87.3602" cy="114.641" r="6.09483" transform="rotate(90 87.3602 114.641)" fill="#E2EEFF"/>
<circle cx="114.063" cy="114.641" r="6.09483" transform="rotate(90 114.063 114.641)" fill="#E2EEFF"/>
<circle cx="141.343" cy="114.641" r="6.09483" transform="rotate(90 141.343 114.641)" fill="#E2EEFF"/>
<circle cx="168.626" cy="114.641" r="6.09483" transform="rotate(90 168.626 114.641)" fill="#E2EEFF"/>
<circle cx="195.905" cy="114.641" r="6.09483" transform="rotate(90 195.905 114.641)" fill="#E2EEFF"/>
<circle cx="222.608" cy="114.641" r="6.09483" transform="rotate(90 222.608 114.641)" fill="#E2EEFF"/>
<circle cx="249.89" cy="114.641" r="6.09483" transform="rotate(90 249.89 114.641)" fill="#E2EEFF"/>
<circle cx="6.09462" cy="141.922" r="6.09483" transform="rotate(90 6.09462 141.922)" fill="#E2EEFF"/>
<circle cx="32.7958" cy="141.922" r="6.09483" transform="rotate(90 32.7958 141.922)" fill="#E2EEFF"/>
<circle cx="60.079" cy="141.922" r="6.09483" transform="rotate(90 60.079 141.922)" fill="#E2EEFF"/>
<circle cx="87.3602" cy="141.922" r="6.09483" transform="rotate(90 87.3602 141.922)" fill="#E2EEFF"/>
<circle cx="114.063" cy="141.922" r="6.09483" transform="rotate(90 114.063 141.922)" fill="#E2EEFF"/>
<circle cx="141.343" cy="141.922" r="6.09483" transform="rotate(90 141.343 141.922)" fill="#E2EEFF"/>
<circle cx="168.626" cy="141.922" r="6.09483" transform="rotate(90 168.626 141.922)" fill="#E2EEFF"/>
<circle cx="195.905" cy="141.922" r="6.09483" transform="rotate(90 195.905 141.922)" fill="#E2EEFF"/>
<circle cx="222.608" cy="141.922" r="6.09483" transform="rotate(90 222.608 141.922)" fill="#E2EEFF"/>
<circle cx="249.89" cy="141.922" r="6.09483" transform="rotate(90 249.89 141.922)" fill="#E2EEFF"/>
<circle cx="6.09462" cy="168.624" r="6.09483" transform="rotate(90 6.09462 168.624)" fill="#E2EEFF"/>
<circle cx="32.7958" cy="168.624" r="6.09483" transform="rotate(90 32.7958 168.624)" fill="#E2EEFF"/>
<circle cx="60.079" cy="168.624" r="6.09483" transform="rotate(90 60.079 168.624)" fill="#E2EEFF"/>
<circle cx="87.3602" cy="168.624" r="6.09483" transform="rotate(90 87.3602 168.624)" fill="#E2EEFF"/>
<circle cx="114.063" cy="168.624" r="6.09483" transform="rotate(90 114.063 168.624)" fill="#E2EEFF"/>
<circle cx="141.343" cy="168.624" r="6.09483" transform="rotate(90 141.343 168.624)" fill="#E2EEFF"/>
<circle cx="168.626" cy="168.624" r="6.09483" transform="rotate(90 168.626 168.624)" fill="#E2EEFF"/>
<circle cx="195.905" cy="168.624" r="6.09483" transform="rotate(90 195.905 168.624)" fill="#E2EEFF"/>
<circle cx="222.608" cy="168.624" r="6.09483" transform="rotate(90 222.608 168.624)" fill="#E2EEFF"/>
<circle cx="249.89" cy="168.624" r="6.09483" transform="rotate(90 249.89 168.624)" fill="#E2EEFF"/>
<circle cx="6.09462" cy="195.905" r="6.09483" transform="rotate(90 6.09462 195.905)" fill="#E2EEFF"/>
<circle cx="32.7958" cy="195.905" r="6.09483" transform="rotate(90 32.7958 195.905)" fill="#E2EEFF"/>
<circle cx="60.079" cy="195.905" r="6.09483" transform="rotate(90 60.079 195.905)" fill="#E2EEFF"/>
<circle cx="87.3602" cy="195.905" r="6.09483" transform="rotate(90 87.3602 195.905)" fill="#E2EEFF"/>
<circle cx="114.063" cy="195.905" r="6.09483" transform="rotate(90 114.063 195.905)" fill="#E2EEFF"/>
<circle cx="141.343" cy="195.905" r="6.09483" transform="rotate(90 141.343 195.905)" fill="#E2EEFF"/>
<circle cx="168.626" cy="195.905" r="6.09483" transform="rotate(90 168.626 195.905)" fill="#E2EEFF"/>
<circle cx="195.905" cy="195.905" r="6.09483" transform="rotate(90 195.905 195.905)" fill="#E2EEFF"/>
<circle cx="222.608" cy="195.905" r="6.09483" transform="rotate(90 222.608 195.905)" fill="#E2EEFF"/>
<circle cx="249.89" cy="195.905" r="6.09483" transform="rotate(90 249.89 195.905)" fill="#E2EEFF"/>
</svg>
