<svg width="506" height="377" viewBox="0 0 506 377" fill="none" xmlns="http://www.w3.org/2000/svg">
<path d="M-200.03 192.503C198.709 82.4497 660.309 355.399 259.98 928.851" stroke="white" stroke-opacity="0.12"/>
<path d="M-241.816 207.351C156.924 97.2974 618.524 370.247 218.195 943.699" stroke="white" stroke-opacity="0.12"/>
<path d="M-279.327 190.577C119.412 80.5239 581.013 353.473 180.683 926.925" stroke="white" stroke-opacity="0.12"/>
<path d="M-324.159 176.046C74.5802 65.9927 536.181 338.942 135.851 912.394" stroke="white" stroke-opacity="0.12"/>
<path d="M-356.3 167.433C42.4395 57.3794 504.04 330.329 103.711 903.781" stroke="white" stroke-opacity="0.12"/>
<path d="M-379.534 144.406C19.2052 34.3521 480.806 307.301 80.4762 880.754" stroke="white" stroke-opacity="0.12"/>
<path d="M-419.273 107.714C-20.5331 -2.33934 441.067 270.61 40.7379 844.062" stroke="white" stroke-opacity="0.12"/>
<path d="M-442.925 86.2533C-44.1855 -23.8003 417.415 249.149 17.0855 822.601" stroke="white" stroke-opacity="0.12"/>
</svg>
