<svg width="961" height="733" viewBox="0 0 961 733" fill="none" xmlns="http://www.w3.org/2000/svg">
<path d="M187.393 1005.57C-115.182 490.453 93.0454 -255.52 1042.67 88.5966" stroke="white" stroke-opacity="0.12"/>
<path d="M223.725 1058.31C-78.85 543.196 129.377 -202.778 1079 141.339" stroke="white" stroke-opacity="0.12"/>
<path d="M214.35 1116.91C-88.225 601.793 120.002 -144.18 1069.63 199.936" stroke="white" stroke-opacity="0.12"/>
<path d="M210.835 1184.89C-91.7406 669.774 116.487 -76.1994 1066.11 267.917" stroke="white" stroke-opacity="0.12"/>
<path d="M210.835 1232.94C-91.7406 717.825 116.487 -28.1486 1066.11 315.968" stroke="white" stroke-opacity="0.12"/>
<path d="M187.393 1273.96C-115.182 758.844 93.0454 12.8709 1042.67 356.987" stroke="white" stroke-opacity="0.12"/>
<path d="M151.061 1343.11C-151.514 827.996 56.7134 82.0233 1006.34 426.14" stroke="white" stroke-opacity="0.12"/>
<path d="M129.964 1384.13C-172.612 869.016 35.6157 123.043 985.239 467.159" stroke="white" stroke-opacity="0.12"/>
</svg>
