<svg width="249" height="408" viewBox="0 0 249 408" fill="none" xmlns="http://www.w3.org/2000/svg">
<circle cx="5.92298" cy="216.823" r="5.92272" transform="rotate(90 5.92298 216.823)" fill="#F7FBFF"/>
<circle cx="31.8702" cy="216.823" r="5.92272" transform="rotate(90 31.8702 216.823)" fill="#F7FBFF"/>
<circle cx="58.381" cy="216.823" r="5.92272" transform="rotate(90 58.381 216.823)" fill="#F7FBFF"/>
<circle cx="84.8927" cy="216.823" r="5.92272" transform="rotate(90 84.8927 216.823)" fill="#F7FBFF"/>
<circle cx="110.84" cy="216.823" r="5.92272" transform="rotate(90 110.84 216.823)" fill="#F7FBFF"/>
<circle cx="137.352" cy="216.823" r="5.92272" transform="rotate(90 137.352 216.823)" fill="#F7FBFF"/>
<circle cx="163.862" cy="216.823" r="5.92272" transform="rotate(90 163.862 216.823)" fill="#F7FBFF"/>
<circle cx="190.373" cy="216.823" r="5.92272" transform="rotate(90 190.373 216.823)" fill="#F7FBFF"/>
<circle cx="216.32" cy="216.823" r="5.92272" transform="rotate(90 216.32 216.823)" fill="#F7FBFF"/>
<circle cx="242.832" cy="216.823" r="5.92272" transform="rotate(90 242.832 216.823)" fill="#F7FBFF"/>
<circle cx="5.92298" cy="243.335" r="5.92272" transform="rotate(90 5.92298 243.335)" fill="#F7FBFF"/>
<circle cx="31.8702" cy="243.335" r="5.92272" transform="rotate(90 31.8702 243.335)" fill="#F7FBFF"/>
<circle cx="58.381" cy="243.335" r="5.92272" transform="rotate(90 58.381 243.335)" fill="#F7FBFF"/>
<circle cx="84.8927" cy="243.335" r="5.92272" transform="rotate(90 84.8927 243.335)" fill="#F7FBFF"/>
<circle cx="110.84" cy="243.335" r="5.92272" transform="rotate(90 110.84 243.335)" fill="#F7FBFF"/>
<circle cx="137.352" cy="243.335" r="5.92272" transform="rotate(90 137.352 243.335)" fill="#F7FBFF"/>
<circle cx="163.862" cy="243.335" r="5.92272" transform="rotate(90 163.862 243.335)" fill="#F7FBFF"/>
<circle cx="190.373" cy="243.335" r="5.92272" transform="rotate(90 190.373 243.335)" fill="#F7FBFF"/>
<circle cx="216.32" cy="243.335" r="5.92272" transform="rotate(90 216.32 243.335)" fill="#F7FBFF"/>
<circle cx="242.832" cy="243.335" r="5.92272" transform="rotate(90 242.832 243.335)" fill="#F7FBFF"/>
<circle cx="5.92298" cy="269.282" r="5.92272" transform="rotate(90 5.92298 269.282)" fill="#F7FBFF"/>
<circle cx="31.8702" cy="269.282" r="5.92272" transform="rotate(90 31.8702 269.282)" fill="#F7FBFF"/>
<circle cx="58.381" cy="269.282" r="5.92272" transform="rotate(90 58.381 269.282)" fill="#F7FBFF"/>
<circle cx="84.8927" cy="269.282" r="5.92272" transform="rotate(90 84.8927 269.282)" fill="#F7FBFF"/>
<circle cx="110.84" cy="269.282" r="5.92272" transform="rotate(90 110.84 269.282)" fill="#F7FBFF"/>
<circle cx="137.352" cy="269.282" r="5.92272" transform="rotate(90 137.352 269.282)" fill="#F7FBFF"/>
<circle cx="163.862" cy="269.282" r="5.92272" transform="rotate(90 163.862 269.282)" fill="#F7FBFF"/>
<circle cx="190.373" cy="269.282" r="5.92272" transform="rotate(90 190.373 269.282)" fill="#F7FBFF"/>
<circle cx="216.32" cy="269.282" r="5.92272" transform="rotate(90 216.32 269.282)" fill="#F7FBFF"/>
<circle cx="242.832" cy="269.282" r="5.92272" transform="rotate(90 242.832 269.282)" fill="#F7FBFF"/>
<circle cx="5.92298" cy="295.792" r="5.92272" transform="rotate(90 5.92298 295.792)" fill="#F7FBFF"/>
<circle cx="31.8702" cy="295.792" r="5.92272" transform="rotate(90 31.8702 295.792)" fill="#F7FBFF"/>
<circle cx="58.381" cy="295.792" r="5.92272" transform="rotate(90 58.381 295.792)" fill="#F7FBFF"/>
<circle cx="84.8927" cy="295.792" r="5.92272" transform="rotate(90 84.8927 295.792)" fill="#F7FBFF"/>
<circle cx="110.84" cy="295.792" r="5.92272" transform="rotate(90 110.84 295.792)" fill="#F7FBFF"/>
<circle cx="137.352" cy="295.792" r="5.92272" transform="rotate(90 137.352 295.792)" fill="#F7FBFF"/>
<circle cx="163.862" cy="295.792" r="5.92272" transform="rotate(90 163.862 295.792)" fill="#F7FBFF"/>
<circle cx="190.374" cy="295.792" r="5.92272" transform="rotate(90 190.374 295.792)" fill="#F7FBFF"/>
<circle cx="216.32" cy="295.792" r="5.92272" transform="rotate(90 216.32 295.792)" fill="#F7FBFF"/>
<circle cx="242.832" cy="295.792" r="5.92272" transform="rotate(90 242.832 295.792)" fill="#F7FBFF"/>
<circle cx="5.92298" cy="322.304" r="5.92272" transform="rotate(90 5.92298 322.304)" fill="#F7FBFF"/>
<circle cx="31.8702" cy="322.304" r="5.92272" transform="rotate(90 31.8702 322.304)" fill="#F7FBFF"/>
<circle cx="58.381" cy="322.304" r="5.92272" transform="rotate(90 58.381 322.304)" fill="#F7FBFF"/>
<circle cx="84.8927" cy="322.304" r="5.92272" transform="rotate(90 84.8927 322.304)" fill="#F7FBFF"/>
<circle cx="110.84" cy="322.304" r="5.92272" transform="rotate(90 110.84 322.304)" fill="#F7FBFF"/>
<circle cx="137.352" cy="322.304" r="5.92272" transform="rotate(90 137.352 322.304)" fill="#F7FBFF"/>
<circle cx="163.862" cy="322.304" r="5.92272" transform="rotate(90 163.862 322.304)" fill="#F7FBFF"/>
<circle cx="190.374" cy="322.304" r="5.92272" transform="rotate(90 190.374 322.304)" fill="#F7FBFF"/>
<circle cx="216.32" cy="322.304" r="5.92272" transform="rotate(90 216.32 322.304)" fill="#F7FBFF"/>
<circle cx="242.832" cy="322.304" r="5.92272" transform="rotate(90 242.832 322.304)" fill="#F7FBFF"/>
<circle cx="5.92298" cy="348.815" r="5.92272" transform="rotate(90 5.92298 348.815)" fill="#F7FBFF"/>
<circle cx="31.8702" cy="348.815" r="5.92272" transform="rotate(90 31.8702 348.815)" fill="#F7FBFF"/>
<circle cx="58.381" cy="348.815" r="5.92272" transform="rotate(90 58.381 348.815)" fill="#F7FBFF"/>
<circle cx="84.8927" cy="348.815" r="5.92272" transform="rotate(90 84.8927 348.815)" fill="#F7FBFF"/>
<circle cx="110.84" cy="348.815" r="5.92272" transform="rotate(90 110.84 348.815)" fill="#F7FBFF"/>
<circle cx="137.352" cy="348.815" r="5.92272" transform="rotate(90 137.352 348.815)" fill="#F7FBFF"/>
<circle cx="163.862" cy="348.815" r="5.92272" transform="rotate(90 163.862 348.815)" fill="#F7FBFF"/>
<circle cx="190.373" cy="348.815" r="5.92272" transform="rotate(90 190.373 348.815)" fill="#F7FBFF"/>
<circle cx="216.32" cy="348.815" r="5.92272" transform="rotate(90 216.32 348.815)" fill="#F7FBFF"/>
<circle cx="242.832" cy="348.815" r="5.92272" transform="rotate(90 242.832 348.815)" fill="#F7FBFF"/>
<circle cx="5.92298" cy="374.763" r="5.92272" transform="rotate(90 5.92298 374.763)" fill="#F7FBFF"/>
<circle cx="31.8702" cy="374.763" r="5.92272" transform="rotate(90 31.8702 374.763)" fill="#F7FBFF"/>
<circle cx="58.381" cy="374.763" r="5.92272" transform="rotate(90 58.381 374.763)" fill="#F7FBFF"/>
<circle cx="84.8927" cy="374.763" r="5.92272" transform="rotate(90 84.8927 374.763)" fill="#F7FBFF"/>
<circle cx="110.84" cy="374.763" r="5.92272" transform="rotate(90 110.84 374.763)" fill="#F7FBFF"/>
<circle cx="137.352" cy="374.763" r="5.92272" transform="rotate(90 137.352 374.763)" fill="#F7FBFF"/>
<circle cx="163.862" cy="374.763" r="5.92272" transform="rotate(90 163.862 374.763)" fill="#F7FBFF"/>
<circle cx="190.373" cy="374.763" r="5.92272" transform="rotate(90 190.373 374.763)" fill="#F7FBFF"/>
<circle cx="216.32" cy="374.763" r="5.92272" transform="rotate(90 216.32 374.763)" fill="#F7FBFF"/>
<circle cx="242.832" cy="374.763" r="5.92272" transform="rotate(90 242.832 374.763)" fill="#F7FBFF"/>
<circle cx="5.92298" cy="401.274" r="5.92272" transform="rotate(90 5.92298 401.274)" fill="#F7FBFF"/>
<circle cx="31.8702" cy="401.274" r="5.92272" transform="rotate(90 31.8702 401.274)" fill="#F7FBFF"/>
<circle cx="58.381" cy="401.274" r="5.92272" transform="rotate(90 58.381 401.274)" fill="#F7FBFF"/>
<circle cx="84.8927" cy="401.274" r="5.92272" transform="rotate(90 84.8927 401.274)" fill="#F7FBFF"/>
<circle cx="110.84" cy="401.274" r="5.92272" transform="rotate(90 110.84 401.274)" fill="#F7FBFF"/>
<circle cx="137.352" cy="401.274" r="5.92272" transform="rotate(90 137.352 401.274)" fill="#F7FBFF"/>
<circle cx="163.862" cy="401.274" r="5.92272" transform="rotate(90 163.862 401.274)" fill="#F7FBFF"/>
<circle cx="190.373" cy="401.274" r="5.92272" transform="rotate(90 190.373 401.274)" fill="#F7FBFF"/>
<circle cx="216.32" cy="401.274" r="5.92272" transform="rotate(90 216.32 401.274)" fill="#F7FBFF"/>
<circle cx="242.832" cy="401.274" r="5.92272" transform="rotate(90 242.832 401.274)" fill="#F7FBFF"/>
<circle cx="5.92298" cy="5.92272" r="5.92272" transform="rotate(90 5.92298 5.92272)" fill="#F7FBFF"/>
<circle cx="31.8702" cy="5.92272" r="5.92272" transform="rotate(90 31.8702 5.92272)" fill="#F7FBFF"/>
<circle cx="58.381" cy="5.92272" r="5.92272" transform="rotate(90 58.381 5.92272)" fill="#F7FBFF"/>
<circle cx="84.8927" cy="5.92272" r="5.92272" transform="rotate(90 84.8927 5.92272)" fill="#F7FBFF"/>
<circle cx="110.84" cy="5.92272" r="5.92272" transform="rotate(90 110.84 5.92272)" fill="#F7FBFF"/>
<circle cx="137.352" cy="5.92272" r="5.92272" transform="rotate(90 137.352 5.92272)" fill="#F7FBFF"/>
<circle cx="163.862" cy="5.92272" r="5.92272" transform="rotate(90 163.862 5.92272)" fill="#F7FBFF"/>
<circle cx="190.373" cy="5.92272" r="5.92272" transform="rotate(90 190.373 5.92272)" fill="#F7FBFF"/>
<circle cx="216.32" cy="5.92272" r="5.92272" transform="rotate(90 216.32 5.92272)" fill="#F7FBFF"/>
<circle cx="242.832" cy="5.92272" r="5.92272" transform="rotate(90 242.832 5.92272)" fill="#F7FBFF"/>
<circle cx="5.92298" cy="32.4344" r="5.92272" transform="rotate(90 5.92298 32.4344)" fill="#F7FBFF"/>
<circle cx="31.8702" cy="32.4344" r="5.92272" transform="rotate(90 31.8702 32.4344)" fill="#F7FBFF"/>
<circle cx="58.381" cy="32.4344" r="5.92272" transform="rotate(90 58.381 32.4344)" fill="#F7FBFF"/>
<circle cx="84.8927" cy="32.4344" r="5.92272" transform="rotate(90 84.8927 32.4344)" fill="#F7FBFF"/>
<circle cx="110.84" cy="32.4344" r="5.92272" transform="rotate(90 110.84 32.4344)" fill="#F7FBFF"/>
<circle cx="137.352" cy="32.4344" r="5.92272" transform="rotate(90 137.352 32.4344)" fill="#F7FBFF"/>
<circle cx="163.862" cy="32.4344" r="5.92272" transform="rotate(90 163.862 32.4344)" fill="#F7FBFF"/>
<circle cx="190.373" cy="32.4344" r="5.92272" transform="rotate(90 190.373 32.4344)" fill="#F7FBFF"/>
<circle cx="216.32" cy="32.4344" r="5.92272" transform="rotate(90 216.32 32.4344)" fill="#F7FBFF"/>
<circle cx="242.832" cy="32.4344" r="5.92272" transform="rotate(90 242.832 32.4344)" fill="#F7FBFF"/>
<circle cx="5.92298" cy="58.3817" r="5.92272" transform="rotate(90 5.92298 58.3817)" fill="#F7FBFF"/>
<circle cx="31.8702" cy="58.3817" r="5.92272" transform="rotate(90 31.8702 58.3817)" fill="#F7FBFF"/>
<circle cx="58.381" cy="58.3817" r="5.92272" transform="rotate(90 58.381 58.3817)" fill="#F7FBFF"/>
<circle cx="84.8927" cy="58.3817" r="5.92272" transform="rotate(90 84.8927 58.3817)" fill="#F7FBFF"/>
<circle cx="110.84" cy="58.3817" r="5.92272" transform="rotate(90 110.84 58.3817)" fill="#F7FBFF"/>
<circle cx="137.352" cy="58.3817" r="5.92272" transform="rotate(90 137.352 58.3817)" fill="#F7FBFF"/>
<circle cx="163.862" cy="58.3817" r="5.92272" transform="rotate(90 163.862 58.3817)" fill="#F7FBFF"/>
<circle cx="190.373" cy="58.3817" r="5.92272" transform="rotate(90 190.373 58.3817)" fill="#F7FBFF"/>
<circle cx="216.32" cy="58.3817" r="5.92272" transform="rotate(90 216.32 58.3817)" fill="#F7FBFF"/>
<circle cx="242.832" cy="58.3817" r="5.92272" transform="rotate(90 242.832 58.3817)" fill="#F7FBFF"/>
<circle cx="5.92298" cy="84.8915" r="5.92272" transform="rotate(90 5.92298 84.8915)" fill="#F7FBFF"/>
<circle cx="31.8702" cy="84.8915" r="5.92272" transform="rotate(90 31.8702 84.8915)" fill="#F7FBFF"/>
<circle cx="58.381" cy="84.8915" r="5.92272" transform="rotate(90 58.381 84.8915)" fill="#F7FBFF"/>
<circle cx="84.8927" cy="84.8915" r="5.92272" transform="rotate(90 84.8927 84.8915)" fill="#F7FBFF"/>
<circle cx="110.84" cy="84.8915" r="5.92272" transform="rotate(90 110.84 84.8915)" fill="#F7FBFF"/>
<circle cx="137.352" cy="84.8915" r="5.92272" transform="rotate(90 137.352 84.8915)" fill="#F7FBFF"/>
<circle cx="163.862" cy="84.8915" r="5.92272" transform="rotate(90 163.862 84.8915)" fill="#F7FBFF"/>
<circle cx="190.374" cy="84.8915" r="5.92272" transform="rotate(90 190.374 84.8915)" fill="#F7FBFF"/>
<circle cx="216.32" cy="84.8915" r="5.92272" transform="rotate(90 216.32 84.8915)" fill="#F7FBFF"/>
<circle cx="242.832" cy="84.8915" r="5.92272" transform="rotate(90 242.832 84.8915)" fill="#F7FBFF"/>
<circle cx="5.92298" cy="111.403" r="5.92272" transform="rotate(90 5.92298 111.403)" fill="#F7FBFF"/>
<circle cx="31.8702" cy="111.403" r="5.92272" transform="rotate(90 31.8702 111.403)" fill="#F7FBFF"/>
<circle cx="58.381" cy="111.403" r="5.92272" transform="rotate(90 58.381 111.403)" fill="#F7FBFF"/>
<circle cx="84.8927" cy="111.403" r="5.92272" transform="rotate(90 84.8927 111.403)" fill="#F7FBFF"/>
<circle cx="110.84" cy="111.403" r="5.92272" transform="rotate(90 110.84 111.403)" fill="#F7FBFF"/>
<circle cx="137.352" cy="111.403" r="5.92272" transform="rotate(90 137.352 111.403)" fill="#F7FBFF"/>
<circle cx="163.862" cy="111.403" r="5.92272" transform="rotate(90 163.862 111.403)" fill="#F7FBFF"/>
<circle cx="190.374" cy="111.403" r="5.92272" transform="rotate(90 190.374 111.403)" fill="#F7FBFF"/>
<circle cx="216.32" cy="111.403" r="5.92272" transform="rotate(90 216.32 111.403)" fill="#F7FBFF"/>
<circle cx="242.832" cy="111.403" r="5.92272" transform="rotate(90 242.832 111.403)" fill="#F7FBFF"/>
<circle cx="5.92298" cy="137.915" r="5.92272" transform="rotate(90 5.92298 137.915)" fill="#F7FBFF"/>
<circle cx="31.8702" cy="137.915" r="5.92272" transform="rotate(90 31.8702 137.915)" fill="#F7FBFF"/>
<circle cx="58.381" cy="137.915" r="5.92272" transform="rotate(90 58.381 137.915)" fill="#F7FBFF"/>
<circle cx="84.8927" cy="137.915" r="5.92272" transform="rotate(90 84.8927 137.915)" fill="#F7FBFF"/>
<circle cx="110.84" cy="137.915" r="5.92272" transform="rotate(90 110.84 137.915)" fill="#F7FBFF"/>
<circle cx="137.352" cy="137.915" r="5.92272" transform="rotate(90 137.352 137.915)" fill="#F7FBFF"/>
<circle cx="163.862" cy="137.915" r="5.92272" transform="rotate(90 163.862 137.915)" fill="#F7FBFF"/>
<circle cx="190.373" cy="137.915" r="5.92272" transform="rotate(90 190.373 137.915)" fill="#F7FBFF"/>
<circle cx="216.32" cy="137.915" r="5.92272" transform="rotate(90 216.32 137.915)" fill="#F7FBFF"/>
<circle cx="242.832" cy="137.915" r="5.92272" transform="rotate(90 242.832 137.915)" fill="#F7FBFF"/>
<circle cx="5.92298" cy="163.862" r="5.92272" transform="rotate(90 5.92298 163.862)" fill="#F7FBFF"/>
<circle cx="31.8702" cy="163.862" r="5.92272" transform="rotate(90 31.8702 163.862)" fill="#F7FBFF"/>
<circle cx="58.381" cy="163.862" r="5.92272" transform="rotate(90 58.381 163.862)" fill="#F7FBFF"/>
<circle cx="84.8927" cy="163.862" r="5.92272" transform="rotate(90 84.8927 163.862)" fill="#F7FBFF"/>
<circle cx="110.84" cy="163.862" r="5.92272" transform="rotate(90 110.84 163.862)" fill="#F7FBFF"/>
<circle cx="137.352" cy="163.862" r="5.92272" transform="rotate(90 137.352 163.862)" fill="#F7FBFF"/>
<circle cx="163.862" cy="163.862" r="5.92272" transform="rotate(90 163.862 163.862)" fill="#F7FBFF"/>
<circle cx="190.373" cy="163.862" r="5.92272" transform="rotate(90 190.373 163.862)" fill="#F7FBFF"/>
<circle cx="216.32" cy="163.862" r="5.92272" transform="rotate(90 216.32 163.862)" fill="#F7FBFF"/>
<circle cx="242.832" cy="163.862" r="5.92272" transform="rotate(90 242.832 163.862)" fill="#F7FBFF"/>
<circle cx="5.92298" cy="190.374" r="5.92272" transform="rotate(90 5.92298 190.374)" fill="#F7FBFF"/>
<circle cx="31.8702" cy="190.374" r="5.92272" transform="rotate(90 31.8702 190.374)" fill="#F7FBFF"/>
<circle cx="58.381" cy="190.374" r="5.92272" transform="rotate(90 58.381 190.374)" fill="#F7FBFF"/>
<circle cx="84.8927" cy="190.374" r="5.92272" transform="rotate(90 84.8927 190.374)" fill="#F7FBFF"/>
<circle cx="110.84" cy="190.374" r="5.92272" transform="rotate(90 110.84 190.374)" fill="#F7FBFF"/>
<circle cx="137.352" cy="190.374" r="5.92272" transform="rotate(90 137.352 190.374)" fill="#F7FBFF"/>
<circle cx="163.862" cy="190.374" r="5.92272" transform="rotate(90 163.862 190.374)" fill="#F7FBFF"/>
<circle cx="190.373" cy="190.374" r="5.92272" transform="rotate(90 190.373 190.374)" fill="#F7FBFF"/>
<circle cx="216.32" cy="190.374" r="5.92272" transform="rotate(90 216.32 190.374)" fill="#F7FBFF"/>
<circle cx="242.832" cy="190.374" r="5.92272" transform="rotate(90 242.832 190.374)" fill="#F7FBFF"/>
</svg>
