<svg width="60" height="60" viewBox="0 0 60 60" fill="none" xmlns="http://www.w3.org/2000/svg">
<g clip-path="url(#clip0)">
<path d="M13.1808 18.125C11.3976 18.8302 10.1328 20.5715 10.1328 22.6026C10.1328 25.2556 12.2917 27.414 14.9454 27.414C16.9764 27.414 18.7174 26.1498 19.4229 24.3672H13.1808V18.125Z" fill="#2096F3"/>
<path d="M22.3516 12.4824V15.1954H25.0647C24.5755 13.9588 23.5882 12.9714 22.3516 12.4824Z" fill="#2096F3"/>
<path d="M60 46.3621V38.4238H31.7666V40.7366H28.2374V38.4238H0V46.3621H60Z" fill="#2096F3"/>
<path d="M60 34.896V3.57617H0V34.896H60ZM48.3537 12.3841V9.85846H51.8829V12.3841H48.3537ZM51.8829 15.309V20.2552H48.3537V15.309H51.8829ZM41.2954 12.3841V9.85846H44.8245V12.3841H41.2954ZM44.8245 15.309V20.2552H41.2954V15.309H44.8245ZM37.7662 9.85846V12.3841H34.237V9.85846H37.7662ZM23.286 22.6027C23.286 27.2017 19.5439 30.9433 14.9442 30.9433C10.3445 30.9433 6.60238 27.2017 6.60238 22.6027C6.60238 18.003 10.3445 14.2609 14.9442 14.2609H16.7088V20.8381H23.286V22.6027ZM28.9274 18.7259H18.821V8.61948H20.5856C25.1853 8.61948 28.9274 12.3616 28.9274 16.9613V18.7259ZM34.237 15.309H37.7662V20.2552H34.237V15.309ZM45.9146 30.166L41.5948 27.7061L36.9119 30.5258L35.0914 27.5023L41.545 23.6166L45.6952 25.9799L50.6753 22.4066L52.7327 25.274L45.9146 30.166Z" fill="#2096F3"/>
<path d="M28.1065 49.8926V52.8947H10.4707V56.4239H49.5276V52.8947H31.6356V49.8926H28.1065Z" fill="#2096F3"/>
</g>
<defs>
<clipPath id="clip0">
<rect width="60" height="60" fill="white"/>
</clipPath>
</defs>
</svg>
