<svg width="60" height="60" viewBox="0 0 60 60" fill="none" xmlns="http://www.w3.org/2000/svg">
<g clip-path="url(#clip0)">
<path d="M46.4062 0H13.5938C10.686 0 8.32031 2.36566 8.32031 5.27344V7.41492H51.6797V5.27344C51.6797 2.36566 49.314 0 46.4062 0Z" fill="#2096F3"/>
<path d="M8.32031 10.9316V42.5723H51.6797V10.9316H8.32031ZM39.6218 22.3619L28.3557 33.6279C27.67 34.3138 26.5562 34.3144 25.8698 33.6279L20.3781 28.1362C19.6916 27.4498 19.6916 26.3368 20.3781 25.6503C21.0646 24.9638 22.1775 24.9638 22.864 25.6503L27.1127 29.8991L37.1359 19.876C37.8223 19.1896 38.9353 19.1896 39.6218 19.876C40.3083 20.5623 40.3083 21.6754 39.6218 22.3619Z" fill="#2096F3"/>
<path d="M8.32031 46.0879V54.7277C8.32031 57.6354 10.686 60.0011 13.5938 60.0011H46.4062C49.314 60.0011 51.6797 57.6354 51.6797 54.7277V46.0879H8.32031ZM34.6875 54.8023H25.3125C24.3417 54.8023 23.5547 54.0153 23.5547 53.0445C23.5547 52.0737 24.3417 51.2867 25.3125 51.2867H34.6875C35.6583 51.2867 36.4453 52.0737 36.4453 53.0445C36.4453 54.0153 35.6583 54.8023 34.6875 54.8023Z" fill="#2096F3"/>
</g>
<defs>
<clipPath id="clip0">
<rect width="60" height="60" fill="white"/>
</clipPath>
</defs>
</svg>
