<svg width="60" height="60" viewBox="0 0 60 60" fill="none" xmlns="http://www.w3.org/2000/svg">
<g clip-path="url(#clip0)">
<path d="M43.0202 34.4386H28.6821C26.9742 34.4386 25.5849 33.0493 25.5849 31.3414V17.0267C25.5849 15.7413 25.0287 14.5199 24.0591 13.6763C23.0855 12.8285 21.7923 12.4444 20.511 12.623C14.87 13.408 9.68399 16.2077 5.90973 20.5057C2.09885 24.8453 0 30.4176 0 36.1964C0 49.321 10.6888 59.9988 23.8266 59.9988C29.61 59.9988 35.1874 57.9031 39.5306 54.0977C43.8336 50.328 46.637 45.1489 47.4239 39.5138C47.6028 38.2326 47.2192 36.9394 46.3719 35.9648C45.5278 34.9948 44.3065 34.4386 43.0202 34.4386Z" fill="#2096F3"/>
<path d="M41.2561 2.09688C38.51 0.985891 35.5995 0.276357 32.6158 0.0154316C31.4796 -0.083903 30.3467 0.299703 29.5076 1.06875C28.6722 1.83413 28.1934 2.92269 28.1934 4.05565V15.1596L41.2561 2.09688Z" fill="#2096F3"/>
<path d="M49.9051 7.44043C48.275 6.00351 46.5012 4.75244 44.6193 3.70508L28.1934 20.131V29.1522L49.9051 7.44043Z" fill="#2096F3"/>
<path d="M56.2806 15.3474C55.1971 13.4088 53.8979 11.585 52.4006 9.91602L30.541 31.7751H39.8524L56.2806 15.3474Z" fill="#2096F3"/>
<path d="M59.984 27.3524C59.7217 24.3668 59.0094 21.4536 57.8934 18.707L44.8242 31.7757H55.9438C57.0772 31.7757 58.1657 31.2969 58.9311 30.461C59.7002 29.6219 60.0838 28.4885 59.984 27.3524Z" fill="#2096F3"/>
</g>
<defs>
<clipPath id="clip0">
<rect width="60" height="60" fill="white"/>
</clipPath>
</defs>
</svg>
