<svg width="60" height="60" viewBox="0 0 60 60" fill="none" xmlns="http://www.w3.org/2000/svg">
<g clip-path="url(#clip0)">
<path d="M50.9919 15.1591C50.1955 14.3628 48.9455 14.2454 48.0145 14.8797C44.5076 17.2701 26.9173 29.2902 25.0268 31.1805C22.2853 33.9221 22.2853 38.3828 25.0268 41.1244C26.3976 42.495 28.1983 43.1804 29.9987 43.1804C31.7992 43.1804 33.5998 42.495 34.9706 41.1244C36.861 39.2339 48.8809 21.6436 51.2714 18.1366C51.9055 17.2058 51.7882 15.9556 50.9919 15.1591ZM31.6559 37.8097C30.7422 38.7237 29.2552 38.7237 28.3415 37.8097C27.4276 36.896 27.4275 35.4095 28.341 34.4956C29.0755 33.7698 34.0697 30.208 40.2143 25.9369C35.9433 32.0815 32.3815 37.0754 31.6559 37.8097Z" fill="#2096F3"/>
<path d="M10.8083 47.0536L7.91496 48.465C5.79785 44.6866 4.6875 40.4694 4.6875 36.1523C4.6875 32.9893 5.27074 29.9599 6.33516 27.1661L9.65051 28.7563C9.97746 28.9131 10.3226 28.9874 10.6625 28.9874C11.5359 28.9874 12.3744 28.497 12.7774 27.6567C13.3371 26.4896 12.8449 25.0896 11.6777 24.5298L8.40445 22.9597C12.4729 16.3246 19.512 11.6986 27.6564 10.9474V14.4725C27.6564 15.767 28.7057 16.8163 30.0001 16.8163C31.2946 16.8163 32.3439 15.767 32.3439 14.4725V10.9457C35.1362 11.1998 37.8381 11.9109 40.403 13.0687C41.5825 13.6014 42.9708 13.0765 43.5034 11.897C44.036 10.7171 43.5114 9.32906 42.3315 8.79644C38.4449 7.04203 34.296 6.15234 30 6.15234C21.9867 6.15234 14.4531 9.27281 8.78672 14.9391C3.12059 20.6054 0 28.1391 0 36.1523C0 42.0738 1.75758 47.8329 5.08277 52.8064C5.53066 53.4762 6.27117 53.8478 7.03266 53.8478C7.37883 53.8478 7.72945 53.771 8.05887 53.6104L12.8636 51.2666C14.027 50.6991 14.51 49.296 13.9425 48.1325C13.375 46.9692 11.9718 46.4863 10.8083 47.0536Z" fill="#2096F3"/>
<path d="M57.3564 23.8215C56.8239 22.6418 55.4361 22.1168 54.2559 22.6497C53.0761 23.1823 52.5515 24.5704 53.0841 25.7501C54.5633 29.0264 55.3131 32.5265 55.3131 36.1529C55.3131 40.4765 54.1992 44.7005 52.0758 48.4832L49.0551 47.0447C47.8866 46.4883 46.488 46.9843 45.9313 48.1532C45.3748 49.3218 45.8711 50.7204 47.0398 51.2769L51.9617 53.6207C52.2855 53.7748 52.6287 53.8485 52.9681 53.8485C53.7298 53.8485 54.4704 53.4764 54.9178 52.8072C58.2431 47.8335 60.0006 42.0744 60.0006 36.1529C60.0006 31.857 59.111 27.7081 57.3564 23.8215Z" fill="#2096F3"/>
</g>
<defs>
<clipPath id="clip0">
<rect width="60" height="60" fill="white"/>
</clipPath>
</defs>
</svg>
