<svg width="160" height="160" viewBox="0 0 160 160" fill="none" xmlns="http://www.w3.org/2000/svg">
<g clip-path="url(#clip0)">
<path d="M80 160C124.183 160 160 124.183 160 80C160 35.8172 124.183 0 80 0C35.8172 0 0 35.8172 0 80C0 124.183 35.8172 160 80 160Z" fill="#E24C4B"/>
<path d="M160 79.9997C160 124 124 160 80.0001 160C54.5002 160 32.0002 148.5 17.5 130C31 141 48.5001 147.5 67.4999 147.5C111.5 147.5 147.5 111.5 147.5 67.4999C147.5 48.5001 141 31 130 17.5C148.5 31.9995 160 54.4995 160 79.9997Z" fill="#D1403F"/>
<path d="M116.5 116.5C113.5 119.5 108.5 119.5 105.5 116.5L79.9999 90.9999L54.5 116.5C51.5001 119.5 46.4998 119.5 43.4999 116.5C40.5 113.5 40.5 108.5 43.4999 105.5L68.9999 79.9998L43.4999 54.5C40.5 51.5001 40.5 46.4998 43.4999 43.4999C46.4998 40.5 51.5001 40.5 54.5 43.4999L79.9999 68.9998L105.5 43.4999C108.5 40.5 113.5 40.5 116.5 43.4999C119.5 46.4998 119.5 51.5001 116.5 54.5L91 79.9998L116.5 105.5C119.5 108.5 119.5 113.5 116.5 116.5Z" fill="white"/>
</g>
<defs>
<clipPath id="clip0">
<rect width="160" height="160" fill="white"/>
</clipPath>
</defs>
</svg>
