<svg width="160" height="160" viewBox="0 0 160 160" fill="none" xmlns="http://www.w3.org/2000/svg">
<path d="M80 160C124.183 160 160 124.183 160 80C160 35.8172 124.183 0 80 0C35.8172 0 0 35.8172 0 80C0 124.183 35.8172 160 80 160Z" fill="#2093F1"/>
<path d="M147 36.3867L76.25 109.637L76.375 117.512H79.6251L156.251 55.7618C154 48.8869 150.875 42.2618 147 36.3867Z" fill="#1A85DC"/>
<path d="M158.493 32.887L144.368 18.8868C142.493 17.0117 139.368 17.0117 137.368 18.8868L76.9926 81.2621L50.8674 55.512C48.9923 53.6369 45.8673 53.6369 43.8675 55.512L31.3673 67.8872C29.4922 69.7623 29.4922 72.8873 31.3673 74.7624L73.1177 116.137C74.2428 117.262 75.7427 117.637 77.2427 117.512C78.7427 117.637 80.2426 117.262 81.3678 116.137L158.493 39.8869C160.368 37.8867 160.368 34.7617 158.493 32.887Z" fill="#F2F1EF"/>
<path d="M81.3794 116.129L158.505 39.879C160.38 38.0039 160.38 34.8789 158.505 33.0038L156.255 30.8789L77.1293 108.629L33.3791 66.0042L31.504 67.8793C29.6289 69.7544 29.6289 72.8794 31.504 74.7545L73.2544 116.13C74.3795 117.255 75.8795 117.63 77.3794 117.505C78.7543 117.629 80.2543 117.255 81.3794 116.129Z" fill="#E6E5E3"/>
</svg>
