<svg width="164" height="130" viewBox="0 0 164 130" fill="none" xmlns="http://www.w3.org/2000/svg">
<circle cx="3.90384" cy="3.90475" r="3.90475" transform="rotate(90 3.90384 3.90475)" fill="#E2EEFF"/>
<circle cx="21.0093" cy="3.90475" r="3.90475" transform="rotate(90 21.0093 3.90475)" fill="#E2EEFF"/>
<circle cx="38.4898" cy="3.90475" r="3.90475" transform="rotate(90 38.4898 3.90475)" fill="#E2EEFF"/>
<circle cx="55.9663" cy="3.90475" r="3.90475" transform="rotate(90 55.9663 3.90475)" fill="#E2EEFF"/>
<circle cx="73.0757" cy="3.90475" r="3.90475" transform="rotate(90 73.0757 3.90475)" fill="#E2EEFF"/>
<circle cx="90.5523" cy="3.90475" r="3.90475" transform="rotate(90 90.5523 3.90475)" fill="#E2EEFF"/>
<circle cx="108.033" cy="3.90475" r="3.90475" transform="rotate(90 108.033 3.90475)" fill="#E2EEFF"/>
<circle cx="125.509" cy="3.90475" r="3.90475" transform="rotate(90 125.509 3.90475)" fill="#E2EEFF"/>
<circle cx="142.619" cy="3.90475" r="3.90475" transform="rotate(90 142.619 3.90475)" fill="#E2EEFF"/>
<circle cx="160.095" cy="3.90475" r="3.90475" transform="rotate(90 160.095 3.90475)" fill="#E2EEFF"/>
<circle cx="3.90384" cy="21.3852" r="3.90475" transform="rotate(90 3.90384 21.3852)" fill="#E2EEFF"/>
<circle cx="21.0093" cy="21.3852" r="3.90475" transform="rotate(90 21.0093 21.3852)" fill="#E2EEFF"/>
<circle cx="38.4898" cy="21.3852" r="3.90475" transform="rotate(90 38.4898 21.3852)" fill="#E2EEFF"/>
<circle cx="55.9663" cy="21.3852" r="3.90475" transform="rotate(90 55.9663 21.3852)" fill="#E2EEFF"/>
<circle cx="73.0757" cy="21.3852" r="3.90475" transform="rotate(90 73.0757 21.3852)" fill="#E2EEFF"/>
<circle cx="90.5523" cy="21.3852" r="3.90475" transform="rotate(90 90.5523 21.3852)" fill="#E2EEFF"/>
<circle cx="108.033" cy="21.3852" r="3.90475" transform="rotate(90 108.033 21.3852)" fill="#E2EEFF"/>
<circle cx="125.509" cy="21.3852" r="3.90475" transform="rotate(90 125.509 21.3852)" fill="#E2EEFF"/>
<circle cx="142.619" cy="21.3852" r="3.90475" transform="rotate(90 142.619 21.3852)" fill="#E2EEFF"/>
<circle cx="160.095" cy="21.3852" r="3.90475" transform="rotate(90 160.095 21.3852)" fill="#E2EEFF"/>
<circle cx="3.90384" cy="38.4907" r="3.90475" transform="rotate(90 3.90384 38.4907)" fill="#E2EEFF"/>
<circle cx="21.0093" cy="38.4907" r="3.90475" transform="rotate(90 21.0093 38.4907)" fill="#E2EEFF"/>
<circle cx="38.4898" cy="38.4907" r="3.90475" transform="rotate(90 38.4898 38.4907)" fill="#E2EEFF"/>
<circle cx="55.9663" cy="38.4907" r="3.90475" transform="rotate(90 55.9663 38.4907)" fill="#E2EEFF"/>
<circle cx="73.0757" cy="38.4907" r="3.90475" transform="rotate(90 73.0757 38.4907)" fill="#E2EEFF"/>
<circle cx="90.5523" cy="38.4907" r="3.90475" transform="rotate(90 90.5523 38.4907)" fill="#E2EEFF"/>
<circle cx="108.033" cy="38.4907" r="3.90475" transform="rotate(90 108.033 38.4907)" fill="#E2EEFF"/>
<circle cx="125.509" cy="38.4907" r="3.90475" transform="rotate(90 125.509 38.4907)" fill="#E2EEFF"/>
<circle cx="142.619" cy="38.4907" r="3.90475" transform="rotate(90 142.619 38.4907)" fill="#E2EEFF"/>
<circle cx="160.095" cy="38.4907" r="3.90475" transform="rotate(90 160.095 38.4907)" fill="#E2EEFF"/>
<circle cx="3.90384" cy="55.9673" r="3.90475" transform="rotate(90 3.90384 55.9673)" fill="#E2EEFF"/>
<circle cx="21.0093" cy="55.9673" r="3.90475" transform="rotate(90 21.0093 55.9673)" fill="#E2EEFF"/>
<circle cx="38.4898" cy="55.9673" r="3.90475" transform="rotate(90 38.4898 55.9673)" fill="#E2EEFF"/>
<circle cx="55.9663" cy="55.9673" r="3.90475" transform="rotate(90 55.9663 55.9673)" fill="#E2EEFF"/>
<circle cx="73.0757" cy="55.9673" r="3.90475" transform="rotate(90 73.0757 55.9673)" fill="#E2EEFF"/>
<circle cx="90.5523" cy="55.9673" r="3.90475" transform="rotate(90 90.5523 55.9673)" fill="#E2EEFF"/>
<circle cx="108.033" cy="55.9673" r="3.90475" transform="rotate(90 108.033 55.9673)" fill="#E2EEFF"/>
<circle cx="125.509" cy="55.9673" r="3.90475" transform="rotate(90 125.509 55.9673)" fill="#E2EEFF"/>
<circle cx="142.619" cy="55.9673" r="3.90475" transform="rotate(90 142.619 55.9673)" fill="#E2EEFF"/>
<circle cx="160.095" cy="55.9673" r="3.90475" transform="rotate(90 160.095 55.9673)" fill="#E2EEFF"/>
<circle cx="3.90384" cy="73.4477" r="3.90475" transform="rotate(90 3.90384 73.4477)" fill="#E2EEFF"/>
<circle cx="21.0093" cy="73.4477" r="3.90475" transform="rotate(90 21.0093 73.4477)" fill="#E2EEFF"/>
<circle cx="38.4898" cy="73.4477" r="3.90475" transform="rotate(90 38.4898 73.4477)" fill="#E2EEFF"/>
<circle cx="55.9663" cy="73.4477" r="3.90475" transform="rotate(90 55.9663 73.4477)" fill="#E2EEFF"/>
<circle cx="73.0757" cy="73.4477" r="3.90475" transform="rotate(90 73.0757 73.4477)" fill="#E2EEFF"/>
<circle cx="90.5523" cy="73.4477" r="3.90475" transform="rotate(90 90.5523 73.4477)" fill="#E2EEFF"/>
<circle cx="108.033" cy="73.4477" r="3.90475" transform="rotate(90 108.033 73.4477)" fill="#E2EEFF"/>
<circle cx="125.509" cy="73.4477" r="3.90475" transform="rotate(90 125.509 73.4477)" fill="#E2EEFF"/>
<circle cx="142.619" cy="73.4477" r="3.90475" transform="rotate(90 142.619 73.4477)" fill="#E2EEFF"/>
<circle cx="160.095" cy="73.4477" r="3.90475" transform="rotate(90 160.095 73.4477)" fill="#E2EEFF"/>
<circle cx="3.90384" cy="90.9243" r="3.90475" transform="rotate(90 3.90384 90.9243)" fill="#E2EEFF"/>
<circle cx="21.0093" cy="90.9243" r="3.90475" transform="rotate(90 21.0093 90.9243)" fill="#E2EEFF"/>
<circle cx="38.4898" cy="90.9243" r="3.90475" transform="rotate(90 38.4898 90.9243)" fill="#E2EEFF"/>
<circle cx="55.9663" cy="90.9243" r="3.90475" transform="rotate(90 55.9663 90.9243)" fill="#E2EEFF"/>
<circle cx="73.0757" cy="90.9243" r="3.90475" transform="rotate(90 73.0757 90.9243)" fill="#E2EEFF"/>
<circle cx="90.5523" cy="90.9243" r="3.90475" transform="rotate(90 90.5523 90.9243)" fill="#E2EEFF"/>
<circle cx="108.033" cy="90.9243" r="3.90475" transform="rotate(90 108.033 90.9243)" fill="#E2EEFF"/>
<circle cx="125.509" cy="90.9243" r="3.90475" transform="rotate(90 125.509 90.9243)" fill="#E2EEFF"/>
<circle cx="142.619" cy="90.9243" r="3.90475" transform="rotate(90 142.619 90.9243)" fill="#E2EEFF"/>
<circle cx="160.095" cy="90.9243" r="3.90475" transform="rotate(90 160.095 90.9243)" fill="#E2EEFF"/>
<circle cx="3.90384" cy="108.034" r="3.90475" transform="rotate(90 3.90384 108.034)" fill="#E2EEFF"/>
<circle cx="21.0093" cy="108.034" r="3.90475" transform="rotate(90 21.0093 108.034)" fill="#E2EEFF"/>
<circle cx="38.4898" cy="108.034" r="3.90475" transform="rotate(90 38.4898 108.034)" fill="#E2EEFF"/>
<circle cx="55.9663" cy="108.034" r="3.90475" transform="rotate(90 55.9663 108.034)" fill="#E2EEFF"/>
<circle cx="73.0757" cy="108.034" r="3.90475" transform="rotate(90 73.0757 108.034)" fill="#E2EEFF"/>
<circle cx="90.5523" cy="108.034" r="3.90475" transform="rotate(90 90.5523 108.034)" fill="#E2EEFF"/>
<circle cx="108.033" cy="108.034" r="3.90475" transform="rotate(90 108.033 108.034)" fill="#E2EEFF"/>
<circle cx="125.509" cy="108.034" r="3.90475" transform="rotate(90 125.509 108.034)" fill="#E2EEFF"/>
<circle cx="142.619" cy="108.034" r="3.90475" transform="rotate(90 142.619 108.034)" fill="#E2EEFF"/>
<circle cx="160.095" cy="108.034" r="3.90475" transform="rotate(90 160.095 108.034)" fill="#E2EEFF"/>
<circle cx="3.90384" cy="125.905" r="3.90475" transform="rotate(90 3.90384 125.905)" fill="#E2EEFF"/>
<circle cx="21.0093" cy="125.51" r="3.90475" transform="rotate(90 21.0093 125.51)" fill="#E2EEFF"/>
<circle cx="38.4898" cy="125.51" r="3.90475" transform="rotate(90 38.4898 125.51)" fill="#E2EEFF"/>
<circle cx="55.9663" cy="125.51" r="3.90475" transform="rotate(90 55.9663 125.51)" fill="#E2EEFF"/>
<circle cx="73.0757" cy="125.51" r="3.90475" transform="rotate(90 73.0757 125.51)" fill="#E2EEFF"/>
<circle cx="90.5523" cy="125.51" r="3.90475" transform="rotate(90 90.5523 125.51)" fill="#E2EEFF"/>
<circle cx="108.033" cy="125.51" r="3.90475" transform="rotate(90 108.033 125.51)" fill="#E2EEFF"/>
<circle cx="125.509" cy="125.51" r="3.90475" transform="rotate(90 125.509 125.51)" fill="#E2EEFF"/>
<circle cx="142.904" cy="125.905" r="3.90475" transform="rotate(90 142.904 125.905)" fill="#E2EEFF"/>
<circle cx="160.095" cy="125.51" r="3.90475" transform="rotate(90 160.095 125.51)" fill="#E2EEFF"/>
</svg>
