<svg width="16" height="16" viewBox="0 0 16 16" fill="none" xmlns="http://www.w3.org/2000/svg">
<path d="M13.6905 8.54102H12.4531C12.5792 8.88633 12.6482 9.25899 12.6482 9.64739V14.324C12.6482 14.4859 12.62 14.6413 12.5687 14.7859H14.6143C15.3785 14.7859 16.0001 14.1642 16.0001 13.4001V10.8507C16.0002 9.57714 14.964 8.54102 13.6905 8.54102Z" fill="#8ECDFF"/>
<path d="M3.35204 9.64739C3.35204 9.25895 3.42094 8.88633 3.54707 8.54102H2.30969C1.03613 8.54102 0 9.57714 0 10.8507V13.4001C0 14.1642 0.621657 14.7859 1.38582 14.7859H3.43151C3.38023 14.6413 3.35204 14.4859 3.35204 14.324V9.64739Z" fill="#8ECDFF"/>
<path d="M9.41487 7.33789H6.58605C5.31249 7.33789 4.27637 8.37402 4.27637 9.64758V14.3242C4.27637 14.5792 4.48318 14.7861 4.7383 14.7861H11.2626C11.5177 14.7861 11.7246 14.5793 11.7246 14.3242V9.64758C11.7246 8.37402 10.6884 7.33789 9.41487 7.33789Z" fill="#8ECDFF"/>
<path d="M8.00034 1.21484C6.46872 1.21484 5.22266 2.46091 5.22266 3.99257C5.22266 5.03148 5.79606 5.93882 6.64287 6.4152C7.04453 6.64114 7.50759 6.77026 8.00034 6.77026C8.49309 6.77026 8.95615 6.64114 9.35781 6.4152C10.2047 5.93882 10.778 5.03145 10.778 3.99257C10.778 2.46094 9.53197 1.21484 8.00034 1.21484Z" fill="#8ECDFF"/>
<path d="M3.12227 3.80273C1.9768 3.80273 1.04492 4.73461 1.04492 5.88008C1.04492 7.02555 1.9768 7.95743 3.12227 7.95743C3.41283 7.95743 3.68952 7.89724 3.94086 7.78906C4.37543 7.60196 4.73374 7.27077 4.95546 6.85593C5.11109 6.56477 5.19962 6.23261 5.19962 5.88008C5.19962 4.73464 4.26774 3.80273 3.12227 3.80273Z" fill="#8ECDFF"/>
<path d="M12.8781 3.80273C11.7327 3.80273 10.8008 4.73461 10.8008 5.88008C10.8008 6.23265 10.8893 6.5648 11.0449 6.85593C11.2667 7.2708 11.625 7.60199 12.0595 7.78906C12.3109 7.89724 12.5876 7.95743 12.8781 7.95743C14.0236 7.95743 14.9555 7.02555 14.9555 5.88008C14.9555 4.73461 14.0236 3.80273 12.8781 3.80273Z" fill="#8ECDFF"/>
</svg>
