<svg width="100" height="100" viewBox="0 0 100 100" fill="none" xmlns="http://www.w3.org/2000/svg">
<path d="M97.1407 13.6709C95.6696 12.1973 93.2827 12.1948 91.8116 13.6647L46.5981 58.7588L30.2852 41.0414C28.8757 39.5114 26.4925 39.4121 24.9598 40.8215C23.4284 42.2311 23.3303 44.6155 24.7399 46.1469L43.7098 66.7487C44.4046 67.5037 45.3768 67.9422 46.402 67.9635C46.4296 67.9647 46.4561 67.9647 46.4825 67.9647C47.4788 67.9647 48.4372 67.569 49.1432 66.8655L97.1333 19.0012C98.6081 17.5315 98.6106 15.1446 97.1407 13.6709Z" fill="white"/>
<path d="M96.2311 46.2311C94.1494 46.2311 92.4623 47.9182 92.4623 50C92.4623 73.4146 73.4146 92.4623 50 92.4623C26.5867 92.4623 7.53769 73.4146 7.53769 50C7.53769 26.5867 26.5867 7.53769 50 7.53769C52.0816 7.53769 53.7689 5.85059 53.7689 3.76895C53.7689 1.68711 52.0816 0 50 0C22.4297 0 0 22.4297 0 50C0 77.5691 22.4297 100 50 100C77.5691 100 100 77.5691 100 50C100 47.9184 98.3129 46.2311 96.2311 46.2311Z" fill="white"/>
</svg>
